<svg xmlns="http://www.w3.org/2000/svg" xmlns:xlink="http://www.w3.org/1999/xlink" width="108" height="108" viewBox="0 0 108 108">
  <defs>
    <filter id="Trazado_904820" x="0" y="0" width="108" height="108" filterUnits="userSpaceOnUse">
      <feOffset dy="3" input="SourceAlpha"/>
      <feGaussianBlur stdDeviation="3" result="blur"/>
      <feFlood flood-opacity="0.161"/>
      <feComposite operator="in" in2="blur"/>
      <feComposite in="SourceGraphic"/>
    </filter>
  </defs>
  <g id="Grupo_1219317" data-name="Grupo 1219317" transform="translate(-618 -2803)">
    <g id="Grupo_1218829" data-name="Grupo 1218829" transform="translate(427 1878)">
      <g id="Grupo_1218002" data-name="Grupo 1218002" transform="translate(-14 587.5)">
        <g id="Grupo_1211578" data-name="Grupo 1211578" transform="translate(8 -2328.555)">
          <g id="Grupo_1207774" data-name="Grupo 1207774" transform="translate(206 2670.713)">
            <g id="Grupo_1206630" data-name="Grupo 1206630" transform="translate(0 1.342)">
              <g id="Grupo_1185091" data-name="Grupo 1185091" transform="translate(0 0)">
                <g id="Grupo_1179560" data-name="Grupo 1179560">
                  <g id="Grupo_1173787" data-name="Grupo 1173787" transform="translate(0)">
                    <g id="Grupo_1171910" data-name="Grupo 1171910">
                      <g id="Grupo_1167341" data-name="Grupo 1167341">
                        <g id="Grupo_1166792" data-name="Grupo 1166792">
                          <g transform="matrix(1, 0, 0, 1, -9, -6)" filter="url(#Trazado_904820)">
                            <g id="Trazado_904820-2" data-name="Trazado 904820" transform="translate(9 6)" fill="#fdfaeb">
                              <path d="M 44.99999618530273 88.50006866455078 C 39.12687301635742 88.50006866455078 33.43022155761719 87.35014343261719 28.06829643249512 85.08222961425781 C 22.88852119445801 82.89136505126953 18.23629570007324 79.75465393066406 14.24084663391113 75.75919342041016 C 10.24540901184082 71.76374053955078 7.108683586120605 67.11151885986328 4.917821407318115 61.93174362182617 C 2.649921178817749 56.56980514526367 1.499996185302734 50.87315368652344 1.499996185302734 45.00003051757812 C 1.499996185302734 39.12690734863281 2.649921178817749 33.43025588989258 4.917821407318115 28.06831741333008 C 7.108683586120605 22.88854217529297 10.24540901184082 18.23631858825684 14.24084663391113 14.24086761474609 C 18.23629570007324 10.24541759490967 22.88852119445801 7.10869312286377 28.06829643249512 4.917842864990234 C 33.43022155761719 2.649930477142334 39.12687301635742 1.500005483627319 44.99999618530273 1.500005483627319 C 50.87311935424805 1.500005483627319 56.56977081298828 2.649930477142334 61.93169784545898 4.917842864990234 C 67.11147308349609 7.10869312286377 71.76369476318359 10.24541759490967 75.75914764404297 14.24086761474609 C 79.75458526611328 18.23631858825684 82.89131164550781 22.88854217529297 85.08216857910156 28.06831741333008 C 87.35007476806641 33.43025588989258 88.5 39.12690734863281 88.5 45.00003051757812 C 88.5 50.87315368652344 87.35007476806641 56.56980514526367 85.08216857910156 61.93174362182617 C 82.89131164550781 67.11151885986328 79.75458526611328 71.76374053955078 75.75914764404297 75.75919342041016 C 71.76369476318359 79.75465393066406 67.11147308349609 82.89136505126953 61.93169784545898 85.08222961425781 C 56.56977081298828 87.35014343261719 50.87311935424805 88.50006866455078 44.99999618530273 88.50006866455078 Z" stroke="none"/>
                              <path d="M 44.99999618530273 3 C 39.32870864868164 3 33.82865142822266 4.110061645507812 28.65262603759766 6.299346923828125 C 23.65165710449219 8.414573669433594 19.15968322753906 11.44334411621094 15.301513671875 15.30152893066406 C 11.44333648681641 19.15969848632812 8.414566040039062 23.65167236328125 6.299339294433594 28.65264511108398 C 4.110054016113281 33.82868576049805 2.999992370605469 39.32874298095703 2.999992370605469 45.00003051757812 C 2.999992370605469 50.67131805419922 4.110054016113281 56.1713752746582 6.299339294433594 61.34741592407227 C 8.414566040039062 66.348388671875 11.44333648681641 70.84036254882812 15.301513671875 74.69853210449219 C 19.15968322753906 78.55671691894531 23.65165710449219 81.58548736572266 28.65262603759766 83.70071411132812 C 33.82865142822266 85.88999938964844 39.32870864868164 87.00006103515625 44.99999618530273 87.00006103515625 C 50.67128372192383 87.00006103515625 56.17134094238281 85.88999938964844 61.34736633300781 83.70071411132812 C 66.34834289550781 81.58548736572266 70.84030914306641 78.55671691894531 74.69847869873047 74.69853210449219 C 78.55665588378906 70.84036254882812 81.58542633056641 66.348388671875 83.70065307617188 61.34741592407227 C 85.88993835449219 56.1713752746582 87 50.67131805419922 87 45.00003051757812 C 87 39.32874298095703 85.88993835449219 33.82868576049805 83.70065307617188 28.65264511108398 C 81.58542633056641 23.65167236328125 78.55665588378906 19.15969848632812 74.69847869873047 15.30152893066406 C 70.84030914306641 11.44334411621094 66.34834289550781 8.414573669433594 61.34736633300781 6.299346923828125 C 56.17134094238281 4.110061645507812 50.67128372192383 3 44.99999618530273 3 M 44.99999618530273 0 C 69.85281372070312 0 90 20.14720153808594 90 45.00003051757812 C 90 69.85285949707031 69.85281372070312 90.00006103515625 44.99999618530273 90.00006103515625 C 20.14717864990234 90.00006103515625 -7.62939453125e-06 69.85285949707031 -7.62939453125e-06 45.00003051757812 C -7.62939453125e-06 20.14720153808594 20.14717864990234 0 44.99999618530273 0 Z" stroke="none" fill="#847625"/>
                            </g>
                          </g>
                        </g>
                      </g>
                    </g>
                  </g>
                </g>
              </g>
            </g>
          </g>
        </g>
      </g>
    </g>
    <g id="publico_2_" data-name="publico (2)" transform="translate(637.041 2818.987)">
      <path id="Trazado_1090050" data-name="Trazado 1090050" d="M238.491,146.546v2.927l-1.092,1.092-2.184-1.092-2.184,1.092-1.092-1.092v-2.938a7.6,7.6,0,0,0,6.553,0Zm0,0" transform="translate(-200.274 -126.476)" fill="#f5f7fa"/>
      <path id="Trazado_1090051" data-name="Trazado 1090051" d="M206.136,168.055a3.273,3.273,0,0,1,3.276,3.277v2.182H191.938v-2.182a3.272,3.272,0,0,1,3.276-3.277H197.4l1.092,1.092,2.184-1.092,2.184,1.092,1.092-1.092Zm0,0" transform="translate(-165.735 -145.058)" fill="#e6e9ed"/>
      <path id="Trazado_1090052" data-name="Trazado 1090052" d="M282.122,168.055h-2.184a3.275,3.275,0,0,1,3.274,3.277v2.182H285.4v-2.182A3.272,3.272,0,0,0,282.122,168.055Zm0,0" transform="translate(-241.721 -145.058)" fill="#ccd1d9"/>
      <path id="Trazado_1090053" data-name="Trazado 1090053" d="M284.307,32.895v1.5c-1.88-2.446-3.015-2.894-4.369-2.611l2.173-4.445a8.1,8.1,0,0,1,2.2,5.559Zm0,0" transform="translate(-241.721 -23.55)" fill="#f6bb42"/>
      <path id="Trazado_1090054" data-name="Trazado 1090054" d="M215.228,62.038v2.325A7.659,7.659,0,0,1,207.583,72a7.509,7.509,0,0,1-3.277-.743,7.594,7.594,0,0,1-4.369-6.893V61.241c6.344.732,8.878-1.387,10.922-1.813C212.215,59.144,213.35,59.592,215.228,62.038Zm0,0" transform="translate(-172.642 -51.196)" fill="#eac6bb"/>
      <path id="Trazado_1090055" data-name="Trazado 1090055" d="M254.482,62.91v4.525a7.6,7.6,0,0,1-4.369,6.893,7.372,7.372,0,0,1-2.183.655,7.4,7.4,0,0,0,1.093.087,7.512,7.512,0,0,0,3.276-.743,7.6,7.6,0,0,0,4.369-6.893V65.11a9.182,9.182,0,0,0-2.186-2.2Zm0,0" transform="translate(-214.082 -54.268)" fill="#d3b1a9"/>
      <path id="Trazado_1090056" data-name="Trazado 1090056" d="M193.03,16.946c-.35-.045-.71-.087-1.092-.154v-.546a8.193,8.193,0,0,1,8.191-8.191,8.094,8.094,0,0,1,6,2.632l-2.173,4.445c-2.044.427-4.578,2.546-10.922,1.814Zm0,0" transform="translate(-165.735 -6.901)" fill="#ffce54"/>
      <path id="Trazado_1090057" data-name="Trazado 1090057" d="M388.077,288.09v3.276a3.272,3.272,0,0,1,3.276,3.277V300.1a8.874,8.874,0,0,1-15.29,0v-5.461a6.544,6.544,0,0,1,6.553-6.553Zm0,0" transform="translate(-324.723 -248.706)" fill="#965353"/>
      <path id="Trazado_1090058" data-name="Trazado 1090058" d="M443.34,294.643v8.712a8.688,8.688,0,0,0,3.276-3.251v-5.461a3.272,3.272,0,0,0-3.276-3.277V288.09h-3.277v3.276A3.277,3.277,0,0,0,443.34,294.643Zm0,0" transform="translate(-379.985 -248.706)" fill="#844747"/>
      <path id="Trazado_1090059" data-name="Trazado 1090059" d="M383.708,380.459a8.675,8.675,0,0,0,7.645-4.369,7.6,7.6,0,0,1-4.369,6.89,7.577,7.577,0,0,1-6.553,0,7.6,7.6,0,0,1-4.369-6.89A8.675,8.675,0,0,0,383.708,380.459Zm0,0" transform="translate(-324.723 -324.692)" fill="#eac6bb"/>
      <path id="Trazado_1090060" data-name="Trazado 1090060" d="M411.339,427.3a7.473,7.473,0,0,0,3.276-.745v4.033h-6.553v-4.033A7.476,7.476,0,0,0,411.339,427.3Zm0,0" transform="translate(-352.354 -368.264)" fill="#f5f7fa"/>
      <path id="Trazado_1090061" data-name="Trazado 1090061" d="M379.722,459.367v3.276H360.063v-3.276a3.272,3.272,0,0,1,3.277-3.277h13.106A3.272,3.272,0,0,1,379.722,459.367Zm0,0" transform="translate(-310.907 -393.77)" fill="#e6e9ed"/>
      <path id="Trazado_1090062" data-name="Trazado 1090062" d="M459.319,456.09h-3.28a3.272,3.272,0,0,1,3.276,3.277v3.276h3.28v-3.276A3.272,3.272,0,0,0,459.319,456.09Zm0,0" transform="translate(-393.781 -393.77)" fill="#ccd1d9"/>
      <path id="Trazado_1090063" data-name="Trazado 1090063" d="M232.063,435.366V432.09h6.553v3.276l-3.276,1.092Zm0,0" transform="translate(-200.382 -373.047)" fill="#eac6bb"/>
      <path id="Trazado_1090064" data-name="Trazado 1090064" d="M203.722,290.227v10.88H184.063v-10.88a9.829,9.829,0,0,1,19.659,0Zm0,0" transform="translate(-158.935 -242.064)" fill="#ffce54"/>
      <path id="Trazado_1090065" data-name="Trazado 1090065" d="M245.883,280.4a9.538,9.538,0,0,0-1.609.154,9.824,9.824,0,0,1,8.159,9.675v10.88h3.28v-10.88a9.831,9.831,0,0,0-9.829-9.829Zm0,0" transform="translate(-210.926 -242.064)" fill="#f6bb42"/>
      <path id="Trazado_1090066" data-name="Trazado 1090066" d="M203.722,459.367v3.276H184.063v-3.276a3.272,3.272,0,0,1,3.277-3.277h3.276l3.276,1.092,3.276-1.092h3.276A3.272,3.272,0,0,1,203.722,459.367Zm0,0" transform="translate(-158.935 -393.77)" fill="#48cfad"/>
      <path id="Trazado_1090067" data-name="Trazado 1090067" d="M283.333,456.09h-3.278a3.273,3.273,0,0,1,3.274,3.277v3.276h3.28v-3.276A3.272,3.272,0,0,0,283.333,456.09Zm0,0" transform="translate(-241.822 -393.77)" fill="#37bc9b"/>
      <path id="Trazado_1090068" data-name="Trazado 1090068" d="M27.722,462.643H8.063v-3.276a3.272,3.272,0,0,1,3.276-3.277H24.445a3.272,3.272,0,0,1,3.276,3.277Zm0,0" transform="translate(-6.962 -393.77)" fill="#5d9cec"/>
      <path id="Trazado_1090069" data-name="Trazado 1090069" d="M107.319,456.09h-3.28a3.272,3.272,0,0,1,3.276,3.277v3.276h3.28v-3.276A3.272,3.272,0,0,0,107.319,456.09Zm0,0" transform="translate(-89.836 -393.77)" fill="#4a89dc"/>
      <path id="Trazado_1090070" data-name="Trazado 1090070" d="M59.339,427.3a7.473,7.473,0,0,0,3.276-.745v4.033H56.063v-4.033A7.477,7.477,0,0,0,59.339,427.3Zm0,0" transform="translate(-48.409 -368.264)" fill="#f5f7fa"/>
      <path id="Trazado_1090071" data-name="Trazado 1090071" d="M31.708,383.714a7.477,7.477,0,0,1-3.276-.745,7.6,7.6,0,0,1-4.369-6.891,8.874,8.874,0,0,0,15.29,0,7.6,7.6,0,0,1-4.369,6.891A7.473,7.473,0,0,1,31.708,383.714Zm0,0" transform="translate(-20.777 -324.682)" fill="#eac6bb"/>
      <path id="Trazado_1090072" data-name="Trazado 1090072" d="M39.353,295.735V300.1a8.874,8.874,0,0,1-15.29,0v-4.369a7.645,7.645,0,0,1,15.29,0Zm0,0" transform="translate(-20.778 -248.706)" fill="#656d78"/>
      <path id="Trazado_1090073" data-name="Trazado 1090073" d="M69.93,288.09a7.653,7.653,0,0,0-1.02.074l-.067.011-.147.022c-.125.022-.246.058-.369.083a7.635,7.635,0,0,1,5.966,7.455v7.617a8.667,8.667,0,0,0,3.281-3.249v-4.369a7.639,7.639,0,0,0-7.645-7.645Zm0,0" transform="translate(-59 -248.706)" fill="#434a54"/>
      <path id="Trazado_1090074" data-name="Trazado 1090074" d="M163.214,248.5v3.234h-3.276V232.07h26.234v19.659h-3.3V248.5a9.829,9.829,0,0,0-19.659,0Zm0,0" transform="translate(-138.103 -200.334)" fill="#965353"/>
      <path id="Trazado_1090075" data-name="Trazado 1090075" d="M180.423,208.07v3.277H152.016V208.07Zm0,0" transform="translate(-131.263 -179.61)" fill="#656d78"/>
      <path id="Trazado_1090076" data-name="Trazado 1090076" d="M112.039,379.339v3a7.586,7.586,0,0,0,3.28-6.252A8.669,8.669,0,0,1,112.039,379.339Zm0,0" transform="translate(-96.743 -324.692)" fill="#d3b1a9"/>
      <path id="Trazado_1090077" data-name="Trazado 1090077" d="M464.063,379.34v3a7.587,7.587,0,0,0,3.276-6.25A8.687,8.687,0,0,1,464.063,379.34Zm0,0" transform="translate(-400.709 -324.692)" fill="#d3b1a9"/>
      <path id="Trazado_1090078" data-name="Trazado 1090078" d="M372.751,498.262H353.092a1.092,1.092,0,0,1,0-2.184h19.659a1.092,1.092,0,0,1,0,2.184Zm0,0" transform="translate(-303.945 -428.299)"/>
      <path id="Trazado_1090079" data-name="Trazado 1090079" d="M20.751,498.262H1.092a1.092,1.092,0,1,1,0-2.184H20.751a1.092,1.092,0,1,1,0,2.184Zm0,0" transform="translate(0 -428.299)"/>
      <path id="Trazado_1090080" data-name="Trazado 1090080" d="M460.371,309.541a1.092,1.092,0,0,1-1.092-1.092,2.188,2.188,0,0,0-2.186-2.186,1.092,1.092,0,0,1,0-2.184,4.376,4.376,0,0,1,4.371,4.37A1.091,1.091,0,0,1,460.371,309.541Zm0,0" transform="translate(-393.747 -262.511)"/>
      <path id="Trazado_1090081" data-name="Trazado 1090081" d="M457.092,285.539A1.091,1.091,0,0,1,456,284.447V281.17a1.092,1.092,0,0,1,2.184,0v3.277A1.091,1.091,0,0,1,457.092,285.539Zm0,0" transform="translate(-393.747 -241.788)"/>
      <path id="Trazado_1090082" data-name="Trazado 1090082" d="M369.092,288.815A1.091,1.091,0,0,1,368,287.723a7.655,7.655,0,0,1,7.645-7.645,1.092,1.092,0,0,1,0,2.184,5.467,5.467,0,0,0-5.461,5.461A1.091,1.091,0,0,1,369.092,288.815Zm0,0" transform="translate(-317.76 -241.788)"/>
      <path id="Trazado_1090083" data-name="Trazado 1090083" d="M422.553,282.262h-5.461a1.092,1.092,0,0,1,0-2.184h5.461a1.092,1.092,0,0,1,0,2.184Zm0,0" transform="translate(-359.207 -241.788)"/>
      <path id="Trazado_1090084" data-name="Trazado 1090084" d="M376.731,374.632a9.72,9.72,0,0,1-8.623-4.972,1.092,1.092,0,0,1,1.952-.982,7.787,7.787,0,0,0,13.337,0,1.092,1.092,0,0,1,1.954.978,9.712,9.712,0,0,1-8.621,4.972Zm0,0" transform="translate(-317.754 -317.775)"/>
      <path id="Trazado_1090085" data-name="Trazado 1090085" d="M369.092,335.7A1.091,1.091,0,0,1,368,334.6v-5.465a1.092,1.092,0,0,1,2.184,0V334.6A1.091,1.091,0,0,1,369.092,335.7Zm0,0" transform="translate(-317.76 -283.208)"/>
      <path id="Trazado_1090086" data-name="Trazado 1090086" d="M481.092,335.7A1.091,1.091,0,0,1,480,334.6v-5.465a1.092,1.092,0,0,1,2.184,0V334.6A1.091,1.091,0,0,1,481.092,335.7Zm0,0" transform="translate(-414.47 -283.208)"/>
      <path id="Trazado_1090087" data-name="Trazado 1090087" d="M353.092,453.507A1.091,1.091,0,0,1,352,452.414a4.373,4.373,0,0,1,4.369-4.368,1.092,1.092,0,0,1,0,2.184,2.186,2.186,0,0,0-2.184,2.183A1.091,1.091,0,0,1,353.092,453.507Zm0,0" transform="translate(-303.945 -386.825)"/>
      <path id="Trazado_1090088" data-name="Trazado 1090088" d="M380.369,450.282h-3.276a1.092,1.092,0,0,1,0-2.184h3.276a1.092,1.092,0,0,1,0,2.184Zm0,0" transform="translate(-324.668 -386.869)"/>
      <path id="Trazado_1090089" data-name="Trazado 1090089" d="M353.092,477.505A1.091,1.091,0,0,1,352,476.413v-3.282a1.092,1.092,0,1,1,2.184,0v3.282A1.091,1.091,0,0,1,353.092,477.505Zm0,0" transform="translate(-303.945 -407.542)"/>
      <path id="Trazado_1090090" data-name="Trazado 1090090" d="M476.369,453.507a1.091,1.091,0,0,1-1.092-1.092,2.186,2.186,0,0,0-2.184-2.183,1.092,1.092,0,0,1,0-2.184,4.373,4.373,0,0,1,4.369,4.368A1.091,1.091,0,0,1,476.369,453.507Zm0,0" transform="translate(-407.562 -386.825)"/>
      <path id="Trazado_1090091" data-name="Trazado 1090091" d="M452.369,450.282h-3.276a1.092,1.092,0,1,1,0-2.184h3.276a1.092,1.092,0,0,1,0,2.184Zm0,0" transform="translate(-386.839 -386.869)"/>
      <path id="Trazado_1090092" data-name="Trazado 1090092" d="M497.092,477.505A1.091,1.091,0,0,1,496,476.413v-3.282a1.092,1.092,0,0,1,2.184,0v3.282A1.091,1.091,0,0,1,497.092,477.505Zm0,0" transform="translate(-428.286 -407.542)"/>
      <path id="Trazado_1090093" data-name="Trazado 1090093" d="M401.092,424.833A1.091,1.091,0,0,1,400,423.741v-4.024a1.092,1.092,0,0,1,2.184,0v4.024A1.091,1.091,0,0,1,401.092,424.833Zm0,0" transform="translate(-345.392 -361.42)"/>
      <path id="Trazado_1090094" data-name="Trazado 1090094" d="M449.092,424.825A1.091,1.091,0,0,1,448,423.733v-4.016a1.092,1.092,0,0,1,2.184,0v4.016A1.091,1.091,0,0,1,449.092,424.825Zm0,0" transform="translate(-386.839 -361.42)"/>
      <path id="Trazado_1090095" data-name="Trazado 1090095" d="M376.737,377.866A8.746,8.746,0,0,1,368,369.132a1.092,1.092,0,0,1,2.184,0,6.553,6.553,0,0,0,13.106,0,1.092,1.092,0,0,1,2.184,0A8.746,8.746,0,0,1,376.737,377.866Zm0,0" transform="translate(-317.76 -317.74)"/>
      <path id="Trazado_1090096" data-name="Trazado 1090096" d="M407.645,450.223h-6.553a1.092,1.092,0,1,1,0-2.184h6.553a1.092,1.092,0,0,1,0,2.184Zm0,0" transform="translate(-345.392 -386.818)"/>
      <path id="Trazado_1090097" data-name="Trazado 1090097" d="M24.731,374.632a9.72,9.72,0,0,1-8.623-4.972,1.092,1.092,0,0,1,1.952-.982,7.536,7.536,0,0,0,6.67,3.769,7.583,7.583,0,0,0,6.668-3.764,1.092,1.092,0,0,1,1.954.978,9.712,9.712,0,0,1-8.621,4.972Zm0,0" transform="translate(-13.81 -317.775)"/>
      <path id="Trazado_1090098" data-name="Trazado 1090098" d="M17.092,342.6A1.091,1.091,0,0,1,16,341.512v-4.373a1.092,1.092,0,0,1,2.184,0v4.373A1.091,1.091,0,0,1,17.092,342.6Zm0,0" transform="translate(-13.816 -290.115)"/>
      <path id="Trazado_1090099" data-name="Trazado 1090099" d="M129.092,342.6A1.091,1.091,0,0,1,128,341.512v-4.373a1.092,1.092,0,0,1,2.184,0v4.373A1.091,1.091,0,0,1,129.092,342.6Zm0,0" transform="translate(-110.525 -290.115)"/>
      <path id="Trazado_1090100" data-name="Trazado 1090100" d="M1.092,453.507A1.091,1.091,0,0,1,0,452.414a4.373,4.373,0,0,1,4.369-4.368,1.092,1.092,0,1,1,0,2.184,2.186,2.186,0,0,0-2.184,2.183A1.091,1.091,0,0,1,1.092,453.507Zm0,0" transform="translate(0 -386.825)"/>
      <path id="Trazado_1090101" data-name="Trazado 1090101" d="M28.369,450.282H25.092a1.092,1.092,0,1,1,0-2.184h3.276a1.092,1.092,0,1,1,0,2.184Zm0,0" transform="translate(-20.724 -386.869)"/>
      <path id="Trazado_1090102" data-name="Trazado 1090102" d="M1.092,477.505A1.091,1.091,0,0,1,0,476.413v-3.282a1.092,1.092,0,0,1,2.184,0v3.282A1.091,1.091,0,0,1,1.092,477.505Zm0,0" transform="translate(0 -407.542)"/>
      <path id="Trazado_1090103" data-name="Trazado 1090103" d="M124.369,453.507a1.091,1.091,0,0,1-1.092-1.092,2.186,2.186,0,0,0-2.184-2.183,1.092,1.092,0,1,1,0-2.184,4.373,4.373,0,0,1,4.369,4.368A1.091,1.091,0,0,1,124.369,453.507Zm0,0" transform="translate(-103.618 -386.825)"/>
      <path id="Trazado_1090104" data-name="Trazado 1090104" d="M100.369,450.282H97.092a1.092,1.092,0,1,1,0-2.184h3.276a1.092,1.092,0,1,1,0,2.184Zm0,0" transform="translate(-82.894 -386.869)"/>
      <path id="Trazado_1090105" data-name="Trazado 1090105" d="M145.092,477.505A1.091,1.091,0,0,1,144,476.413v-3.282a1.092,1.092,0,0,1,2.184,0v3.282A1.091,1.091,0,0,1,145.092,477.505Zm0,0" transform="translate(-124.341 -407.542)"/>
      <path id="Trazado_1090106" data-name="Trazado 1090106" d="M49.092,424.833A1.091,1.091,0,0,1,48,423.741v-4.024a1.092,1.092,0,0,1,2.184,0v4.024A1.091,1.091,0,0,1,49.092,424.833Zm0,0" transform="translate(-41.447 -361.42)"/>
      <path id="Trazado_1090107" data-name="Trazado 1090107" d="M97.092,424.825A1.091,1.091,0,0,1,96,423.733v-4.016a1.092,1.092,0,1,1,2.184,0v4.016A1.091,1.091,0,0,1,97.092,424.825Zm0,0" transform="translate(-82.894 -361.42)"/>
      <path id="Trazado_1090108" data-name="Trazado 1090108" d="M24.737,377.866A8.746,8.746,0,0,1,16,369.132a1.092,1.092,0,0,1,2.184,0,6.553,6.553,0,0,0,13.106,0,1.092,1.092,0,0,1,2.184,0A8.746,8.746,0,0,1,24.737,377.866Zm0,0" transform="translate(-13.816 -317.74)"/>
      <path id="Trazado_1090109" data-name="Trazado 1090109" d="M32.382,289.9a1.091,1.091,0,0,1-1.092-1.092,6.553,6.553,0,0,0-13.106,0,1.092,1.092,0,0,1-2.184,0,8.737,8.737,0,0,1,17.475,0A1.091,1.091,0,0,1,32.382,289.9Zm0,0" transform="translate(-13.816 -241.788)"/>
      <path id="Trazado_1090110" data-name="Trazado 1090110" d="M55.645,450.223H49.092a1.092,1.092,0,1,1,0-2.184h6.553a1.092,1.092,0,0,1,0,2.184Zm0,0" transform="translate(-41.447 -386.818)"/>
      <path id="Trazado_1090111" data-name="Trazado 1090111" d="M321.092,357.474A1.091,1.091,0,0,1,320,356.382V345.506a1.092,1.092,0,0,1,2.184,0v10.876A1.091,1.091,0,0,1,321.092,357.474Zm0,0" transform="translate(-276.313 -297.34)"/>
      <path id="Trazado_1090112" data-name="Trazado 1090112" d="M196.751,426.262H177.092a1.092,1.092,0,0,1,0-2.184h19.659a1.092,1.092,0,0,1,0,2.184Zm0,0" transform="translate(-151.972 -366.129)"/>
      <path id="Trazado_1090113" data-name="Trazado 1090113" d="M177.092,357.474A1.091,1.091,0,0,1,176,356.382V345.506a1.092,1.092,0,1,1,2.184,0v10.876A1.091,1.091,0,0,1,177.092,357.474Zm0,0" transform="translate(-151.972 -297.34)"/>
      <path id="Trazado_1090114" data-name="Trazado 1090114" d="M196.751,284.428a1.091,1.091,0,0,1-1.092-1.092,8.737,8.737,0,0,0-17.475,0,1.092,1.092,0,1,1-2.184,0,10.922,10.922,0,0,1,21.843,0A1.091,1.091,0,0,1,196.751,284.428Zm0,0" transform="translate(-151.972 -235.17)"/>
      <path id="Trazado_1090115" data-name="Trazado 1090115" d="M177.092,453.507A1.091,1.091,0,0,1,176,452.414a4.373,4.373,0,0,1,4.369-4.368,1.092,1.092,0,0,1,0,2.184,2.186,2.186,0,0,0-2.184,2.183A1.091,1.091,0,0,1,177.092,453.507Zm0,0" transform="translate(-151.972 -386.825)"/>
      <path id="Trazado_1090116" data-name="Trazado 1090116" d="M204.369,450.282h-3.276a1.092,1.092,0,1,1,0-2.184h3.276a1.092,1.092,0,0,1,0,2.184Zm0,0" transform="translate(-172.696 -386.869)"/>
      <path id="Trazado_1090117" data-name="Trazado 1090117" d="M177.092,477.505A1.091,1.091,0,0,1,176,476.413v-3.282a1.092,1.092,0,1,1,2.184,0v3.282A1.091,1.091,0,0,1,177.092,477.505Zm0,0" transform="translate(-151.972 -407.542)"/>
      <path id="Trazado_1090118" data-name="Trazado 1090118" d="M300.369,453.507a1.091,1.091,0,0,1-1.092-1.092,2.186,2.186,0,0,0-2.184-2.183,1.092,1.092,0,1,1,0-2.184,4.373,4.373,0,0,1,4.369,4.368A1.091,1.091,0,0,1,300.369,453.507Zm0,0" transform="translate(-255.59 -386.825)"/>
      <path id="Trazado_1090119" data-name="Trazado 1090119" d="M276.369,450.282h-3.276a1.092,1.092,0,1,1,0-2.184h3.276a1.092,1.092,0,0,1,0,2.184Zm0,0" transform="translate(-234.866 -386.869)"/>
      <path id="Trazado_1090120" data-name="Trazado 1090120" d="M321.092,477.505A1.091,1.091,0,0,1,320,476.413v-3.282a1.092,1.092,0,0,1,2.184,0v3.282A1.091,1.091,0,0,1,321.092,477.505Zm0,0" transform="translate(-276.313 -407.542)"/>
      <path id="Trazado_1090121" data-name="Trazado 1090121" d="M196.751,498.262H177.092a1.092,1.092,0,0,1,0-2.184h19.659a1.092,1.092,0,0,1,0,2.184Zm0,0" transform="translate(-151.972 -428.299)"/>
      <path id="Trazado_1090122" data-name="Trazado 1090122" d="M225.092,438.649A1.091,1.091,0,0,1,224,437.557v-1.839a1.092,1.092,0,0,1,2.184,0v1.839A1.091,1.091,0,0,1,225.092,438.649Zm0,0" transform="translate(-193.419 -375.236)"/>
      <path id="Trazado_1090123" data-name="Trazado 1090123" d="M273.092,438.641A1.091,1.091,0,0,1,272,437.548v-1.831a1.092,1.092,0,0,1,2.184,0v1.831A1.091,1.091,0,0,1,273.092,438.641Zm0,0" transform="translate(-234.866 -375.236)"/>
      <path id="Trazado_1090124" data-name="Trazado 1090124" d="M228.37,451.309a1.1,1.1,0,0,1-.345-.057l-3.276-1.092a1.092,1.092,0,1,1,.691-2.072l3.276,1.092a1.092,1.092,0,0,1-.346,2.128Zm0,0" transform="translate(-193.421 -386.812)"/>
      <path id="Trazado_1090125" data-name="Trazado 1090125" d="M249.093,451.309a1.092,1.092,0,0,1-.345-2.128l3.276-1.092a1.092,1.092,0,1,1,.691,2.072l-3.276,1.092A1.109,1.109,0,0,1,249.093,451.309Zm0,0" transform="translate(-214.144 -386.812)"/>
      <path id="Trazado_1090126" data-name="Trazado 1090126" d="M193.092,70.445A1.091,1.091,0,0,1,192,69.352V66.222a1.092,1.092,0,1,1,2.184,0v3.131A1.091,1.091,0,0,1,193.092,70.445Zm0,0" transform="translate(-165.788 -56.184)"/>
      <path id="Trazado_1090127" data-name="Trazado 1090127" d="M305.092,66.07A1.091,1.091,0,0,1,304,64.978V61.155a1.092,1.092,0,0,1,2.184,0v3.823A1.091,1.091,0,0,1,305.092,66.07Zm0,0" transform="translate(-262.498 -51.809)"/>
      <path id="Trazado_1090128" data-name="Trazado 1090128" d="M201.475,10.438a1.091,1.091,0,0,1-1.092-1.092,7.1,7.1,0,0,0-14.2,0,1.092,1.092,0,1,1-2.184,0,9.283,9.283,0,1,1,18.567,0A1.091,1.091,0,0,1,201.475,10.438Zm0,0" transform="translate(-158.88)"/>
      <path id="Trazado_1090129" data-name="Trazado 1090129" d="M201.479,56.256a1.09,1.09,0,0,1-.868-.428c-2.11-2.755-2.682-2.526-4.821-1.679a18.418,18.418,0,0,1-10.865,1.138,1.092,1.092,0,0,1,.342-2.157,16.268,16.268,0,0,0,9.719-1.013c2.63-1.042,4.395-1.487,7.359,2.382a1.092,1.092,0,0,1-.2,1.531,1.079,1.079,0,0,1-.663.226Zm0,0" transform="translate(-158.884 -44.321)"/>
      <path id="Trazado_1090130" data-name="Trazado 1090130" d="M273.094,25.93a1.075,1.075,0,0,1-.479-.113,1.092,1.092,0,0,1-.5-1.461l2.184-4.447a1.092,1.092,0,1,1,1.96.962l-2.184,4.447a1.092,1.092,0,0,1-.982.612Zm0,0" transform="translate(-234.87 -16.609)"/>
      <path id="Trazado_1090131" data-name="Trazado 1090131" d="M185.092,165.492A1.091,1.091,0,0,1,184,164.4a4.373,4.373,0,0,1,4.369-4.369,1.092,1.092,0,0,1,0,2.184,2.187,2.187,0,0,0-2.184,2.184A1.091,1.091,0,0,1,185.092,165.492Zm0,0" transform="translate(-158.88 -138.13)"/>
      <path id="Trazado_1090132" data-name="Trazado 1090132" d="M211.277,162.262h-2.184a1.092,1.092,0,0,1,0-2.184h2.184a1.092,1.092,0,0,1,0,2.184Zm0,0" transform="translate(-179.604 -138.17)"/>
      <path id="Trazado_1090133" data-name="Trazado 1090133" d="M185.092,188.4A1.091,1.091,0,0,1,184,187.31v-2.186a1.092,1.092,0,1,1,2.184,0v2.186A1.091,1.091,0,0,1,185.092,188.4Zm0,0" transform="translate(-158.88 -158.853)"/>
      <path id="Trazado_1090134" data-name="Trazado 1090134" d="M292.369,165.492a1.091,1.091,0,0,1-1.092-1.092,2.186,2.186,0,0,0-2.184-2.184,1.092,1.092,0,0,1,0-2.184,4.373,4.373,0,0,1,4.369,4.369A1.091,1.091,0,0,1,292.369,165.492Zm0,0" transform="translate(-248.682 -138.13)"/>
      <path id="Trazado_1090135" data-name="Trazado 1090135" d="M275.277,162.262h-2.184a1.092,1.092,0,1,1,0-2.184h2.184a1.092,1.092,0,0,1,0,2.184Zm0,0" transform="translate(-234.866 -138.17)"/>
      <path id="Trazado_1090136" data-name="Trazado 1090136" d="M313.092,188.4A1.091,1.091,0,0,1,312,187.31v-2.186a1.092,1.092,0,0,1,2.184,0v2.186A1.091,1.091,0,0,1,313.092,188.4Zm0,0" transform="translate(-269.406 -158.853)"/>
      <path id="Trazado_1090137" data-name="Trazado 1090137" d="M225.092,143.724A1.091,1.091,0,0,1,224,142.632V139.7a1.092,1.092,0,0,1,2.184,0v2.931A1.091,1.091,0,0,1,225.092,143.724Zm0,0" transform="translate(-193.419 -119.632)"/>
      <path id="Trazado_1090138" data-name="Trazado 1090138" d="M273.092,143.718A1.091,1.091,0,0,1,272,142.626V139.7a1.092,1.092,0,1,1,2.184,0v2.925A1.091,1.091,0,0,1,273.092,143.718Zm0,0" transform="translate(-234.866 -119.632)"/>
      <path id="Trazado_1090139" data-name="Trazado 1090139" d="M200.737,97.856A8.745,8.745,0,0,1,192,89.123a1.092,1.092,0,1,1,2.184,0,6.553,6.553,0,0,0,13.106,0,1.092,1.092,0,1,1,2.184,0A8.745,8.745,0,0,1,200.737,97.856Zm0,0" transform="translate(-165.788 -75.959)"/>
      <path id="Trazado_1090140" data-name="Trazado 1090140" d="M233.087,163.338a1.093,1.093,0,0,1-.491-2.07l2.184-1.092a1.092,1.092,0,1,1,.977,1.954l-2.184,1.092A1.073,1.073,0,0,1,233.087,163.338Zm0,0" transform="translate(-200.321 -138.156)"/>
      <path id="Trazado_1090141" data-name="Trazado 1090141" d="M265.09,163.314a1.092,1.092,0,0,1-.773-1.863l1.092-1.1a1.092,1.092,0,1,1,1.546,1.542l-1.092,1.1A1.089,1.089,0,0,1,265.09,163.314Zm0,0" transform="translate(-227.956 -138.131)"/>
      <path id="Trazado_1090142" data-name="Trazado 1090142" d="M226.182,163.3a1.085,1.085,0,0,1-.773-.321l-1.092-1.1a1.092,1.092,0,1,1,1.547-1.542l1.092,1.1a1.092,1.092,0,0,1-.773,1.863Zm0,0" transform="translate(-193.417 -138.12)"/>
      <path id="Trazado_1090143" data-name="Trazado 1090143" d="M251.276,163.345a1.089,1.089,0,0,1-.487-.115l-2.184-1.092a1.092,1.092,0,1,1,.978-1.954l2.184,1.092a1.092,1.092,0,0,1-.491,2.069Zm0,0" transform="translate(-214.144 -138.162)"/>
      <path id="Trazado_1090144" data-name="Trazado 1090144" d="M173.6,205.531H145.2a1.091,1.091,0,0,1-1.092-1.092v-3.275a1.091,1.091,0,0,1,1.092-1.092h28.4a1.092,1.092,0,0,1,1.092,1.092v3.275A1.092,1.092,0,0,1,173.6,205.531Zm-27.311-2.184h26.218v-1.091H146.289Zm0,0" transform="translate(-124.432 -172.703)"/>
      <path id="Trazado_1090145" data-name="Trazado 1090145" d="M153.069,244.706a1.091,1.091,0,0,1-1.092-1.092v-18.6a1.092,1.092,0,0,1,2.184,0v18.6a1.092,1.092,0,0,1-1.092,1.093Zm0,0" transform="translate(-131.229 -193.298)"/>
      <path id="Trazado_1090146" data-name="Trazado 1090146" d="M345.237,245.806a1.091,1.091,0,0,1-1.092-1.092V225.022a1.092,1.092,0,0,1,2.184,0v19.691A1.092,1.092,0,0,1,345.237,245.806Zm0,0" transform="translate(-297.162 -193.305)"/>
      <path id="Trazado_1090147" data-name="Trazado 1090147" d="M3.283,370.282H1.1a1.092,1.092,0,1,1,0-2.184H3.283a1.092,1.092,0,1,1,0,2.184Zm0,0" transform="translate(-0.007 -317.791)"/>
      <path id="Trazado_1090148" data-name="Trazado 1090148" d="M135.645,370.289h-6.553a1.092,1.092,0,0,1,0-2.184h6.553a1.092,1.092,0,0,1,0,2.184Zm0,0" transform="translate(-110.525 -317.797)"/>
      <path id="Trazado_1090149" data-name="Trazado 1090149" d="M327.645,370.289h-6.553a1.092,1.092,0,1,1,0-2.184h6.553a1.092,1.092,0,0,1,0,2.184Zm0,0" transform="translate(-276.313 -317.797)"/>
      <path id="Trazado_1090150" data-name="Trazado 1090150" d="M483.294,370.282h-2.2a1.092,1.092,0,0,1,0-2.184h2.2a1.092,1.092,0,0,1,0,2.184Zm0,0" transform="translate(-414.47 -317.791)"/>
      <path id="Trazado_1090151" data-name="Trazado 1090151" d="M161.229,167.679a1.091,1.091,0,0,1-1.092-1.092v-5.463a1.092,1.092,0,0,1,2.184,0v5.463A1.091,1.091,0,0,1,161.229,167.679Zm0,0" transform="translate(-138.275 -138.13)"/>
      <path id="Trazado_1090152" data-name="Trazado 1090152" d="M161.227,148.413a1.092,1.092,0,0,1-.772-1.864l2.182-2.182a1.092,1.092,0,1,1,1.544,1.544L162,148.093A1.091,1.091,0,0,1,161.227,148.413Zm0,0" transform="translate(-138.272 -124.327)"/>
      <path id="Trazado_1090153" data-name="Trazado 1090153" d="M337.213,167.679a1.091,1.091,0,0,1-1.092-1.092v-5.463a1.092,1.092,0,0,1,2.184,0v5.463A1.091,1.091,0,0,1,337.213,167.679Zm0,0" transform="translate(-290.234 -138.13)"/>
      <path id="Trazado_1090154" data-name="Trazado 1090154" d="M323.408,148.413a1.089,1.089,0,0,1-.772-.32l-2.182-2.182A1.092,1.092,0,0,1,322,144.367l2.182,2.182a1.092,1.092,0,0,1-.772,1.864Zm0,0" transform="translate(-276.429 -124.327)"/>
    </g>
  </g>
</svg>
