<svg xmlns="http://www.w3.org/2000/svg" xmlns:xlink="http://www.w3.org/1999/xlink" width="110" height="110" viewBox="0 0 110 110">
  <defs>
    <filter id="Trazado_982547" x="0" y="0" width="110" height="110" filterUnits="userSpaceOnUse">
      <feOffset dy="3" input="SourceAlpha"/>
      <feGaussianBlur stdDeviation="3" result="blur"/>
      <feFlood flood-opacity="0.161"/>
      <feComposite operator="in" in2="blur"/>
      <feComposite in="SourceGraphic"/>
    </filter>
  </defs>
  <g id="Grupo_1219329" data-name="Grupo 1219329" transform="translate(-1114 -4548.049)">
    <g id="Grupo_1219271" data-name="Grupo 1219271" transform="translate(1123 4554.049)">
      <g id="Grupo_1211001" data-name="Grupo 1211001" transform="translate(0 0)">
        <g id="Grupo_1200151" data-name="Grupo 1200151" transform="translate(0 0)">
          <g id="Grupo_1185952" data-name="Grupo 1185952" transform="translate(0 0)">
            <g id="Grupo_1184115" data-name="Grupo 1184115" transform="translate(0 0)">
              <g id="Grupo_1183744" data-name="Grupo 1183744">
                <g id="Grupo_1181546" data-name="Grupo 1181546">
                  <g id="Grupo_1177563" data-name="Grupo 1177563">
                    <g id="Grupo_1173148" data-name="Grupo 1173148">
                      <g id="Grupo_1163803" data-name="Grupo 1163803" transform="translate(0 0)">
                        <g id="Grupo_1163015" data-name="Grupo 1163015" transform="translate(0 0)">
                          <g id="Grupo_1157017" data-name="Grupo 1157017">
                            <g id="Grupo_1155793" data-name="Grupo 1155793">
                              <g id="Grupo_1154704" data-name="Grupo 1154704">
                                <g id="Grupo_1150790" data-name="Grupo 1150790">
                                  <g id="Grupo_1154214" data-name="Grupo 1154214">
                                    <g id="Grupo_1152583" data-name="Grupo 1152583">
                                      <g id="Grupo_1146973" data-name="Grupo 1146973">
                                        <g id="Grupo_1146954" data-name="Grupo 1146954">
                                          <g transform="matrix(1, 0, 0, 1, -9, -6)" filter="url(#Trazado_982547)">
                                            <g id="Trazado_982547-2" data-name="Trazado 982547" transform="translate(9 6)" fill="#f2d944">
                                              <path d="M 46.00000762939453 90.49987030029297 C 39.99188613891602 90.49987030029297 34.16427612304688 89.32350921630859 28.67906188964844 87.00345611572266 C 23.38020706176758 84.76224517822266 18.62104797363281 81.55341339111328 14.53375434875488 77.46613311767578 C 10.44647407531738 73.37885284423828 7.237647533416748 68.61969757080078 4.996420860290527 63.32085418701172 C 2.676367521286011 57.83565521240234 1.500007629394531 52.008056640625 1.500007629394531 45.99993515014648 C 1.500007629394531 39.99181365966797 2.676367521286011 34.16421508789062 4.996420860290527 28.67901420593262 C 7.237647533416748 23.38017463684082 10.44647407531738 18.62101554870605 14.53375434875488 14.53373527526855 C 18.62104797363281 10.44645500183105 23.38020706176758 7.23762845993042 28.67906188964844 4.996415138244629 C 34.16427612304688 2.676361799240112 39.99188613891602 1.500001788139343 46.00000762939453 1.500001788139343 C 52.00812911987305 1.500001788139343 57.83573913574219 2.676361799240112 63.32095336914062 4.996415138244629 C 68.61980438232422 7.23762845993042 73.37896728515625 10.44645500183105 77.46626281738281 14.53373527526855 C 81.55354309082031 18.62101554870605 84.76236724853516 23.38017463684082 87.00359344482422 28.67901420593262 C 89.32364654541016 34.16421508789062 90.50000762939453 39.99181365966797 90.50000762939453 45.99993515014648 C 90.50000762939453 52.008056640625 89.32364654541016 57.83565521240234 87.00359344482422 63.32085418701172 C 84.76236724853516 68.61969757080078 81.55354309082031 73.37885284423828 77.46626281738281 77.46613311767578 C 73.37896728515625 81.55341339111328 68.61980438232422 84.76224517822266 63.32095336914062 87.00345611572266 C 57.83573913574219 89.32350921630859 52.00812911987305 90.49987030029297 46.00000762939453 90.49987030029297 Z" stroke="none"/>
                                              <path d="M 46.00000762939453 2.999992370605469 C 40.19372177124023 2.999992370605469 34.56270599365234 4.136489868164062 29.26337814331055 6.377906799316406 C 24.14333343505859 8.543502807617188 19.54441833496094 11.64437866210938 15.59440612792969 15.59437561035156 C 11.6444091796875 19.54439544677734 8.543525695800781 24.14329528808594 6.377922058105469 29.26333618164062 C 4.136505126953125 34.56264877319336 3.000007629394531 40.19366455078125 3.000007629394531 45.99993515014648 C 3.000007629394531 51.80620574951172 4.136505126953125 57.43720626831055 6.377922058105469 62.73651885986328 C 8.543525695800781 67.8565673828125 11.6444091796875 72.45545959472656 15.59440612792969 76.40547943115234 C 19.54441833496094 80.35547637939453 24.14333343505859 83.45635223388672 29.26337814331055 85.6219482421875 C 34.56270599365234 87.86336517333984 40.19372177124023 88.99986267089844 46.00000762939453 88.99986267089844 C 51.80629348754883 88.99986267089844 57.43730926513672 87.86336517333984 62.73662185668945 85.6219482421875 C 67.85668182373047 83.45635223388672 72.45558166503906 80.35547637939453 76.40559387207031 76.40547943115234 C 80.35560607910156 72.45545959472656 83.45648193359375 67.8565673828125 85.62207794189453 62.73651885986328 C 87.86351013183594 57.43720626831055 89.00000762939453 51.80620574951172 89.00000762939453 45.99993515014648 C 89.00000762939453 40.19366455078125 87.86351013183594 34.56264877319336 85.62207794189453 29.26333618164062 C 83.45648193359375 24.14329528808594 80.35560607910156 19.54439544677734 76.40559387207031 15.59437561035156 C 72.45558166503906 11.64437866210938 67.85668182373047 8.543502807617188 62.73662185668945 6.377906799316406 C 57.43730926513672 4.136489868164062 51.80629348754883 2.999992370605469 46.00000762939453 2.999992370605469 M 46.00000762939453 -7.62939453125e-06 C 71.40509033203125 -7.62939453125e-06 92.00000762939453 20.59486389160156 92.00000762939453 45.99993515014648 C 92.00000762939453 71.40499114990234 71.40509033203125 91.99986267089844 46.00000762939453 91.99986267089844 C 20.59490966796875 91.99986267089844 7.62939453125e-06 71.40499114990234 7.62939453125e-06 45.99993515014648 C 7.62939453125e-06 20.59486389160156 20.59490966796875 -7.62939453125e-06 46.00000762939453 -7.62939453125e-06 Z" stroke="none" fill="#ba9c5a"/>
                                            </g>
                                          </g>
                                        </g>
                                      </g>
                                    </g>
                                  </g>
                                </g>
                              </g>
                            </g>
                          </g>
                        </g>
                      </g>
                    </g>
                  </g>
                </g>
              </g>
            </g>
          </g>
        </g>
      </g>
    </g>
    <g id="exitoso" transform="translate(1119.524 4551.983)">
      <path id="Trazado_1090166" data-name="Trazado 1090166" d="M152.033,96C149.9,96,136,96,136,109.9a22.975,22.975,0,0,0,3.207,10.689c3.207,5.344,5.344,5.344,5.344,10.689v3.207l2.138,3.207v8.551l2.138,2.138h6.413l2.138-2.138v-8.551l2.138-3.207v-3.207c0-5.344,2.138-5.344,5.344-10.689a22.975,22.975,0,0,0,3.207-10.689C168.066,96,154.171,96,152.033,96Z" transform="translate(-103.967 -69.311)" fill="#e5782d"/>
      <path id="Trazado_1090167" data-name="Trazado 1090167" d="M226.689,408v8.551l-2.138,2.138h-6.413L216,416.551V408Z" transform="translate(-173.279 -339.626)" fill="#dadcde"/>
      <ellipse id="Elipse_12001" data-name="Elipse 12001" cx="14.343" cy="13.812" rx="14.343" ry="13.812" transform="translate(49.998 51.06)" fill="#3dc285"/>
      <path id="Trazado_1090168" data-name="Trazado 1090168" d="M161.135,112.584c-.486,0-.966.024-1.441.07a23.741,23.741,0,0,0,2.51-9.689c0-6.209-2.709-10.748-7.834-13.128a24.308,24.308,0,0,0-18.536,0C130.709,92.216,128,96.755,128,102.964a23.9,23.9,0,0,0,3.359,11.239,34.423,34.423,0,0,0,2.893,4.077c1.531,1.914,2.3,2.874,2.3,6.062v3.207a1.069,1.069,0,0,0,.179.593l1.958,2.937v8.227a1.069,1.069,0,0,0,.313.756l2.138,2.138a1.069,1.069,0,0,0,.756.313h6.413a1.069,1.069,0,0,0,.756-.313l2.138-2.138a1.069,1.069,0,0,0,.313-.756V139a14.961,14.961,0,1,0,9.62-26.416Zm-25.214,4.36a32.145,32.145,0,0,1-2.729-3.841,22.127,22.127,0,0,1-3.054-10.139c0-5.392,2.219-9.157,6.6-11.189a22.2,22.2,0,0,1,16.736,0c4.377,2.032,6.6,5.8,6.6,11.187a22.128,22.128,0,0,1-3.054,10.141l-.044.072a15.03,15.03,0,0,0-8.659,6.673v-6.535a8.4,8.4,0,0,0,3.071-1.333,4.716,4.716,0,0,0,2.109-3.737,3.025,3.025,0,0,0-3.042-3.141c-1.295,0-3.013.7-3.843,4.016a15.181,15.181,0,0,0-.377,2.355c-.35.027-.724.042-1.124.042s-.775-.015-1.124-.042a15.187,15.187,0,0,0-.377-2.355c-.83-3.319-2.548-4.016-3.843-4.016a3.025,3.025,0,0,0-3.042,3.141,4.716,4.716,0,0,0,2.109,3.737,8.4,8.4,0,0,0,3.071,1.333v16.373h-1.566l-1.641-2.461v-2.883C138.689,120.4,137.528,118.952,135.921,116.944Zm10.25,12.742h-2.138V113.619a16.886,16.886,0,0,0,2.138,0Zm2.243-18.61c.223-1.745.826-3.836,2.033-3.836a.9.9,0,0,1,.9,1,2.548,2.548,0,0,1-1.231,2.01A5.779,5.779,0,0,1,148.413,111.075Zm-6.619,0a5.774,5.774,0,0,1-1.71-.824,2.547,2.547,0,0,1-1.231-2.01.9.9,0,0,1,.9-1C140.978,107.239,141.575,109.314,141.794,111.077Zm6.072,29.3h-5.528l-1.512-1.512V136.1h2.138a1.069,1.069,0,0,0,0-2.138h-2.138v-2.138h5.968a14.913,14.913,0,0,0,2.068,4.275h-1.622a1.069,1.069,0,1,0,0,2.138h2.138v.626Zm13.269,0a12.826,12.826,0,1,1,12.826-12.826A12.826,12.826,0,0,1,161.135,140.374Z" transform="translate(-97.036 -62.38)"/>
      <path id="Trazado_1090169" data-name="Trazado 1090169" d="M250.138,20.275V17.069a1.069,1.069,0,1,0-2.138,0v3.207a1.069,1.069,0,1,0,2.138,0Z" transform="translate(-201.003)"/>
      <path id="Trazado_1090170" data-name="Trazado 1090170" d="M85.776,84.264a1.069,1.069,0,0,0-1.512,1.512l2.267,2.267a1.069,1.069,0,0,0,1.512-1.512Z" transform="translate(-58.872 -58.872)"/>
      <path id="Trazado_1090171" data-name="Trazado 1090171" d="M20.275,248H17.069a1.069,1.069,0,1,0,0,2.138h3.207a1.069,1.069,0,1,0,0-2.138Z" transform="translate(0 -201.003)"/>
      <path id="Trazado_1090172" data-name="Trazado 1090172" d="M86.531,395.391l-2.267,2.267a1.069,1.069,0,1,0,1.512,1.512l2.267-2.267a1.069,1.069,0,1,0-1.512-1.512Z" transform="translate(-58.872 -328.43)"/>
      <path id="Trazado_1090173" data-name="Trazado 1090173" d="M460.275,248h-3.207a1.069,1.069,0,1,0,0,2.138h3.207a1.069,1.069,0,1,0,0-2.138Z" transform="translate(-381.213 -201.003)"/>
      <path id="Trazado_1090174" data-name="Trazado 1090174" d="M396.9,88.043l2.267-2.267a1.069,1.069,0,1,0-1.512-1.512l-2.267,2.267a1.069,1.069,0,1,0,1.512,1.512Z" transform="translate(-328.43 -58.872)"/>
      <path id="Trazado_1090175" data-name="Trazado 1090175" d="M339,344.313l-7.629,7.629-1.415-2.122a1.069,1.069,0,1,0-1.779,1.186l2.138,3.207a1.069,1.069,0,0,0,.784.471c.035,0,.07.005.105.005a1.069,1.069,0,0,0,.756-.313l8.551-8.551A1.069,1.069,0,1,0,339,344.313Z" transform="translate(-270.314 -284.177)"/>
    </g>
  </g>
</svg>
