<svg xmlns="http://www.w3.org/2000/svg" xmlns:xlink="http://www.w3.org/1999/xlink" width="108" height="108" viewBox="0 0 108 108">
  <defs>
    <filter id="Trazado_904820" x="0" y="0" width="108" height="108" filterUnits="userSpaceOnUse">
      <feOffset dy="3" input="SourceAlpha"/>
      <feGaussianBlur stdDeviation="3" result="blur"/>
      <feFlood flood-opacity="0.161"/>
      <feComposite operator="in" in2="blur"/>
      <feComposite in="SourceGraphic"/>
    </filter>
  </defs>
  <g id="Grupo_1219309" data-name="Grupo 1219309" transform="translate(-191 -430)">
    <g id="Grupo_1218825" data-name="Grupo 1218825" transform="translate(0 -495)">
      <g id="Grupo_1218002" data-name="Grupo 1218002" transform="translate(-14 587.5)">
        <g id="Grupo_1211578" data-name="Grupo 1211578" transform="translate(8 -2328.555)">
          <g id="Grupo_1207774" data-name="Grupo 1207774" transform="translate(206 2670.713)">
            <g id="Grupo_1206630" data-name="Grupo 1206630" transform="translate(0 1.342)">
              <g id="Grupo_1185091" data-name="Grupo 1185091" transform="translate(0 0)">
                <g id="Grupo_1179560" data-name="Grupo 1179560">
                  <g id="Grupo_1173787" data-name="Grupo 1173787" transform="translate(0)">
                    <g id="Grupo_1171910" data-name="Grupo 1171910">
                      <g id="Grupo_1167341" data-name="Grupo 1167341">
                        <g id="Grupo_1166792" data-name="Grupo 1166792">
                          <g transform="matrix(1, 0, 0, 1, -9, -6)" filter="url(#Trazado_904820)">
                            <g id="Trazado_904820-2" data-name="Trazado 904820" transform="translate(9 6)" fill="#edeef2">
                              <path d="M 44.99999618530273 88.50006866455078 C 39.12687301635742 88.50006866455078 33.43022155761719 87.35014343261719 28.06829643249512 85.08222961425781 C 22.88852119445801 82.89136505126953 18.23629570007324 79.75465393066406 14.24084663391113 75.75919342041016 C 10.24540901184082 71.76374053955078 7.108683586120605 67.11151885986328 4.917821407318115 61.93174362182617 C 2.649921178817749 56.56980514526367 1.499996185302734 50.87315368652344 1.499996185302734 45.00003051757812 C 1.499996185302734 39.12690734863281 2.649921178817749 33.43025588989258 4.917821407318115 28.06831741333008 C 7.108683586120605 22.88854217529297 10.24540901184082 18.23631858825684 14.24084663391113 14.24086761474609 C 18.23629570007324 10.24541759490967 22.88852119445801 7.10869312286377 28.06829643249512 4.917842864990234 C 33.43022155761719 2.649930477142334 39.12687301635742 1.500005483627319 44.99999618530273 1.500005483627319 C 50.87311935424805 1.500005483627319 56.56977081298828 2.649930477142334 61.93169784545898 4.917842864990234 C 67.11147308349609 7.10869312286377 71.76369476318359 10.24541759490967 75.75914764404297 14.24086761474609 C 79.75458526611328 18.23631858825684 82.89131164550781 22.88854217529297 85.08216857910156 28.06831741333008 C 87.35007476806641 33.43025588989258 88.5 39.12690734863281 88.5 45.00003051757812 C 88.5 50.87315368652344 87.35007476806641 56.56980514526367 85.08216857910156 61.93174362182617 C 82.89131164550781 67.11151885986328 79.75458526611328 71.76374053955078 75.75914764404297 75.75919342041016 C 71.76369476318359 79.75465393066406 67.11147308349609 82.89136505126953 61.93169784545898 85.08222961425781 C 56.56977081298828 87.35014343261719 50.87311935424805 88.50006866455078 44.99999618530273 88.50006866455078 Z" stroke="none"/>
                              <path d="M 44.99999618530273 3 C 39.32870864868164 3 33.82865142822266 4.110061645507812 28.65262603759766 6.299346923828125 C 23.65165710449219 8.414573669433594 19.15968322753906 11.44334411621094 15.301513671875 15.30152893066406 C 11.44333648681641 19.15969848632812 8.414566040039062 23.65167236328125 6.299339294433594 28.65264511108398 C 4.110054016113281 33.82868576049805 2.999992370605469 39.32874298095703 2.999992370605469 45.00003051757812 C 2.999992370605469 50.67131805419922 4.110054016113281 56.1713752746582 6.299339294433594 61.34741592407227 C 8.414566040039062 66.348388671875 11.44333648681641 70.84036254882812 15.301513671875 74.69853210449219 C 19.15968322753906 78.55671691894531 23.65165710449219 81.58548736572266 28.65262603759766 83.70071411132812 C 33.82865142822266 85.88999938964844 39.32870864868164 87.00006103515625 44.99999618530273 87.00006103515625 C 50.67128372192383 87.00006103515625 56.17134094238281 85.88999938964844 61.34736633300781 83.70071411132812 C 66.34834289550781 81.58548736572266 70.84030914306641 78.55671691894531 74.69847869873047 74.69853210449219 C 78.55665588378906 70.84036254882812 81.58542633056641 66.348388671875 83.70065307617188 61.34741592407227 C 85.88993835449219 56.1713752746582 87 50.67131805419922 87 45.00003051757812 C 87 39.32874298095703 85.88993835449219 33.82868576049805 83.70065307617188 28.65264511108398 C 81.58542633056641 23.65167236328125 78.55665588378906 19.15969848632812 74.69847869873047 15.30152893066406 C 70.84030914306641 11.44334411621094 66.34834289550781 8.414573669433594 61.34736633300781 6.299346923828125 C 56.17134094238281 4.110061645507812 50.67128372192383 3 44.99999618530273 3 M 44.99999618530273 0 C 69.85281372070312 0 90 20.14720153808594 90 45.00003051757812 C 90 69.85285949707031 69.85281372070312 90.00006103515625 44.99999618530273 90.00006103515625 C 20.14717864990234 90.00006103515625 -7.62939453125e-06 69.85285949707031 -7.62939453125e-06 45.00003051757812 C -7.62939453125e-06 20.14720153808594 20.14717864990234 0 44.99999618530273 0 Z" stroke="none" fill="#56678d"/>
                            </g>
                          </g>
                        </g>
                      </g>
                    </g>
                  </g>
                </g>
              </g>
            </g>
          </g>
        </g>
      </g>
    </g>
    <g id="edificio-del-gobierno_2_" data-name="edificio-del-gobierno (2)" transform="translate(213.945 452)">
      <g id="Grupo_1219307" data-name="Grupo 1219307" transform="translate(0.91 0.91)">
        <g id="Grupo_1219305" data-name="Grupo 1219305">
          <path id="Trazado_1089645" data-name="Trazado 1089645" d="M7.5,20.48H67.79L39.465,7.5H35.825Zm30.145-3.639a2.426,2.426,0,1,1,2.426-2.426A2.426,2.426,0,0,1,37.645,16.841Z" transform="translate(-7.5 -7.5)" fill="#decba0" fill-rule="evenodd"/>
          <circle id="Elipse_11995" data-name="Elipse 11995" cx="2.426" cy="2.426" r="2.426" transform="matrix(0.987, -0.16, 0.16, 0.987, 27.358, 4.913)" fill="#e5ecf5"/>
          <path id="Trazado_1089646" data-name="Trazado 1089646" d="M67.79,121.777V114.5H7.5v7.278ZM7.5,161.809H67.79V158.17H65.97v-3.639H9.32v3.639H7.5Z" transform="translate(-7.5 -101.519)" fill="#e5ecf5" fill-rule="evenodd"/>
          <path id="Trazado_1089647" data-name="Trazado 1089647" d="M52.5,229.974h9.1V204.5H52.5Zm40.274,0h9.1V204.5h-9.1Zm-20.137,0h9.1V204.5h-9.1Z" transform="translate(-47.041 -180.601)" fill="#e5ecf5" fill-rule="evenodd"/>
          <path id="Trazado_1089648" data-name="Trazado 1089648" d="M37.5,207.252H50.236v-3.639H37.5Zm40.274,0H90.511v-3.639H77.773Zm12.737-29.114V174.5H77.773v3.639ZM57.636,207.252H70.374v-3.639H57.636Zm12.737-29.114V174.5H57.636v3.639Zm-20.137,0V174.5H37.5v3.639Z" transform="translate(-33.86 -154.241)" fill="#decba0" fill-rule="evenodd"/>
          <path id="Trazado_1089649" data-name="Trazado 1089649" d="M7.5,20.48h3.639L39.465,7.5H35.825Z" transform="translate(-7.5 -7.5)" fill="#d4b981" fill-rule="evenodd"/>
          <path id="Trazado_1089650" data-name="Trazado 1089650" d="M10.229,114.5H7.5v7.278h2.729ZM7.5,161.809h2.729V158.17h1.82v-3.639H9.32v3.639H7.5Z" transform="translate(-7.5 -101.519)" fill="#cad8eb" fill-rule="evenodd"/>
          <path id="Trazado_1089651" data-name="Trazado 1089651" d="M52.5,229.974h2.729V204.5H52.5Zm40.274,0H95.5V204.5H92.774Zm-20.137,0h2.729V204.5H72.637Z" transform="translate(-47.041 -180.601)" fill="#cad8eb" fill-rule="evenodd"/>
          <path id="Trazado_1089652" data-name="Trazado 1089652" d="M37.5,207.252h2.729v-3.639H37.5Zm40.274,0H80.5v-3.639H77.774v3.639ZM80.5,174.5H77.774v3.639H80.5ZM57.637,207.252h2.729v-3.639H57.637ZM60.367,174.5H57.637v3.639h2.729Zm-20.137,0H37.5v3.639h2.729Z" transform="translate(-33.861 -154.241)" fill="#d4b981" fill-rule="evenodd"/>
          <path id="Trazado_1089653" data-name="Trazado 1089653" d="M129.319,207.252h7.4v-3.639h1.82V178.138h-1.82V174.5h-7.4v3.639H127.5v25.475h1.82Zm20.137,0h7.4v-3.639h1.82V178.138h-1.82V174.5h-7.4v3.639h-1.82v25.475h1.82Z" transform="translate(-112.942 -154.241)" fill="#87bcc4" fill-rule="evenodd"/>
          <path id="Trazado_1089654" data-name="Trazado 1089654" d="M129.319,179.048V202.7h1.82v4.549h-1.82v-3.639H127.5V178.138h1.82V174.5h1.82v4.549Zm20.137,0V202.7h1.82v4.549h-1.82v-3.639h-1.82V178.138h1.82V174.5h1.82v4.549Z" transform="translate(-112.942 -154.241)" fill="#5fa6b0" fill-rule="evenodd"/>
          <path id="Trazado_1089655" data-name="Trazado 1089655" d="M236,46.916a2.43,2.43,0,0,0,3.336,2.25,2.427,2.427,0,0,1,0-4.5A2.43,2.43,0,0,0,236,46.916Z" transform="translate(-208.281 -40.002)" fill="#cad8eb" fill-rule="evenodd"/>
        </g>
        <g id="Grupo_1219306" data-name="Grupo 1219306" transform="translate(8.188 15.709)">
          <path id="Trazado_1089656" data-name="Trazado 1089656" d="M117.093,167.933h-1.82v-1.82h1.82Zm-20.137,0h-1.82v-1.82h1.82Zm-20.137,0H75v-1.82h1.82Zm42.094-10.918h-1.82v-5.459h1.82Zm-20.137,0h-1.82v-5.459h1.82Zm-20.137,0h-1.82v-5.459h1.82Zm40.274-7.279h-1.82v-1.82h1.82Zm-20.137,0h-1.82v-1.82h1.82Zm-20.137,0h-1.82v-1.82h1.82Zm45.733-10.918h-1.82V137h1.82Zm-3.639,0h-5.459V137h5.459Z" transform="translate(-74.999 -136.999)" fill="#fff"/>
        </g>
      </g>
      <g id="Grupo_1219308" data-name="Grupo 1219308" transform="translate(0)">
        <path id="Trazado_1089657" data-name="Trazado 1089657" d="M18.639,227v21.836H16.82v3.639H15v1.82H73.47v-1.82h-1.82v-3.639h-1.82V227h-1.82v21.836H65.282v1.82h4.549v1.82H58.914v-1.82h4.549v-1.82H60.733V227h-1.82v21.836H57.094v3.639h-5.58v-3.639h-1.82V227h-1.82v21.836H45.145v1.82h4.549v1.82H38.776v-1.82h4.549v-1.82H40.6V227h-1.82v21.836h-1.82v3.639h-5.58v-3.639H29.557V227h-1.82v21.836H25.008v1.82h4.549v1.82H18.639v-1.82h4.549v-1.82H20.459V227Z" transform="translate(-13.18 -199.462)"/>
        <path id="Trazado_1089658" data-name="Trazado 1089658" d="M1.82,468.82H30.145V467H0v5.459H53.012v-1.82H1.82Z" transform="translate(0 -410.349)"/>
        <path id="Trazado_1089659" data-name="Trazado 1089659" d="M263.5,468.82h28.325v1.82h-5.459v1.82h7.278V467H263.5Z" transform="translate(-231.535 -410.349)"/>
        <path id="Trazado_1089660" data-name="Trazado 1089660" d="M33.073,0H29.037L15.521,6.194l.758,1.654L29.434,1.82h3.242L57.031,12.98H5.079l9.545-4.374-.758-1.654L0,13.306v8.772H3.639v3.639H18.2V22.078h5.58v3.639H38.333V22.078h5.58v3.639H58.47V22.078H62.11V13.306Zm-16.7,23.9H5.459v-1.82H16.376Zm40.274,0H45.733v-1.82H56.651ZM31.965,20.258v1.82h4.549V23.9H25.6v-1.82h4.549v-1.82H1.82V14.8H60.29v5.459Z" transform="translate(0)"/>
        <path id="Trazado_1089661" data-name="Trazado 1089661" d="M233.5,137h1.82v1.82H233.5Z" transform="translate(-205.175 -120.38)"/>
        <path id="Trazado_1089662" data-name="Trazado 1089662" d="M212.065,43.672a3.342,3.342,0,0,0,3.21-2.426h2.855v-1.82h-2.855a3.337,3.337,0,0,0-6.42,0H206v1.82h2.855A3.342,3.342,0,0,0,212.065,43.672Zm0-4.852a1.516,1.516,0,1,1-1.516,1.516A1.518,1.518,0,0,1,212.065,38.819Z" transform="translate(-181.011 -32.512)"/>
        <path id="Trazado_1089663" data-name="Trazado 1089663" d="M263.5,137h1.82v1.82H263.5Z" transform="translate(-231.535 -120.38)"/>
      </g>
    </g>
  </g>
</svg>
