<svg xmlns="http://www.w3.org/2000/svg" xmlns:xlink="http://www.w3.org/1999/xlink" width="110" height="110" viewBox="0 0 110 110">
  <defs>
    <filter id="Trazado_982547" x="0" y="0" width="110" height="110" filterUnits="userSpaceOnUse">
      <feOffset dy="3" input="SourceAlpha"/>
      <feGaussianBlur stdDeviation="3" result="blur"/>
      <feFlood flood-opacity="0.161"/>
      <feComposite operator="in" in2="blur"/>
      <feComposite in="SourceGraphic"/>
    </filter>
  </defs>
  <g id="Grupo_1219363" data-name="Grupo 1219363" transform="translate(-157 -4912.049)">
    <g id="Grupo_1219274" data-name="Grupo 1219274" transform="translate(166 4918.049)">
      <g id="Grupo_1210976" data-name="Grupo 1210976" transform="translate(0 0)">
        <g id="Grupo_1200150" data-name="Grupo 1200150" transform="translate(0 0)">
          <g id="Grupo_1185951" data-name="Grupo 1185951" transform="translate(0 0)">
            <g id="Grupo_1184083" data-name="Grupo 1184083" transform="translate(0 0)">
              <g id="Grupo_1183743" data-name="Grupo 1183743">
                <g id="Grupo_1181545" data-name="Grupo 1181545">
                  <g id="Grupo_1177562" data-name="Grupo 1177562">
                    <g id="Grupo_1173147" data-name="Grupo 1173147">
                      <g id="Grupo_1163801" data-name="Grupo 1163801" transform="translate(0 0)">
                        <g id="Grupo_1163014" data-name="Grupo 1163014" transform="translate(0 0)">
                          <g id="Grupo_1157015" data-name="Grupo 1157015">
                            <g id="Grupo_1155792" data-name="Grupo 1155792">
                              <g id="Grupo_1154703" data-name="Grupo 1154703">
                                <g id="Grupo_1150789" data-name="Grupo 1150789">
                                  <g id="Grupo_1154212" data-name="Grupo 1154212">
                                    <g id="Grupo_1152583" data-name="Grupo 1152583">
                                      <g id="Grupo_1146973" data-name="Grupo 1146973">
                                        <g id="Grupo_1146954" data-name="Grupo 1146954">
                                          <g transform="matrix(1, 0, 0, 1, -9, -6)" filter="url(#Trazado_982547)">
                                            <g id="Trazado_982547-2" data-name="Trazado 982547" transform="translate(9 6)" fill="#f2d944">
                                              <path d="M 46.00000762939453 90.49987030029297 C 39.99188613891602 90.49987030029297 34.16427612304688 89.32350921630859 28.67906188964844 87.00345611572266 C 23.38020706176758 84.76224517822266 18.62104797363281 81.55341339111328 14.53375434875488 77.46613311767578 C 10.44647407531738 73.37885284423828 7.237647533416748 68.61969757080078 4.996420860290527 63.32085418701172 C 2.676367521286011 57.83565521240234 1.500007629394531 52.008056640625 1.500007629394531 45.99993515014648 C 1.500007629394531 39.99181365966797 2.676367521286011 34.16421508789062 4.996420860290527 28.67901420593262 C 7.237647533416748 23.38017463684082 10.44647407531738 18.62101554870605 14.53375434875488 14.53373527526855 C 18.62104797363281 10.44645500183105 23.38020706176758 7.23762845993042 28.67906188964844 4.996415138244629 C 34.16427612304688 2.676361799240112 39.99188613891602 1.500001788139343 46.00000762939453 1.500001788139343 C 52.00812911987305 1.500001788139343 57.83573913574219 2.676361799240112 63.32095336914062 4.996415138244629 C 68.61980438232422 7.23762845993042 73.37896728515625 10.44645500183105 77.46626281738281 14.53373527526855 C 81.55354309082031 18.62101554870605 84.76236724853516 23.38017463684082 87.00359344482422 28.67901420593262 C 89.32364654541016 34.16421508789062 90.50000762939453 39.99181365966797 90.50000762939453 45.99993515014648 C 90.50000762939453 52.008056640625 89.32364654541016 57.83565521240234 87.00359344482422 63.32085418701172 C 84.76236724853516 68.61969757080078 81.55354309082031 73.37885284423828 77.46626281738281 77.46613311767578 C 73.37896728515625 81.55341339111328 68.61980438232422 84.76224517822266 63.32095336914062 87.00345611572266 C 57.83573913574219 89.32350921630859 52.00812911987305 90.49987030029297 46.00000762939453 90.49987030029297 Z" stroke="none"/>
                                              <path d="M 46.00000762939453 2.999992370605469 C 40.19372177124023 2.999992370605469 34.56270599365234 4.136489868164062 29.26337814331055 6.377906799316406 C 24.14333343505859 8.543502807617188 19.54441833496094 11.64437866210938 15.59440612792969 15.59437561035156 C 11.6444091796875 19.54439544677734 8.543525695800781 24.14329528808594 6.377922058105469 29.26333618164062 C 4.136505126953125 34.56264877319336 3.000007629394531 40.19366455078125 3.000007629394531 45.99993515014648 C 3.000007629394531 51.80620574951172 4.136505126953125 57.43720626831055 6.377922058105469 62.73651885986328 C 8.543525695800781 67.8565673828125 11.6444091796875 72.45545959472656 15.59440612792969 76.40547943115234 C 19.54441833496094 80.35547637939453 24.14333343505859 83.45635223388672 29.26337814331055 85.6219482421875 C 34.56270599365234 87.86336517333984 40.19372177124023 88.99986267089844 46.00000762939453 88.99986267089844 C 51.80629348754883 88.99986267089844 57.43730926513672 87.86336517333984 62.73662185668945 85.6219482421875 C 67.85668182373047 83.45635223388672 72.45558166503906 80.35547637939453 76.40559387207031 76.40547943115234 C 80.35560607910156 72.45545959472656 83.45648193359375 67.8565673828125 85.62207794189453 62.73651885986328 C 87.86351013183594 57.43720626831055 89.00000762939453 51.80620574951172 89.00000762939453 45.99993515014648 C 89.00000762939453 40.19366455078125 87.86351013183594 34.56264877319336 85.62207794189453 29.26333618164062 C 83.45648193359375 24.14329528808594 80.35560607910156 19.54439544677734 76.40559387207031 15.59437561035156 C 72.45558166503906 11.64437866210938 67.85668182373047 8.543502807617188 62.73662185668945 6.377906799316406 C 57.43730926513672 4.136489868164062 51.80629348754883 2.999992370605469 46.00000762939453 2.999992370605469 M 46.00000762939453 -7.62939453125e-06 C 71.40509033203125 -7.62939453125e-06 92.00000762939453 20.59486389160156 92.00000762939453 45.99993515014648 C 92.00000762939453 71.40499114990234 71.40509033203125 91.99986267089844 46.00000762939453 91.99986267089844 C 20.59490966796875 91.99986267089844 7.62939453125e-06 71.40499114990234 7.62939453125e-06 45.99993515014648 C 7.62939453125e-06 20.59486389160156 20.59490966796875 -7.62939453125e-06 46.00000762939453 -7.62939453125e-06 Z" stroke="none" fill="#ba9c5a"/>
                                            </g>
                                          </g>
                                        </g>
                                      </g>
                                    </g>
                                  </g>
                                </g>
                              </g>
                            </g>
                          </g>
                        </g>
                      </g>
                    </g>
                  </g>
                </g>
              </g>
            </g>
          </g>
        </g>
      </g>
    </g>
    <g id="productividad_2_" data-name="productividad (2)" transform="translate(157.92 4936.341)">
      <g id="Grupo_1219361" data-name="Grupo 1219361" transform="translate(21.179 1.08)">
        <path id="Trazado_1090224" data-name="Trazado 1090224" d="M308.542,51V76.988a4.6,4.6,0,0,1-4.6,4.594H288.564a4.594,4.594,0,0,1-4.594-4.594V51l12.489-.664Z" transform="translate(-247.039 -44.163)" fill="#ddeafb"/>
        <path id="Trazado_1090225" data-name="Trazado 1090225" d="M408.414,48.848V74.84a4.6,4.6,0,0,1-4.6,4.594H400.65a4.6,4.6,0,0,0,4.6-4.594V48.848l1.477-1.025Z" transform="translate(-346.911 -42.014)" fill="#cbe2ff"/>
        <path id="Trazado_1090226" data-name="Trazado 1090226" d="M308.542,12.094v2.24H283.97v-2.24A4.594,4.594,0,0,1,288.564,7.5h15.383A4.6,4.6,0,0,1,308.542,12.094Z" transform="translate(-247.039 -7.5)" fill="#528fd8"/>
        <g id="Grupo_1219360" data-name="Grupo 1219360" transform="translate(41.276 0)">
          <path id="Trazado_1090227" data-name="Trazado 1090227" d="M408.414,12.094v2.24h-3.169v-2.24a4.6,4.6,0,0,0-4.6-4.594h3.169A4.6,4.6,0,0,1,408.414,12.094Z" transform="translate(-388.187 -7.5)" fill="#0473ce"/>
          <path id="Trazado_1090228" data-name="Trazado 1090228" d="M314.133,87.362H318.4v4.272h-4.272Z" transform="translate(-314.133 -75.858)" fill="#0473ce"/>
          <path id="Trazado_1090229" data-name="Trazado 1090229" d="M314.133,149.438H318.4v4.272h-4.272Z" transform="translate(-314.133 -128.991)" fill="#0473ce"/>
        </g>
        <path id="Trazado_1090230" data-name="Trazado 1090230" d="M108.428,9.878V20.553l-2.578,4.208-4.134,2.868H90.678A2.378,2.378,0,0,1,88.3,25.25V9.878A2.378,2.378,0,0,1,90.678,7.5h15.373a2.378,2.378,0,0,1,2.377,2.378Z" transform="translate(-79.556 -7.5)" fill="#fff9df"/>
        <path id="Trazado_1090231" data-name="Trazado 1090231" d="M190.865,9.878V20.553l-2.578,4.208-1.3-.12V9.878A2.378,2.378,0,0,0,184.61,7.5h3.878A2.378,2.378,0,0,1,190.865,9.878Z" transform="translate(-161.992 -7.5)" fill="#fff0ad"/>
        <path id="Trazado_1090232" data-name="Trazado 1090232" d="M188.151,98.11v4.7a2.378,2.378,0,0,1-2.377,2.378H181.44l2.834-2.988Z" transform="translate(-159.279 -85.057)" fill="#ffc344"/>
        <path id="Trazado_1090233" data-name="Trazado 1090233" d="M51.256,224.94a3.864,3.864,0,0,0-.389,1.691v3.155l-8.586,1.027-8.586-1.027v-5.932a6.65,6.65,0,0,0-1.265-3.9l-1.939-2.677a15.2,15.2,0,0,1-2.891-8.918V194.6a2.909,2.909,0,0,1,1.115-2.28,2.727,2.727,0,0,1,1.73-.585,2.791,2.791,0,0,1,2.737,2.792l1.455,12.947a6.54,6.54,0,0,0,5.668,5.755,3.771,3.771,0,0,1-.67-2.146v-7.453a2.372,2.372,0,0,1,.6-1.574,2.229,2.229,0,0,1,1.547-.761,2.281,2.281,0,0,1,2.387,1.92l.706,4.477a4.235,4.235,0,0,0,1.188,2.334l3.309,3.307c.092.094.183.187.272.282a10.112,10.112,0,0,1,1.615,11.323Z" transform="translate(-27.6 -165.197)" fill="#ffcebf"/>
        <path id="Trazado_1090234" data-name="Trazado 1090234" d="M46.93,213.232c-5.445,0-8.712-2.725-9.054-5.755l-1.455-12.947a2.786,2.786,0,0,0-1.082-2.207,2.727,2.727,0,0,1,1.73-.585,2.791,2.791,0,0,1,2.737,2.792l1.455,12.947A6.54,6.54,0,0,0,46.93,213.232Z" transform="translate(-34.225 -165.197)" fill="#ffb09e"/>
        <path id="Trazado_1090235" data-name="Trazado 1090235" d="M126.314,281.719a3.864,3.864,0,0,0-.389,1.691v3.155l-1.662.739-1.723-.739v-3.155a3.864,3.864,0,0,1,.389-1.691,10.112,10.112,0,0,0-1.615-11.323c-.089-.1-.18-.189-.272-.282l-3.309-3.307a4.235,4.235,0,0,1-1.188-2.334L115.839,260a2.286,2.286,0,0,0-.549-1.16,2.229,2.229,0,0,1,1.547-.761,2.281,2.281,0,0,1,2.387,1.92l.706,4.477a4.235,4.235,0,0,0,1.188,2.334l3.309,3.307c.092.094.183.187.272.282A10.112,10.112,0,0,1,126.314,281.719Z" transform="translate(-102.658 -221.977)" fill="#ffb09e"/>
        <path id="Trazado_1090236" data-name="Trazado 1090236" d="M337.644,194.6v13.754a15.2,15.2,0,0,1-2.891,8.918l-1.939,2.676a6.65,6.65,0,0,0-1.265,3.9v5.932l-8.586,1.027-8.586-1.027v-3.155a3.864,3.864,0,0,0-.389-1.691,10.112,10.112,0,0,1,1.615-11.323c.089-.1.18-.189.272-.282l3.309-3.307a4.235,4.235,0,0,0,1.188-2.334l.706-4.477a2.281,2.281,0,0,1,2.387-1.92,2.318,2.318,0,0,1,2.143,2.335v7.453a3.772,3.772,0,0,1-.67,2.146,6.541,6.541,0,0,0,5.668-5.755l1.455-12.947a2.794,2.794,0,0,1,2.737-2.792A2.852,2.852,0,0,1,337.644,194.6Z" transform="translate(-271.841 -165.197)" fill="#ffcebf"/>
        <path id="Trazado_1090237" data-name="Trazado 1090237" d="M428.344,194.6v13.754a15.2,15.2,0,0,1-2.891,8.918l-1.939,2.676a6.65,6.65,0,0,0-1.265,3.9v5.932l-1.59,1.027-1.749-1.027v-5.932a6.65,6.65,0,0,1,1.265-3.9l1.939-2.676A15.2,15.2,0,0,0,425,208.357V194.6a2.908,2.908,0,0,0-1.138-2.3,2.765,2.765,0,0,1,1.632-.568A2.852,2.852,0,0,1,428.344,194.6Z" transform="translate(-362.541 -165.197)" fill="#ffb09e"/>
        <path id="Trazado_1090238" data-name="Trazado 1090238" d="M57.45,455.87H78.212v7.005H57.45Z" transform="translate(-53.15 -391.281)" fill="#ddeafb"/>
        <path id="Trazado_1090239" data-name="Trazado 1090239" d="M177.58,455.87h3.457v7.005H177.58Z" transform="translate(-155.975 -391.281)" fill="#cbe2ff"/>
        <path id="Trazado_1090240" data-name="Trazado 1090240" d="M310.42,455.87h20.762v7.005H310.42Z" transform="translate(-269.679 -391.281)" fill="#ddeafb"/>
        <path id="Trazado_1090241" data-name="Trazado 1090241" d="M431.05,455.87h3.385v7.005H431.05Z" transform="translate(-372.932 -391.281)" fill="#cbe2ff"/>
        <path id="Trazado_1090242" data-name="Trazado 1090242" d="M202.975,212.027v-1.5a1.351,1.351,0,0,0-1-1.3l-1.19-.325a1.349,1.349,0,0,1-.891-.785l-.005-.012a1.349,1.349,0,0,1,.073-1.188l.612-1.071a1.351,1.351,0,0,0-.218-1.625l-1.058-1.058a1.351,1.351,0,0,0-1.626-.218l-1.071.611a1.35,1.35,0,0,1-1.188.073l-.012-.005a1.349,1.349,0,0,1-.785-.891l-.325-1.19a1.351,1.351,0,0,0-1.3-1h-1.5a1.351,1.351,0,0,0-1.3,1l-.325,1.19a1.349,1.349,0,0,1-.785.891l-.012.005a1.349,1.349,0,0,1-1.188-.073l-1.071-.611a1.351,1.351,0,0,0-1.625.218l-1.058,1.058a1.351,1.351,0,0,0-.218,1.625l.611,1.071a1.35,1.35,0,0,1,.073,1.188l-.005.012a1.349,1.349,0,0,1-.891.785l-1.19.325a1.351,1.351,0,0,0-1,1.3v1.5a1.351,1.351,0,0,0,1,1.3l1.19.325a1.349,1.349,0,0,1,.891.785l.005.012a1.349,1.349,0,0,1-.073,1.188l-.611,1.071a1.351,1.351,0,0,0,.218,1.625l1.058,1.058a1.351,1.351,0,0,0,1.625.218l1.071-.612a1.35,1.35,0,0,1,1.188-.073l.012.005a1.349,1.349,0,0,1,.785.891l.325,1.19a1.351,1.351,0,0,0,1.3,1h1.5a1.351,1.351,0,0,0,1.3-1l.325-1.19a1.349,1.349,0,0,1,.785-.891l.012-.005a1.349,1.349,0,0,1,1.188.073l1.071.612a1.351,1.351,0,0,0,1.625-.218l1.058-1.058a1.351,1.351,0,0,0,.218-1.625l-.612-1.071a1.35,1.35,0,0,1-.073-1.188l.005-.012a1.349,1.349,0,0,1,.891-.785l1.19-.325A1.351,1.351,0,0,0,202.975,212.027Z" transform="translate(-159.342 -172.74)" fill="#cbe2ff"/>
        <path id="Trazado_1090243" data-name="Trazado 1090243" d="M236.088,251.1a4.03,4.03,0,1,1-4.029-4.029A4.028,4.028,0,0,1,236.088,251.1Z" transform="translate(-199.158 -212.559)" fill="#5a5a5a"/>
        <path id="Trazado_1090244" data-name="Trazado 1090244" d="M250.614,251.1A4.03,4.03,0,0,1,245,254.8a4.029,4.029,0,0,0,0-7.409,4.03,4.03,0,0,1,5.614,3.705Z" transform="translate(-213.683 -212.559)" fill="#444"/>
      </g>
      <g id="Grupo_1219362" data-name="Grupo 1219362" transform="translate(20.098 0)">
        <path id="Trazado_1090245" data-name="Trazado 1090245" d="M46.24,223.1h-.714a8.015,8.015,0,0,1,.28-3.292,11.35,11.35,0,0,0,.755-7.951,1.08,1.08,0,1,0-2.085.569,9.19,9.19,0,0,1-.614,6.438,9.516,9.516,0,0,0-.5,4.237H28.354v-4.851c0-2.908-1.8-5-3.409-7.214a14.032,14.032,0,0,1-2.686-8.284V189c0-2.342,3.175-2.2,3.428.047L27.142,202a7.6,7.6,0,0,0,6.147,6.631c.086.1,2.814,2.84,2.814,2.84a1.08,1.08,0,1,0,1.528-1.527s-2.762-2.786-2.853-2.917a2.733,2.733,0,0,1-.482-1.539V198.03a1.2,1.2,0,0,1,2.382-.246l.706,4.478a5.288,5.288,0,0,0,1.492,2.929l3.308,3.308a1.08,1.08,0,0,0,1.528-1.528L40.4,203.662a3.14,3.14,0,0,1-.886-1.739l-.706-4.479a3.359,3.359,0,0,0-6.677.585v7.454h0q0,.246.024.488a5.445,5.445,0,0,1-2.87-4.218l-1.448-12.892c-.084-4.981-7.743-4.85-7.743.139v13.753a16.179,16.179,0,0,0,3.1,9.552c1.3,1.793,3,3.593,3,5.946V223.1h-.714a1.08,1.08,0,0,0-1.08,1.08v7.006a1.08,1.08,0,0,0,1.08,1.08H46.24a1.08,1.08,0,0,0,1.08-1.08v-7.006A1.08,1.08,0,0,0,46.24,223.1Zm-1.08,7.006H26.56v-4.845h18.6Z" transform="translate(-20.098 -158.515)"/>
        <path id="Trazado_1090246" data-name="Trazado 1090246" d="M218.6,27.648a3.842,3.842,0,0,0-3.105-1.084V5.674A5.681,5.681,0,0,0,209.825,0H194.441a5.681,5.681,0,0,0-5.674,5.674v9.479a1.08,1.08,0,0,0,2.161,0V8.995h22.411V27.545a3.871,3.871,0,0,0-1.281,2.8L211.3,37.1c-1.226.568-2.934.324-4.24.324a3.4,3.4,0,0,0-5.322,0h-4.593a2.428,2.428,0,0,0-1.307-.893l-1.19-.325a.286.286,0,0,1-.169-.408l.611-1.071A2.437,2.437,0,0,0,194.7,31.8l-1.058-1.058a2.437,2.437,0,0,0-2.714-.5V20.311a1.08,1.08,0,1,0-2.161,0v8.9a2.438,2.438,0,0,0-2.2-1.4h-1.5a2.437,2.437,0,0,0-2.346,1.791l-.325,1.19a.286.286,0,0,1-.408.169l-1.071-.612a2.437,2.437,0,0,0-2.925.392L176.938,31.8a2.437,2.437,0,0,0-.392,2.925l.612,1.071a.286.286,0,0,1-.169.408l-1.19.325a2.437,2.437,0,0,0-1.791,2.346v1.5a2.437,2.437,0,0,0,1.791,2.346l1.189.325a.286.286,0,0,1,.169.408l-.611,1.071a2.437,2.437,0,0,0,.392,2.925L178,48.5a2.437,2.437,0,0,0,2.925.392l1.071-.612a.286.286,0,0,1,.408.169l.325,1.19a2.437,2.437,0,0,0,2.346,1.791h1.5a2.437,2.437,0,0,0,2.346-1.791l.325-1.19a.286.286,0,0,1,.408-.169l1.071.611a2.436,2.436,0,0,0,2.925-.392l1.058-1.058a2.437,2.437,0,0,0,.392-2.925l-.612-1.071a.286.286,0,0,1,.169-.408l1.19-.325a2.437,2.437,0,0,0,1.791-2.346V39.58h3.355l-.6,3.828c-.337,2.123-3.112,3.88-4.491,5.354a11.24,11.24,0,0,0-1.8,12.534,10.548,10.548,0,0,1,.28,3.292h-.714a1.08,1.08,0,0,0-1.08,1.08v7.005a1.08,1.08,0,0,0,1.08,1.08h4.117a1.08,1.08,0,1,0,0-2.161h-3.036V66.749h18.6v4.845H202.744a1.08,1.08,0,0,0,0,2.161h11.675a1.08,1.08,0,0,0,1.08-1.08V65.669a1.08,1.08,0,0,0-1.08-1.08h-.714V59.737c0-2.344,1.7-4.155,3-5.946a16.178,16.178,0,0,0,3.1-9.552V30.486a4,4,0,0,0-1.2-2.838ZM190.927,6.834V5.674a3.518,3.518,0,0,1,3.514-3.514h15.384a3.518,3.518,0,0,1,3.514,3.514V6.834ZM211.035,39.45l-.426,3.789a5.446,5.446,0,0,1-2.87,4.218c.016-.161.024-.324.024-.488h0V39.58a15.766,15.766,0,0,0,3.271-.13Zm-15.567.918a.271.271,0,0,1-.2.261l-1.19.325a2.466,2.466,0,0,0-1.476,3.563l.612,1.071a.272.272,0,0,1-.044.326l-1.058,1.058a.271.271,0,0,1-.326.044l-1.071-.611a2.48,2.48,0,0,0-3.564,1.476l-.325,1.19a.272.272,0,0,1-.261.2h-1.5a.271.271,0,0,1-.261-.2l-.325-1.19a2.474,2.474,0,0,0-3.563-1.476l-1.071.612a.271.271,0,0,1-.326-.044l-1.058-1.058a.271.271,0,0,1-.044-.326l.611-1.071a2.479,2.479,0,0,0-1.476-3.564l-1.19-.325a.272.272,0,0,1-.2-.261v-1.5a.271.271,0,0,1,.2-.261l1.19-.325a2.467,2.467,0,0,0,1.476-3.564l-.611-1.071a.271.271,0,0,1,.044-.326l1.058-1.058a.272.272,0,0,1,.326-.044l1.071.612a2.466,2.466,0,0,0,3.564-1.476l.325-1.19a.272.272,0,0,1,.261-.2h1.5a.271.271,0,0,1,.261.2l.325,1.19a2.514,2.514,0,0,0,3.564,1.476l1.071-.611a.272.272,0,0,1,.326.044l1.058,1.058a.271.271,0,0,1,.044.326l-.611,1.071a2.469,2.469,0,0,0,1.476,3.564l1.19.325a.272.272,0,0,1,.2.261v1.5ZM217.64,44.24a14.032,14.032,0,0,1-2.686,8.284c-1.6,2.212-3.409,4.314-3.409,7.214v4.851H196.533a9.457,9.457,0,0,0-.5-4.237,9.067,9.067,0,0,1,1.432-10.113c1.775-1.894,4.614-3.76,5.048-6.494l.705-4.474a1.2,1.2,0,0,1,2.383.244v7.454a2.728,2.728,0,0,1-.791,1.911l-2.544,2.545a1.08,1.08,0,1,0,1.528,1.527s2.729-2.739,2.814-2.84a7.6,7.6,0,0,0,6.147-6.632l.626-5.57c0-.012,0-.024,0-.036l.825-7.341c.255-2.263,3.428-2.42,3.428-.047V44.24Z" transform="translate(-151.836 0)"/>
        <path id="Trazado_1090247" data-name="Trazado 1090247" d="M225.642,239.57a5.109,5.109,0,1,0,5.109,5.109A5.115,5.115,0,0,0,225.642,239.57Zm0,8.057a2.948,2.948,0,1,1,2.948-2.948A2.952,2.952,0,0,1,225.642,247.627Z" transform="translate(-191.66 -205.059)"/>
        <path id="Trazado_1090248" data-name="Trazado 1090248" d="M307.713,86.294h4.272a1.08,1.08,0,0,0,1.08-1.08V80.941a1.08,1.08,0,0,0-1.08-1.08h-4.272a1.08,1.08,0,0,0-1.08,1.08v4.272A1.08,1.08,0,0,0,307.713,86.294Zm1.08-4.272H310.9v2.111h-2.111Z" transform="translate(-265.357 -68.357)"/>
        <path id="Trazado_1090249" data-name="Trazado 1090249" d="M306.633,147.291a1.08,1.08,0,0,0,1.08,1.08h4.272a1.08,1.08,0,0,0,1.08-1.08v-4.272a1.08,1.08,0,0,0-1.08-1.08h-4.272a1.08,1.08,0,0,0-1.08,1.08Zm2.161-3.191H310.9v2.111h-2.111Z" transform="translate(-265.357 -121.492)"/>
        <path id="Trazado_1090250" data-name="Trazado 1090250" d="M366.4,96.849H373.6a1.08,1.08,0,0,0,0-2.161H366.4a1.08,1.08,0,0,0,0,2.161Z" transform="translate(-315.586 -81.048)"/>
        <path id="Trazado_1090251" data-name="Trazado 1090251" d="M366.4,144.1H373.6a1.08,1.08,0,0,0,0-2.161H366.4a1.08,1.08,0,0,0,0,2.161Z" transform="translate(-315.586 -121.491)"/>
        <path id="Trazado_1090252" data-name="Trazado 1090252" d="M366.4,173.754h4.038a1.08,1.08,0,1,0,0-2.161H366.4a1.08,1.08,0,1,0,0,2.161Z" transform="translate(-315.586 -146.875)"/>
        <path id="Trazado_1090253" data-name="Trazado 1090253" d="M84.261,22.289H99.634a3.462,3.462,0,0,0,3.458-3.458V3.458A3.462,3.462,0,0,0,99.634,0H84.261A3.462,3.462,0,0,0,80.8,3.458V18.831A3.462,3.462,0,0,0,84.261,22.289Zm15.373-2.161h-1.82l3.117-3.286v1.989a1.3,1.3,0,0,1-1.3,1.3ZM82.964,3.458a1.3,1.3,0,0,1,1.3-1.3H99.634a1.3,1.3,0,0,1,1.3,1.3V13.7l-6.1,6.426H84.261a1.3,1.3,0,0,1-1.3-1.3Z" transform="translate(-72.058 0)"/>
        <path id="Trazado_1090254" data-name="Trazado 1090254" d="M119.468,42.483h9.3a1.08,1.08,0,0,0,0-2.161h-9.3a1.08,1.08,0,1,0,0,2.161Z" transform="translate(-104.229 -34.514)"/>
        <path id="Trazado_1090255" data-name="Trazado 1090255" d="M119.468,78.069h6.1a1.08,1.08,0,0,0,0-2.161h-6.1a1.08,1.08,0,1,0,0,2.161Z" transform="translate(-104.229 -64.973)"/>
      </g>
    </g>
  </g>
</svg>
