<svg xmlns="http://www.w3.org/2000/svg" xmlns:xlink="http://www.w3.org/1999/xlink" width="93.934" height="93.934" viewBox="0 0 93.934 93.934">
  <defs>
    <filter id="Trazado_982547" x="0" y="0" width="93.934" height="93.934" filterUnits="userSpaceOnUse">
      <feOffset dy="3" input="SourceAlpha"/>
      <feGaussianBlur stdDeviation="3" result="blur"/>
      <feFlood flood-opacity="0.161"/>
      <feComposite operator="in" in2="blur"/>
      <feComposite in="SourceGraphic"/>
    </filter>
  </defs>
  <g id="Grupo_1219387" data-name="Grupo 1219387" transform="translate(-189.066 -7340)">
    <g id="Grupo_1219278" data-name="Grupo 1219278" transform="translate(-2.229 3618)">
      <g id="Grupo_1214594" data-name="Grupo 1214594" transform="translate(0 -1406)">
        <g id="Grupo_1214432" data-name="Grupo 1214432" transform="translate(-0.771 -2738.674)">
          <g id="Grupo_1183196" data-name="Grupo 1183196" transform="translate(1 1016.674)">
            <g id="Grupo_1179610" data-name="Grupo 1179610" transform="translate(8 4723.467)">
              <g id="Grupo_1175227" data-name="Grupo 1175227" transform="translate(-5.967 140.533)">
                <g id="Grupo_1167337" data-name="Grupo 1167337" transform="translate(198.033 1992)">
                  <g id="Grupo_1166720" data-name="Grupo 1166720">
                    <g id="Grupo_1164305" data-name="Grupo 1164305">
                      <g id="Grupo_1163948" data-name="Grupo 1163948">
                        <g id="Grupo_1158168" data-name="Grupo 1158168">
                          <g id="Grupo_1152576" data-name="Grupo 1152576">
                            <g id="Grupo_1148633" data-name="Grupo 1148633">
                              <g id="Grupo_1148525" data-name="Grupo 1148525">
                                <g transform="matrix(1, 0, 0, 1, -9, -6)" filter="url(#Trazado_982547)">
                                  <g id="Trazado_982547-2" data-name="Trazado 982547" transform="translate(9 6)" fill="#f7f4ed">
                                    <path d="M 37.966796875 74.43359375 C 33.04315185546875 74.43359375 28.26757431030273 73.46962738037109 23.77274131774902 71.56847381591797 C 19.43047523498535 69.73184967041016 15.53040790557861 67.10224914550781 12.18087482452393 63.75271987915039 C 8.831341743469238 60.4031867980957 6.201741218566895 56.50312042236328 4.365118980407715 52.16086196899414 C 2.463963508605957 47.66601943969727 1.499996900558472 42.89044189453125 1.499996900558472 37.966796875 C 1.499996900558472 33.04315185546875 2.463963508605957 28.26757431030273 4.365118980407715 23.77274131774902 C 6.201741218566895 19.43047523498535 8.831341743469238 15.53040790557861 12.18087482452393 12.18087482452393 C 15.53040790557861 8.831341743469238 19.43047523498535 6.201741218566895 23.77274131774902 4.365118980407715 C 28.26757431030273 2.463963508605957 33.04315185546875 1.499996900558472 37.966796875 1.499996900558472 C 42.89044189453125 1.499996900558472 47.66601943969727 2.463963508605957 52.16086196899414 4.365118980407715 C 56.50312042236328 6.201741218566895 60.4031867980957 8.831341743469238 63.75271987915039 12.18087482452393 C 67.10224914550781 15.53040790557861 69.73184967041016 19.43047523498535 71.56847381591797 23.77274131774902 C 73.46962738037109 28.26757431030273 74.43359375 33.04315185546875 74.43359375 37.966796875 C 74.43359375 42.89044189453125 73.46962738037109 47.66601943969727 71.56847381591797 52.16086196899414 C 69.73184967041016 56.50313186645508 67.10224914550781 60.4031867980957 63.75271987915039 63.75271987915039 C 60.4031867980957 67.10224914550781 56.50313186645508 69.73184967041016 52.16086196899414 71.56847381591797 C 47.66601943969727 73.46962738037109 42.89044189453125 74.43359375 37.966796875 74.43359375 Z" stroke="none"/>
                                    <path d="M 37.966796875 3 C 33.2449836730957 3 28.66600799560547 3.924095153808594 24.35705947875977 5.746635437011719 C 20.19359588623047 7.507637023925781 16.45379638671875 10.02928161621094 13.24153518676758 13.24153518676758 C 10.02927398681641 16.45379638671875 7.507621765136719 20.19359588623047 5.746635437011719 24.35705947875977 C 3.924095153808594 28.66600799560547 3 33.2449836730957 3 37.966796875 C 3 42.6886100769043 3.924095153808594 47.26758575439453 5.746635437011719 51.57653427124023 C 7.507621765136719 55.73999786376953 10.02927398681641 59.47979736328125 13.24153518676758 62.69205856323242 C 16.45379638671875 65.90431976318359 20.19359588623047 68.42597198486328 24.35705947875977 70.18695831298828 C 28.66600799560547 72.00949859619141 33.2449836730957 72.93359375 37.966796875 72.93359375 C 42.6886100769043 72.93359375 47.26758575439453 72.00949859619141 51.57653427124023 70.18695831298828 C 55.73999786376953 68.42597198486328 59.47979736328125 65.90431976318359 62.69205856323242 62.69205856323242 C 65.90431976318359 59.47979736328125 68.42597198486328 55.73999786376953 70.18695831298828 51.57653427124023 C 72.00949859619141 47.26758575439453 72.93359375 42.6886100769043 72.93359375 37.966796875 C 72.93359375 33.2449836730957 72.00949859619141 28.66600799560547 70.18695831298828 24.35705947875977 C 68.42597198486328 20.19359588623047 65.90431976318359 16.45379638671875 62.69205856323242 13.24153518676758 C 59.47979736328125 10.02928161621094 55.73999786376953 7.507637023925781 51.57653427124023 5.746635437011719 C 47.26758575439453 3.924095153808594 42.6886100769043 3 37.966796875 3 M 37.966796875 0 C 58.93528366088867 0 75.93359375 16.99832153320312 75.93359375 37.966796875 C 75.93359375 58.93528366088867 58.93528366088867 75.93359375 37.966796875 75.93359375 C 16.99831008911133 75.93359375 0 58.93528366088867 0 37.966796875 C 0 16.99832153320312 16.99831008911133 0 37.966796875 0 Z" stroke="none" fill="#847625"/>
                                  </g>
                                </g>
                              </g>
                            </g>
                          </g>
                        </g>
                      </g>
                    </g>
                  </g>
                </g>
              </g>
            </g>
          </g>
        </g>
      </g>
    </g>
    <g id="jurar" transform="translate(170.016 7360)">
      <g id="Grupo_1219385" data-name="Grupo 1219385" transform="translate(46.954 0.953)">
        <g id="Grupo_1219384" data-name="Grupo 1219384" transform="translate(0)">
          <path id="Trazado_1090397" data-name="Trazado 1090397" d="M96,10V46.261H128.61a1.71,1.71,0,0,0,1.705-1.705V11.705A1.71,1.71,0,0,0,128.61,10Z" transform="translate(-92.189 -10)" fill="#60a4ff" fill-rule="evenodd"/>
          <path id="Trazado_1090398" data-name="Trazado 1090398" d="M59.814,46.261V10h-.4A3.421,3.421,0,0,0,56,13.411V49.672a3.42,3.42,0,0,1,3.41-3.411Z" transform="translate(-56.001 -10)" fill="#a0c8ff" fill-rule="evenodd"/>
          <path id="Trazado_1090399" data-name="Trazado 1090399" d="M90.314,390.435h-30.9a3.411,3.411,0,0,0,0,6.821h30.9Z" transform="translate(-56.001 -354.174)" fill="#fff" fill-rule="evenodd"/>
          <path id="Trazado_1090400" data-name="Trazado 1090400" d="M416,374.249v6.821h2.107a1.71,1.71,0,0,0,1.705-1.705v-6.821a1.71,1.71,0,0,1-1.705,1.705Z" transform="translate(-381.686 -337.988)" fill="#a0c8ff" fill-rule="evenodd"/>
        </g>
        <path id="Trazado_1090401" data-name="Trazado 1090401" d="M152.293,84.441h-.007c-2.013-1.039-1.5-2.525-3.693-3-1.4-.3-2.662.917-2.159,1.678a10.016,10.016,0,0,1,1.757,3.052c1.363,3.742,4.716,2.942,4.73,6.668h11.522c.03-2.061,1.269-4.085,1.644-6.112a25.172,25.172,0,0,0,.465-5.157l.211-6.047a1.7,1.7,0,1,0-3.39-.014l.207-4.229c.114-2.33-3.224-2.657-3.467,0l-.519,8.459-.315-11.106a1.735,1.735,0,1,0-3.467,0l-.315,11.106-.77-8.405a1.843,1.843,0,0,0-1.733-1.808,1.73,1.73,0,0,0-1.734,1.808Z" transform="translate(-137.712 -61.408)" fill="#ffdcd5" fill-rule="evenodd"/>
        <path id="Trazado_1090402" data-name="Trazado 1090402" d="M217.424,339.761H205.9a1.02,1.02,0,0,0-1.017,1.017v3.813h13.557v-3.813A1.02,1.02,0,0,0,217.424,339.761Z" transform="translate(-190.693 -308.33)" fill="#6d91ac" fill-rule="evenodd"/>
        <path id="Trazado_1090403" data-name="Trazado 1090403" d="M204.884,390.436h13.557V401.07H204.884Z" transform="translate(-190.693 -354.175)" fill="#a7bdcd" fill-rule="evenodd"/>
      </g>
      <g id="Grupo_1219386" data-name="Grupo 1219386" transform="translate(46.001)">
        <path id="Trazado_1090404" data-name="Trazado 1090404" d="M83.375,0H50.365A4.369,4.369,0,0,0,46,4.364V40.625a4.369,4.369,0,0,0,4.364,4.364h9.827v2.86a.953.953,0,0,0,.953.953H74.7a.953.953,0,0,0,.953-.953v-2.86h7.72a2.661,2.661,0,0,0,2.658-2.658V2.659A2.661,2.661,0,0,0,83.375,0ZM60.192,43.082H50.365a2.457,2.457,0,0,1,0-4.915h9.827Zm2.344-18.54L61.451,10.8a.67.67,0,0,1,.189-.511.827.827,0,0,1,.594-.269c.458,0,.741.474.784.942l.769,8.405a.953.953,0,0,0,1.9-.06L66.005,8.2a.787.787,0,1,1,1.561,0l.316,11.106a.953.953,0,0,0,1.9.031L70.3,10.9c.075-.771.508-1.018.889-.991a.732.732,0,0,1,.676.87L71.663,15s0,.006,0,.01l-.207,4.224a.953.953,0,0,0,1.9.093l.206-4.207c.079-.785.58-.848.792-.838a.709.709,0,0,1,.694.769l-.21,6.028c0,.011,0,.022,0,.033a24.143,24.143,0,0,1-.449,4.984,15.435,15.435,0,0,1-.723,2.372,15.731,15.731,0,0,0-.856,2.96H63.04a4.839,4.839,0,0,0-2.407-3.312,5.378,5.378,0,0,1-2.3-2.728,9.678,9.678,0,0,0-1.614-2.926c-.059-.076-.113-.145-.16-.208a1.144,1.144,0,0,1,1.08-.338,1.973,1.973,0,0,1,1.443,1.057,5.3,5.3,0,0,0,1.548,1.588l.01.13a.953.953,0,1,0,1.9-.15ZM62.1,33.4a.068.068,0,0,1,.064-.064H73.371a.95.95,0,0,0,.309.054h0c.021,0,.041,0,.061,0a.058.058,0,0,1,0,.014v2.86H62.1Zm0,13.493V38.168H73.749V46.9Zm13.557-3.813V38.168h4.659v4.915Zm8.472-.752a.753.753,0,0,1-.752.752H82.22V38.168h1.154a2.649,2.649,0,0,0,.752-.108Zm0-6.821a.753.753,0,0,1-.752.752h-7.72V33.4a1.969,1.969,0,0,0-.958-1.687,14.172,14.172,0,0,1,.763-2.6,17.066,17.066,0,0,0,.8-2.674,26.121,26.121,0,0,0,.48-5.313l.211-6.031c0-.011,0-.022,0-.033a2.6,2.6,0,0,0-2.513-2.687,2.629,2.629,0,0,0-.748.075l.077-1.584A2.645,2.645,0,0,0,69.484,8.58l-.012-.429a2.687,2.687,0,1,0-5.373,0l-.021.749a2.554,2.554,0,0,0-1.845-.783A2.728,2.728,0,0,0,60.24,9a2.559,2.559,0,0,0-.689,1.955l.835,10.575a3.665,3.665,0,0,0-2.35-1.473,3.007,3.007,0,0,0-3.072,1.151,1.733,1.733,0,0,0-.083,1.985c.1.15.21.293.328.444a7.865,7.865,0,0,1,1.328,2.408,7.216,7.216,0,0,0,2.985,3.625c.873.627,1.458,1.047,1.633,2.044a1.969,1.969,0,0,0-.963,1.69v2.86H51.72V18.087a.953.953,0,1,0-1.906,0V36.3a4.338,4.338,0,0,0-1.906.724V4.364a2.461,2.461,0,0,1,1.906-2.394V9.508a.953.953,0,1,0,1.906,0v-7.6H83.375a.753.753,0,0,1,.752.752Z" transform="translate(-46.001)"/>
        <path id="Trazado_1090405" data-name="Trazado 1090405" d="M86.955,134.759a.953.953,0,1,0,.953.953h0A.953.953,0,0,0,86.955,134.759Z" transform="translate(-82.189 -121.914)"/>
      </g>
    </g>
  </g>
</svg>
