<svg xmlns="http://www.w3.org/2000/svg" xmlns:xlink="http://www.w3.org/1999/xlink" width="93.934" height="93.934" viewBox="0 0 93.934 93.934">
  <defs>
    <filter id="Trazado_982547" x="0" y="0" width="93.934" height="93.934" filterUnits="userSpaceOnUse">
      <feOffset dy="3" input="SourceAlpha"/>
      <feGaussianBlur stdDeviation="3" result="blur"/>
      <feFlood flood-opacity="0.161"/>
      <feComposite operator="in" in2="blur"/>
      <feComposite in="SourceGraphic"/>
    </filter>
  </defs>
  <g id="Grupo_1219395" data-name="Grupo 1219395" transform="translate(-1134.066 -7340)">
    <g id="Grupo_1219281" data-name="Grupo 1219281" transform="translate(942.771 3618)">
      <g id="Grupo_1214594" data-name="Grupo 1214594" transform="translate(0 -1406)">
        <g id="Grupo_1214432" data-name="Grupo 1214432" transform="translate(-0.771 -2738.674)">
          <g id="Grupo_1183196" data-name="Grupo 1183196" transform="translate(1 1016.674)">
            <g id="Grupo_1179610" data-name="Grupo 1179610" transform="translate(8 4723.467)">
              <g id="Grupo_1175227" data-name="Grupo 1175227" transform="translate(-5.967 140.533)">
                <g id="Grupo_1167337" data-name="Grupo 1167337" transform="translate(198.033 1992)">
                  <g id="Grupo_1166720" data-name="Grupo 1166720">
                    <g id="Grupo_1164305" data-name="Grupo 1164305">
                      <g id="Grupo_1163948" data-name="Grupo 1163948">
                        <g id="Grupo_1158168" data-name="Grupo 1158168">
                          <g id="Grupo_1152576" data-name="Grupo 1152576">
                            <g id="Grupo_1148633" data-name="Grupo 1148633">
                              <g id="Grupo_1148525" data-name="Grupo 1148525">
                                <g transform="matrix(1, 0, 0, 1, -9, -6)" filter="url(#Trazado_982547)">
                                  <g id="Trazado_982547-2" data-name="Trazado 982547" transform="translate(9 6)" fill="#f7f4ed">
                                    <path d="M 37.966796875 74.43359375 C 33.04315185546875 74.43359375 28.26757431030273 73.46962738037109 23.77274131774902 71.56847381591797 C 19.43047523498535 69.73184967041016 15.53040790557861 67.10224914550781 12.18087482452393 63.75271987915039 C 8.831341743469238 60.4031867980957 6.201741218566895 56.50312042236328 4.365118980407715 52.16086196899414 C 2.463963508605957 47.66601943969727 1.499996900558472 42.89044189453125 1.499996900558472 37.966796875 C 1.499996900558472 33.04315185546875 2.463963508605957 28.26757431030273 4.365118980407715 23.77274131774902 C 6.201741218566895 19.43047523498535 8.831341743469238 15.53040790557861 12.18087482452393 12.18087482452393 C 15.53040790557861 8.831341743469238 19.43047523498535 6.201741218566895 23.77274131774902 4.365118980407715 C 28.26757431030273 2.463963508605957 33.04315185546875 1.499996900558472 37.966796875 1.499996900558472 C 42.89044189453125 1.499996900558472 47.66601943969727 2.463963508605957 52.16086196899414 4.365118980407715 C 56.50312042236328 6.201741218566895 60.4031867980957 8.831341743469238 63.75271987915039 12.18087482452393 C 67.10224914550781 15.53040790557861 69.73184967041016 19.43047523498535 71.56847381591797 23.77274131774902 C 73.46962738037109 28.26757431030273 74.43359375 33.04315185546875 74.43359375 37.966796875 C 74.43359375 42.89044189453125 73.46962738037109 47.66601943969727 71.56847381591797 52.16086196899414 C 69.73184967041016 56.50313186645508 67.10224914550781 60.4031867980957 63.75271987915039 63.75271987915039 C 60.4031867980957 67.10224914550781 56.50313186645508 69.73184967041016 52.16086196899414 71.56847381591797 C 47.66601943969727 73.46962738037109 42.89044189453125 74.43359375 37.966796875 74.43359375 Z" stroke="none"/>
                                    <path d="M 37.966796875 3 C 33.2449836730957 3 28.66600799560547 3.924095153808594 24.35705947875977 5.746635437011719 C 20.19359588623047 7.507637023925781 16.45379638671875 10.02928161621094 13.24153518676758 13.24153518676758 C 10.02927398681641 16.45379638671875 7.507621765136719 20.19359588623047 5.746635437011719 24.35705947875977 C 3.924095153808594 28.66600799560547 3 33.2449836730957 3 37.966796875 C 3 42.6886100769043 3.924095153808594 47.26758575439453 5.746635437011719 51.57653427124023 C 7.507621765136719 55.73999786376953 10.02927398681641 59.47979736328125 13.24153518676758 62.69205856323242 C 16.45379638671875 65.90431976318359 20.19359588623047 68.42597198486328 24.35705947875977 70.18695831298828 C 28.66600799560547 72.00949859619141 33.2449836730957 72.93359375 37.966796875 72.93359375 C 42.6886100769043 72.93359375 47.26758575439453 72.00949859619141 51.57653427124023 70.18695831298828 C 55.73999786376953 68.42597198486328 59.47979736328125 65.90431976318359 62.69205856323242 62.69205856323242 C 65.90431976318359 59.47979736328125 68.42597198486328 55.73999786376953 70.18695831298828 51.57653427124023 C 72.00949859619141 47.26758575439453 72.93359375 42.6886100769043 72.93359375 37.966796875 C 72.93359375 33.2449836730957 72.00949859619141 28.66600799560547 70.18695831298828 24.35705947875977 C 68.42597198486328 20.19359588623047 65.90431976318359 16.45379638671875 62.69205856323242 13.24153518676758 C 59.47979736328125 10.02928161621094 55.73999786376953 7.507637023925781 51.57653427124023 5.746635437011719 C 47.26758575439453 3.924095153808594 42.6886100769043 3 37.966796875 3 M 37.966796875 0 C 58.93528366088867 0 75.93359375 16.99832153320312 75.93359375 37.966796875 C 75.93359375 58.93528366088867 58.93528366088867 75.93359375 37.966796875 75.93359375 C 16.99831008911133 75.93359375 0 58.93528366088867 0 37.966796875 C 0 16.99832153320312 16.99831008911133 0 37.966796875 0 Z" stroke="none" fill="#847625"/>
                                  </g>
                                </g>
                              </g>
                            </g>
                          </g>
                        </g>
                      </g>
                    </g>
                  </g>
                </g>
              </g>
            </g>
          </g>
        </g>
      </g>
    </g>
    <g id="incapacidad" transform="translate(1143.066 7304.65)">
      <g id="Grupo_1219394" data-name="Grupo 1219394" transform="translate(1.182 56.535)">
        <path id="Trazado_1090468" data-name="Trazado 1090468" d="M155.521,81.722h29.623c0-7.19,1.136-12.526-6.776-13.211a1.04,1.04,0,0,1-.762-1.636l1.318-1.866a1.04,1.04,0,0,0-.853-1.639h-9.531c-6.728,0-13.021,4.3-13.021,11.531v6.821Z" transform="translate(-133.723 -63.37)" fill="#231915" fill-rule="evenodd"/>
        <path id="Trazado_1090469" data-name="Trazado 1090469" d="M158.131,170h24.426a2.6,2.6,0,0,1,2.6,2.6v3.314a2.6,2.6,0,0,1-2.6,2.6H158.131a2.605,2.605,0,0,1-2.6-2.6V172.6A2.6,2.6,0,0,1,158.131,170Z" transform="translate(-133.731 -154.244)" fill="#e2aa73" fill-rule="evenodd"/>
        <path id="Trazado_1090470" data-name="Trazado 1090470" d="M121.411,256.41h11.717v4.564a5.53,5.53,0,0,0,3.254,5.108c5.489,2.561,13.207,3.161,13.207,10.269v7.421a1.041,1.041,0,0,1-1.039,1.039H105.989a1.041,1.041,0,0,1-1.039-1.039v-7.421c0-7.109,7.718-7.709,13.207-10.269a5.529,5.529,0,0,0,3.254-5.108Z" transform="translate(-90.625 -227.886)" fill="#ffd400" fill-rule="evenodd"/>
        <path id="Trazado_1090471" data-name="Trazado 1090471" d="M205.842,256.41h11.717v4.564a5.52,5.52,0,0,0,1.822,4.167,8.108,8.108,0,0,1-15.361,0,5.52,5.52,0,0,0,1.822-4.167Z" transform="translate(-175.056 -227.886)" fill="#fbbd80" fill-rule="evenodd"/>
        <path id="Trazado_1090472" data-name="Trazado 1090472" d="M215.932,256.41H227.65v4.564a5.532,5.532,0,0,0,.069.9,12.174,12.174,0,0,1-5.712,1.42h-.495a12.135,12.135,0,0,1-5.652-1.392,5.9,5.9,0,0,0,.072-.934Z" transform="translate(-185.147 -227.886)" fill="#e2aa73" fill-rule="evenodd"/>
        <path id="Trazado_1090473" data-name="Trazado 1090473" d="M198.057,135.117l1.441.962a4.263,4.263,0,0,0,2.471.751h.839a3.218,3.218,0,0,1,3.214,3.209v6.979a10.219,10.219,0,0,1-10.188,10.188h-.495a10.219,10.219,0,0,1-10.188-10.188v-6.979a3.218,3.218,0,0,1,3.214-3.209h.839a4.253,4.253,0,0,0,2.471-.751l1.441-.962A4.365,4.365,0,0,1,198.057,135.117Z" transform="translate(-158.975 -123.862)" fill="#fbbd80" fill-rule="evenodd"/>
        <g id="Grupo_1219393" data-name="Grupo 1219393" transform="translate(0 17.73)">
          <path id="Trazado_1090474" data-name="Trazado 1090474" d="M399.6,183.652l1.6,1.6a.991.991,0,0,1,0,1.4l-5.6,5.6,5.6,5.6a.987.987,0,0,1,0,1.4l-1.6,1.6a.991.991,0,0,1-1.4,0l-5.6-5.6-5.6,5.6a.987.987,0,0,1-1.4,0l-1.6-1.6a.987.987,0,0,1,0-1.4l5.6-5.6-5.6-5.6a.991.991,0,0,1,0-1.4l1.6-1.6a.987.987,0,0,1,1.4,0l5.6,5.6,5.6-5.6A.991.991,0,0,1,399.6,183.652Z" transform="translate(-328.197 -183.363)" fill="#ff4646" fill-rule="evenodd"/>
          <path id="Trazado_1090475" data-name="Trazado 1090475" d="M23.889,183.652l1.6,1.6a.991.991,0,0,1,0,1.4l-5.6,5.6,5.6,5.6a.987.987,0,0,1,0,1.4l-1.6,1.6a.987.987,0,0,1-1.4,0l-5.6-5.6-5.6,5.6a.991.991,0,0,1-1.4,0l-1.6-1.6a.987.987,0,0,1,0-1.4l5.6-5.6-5.6-5.6a.991.991,0,0,1,0-1.4l1.6-1.6a.991.991,0,0,1,1.4,0l5.6,5.6,5.6-5.6A.989.989,0,0,1,23.889,183.652Z" transform="translate(-8.002 -183.363)" fill="#ff4646" fill-rule="evenodd"/>
        </g>
      </g>
      <path id="Trazado_1090476" data-name="Trazado 1090476" d="M51.338,95.17c-1.324-.465-2.692-.947-3.9-1.509a4.359,4.359,0,0,1-2.573-4.04v-.847a11.377,11.377,0,0,0,4.312-6.794h.827A3.787,3.787,0,0,0,53.79,78.2V74.885c0-.817.015-1.614.03-2.385.058-3.106.108-5.789-.841-7.911-1.082-2.416-3.246-3.713-6.806-4.069l1.184-1.676a2.224,2.224,0,0,0-1.822-3.495H36a15.406,15.406,0,0,0-9.783,3.322,11.927,11.927,0,0,0-4.42,9.39V78.2a3.787,3.787,0,0,0,3.783,3.783h.83a11.379,11.379,0,0,0,4.375,6.841v.8a4.354,4.354,0,0,1-2.573,4.04c-1.206.561-2.574,1.043-3.9,1.509-4.683,1.646-9.99,3.512-9.99,9.832v7.422a2.222,2.222,0,0,0,2.219,2.219H59.109a2.222,2.222,0,0,0,2.219-2.219V105C61.328,98.684,56.021,96.818,51.338,95.17Zm.089-16.97a1.421,1.421,0,0,1-1.42,1.42h-.594V73.471h.594a1.42,1.42,0,0,1,1.42,1.416ZM36,57.714h9.263L44.1,59.363a2.222,2.222,0,0,0,1.627,3.49c5.356.465,5.814,2.849,5.748,8.551a3.758,3.758,0,0,0-1.466-.3h-.9a4.4,4.4,0,0,0-4.089-2.79h-.842a3.075,3.075,0,0,1-1.815-.551L40.922,66.8a5.533,5.533,0,0,0-6.256,0l-1.433.962a3.1,3.1,0,0,1-1.82.551h-.838a4.4,4.4,0,0,0-4.089,2.79h-.9a3.753,3.753,0,0,0-1.42.278V68.065c0-6.8,5.953-10.351,11.837-10.351ZM24.16,78.2V74.887a1.42,1.42,0,0,1,1.42-1.416h.6V79.62h-.6A1.421,1.421,0,0,1,24.16,78.2Zm4.381,1.492V72.713a2.034,2.034,0,0,1,2.032-2.032h.838a5.483,5.483,0,0,0,3.134-.95l1.435-.962a3.172,3.172,0,0,1,3.629,0,0,0,0,0,1,0,0l1.439.962a5.456,5.456,0,0,0,3.128.95h.842a2.034,2.034,0,0,1,2.032,2.032v6.979a8.936,8.936,0,0,1-.049.937c0,.024-.007.046-.009.069a9.012,9.012,0,0,1-3.873,6.426,1.205,1.205,0,0,0-.154.1,8.962,8.962,0,0,1-4.925,1.47h-.494a8.95,8.95,0,0,1-4.863-1.432,1.074,1.074,0,0,0-.17-.109,9,9,0,0,1-3.975-7.463Zm9,11.367h.494a11.313,11.313,0,0,0,4.483-.922,6.649,6.649,0,0,0,1.6,3.936,6.923,6.923,0,0,1-12.6,0,6.648,6.648,0,0,0,1.6-3.908A11.342,11.342,0,0,0,37.546,91.059Zm21.421,21.223h-8.44v-3.6a1.181,1.181,0,0,0-2.361,0v3.6H27.49v-3.6a1.181,1.181,0,0,0-2.361,0v3.6h-8.44V105c0-4.646,3.9-6.017,8.412-7.6,1.377-.485,2.8-.986,4.112-1.6.148-.069.293-.142.433-.219a9.284,9.284,0,0,0,16.366,0c.14.077.284.151.431.219,1.311.61,2.735,1.111,4.112,1.6,4.514,1.587,8.412,2.958,8.412,7.6ZM34.183,83.473a5.176,5.176,0,0,1,7.288,0,1.181,1.181,0,1,1-1.665,1.674,2.811,2.811,0,0,0-3.954,0,1.182,1.182,0,0,1-1.668-1.674ZM31.33,74.8a1.181,1.181,0,0,1,1.65-.26.977.977,0,0,0,.557.155.937.937,0,0,0,.557-.155,1.181,1.181,0,0,1,1.39,1.911,3.426,3.426,0,0,1-3.895,0,1.184,1.184,0,0,1-.26-1.65Zm8.579,0a1.181,1.181,0,0,1,1.65-.26.937.937,0,0,0,.557.155.977.977,0,0,0,.557-.155,1.181,1.181,0,0,1,1.39,1.911,3.426,3.426,0,0,1-3.895,0A1.181,1.181,0,0,1,39.909,74.8Zm35.11,13.126-4.765-4.77,4.765-4.765a2.172,2.172,0,0,0,0-3.07l-1.6-1.6a2.172,2.172,0,0,0-3.069,0l-4.765,4.765-4.765-4.765a2.172,2.172,0,0,0-3.069,0l-1.6,1.6a2.172,2.172,0,0,0,0,3.07l4.768,4.765-4.768,4.768a2.172,2.172,0,0,0,0,3.07l1.6,1.594a2.172,2.172,0,0,0,3.07,0l4.765-4.765,4.765,4.765a2.172,2.172,0,0,0,3.069,0l1.6-1.6A2.17,2.17,0,0,0,75.018,87.921Zm-3.134,2.858L66.42,85.314a1.181,1.181,0,0,0-1.67,0l-5.464,5.464-1.328-1.325,5.469-5.469a1.181,1.181,0,0,0,0-1.67l-5.469-5.464,1.328-1.324,5.464,5.464a1.181,1.181,0,0,0,1.67,0l5.464-5.464,1.328,1.324-5.464,5.464a1.181,1.181,0,0,0,0,1.67l5.464,5.469ZM16.369,93.22a2.156,2.156,0,0,0,1.534-.634l1.6-1.6a2.172,2.172,0,0,0,0-3.069l-4.765-4.77L19.5,78.386a2.172,2.172,0,0,0,0-3.07l-1.6-1.6a2.172,2.172,0,0,0-3.069,0l-4.765,4.765L5.3,73.721a2.172,2.172,0,0,0-3.069,0l-1.6,1.6a2.172,2.172,0,0,0,0,3.07L5.4,83.153.635,87.919a2.172,2.172,0,0,0,0,3.07l1.6,1.594a2.172,2.172,0,0,0,3.07,0l4.765-4.765,4.765,4.765a2.15,2.15,0,0,0,1.534.635ZM9.235,85.314,3.771,90.779,2.443,89.453l5.469-5.469a1.181,1.181,0,0,0,0-1.67L2.443,76.851l1.328-1.324,5.464,5.464a1.181,1.181,0,0,0,1.67,0l5.464-5.464L17.7,76.851l-5.464,5.464a1.181,1.181,0,0,0,0,1.67L17.7,89.453l-1.328,1.325L10.9,85.314a1.181,1.181,0,0,0-1.67,0Z"/>
    </g>
  </g>
</svg>
