<svg xmlns="http://www.w3.org/2000/svg" xmlns:xlink="http://www.w3.org/1999/xlink" width="108" height="108" viewBox="0 0 108 108">
  <defs>
    <filter id="Trazado_904820" x="0" y="0" width="108" height="108" filterUnits="userSpaceOnUse">
      <feOffset dy="3" input="SourceAlpha"/>
      <feGaussianBlur stdDeviation="3" result="blur"/>
      <feFlood flood-opacity="0.161"/>
      <feComposite operator="in" in2="blur"/>
      <feComposite in="SourceGraphic"/>
    </filter>
  </defs>
  <g id="Grupo_1219382" data-name="Grupo 1219382" transform="translate(-615 -8930)">
    <g id="Grupo_1218825" data-name="Grupo 1218825" transform="translate(624 8934.512)">
      <g id="Grupo_1218002" data-name="Grupo 1218002" transform="translate(0 1.488)">
        <g id="Grupo_1211578" data-name="Grupo 1211578" transform="translate(0 0)">
          <g id="Grupo_1207774" data-name="Grupo 1207774" transform="translate(0 0)">
            <g id="Grupo_1206630" data-name="Grupo 1206630" transform="translate(0 0)">
              <g id="Grupo_1185091" data-name="Grupo 1185091" transform="translate(0 0)">
                <g id="Grupo_1179560" data-name="Grupo 1179560">
                  <g id="Grupo_1173787" data-name="Grupo 1173787">
                    <g id="Grupo_1171910" data-name="Grupo 1171910">
                      <g id="Grupo_1167341" data-name="Grupo 1167341">
                        <g id="Grupo_1166792" data-name="Grupo 1166792">
                          <g transform="matrix(1, 0, 0, 1, -9, -6)" filter="url(#Trazado_904820)">
                            <g id="Trazado_904820-2" data-name="Trazado 904820" transform="translate(9 6)" fill="#f7f4ed">
                              <path d="M 44.99999618530273 88.50019836425781 C 39.12687301635742 88.50019836425781 33.43022155761719 87.35027313232422 28.06829643249512 85.08235931396484 C 22.88852119445801 82.89149475097656 18.23629570007324 79.75476837158203 14.24085903167725 75.75930786132812 C 10.24540901184082 71.76385498046875 7.108683586120605 67.11161804199219 4.917821407318115 61.93183135986328 C 2.649921178817749 56.56989669799805 1.499996185302734 50.87323379516602 1.499996185302734 45.00009536743164 C 1.499996185302734 39.12695693969727 2.649921178817749 33.43029403686523 4.917821407318115 28.06835746765137 C 7.108683586120605 22.88857078552246 10.24540901184082 18.23633193969727 14.24085903167725 14.24088287353516 C 18.23629570007324 10.24542045593262 22.88852119445801 7.108695507049561 28.06829643249512 4.917832851409912 C 33.43022155761719 2.649920463562012 39.12687301635742 1.499995350837708 44.99999618530273 1.499995350837708 C 50.87311935424805 1.499995350837708 56.56977081298828 2.649920463562012 61.93169784545898 4.917832851409912 C 67.11147308349609 7.108695507049561 71.76369476318359 10.24542045593262 75.75913238525391 14.24088287353516 C 79.75458526611328 18.23633193969727 82.89131164550781 22.88857078552246 85.08216857910156 28.06835746765137 C 87.35007476806641 33.43029403686523 88.5 39.12695693969727 88.5 45.00009536743164 C 88.5 50.87323379516602 87.35007476806641 56.56989669799805 85.08216857910156 61.93183135986328 C 82.89131164550781 67.11161804199219 79.75458526611328 71.76385498046875 75.75913238525391 75.75930786132812 C 71.76369476318359 79.75476837158203 67.11147308349609 82.89149475097656 61.93169784545898 85.08235931396484 C 56.56977081298828 87.35027313232422 50.87311935424805 88.50019836425781 44.99999618530273 88.50019836425781 Z" stroke="none"/>
                              <path d="M 44.99999618530273 2.999992370605469 C 39.32870864868164 2.999992370605469 33.82866668701172 4.110054016113281 28.65262603759766 6.299339294433594 C 23.65165710449219 8.414581298828125 19.15969848632812 11.44335174560547 15.301513671875 15.30153656005859 C 11.44333648681641 19.15972137451172 8.414566040039062 23.65169525146484 6.299339294433594 28.65267944335938 C 4.110054016113281 33.82873916625977 2.999992370605469 39.32879638671875 2.999992370605469 45.00009536743164 C 2.999992370605469 50.67139434814453 4.110054016113281 56.17145156860352 6.299339294433594 61.34751129150391 C 8.414566040039062 66.34849548339844 11.44333648681641 70.84046936035156 15.301513671875 74.69865417480469 C 19.15969848632812 78.55683898925781 23.65165710449219 81.58560943603516 28.65262603759766 83.70085144042969 C 33.82866668701172 85.89013671875 39.32870864868164 87.00019836425781 44.99999618530273 87.00019836425781 C 50.67128372192383 87.00019836425781 56.17132568359375 85.89013671875 61.34736633300781 83.70085144042969 C 66.34834289550781 81.58560943603516 70.84029388427734 78.55683898925781 74.69847869873047 74.69865417480469 C 78.55665588378906 70.84046936035156 81.58542633056641 66.34849548339844 83.70065307617188 61.34751129150391 C 85.88993835449219 56.17145156860352 87 50.67139434814453 87 45.00009536743164 C 87 39.32879638671875 85.88993835449219 33.82873916625977 83.70065307617188 28.65267944335938 C 81.58542633056641 23.65169525146484 78.55665588378906 19.15972137451172 74.69847869873047 15.30153656005859 C 70.84029388427734 11.44335174560547 66.34834289550781 8.414581298828125 61.34736633300781 6.299339294433594 C 56.17132568359375 4.110054016113281 50.67128372192383 2.999992370605469 44.99999618530273 2.999992370605469 M 44.99999618530273 -7.62939453125e-06 C 69.85281372070312 -7.62939453125e-06 90 20.14723968505859 90 45.00009536743164 C 90 69.85295104980469 69.85281372070312 90.00019836425781 44.99999618530273 90.00019836425781 C 20.14717864990234 90.00019836425781 -7.62939453125e-06 69.85295104980469 -7.62939453125e-06 45.00009536743164 C -7.62939453125e-06 20.14723968505859 20.14717864990234 -7.62939453125e-06 44.99999618530273 -7.62939453125e-06 Z" stroke="none" fill="#ba9c5a"/>
                            </g>
                          </g>
                        </g>
                      </g>
                    </g>
                  </g>
                </g>
              </g>
            </g>
          </g>
        </g>
      </g>
    </g>
    <g id="estrategia" transform="translate(633 8923.018)">
      <circle id="Elipse_12015" data-name="Elipse 12015" cx="4" cy="4" r="4" transform="translate(62 26.982)" fill="#e5f8d2"/>
      <circle id="Elipse_12016" data-name="Elipse 12016" cx="3.896" cy="3.896" r="3.896" transform="translate(62.047 80.8)" fill="#ffe1af"/>
      <circle id="Elipse_12017" data-name="Elipse 12017" cx="4" cy="4" r="4" transform="translate(1 26.982)" fill="#d9f9f7"/>
      <circle id="Elipse_12018" data-name="Elipse 12018" cx="3.896" cy="3.896" r="3.896" transform="translate(1.391 80.8)" fill="#ff8e8e"/>
      <path id="Trazado_1090386" data-name="Trazado 1090386" d="M117.391,94.39V87.006a1.086,1.086,0,0,0-1.086-1.086H113.1a1.082,1.082,0,0,1-1.049-.806,21.942,21.942,0,0,0-2.31-5.58,1.082,1.082,0,0,1,.172-1.312l2.267-2.267a1.086,1.086,0,0,0,0-1.536L106.957,69.2a1.086,1.086,0,0,0-1.536,0l-2.267,2.267a1.083,1.083,0,0,1-1.312.172,21.926,21.926,0,0,0-5.58-2.31,1.082,1.082,0,0,1-.806-1.049V65.071a1.086,1.086,0,0,0-1.086-1.086H86.986A1.086,1.086,0,0,0,85.9,65.071v3.215a1.082,1.082,0,0,1-.8,1.048,21.938,21.938,0,0,0-5.571,2.313,1.083,1.083,0,0,1-1.313-.171L75.935,69.2a1.086,1.086,0,0,0-1.536,0L69.178,74.42a1.086,1.086,0,0,0,0,1.536l2.285,2.285a1.082,1.082,0,0,1,.172,1.311,21.93,21.93,0,0,0-2.3,5.563,1.082,1.082,0,0,1-1.049.806H65.051a1.086,1.086,0,0,0-1.086,1.086V94.39a1.086,1.086,0,0,0,1.086,1.086h3.242a1.082,1.082,0,0,1,1.048.8,21.934,21.934,0,0,0,2.3,5.554,1.083,1.083,0,0,1-.171,1.312l-2.295,2.295a1.086,1.086,0,0,0,0,1.536L74.4,112.2a1.086,1.086,0,0,0,1.536,0l2.295-2.295a1.083,1.083,0,0,1,1.312-.171,21.931,21.931,0,0,0,5.554,2.3,1.082,1.082,0,0,1,.8,1.048v3.242a1.086,1.086,0,0,0,1.086,1.086H94.37a1.086,1.086,0,0,0,1.086-1.086V113.09a1.082,1.082,0,0,1,.806-1.049,21.932,21.932,0,0,0,5.563-2.3,1.082,1.082,0,0,1,1.311.172l2.285,2.285a1.086,1.086,0,0,0,1.536,0l5.221-5.221a1.086,1.086,0,0,0,0-1.536l-2.277-2.277a1.083,1.083,0,0,1-.171-1.313,21.932,21.932,0,0,0,2.313-5.571,1.082,1.082,0,0,1,1.048-.8h3.215A1.086,1.086,0,0,0,117.391,94.39Z" transform="translate(-55.066 -32.716)" fill="#96ede7"/>
      <circle id="Elipse_12019" data-name="Elipse 12019" cx="15.026" cy="15.026" r="15.026" transform="translate(20.586 42.956)" fill="#fff"/>
      <path id="Trazado_1090387" data-name="Trazado 1090387" d="M175.183,200.445l-9.441,9.441a15.026,15.026,0,1,0,24.743-17.045l-11.453,11.454Z" transform="translate(-142.684 -143.646)" fill="#ff5d5d"/>
      <path id="Trazado_1090388" data-name="Trazado 1090388" d="M396.511,410.012a5.3,5.3,0,0,0-5.1,3.9h-4.639v-.046a1.391,1.391,0,1,0-2.783,0V415.3a1.391,1.391,0,0,0,1.391,1.391h6.031a5.287,5.287,0,1,0,5.1-6.678Zm0,7.791a2.5,2.5,0,1,1,2.5-2.5A2.507,2.507,0,0,1,396.511,417.8Z" transform="translate(-330.568 -330.604)"/>
      <path id="Trazado_1090389" data-name="Trazado 1090389" d="M5.287,36.556a5.3,5.3,0,0,0,5.1-3.9h4.639a1.391,1.391,0,0,0,2.783,0V31.269a1.392,1.392,0,0,0-1.391-1.391H10.387a5.287,5.287,0,1,0-5.1,6.678Zm0-7.791a2.5,2.5,0,1,1-2.5,2.5A2.507,2.507,0,0,1,5.287,28.765Z"/>
      <path id="Trazado_1090390" data-name="Trazado 1090390" d="M105.278,97.6a2.461,2.461,0,0,0-.726-1.752l-2.111-2.111a23.333,23.333,0,0,0,2.275-5.479h2.98a2.48,2.48,0,0,0,2.477-2.477V78.4A2.48,2.48,0,0,0,107.7,75.92h-2.973a23.333,23.333,0,0,0-2.272-5.489l2.1-2.1a2.477,2.477,0,0,0,0-3.5l-5.221-5.221a2.477,2.477,0,0,0-3.5,0l-2.1,2.1a23.326,23.326,0,0,0-5.489-2.272V56.462a2.48,2.48,0,0,0-2.477-2.477H78.378A2.48,2.48,0,0,0,75.9,56.462v2.98a23.332,23.332,0,0,0-5.479,2.275l-2.111-2.111a2.477,2.477,0,0,0-3.5,0l-5.221,5.221a2.477,2.477,0,0,0,0,3.5L61.7,70.449a23.323,23.323,0,0,0-2.262,5.471h-3A2.48,2.48,0,0,0,53.965,78.4v7.384a2.48,2.48,0,0,0,2.477,2.477H59.45a23.329,23.329,0,0,0,2.265,5.461l-2.128,2.129a2.477,2.477,0,0,0,0,3.5l5.221,5.221a2.477,2.477,0,0,0,3.5,0l2.129-2.129a23.323,23.323,0,0,0,5.461,2.265v3.008a2.48,2.48,0,0,0,2.477,2.477h7.384a2.48,2.48,0,0,0,2.477-2.477v-3a23.334,23.334,0,0,0,5.471-2.262l2.119,2.119a2.477,2.477,0,0,0,3.5,0l5.221-5.221A2.462,2.462,0,0,0,105.278,97.6Zm-7.7,4.789-2.069-2.069a2.473,2.473,0,0,0-3-.389,20.552,20.552,0,0,1-5.21,2.154,2.472,2.472,0,0,0-1.847,2.4v2.93H78.683v-2.937a2.473,2.473,0,0,0-1.844-2.395,20.56,20.56,0,0,1-5.2-2.157,2.474,2.474,0,0,0-3,.388l-2.079,2.079-4.79-4.79,2.079-2.079a2.474,2.474,0,0,0,.388-3,20.547,20.547,0,0,1-2.157-5.2,2.474,2.474,0,0,0-2.395-1.844H56.747V78.7h2.93a2.473,2.473,0,0,0,2.4-1.847,20.549,20.549,0,0,1,2.154-5.21,2.474,2.474,0,0,0-.389-3l-2.069-2.069,4.79-4.79L68.62,63.85a2.473,2.473,0,0,0,3,.387,20.544,20.544,0,0,1,5.217-2.166,2.473,2.473,0,0,0,1.844-2.394V56.768h6.773v2.9a2.473,2.473,0,0,0,1.847,2.4,20.547,20.547,0,0,1,5.226,2.163,2.474,2.474,0,0,0,3-.388L97.58,61.79l4.79,4.79-2.051,2.051a2.474,2.474,0,0,0-.388,3,20.548,20.548,0,0,1,2.163,5.226,2.472,2.472,0,0,0,2.4,1.847h2.9v6.773h-2.909a2.473,2.473,0,0,0-2.394,1.844,20.559,20.559,0,0,1-2.166,5.217,2.473,2.473,0,0,0,.387,3l2.061,2.061Z" transform="translate(-46.457 -24.107)"/>
      <path id="Trazado_1090391" data-name="Trazado 1090391" d="M160.021,144.6a1.391,1.391,0,0,0-.955,2.614,13.635,13.635,0,1,1-9.7.13,1.391,1.391,0,0,0-1.025-2.587,16.417,16.417,0,1,0,11.679-.157Z" transform="translate(-118.776 -102.041)"/>
      <path id="Trazado_1090392" data-name="Trazado 1090392" d="M247.37,140.773h.07a1.391,1.391,0,0,0,.008-2.783h-.078a1.391,1.391,0,1,0,0,2.783Z" transform="translate(-211.758 -96.425)"/>
      <path id="Trazado_1090393" data-name="Trazado 1090393" d="M209.7,220.111a1.392,1.392,0,0,0,1.968,0l1.628-1.628,2.866,2.866a1.392,1.392,0,0,0,1.968,0l4.419-4.419a1.391,1.391,0,0,0,2.733-.362V213.62a1.392,1.392,0,0,0-1.391-1.391H220.94a1.391,1.391,0,0,0-.364,2.733l-3.435,3.435-2.866-2.866a1.392,1.392,0,0,0-1.968,0l-2.612,2.612A1.391,1.391,0,0,0,209.7,220.111Z" transform="translate(-180.172 -160.336)"/>
      <path id="Trazado_1090394" data-name="Trazado 1090394" d="M186.692,275.219a1.39,1.39,0,1,0,.984-.408A1.4,1.4,0,0,0,186.692,275.219Z" transform="translate(-160.368 -214.212)"/>
      <path id="Trazado_1090395" data-name="Trazado 1090395" d="M385.382,34.052a1.392,1.392,0,0,0,1.391-1.391h4.639a5.287,5.287,0,1,0,0-2.783h-6.031a1.392,1.392,0,0,0-1.391,1.391V32.66A1.391,1.391,0,0,0,385.382,34.052Zm11.13-5.287a2.5,2.5,0,1,1-2.5,2.5A2.507,2.507,0,0,1,396.513,28.765Z" transform="translate(-330.57 0)"/>
      <path id="Trazado_1090396" data-name="Trazado 1090396" d="M16.417,412.47a1.392,1.392,0,0,0-1.391,1.391v.046H10.387a5.287,5.287,0,1,0,0,2.783h6.031a1.392,1.392,0,0,0,1.391-1.391v-1.438A1.392,1.392,0,0,0,16.417,412.47ZM5.287,417.8a2.5,2.5,0,1,1,2.5-2.5A2.507,2.507,0,0,1,5.287,417.8Z" transform="translate(0 -330.604)"/>
    </g>
  </g>
</svg>
