<svg xmlns="http://www.w3.org/2000/svg" xmlns:xlink="http://www.w3.org/1999/xlink" width="93.934" height="93.934" viewBox="0 0 93.934 93.934">
  <defs>
    <filter id="Trazado_982547" x="0" y="0" width="93.934" height="93.934" filterUnits="userSpaceOnUse">
      <feOffset dy="3" input="SourceAlpha"/>
      <feGaussianBlur stdDeviation="3" result="blur"/>
      <feFlood flood-opacity="0.161"/>
      <feComposite operator="in" in2="blur"/>
      <feComposite in="SourceGraphic"/>
    </filter>
  </defs>
  <g id="Grupo_1219526" data-name="Grupo 1219526" transform="translate(-611.066 -5095.849)">
    <g id="Grupo_1219290" data-name="Grupo 1219290" transform="translate(0 -2141.186)">
      <g id="Grupo_1216284" data-name="Grupo 1216284" transform="translate(0 6194.186)">
        <g id="Grupo_1215982" data-name="Grupo 1215982" transform="translate(-0.229 -2679.151)">
          <g id="Grupo_1214640" data-name="Grupo 1214640" transform="translate(0 -1406)">
            <g id="Grupo_1214433" data-name="Grupo 1214433" transform="translate(-0.771 -2738.674)">
              <g id="Grupo_1183190" data-name="Grupo 1183190" transform="translate(1 1016.674)">
                <g id="Grupo_1179611" data-name="Grupo 1179611" transform="translate(428 4723.467)">
                  <g id="Grupo_1175227" data-name="Grupo 1175227" transform="translate(-5.967 140.533)">
                    <g id="Grupo_1167337" data-name="Grupo 1167337" transform="translate(198.033 1992)">
                      <g id="Grupo_1166720" data-name="Grupo 1166720">
                        <g id="Grupo_1164305" data-name="Grupo 1164305">
                          <g id="Grupo_1163948" data-name="Grupo 1163948">
                            <g id="Grupo_1158168" data-name="Grupo 1158168">
                              <g id="Grupo_1152576" data-name="Grupo 1152576">
                                <g id="Grupo_1148633" data-name="Grupo 1148633">
                                  <g id="Grupo_1148525" data-name="Grupo 1148525">
                                    <g transform="matrix(1, 0, 0, 1, -9, -6)" filter="url(#Trazado_982547)">
                                      <g id="Trazado_982547-2" data-name="Trazado 982547" transform="translate(9 6)" fill="#f7f4ed">
                                        <path d="M 37.966796875 74.43359375 C 33.04315185546875 74.43359375 28.26757431030273 73.46962738037109 23.77274131774902 71.56847381591797 C 19.43047523498535 69.73184967041016 15.53040790557861 67.10224914550781 12.18087482452393 63.75271987915039 C 8.831341743469238 60.4031867980957 6.201741218566895 56.50312042236328 4.365118980407715 52.16086196899414 C 2.463963508605957 47.66601943969727 1.499996900558472 42.89044189453125 1.499996900558472 37.966796875 C 1.499996900558472 33.04315185546875 2.463963508605957 28.26757431030273 4.365118980407715 23.77274131774902 C 6.201741218566895 19.43047523498535 8.831341743469238 15.53040790557861 12.18087482452393 12.18087482452393 C 15.53040790557861 8.831341743469238 19.43047523498535 6.201741218566895 23.77274131774902 4.365118980407715 C 28.26757431030273 2.463963508605957 33.04315185546875 1.499996900558472 37.966796875 1.499996900558472 C 42.89044189453125 1.499996900558472 47.66601943969727 2.463963508605957 52.16086196899414 4.365118980407715 C 56.50312042236328 6.201741218566895 60.4031867980957 8.831341743469238 63.75271987915039 12.18087482452393 C 67.10224914550781 15.53040790557861 69.73184967041016 19.43047523498535 71.56847381591797 23.77274131774902 C 73.46962738037109 28.26757431030273 74.43359375 33.04315185546875 74.43359375 37.966796875 C 74.43359375 42.89044189453125 73.46962738037109 47.66601943969727 71.56847381591797 52.16086196899414 C 69.73184967041016 56.50313186645508 67.10224914550781 60.4031867980957 63.75271987915039 63.75271987915039 C 60.4031867980957 67.10224914550781 56.50313186645508 69.73184967041016 52.16086196899414 71.56847381591797 C 47.66601943969727 73.46962738037109 42.89044189453125 74.43359375 37.966796875 74.43359375 Z" stroke="none"/>
                                        <path d="M 37.966796875 3 C 33.2449836730957 3 28.66600799560547 3.924095153808594 24.35705947875977 5.746635437011719 C 20.19359588623047 7.507637023925781 16.45379638671875 10.02928161621094 13.24153518676758 13.24153518676758 C 10.02927398681641 16.45379638671875 7.507621765136719 20.19359588623047 5.746635437011719 24.35705947875977 C 3.924095153808594 28.66600799560547 3 33.2449836730957 3 37.966796875 C 3 42.6886100769043 3.924095153808594 47.26758575439453 5.746635437011719 51.57653427124023 C 7.507621765136719 55.73999786376953 10.02927398681641 59.47979736328125 13.24153518676758 62.69205856323242 C 16.45379638671875 65.90431976318359 20.19359588623047 68.42597198486328 24.35705947875977 70.18695831298828 C 28.66600799560547 72.00949859619141 33.2449836730957 72.93359375 37.966796875 72.93359375 C 42.6886100769043 72.93359375 47.26758575439453 72.00949859619141 51.57653427124023 70.18695831298828 C 55.73999786376953 68.42597198486328 59.47979736328125 65.90431976318359 62.69205856323242 62.69205856323242 C 65.90431976318359 59.47979736328125 68.42597198486328 55.73999786376953 70.18695831298828 51.57653427124023 C 72.00949859619141 47.26758575439453 72.93359375 42.6886100769043 72.93359375 37.966796875 C 72.93359375 33.2449836730957 72.00949859619141 28.66600799560547 70.18695831298828 24.35705947875977 C 68.42597198486328 20.19359588623047 65.90431976318359 16.45379638671875 62.69205856323242 13.24153518676758 C 59.47979736328125 10.02928161621094 55.73999786376953 7.507637023925781 51.57653427124023 5.746635437011719 C 47.26758575439453 3.924095153808594 42.6886100769043 3 37.966796875 3 M 37.966796875 0 C 58.93528366088867 0 75.93359375 16.99832153320312 75.93359375 37.966796875 C 75.93359375 58.93528366088867 58.93528366088867 75.93359375 37.966796875 75.93359375 C 16.99831008911133 75.93359375 0 58.93528366088867 0 37.966796875 C 0 16.99832153320312 16.99831008911133 0 37.966796875 0 Z" stroke="none" fill="#847625"/>
                                      </g>
                                    </g>
                                  </g>
                                </g>
                              </g>
                            </g>
                          </g>
                        </g>
                      </g>
                    </g>
                  </g>
                </g>
              </g>
            </g>
          </g>
        </g>
      </g>
    </g>
    <g id="institucion_1_" data-name="institucion (1)" transform="translate(628.262 5116.458)">
      <g id="Grupo_1219523" data-name="Grupo 1219523" transform="translate(1.928 1.928)">
        <g id="Grupo_1219509" data-name="Grupo 1219509" transform="translate(37.236 18.562)">
          <path id="Trazado_1091704" data-name="Trazado 1091704" d="M44.412,34.994a1.294,1.294,0,0,0,.882-2.237L42.12,29.833v-.009A9.287,9.287,0,0,1,51.29,22a9.281,9.281,0,1,1-7.425,14.85h-.019V34.994Z" transform="translate(-42.12 -22)" fill="#fcd770"/>
        </g>
        <g id="Grupo_1219510" data-name="Grupo 1219510" transform="translate(18.562)">
          <path id="Trazado_1091705" data-name="Trazado 1091705" d="M39.606,7.188a9.189,9.189,0,0,1,.956,4.093,9.284,9.284,0,0,1-9.281,9.281h-.019A9.286,9.286,0,0,1,22,11.281,9.278,9.278,0,0,1,39.606,7.188Z" transform="translate(-22 -2)" fill="#fcd770"/>
        </g>
        <g id="Grupo_1219511" data-name="Grupo 1219511" transform="translate(0 18.562)">
          <path id="Trazado_1091706" data-name="Trazado 1091706" d="M18.121,34.994h.566v1.875a9.279,9.279,0,1,1,1.754-7.063l-3.193,2.951a1.288,1.288,0,0,0,.872,2.237Z" transform="translate(-2 -22)" fill="#fcd770"/>
        </g>
        <g id="Grupo_1219512" data-name="Grupo 1219512" transform="translate(14.831 18.562)">
          <path id="Trazado_1091707" data-name="Trazado 1091707" d="M43.559,32.757a1.294,1.294,0,0,1-.882,2.237H19.27a1.288,1.288,0,0,1-.872-2.237l3.193-2.951,7.778-7.174A2.348,2.348,0,0,1,30.974,22h.019a2.369,2.369,0,0,1,1.6.631l7.8,7.193v.009Z" transform="translate(-17.98 -22)" fill="#d3a06c"/>
        </g>
        <g id="Grupo_1219513" data-name="Grupo 1219513" transform="translate(22.256 22.275)">
          <path id="Trazado_1091708" data-name="Trazado 1091708" d="M37.117,31.569H25.98L31.549,26Z" transform="translate(-25.98 -26)" fill="#dfb28b"/>
        </g>
        <g id="Grupo_1219514" data-name="Grupo 1219514" transform="translate(20.418 31.556)">
          <path id="Trazado_1091709" data-name="Trazado 1091709" d="M24,36h5.569v7.425H24Z" transform="translate(-24 -36)" fill="#e6e9ed"/>
        </g>
        <g id="Grupo_1219515" data-name="Grupo 1219515" transform="translate(29.699 31.556)">
          <path id="Trazado_1091710" data-name="Trazado 1091710" d="M34,36h5.569v7.425H34Z" transform="translate(-34 -36)" fill="#e6e9ed"/>
        </g>
        <g id="Grupo_1219516" data-name="Grupo 1219516" transform="translate(35.101 31.556)">
          <path id="Trazado_1091711" data-name="Trazado 1091711" d="M39.987,44.353v-.928L39.968,36h3.712v1.856l.019,7.425H39.82a2.573,2.573,0,0,0,.167-.928Z" transform="translate(-39.82 -36)" fill="#aab2bd"/>
        </g>
        <g id="Grupo_1219517" data-name="Grupo 1219517" transform="translate(25.968 31.556)">
          <path id="Trazado_1091712" data-name="Trazado 1091712" d="M31.855,47.137A3.694,3.694,0,0,0,30,43.926L29.98,36h3.712l.019,7.926A3.694,3.694,0,0,0,31.855,47.137Z" transform="translate(-29.98 -36)" fill="#aab2bd"/>
        </g>
        <g id="Grupo_1219518" data-name="Grupo 1219518" transform="translate(16.687 31.556)">
          <path id="Trazado_1091713" data-name="Trazado 1091713" d="M23.711,44.353a2.573,2.573,0,0,0,.167.928H20l-.019-7.406V36h3.712l.019,7.425Z" transform="translate(-19.98 -36)" fill="#aab2bd"/>
        </g>
        <g id="Grupo_1219519" data-name="Grupo 1219519" transform="translate(27.843 46.405)">
          <path id="Trazado_1091714" data-name="Trazado 1091714" d="M38.933,56.557l1.42,4.724H32V52h5.569Z" transform="translate(-32 -52)" fill="#b4dd7f"/>
        </g>
        <g id="Grupo_1219520" data-name="Grupo 1219520" transform="translate(19.49 46.405)">
          <path id="Trazado_1091715" data-name="Trazado 1091715" d="M31.353,52v9.281H23l1.42-4.724L25.784,52Z" transform="translate(-23 -52)" fill="#b4dd7f"/>
        </g>
        <g id="Grupo_1219521" data-name="Grupo 1219521" transform="translate(27.843 38.981)">
          <path id="Trazado_1091716" data-name="Trazado 1091716" d="M39.258,45.856h4.808a.931.931,0,0,1,.928.928,4.626,4.626,0,0,1-4.641,4.641H32V47.712A3.721,3.721,0,0,1,35.712,44h3.712v.928A2.573,2.573,0,0,1,39.258,45.856Z" transform="translate(-32 -44)" fill="#f0d0b4"/>
        </g>
        <g id="Grupo_1219522" data-name="Grupo 1219522" transform="translate(14.85 38.981)">
          <path id="Trazado_1091717" data-name="Trazado 1091717" d="M23.736,45.856a2.573,2.573,0,0,1-.167-.928V44h3.712a3.721,3.721,0,0,1,3.712,3.712v3.712H22.641A4.642,4.642,0,0,1,18,46.784a.931.931,0,0,1,.928-.928h4.8Z" transform="translate(-18 -44)" fill="#f0d0b4"/>
        </g>
      </g>
      <g id="Grupo_1219524" data-name="Grupo 1219524" transform="translate(1 1)">
        <path id="Trazado_1091718" data-name="Trazado 1091718" d="M30.856,15.967v2.027h1.856V16.137h1.856V13.353a2.788,2.788,0,0,0-2.784-2.784.929.929,0,0,1-.928-.928V8.712h.928a.929.929,0,0,1,.928.928v.928h1.856V9.641a2.781,2.781,0,0,0-1.856-2.614V5H30.856V6.856H29V9.641a2.788,2.788,0,0,0,2.784,2.784.929.929,0,0,1,.928.928v.928h-.928a.929.929,0,0,1-.928-.928v-.928H29v.928A2.781,2.781,0,0,0,30.856,15.967Z" transform="translate(-3.013 -1.288)"/>
        <path id="Trazado_1091719" data-name="Trazado 1091719" d="M12.712,37.994V36.137h1.856V33.353a2.788,2.788,0,0,0-2.784-2.784.929.929,0,0,1-.928-.928v-.928h.928a.929.929,0,0,1,.928.928v.928h1.856v-.928a2.781,2.781,0,0,0-1.856-2.614V25H10.856v1.856H9v2.784a2.788,2.788,0,0,0,2.784,2.784.929.929,0,0,1,.928.928v.928h-.928a.929.929,0,0,1-.928-.928v-.928H9v.928a2.781,2.781,0,0,0,1.856,2.614v2.027Z" transform="translate(-1.575 -2.725)"/>
        <path id="Trazado_1091720" data-name="Trazado 1091720" d="M52.712,27.027V25H50.856v1.856H49v2.784a2.788,2.788,0,0,0,2.784,2.784.929.929,0,0,1,.928.928v.928h-.928a.929.929,0,0,1-.928-.928v-.928H49v.928a2.781,2.781,0,0,0,1.856,2.614v2.027h1.856V36.137h1.856V33.353a2.788,2.788,0,0,0-2.784-2.784.929.929,0,0,1-.928-.928v-.928h.928a.929.929,0,0,1,.928.928v.928h1.856v-.928A2.781,2.781,0,0,0,52.712,27.027Z" transform="translate(-4.451 -2.725)"/>
        <path id="Trazado_1091721" data-name="Trazado 1091721" d="M58.543,29.771a10.217,10.217,0,0,0-5.382-8.992,25.022,25.022,0,0,0-14.4-14.4,10.2,10.2,0,0,0-17.985,0,25.021,25.021,0,0,0-14.4,14.4,10.2,10.2,0,0,0,0,17.985,25.179,25.179,0,0,0,15.3,14.723l-1.517,5.056h19.2l-1.517-5.055a25.177,25.177,0,0,0,15.3-14.723,10.219,10.219,0,0,0,5.383-8.993Zm-7.791-9.908A10.153,10.153,0,0,0,38.64,26.571l-6.027-5.564A10.148,10.148,0,0,0,39.679,8.791,23.154,23.154,0,0,1,50.751,19.864ZM30.7,47.405V44.621a2.788,2.788,0,0,1,2.784-2.784h2.784a1.858,1.858,0,0,1-1.856,1.856H32.556v1.856h1.856a3.7,3.7,0,0,0,3.2-1.856h4.229a3.716,3.716,0,0,1-3.712,3.712Zm-9.281,0a3.716,3.716,0,0,1-3.712-3.712h4.228a3.7,3.7,0,0,0,3.2,1.856h1.856V43.693H25.131a1.859,1.859,0,0,1-1.856-1.856h2.784a2.788,2.788,0,0,1,2.784,2.784v2.784ZM36.255,34.412l.01,5.569H33.484a4.664,4.664,0,0,0-.931.094l-.01-5.662Zm-5.569,0,.012,6.521a4.671,4.671,0,0,0-.927.933,4.637,4.637,0,0,0-.929-.934l-.012-6.52Zm-3.712,0,.011,5.662a4.624,4.624,0,0,0-.926-.094H23.271l-.01-5.569Zm-5.569,0,.013,7.425H19.56l-.012-7.425Zm16.719,7.425v0l-.013-7.423h1.856l.012,7.425Zm3.335-9.281H18.054a.363.363,0,0,1-.363-.363.368.368,0,0,1,.116-.267L28.775,21.8a1.447,1.447,0,0,1,1.962,0L41.7,31.926a.367.367,0,0,1,.117.267A.363.363,0,0,1,41.459,32.556ZM29.771,2.856a8.353,8.353,0,1,1-8.353,8.353,8.363,8.363,0,0,1,8.353-8.353ZM19.864,8.791A10.149,10.149,0,0,0,26.906,21L20.895,26.55a10.153,10.153,0,0,0-12.1-6.686A23.154,23.154,0,0,1,19.864,8.791ZM2.856,29.771a8.349,8.349,0,0,1,16.5-1.8l-2.811,2.595a2.213,2.213,0,0,0,1.144,3.813v.644a8.279,8.279,0,0,1-6.484,3.1,8.363,8.363,0,0,1-8.353-8.353ZM8.8,39.681a10.132,10.132,0,0,0,8.9-2.022l.006,4.178a1.858,1.858,0,0,0-1.854,1.856,5.574,5.574,0,0,0,5.569,5.569h1.537l-.734,2.447A23.334,23.334,0,0,1,8.8,39.681Zm16.1,9.581h3.95v7.425H22.666ZM30.7,56.687V49.262h3.95l2.227,7.425Zm6.622-4.977-.734-2.447h1.537a5.574,5.574,0,0,0,5.569-5.569,1.858,1.858,0,0,0-1.856-1.856h0l-.006-4.192a10.132,10.132,0,0,0,8.918,2.036A23.332,23.332,0,0,1,37.322,51.709ZM48.334,38.124a8.281,8.281,0,0,1-6.509-3.135v-.613a2.213,2.213,0,0,0,1.14-3.813l-2.785-2.572a8.35,8.35,0,1,1,8.155,10.133Z" transform="translate(-1 -1)"/>
        <path id="Trazado_1091722" data-name="Trazado 1091722" d="M23.57,32.4H39.188l-7.809-7.809Zm4.481-1.856,3.328-3.328,3.328,3.328Z" transform="translate(-2.623 -2.696)"/>
      </g>
    </g>
  </g>
</svg>
