<svg xmlns="http://www.w3.org/2000/svg" xmlns:xlink="http://www.w3.org/1999/xlink" width="93.934" height="93.934" viewBox="0 0 93.934 93.934">
  <defs>
    <filter id="Trazado_982547" x="0" y="0" width="93.934" height="93.934" filterUnits="userSpaceOnUse">
      <feOffset dy="3" input="SourceAlpha"/>
      <feGaussianBlur stdDeviation="3" result="blur"/>
      <feFlood flood-opacity="0.161"/>
      <feComposite operator="in" in2="blur"/>
      <feComposite in="SourceGraphic"/>
    </filter>
  </defs>
  <g id="Grupo_1219525" data-name="Grupo 1219525" transform="translate(-1031.066 -5095.849)">
    <g id="Grupo_1219291" data-name="Grupo 1219291" transform="translate(0 -2141.186)">
      <g id="Grupo_1216282" data-name="Grupo 1216282" transform="translate(0 6194.186)">
        <g id="Grupo_1215983" data-name="Grupo 1215983" transform="translate(-0.229 -2679.151)">
          <g id="Grupo_1214661" data-name="Grupo 1214661" transform="translate(0 -1406)">
            <g id="Grupo_1214434" data-name="Grupo 1214434" transform="translate(-0.771 -2738.522)">
              <g id="Grupo_1183184" data-name="Grupo 1183184" transform="translate(1 1016.523)">
                <g id="Grupo_1179612" data-name="Grupo 1179612" transform="translate(848 4723.467)">
                  <g id="Grupo_1175227" data-name="Grupo 1175227" transform="translate(-5.967 140.533)">
                    <g id="Grupo_1167337" data-name="Grupo 1167337" transform="translate(198.033 1992)">
                      <g id="Grupo_1166720" data-name="Grupo 1166720">
                        <g id="Grupo_1164305" data-name="Grupo 1164305">
                          <g id="Grupo_1163948" data-name="Grupo 1163948">
                            <g id="Grupo_1158168" data-name="Grupo 1158168">
                              <g id="Grupo_1152576" data-name="Grupo 1152576">
                                <g id="Grupo_1148633" data-name="Grupo 1148633">
                                  <g id="Grupo_1148525" data-name="Grupo 1148525">
                                    <g transform="matrix(1, 0, 0, 1, -9, -6)" filter="url(#Trazado_982547)">
                                      <g id="Trazado_982547-2" data-name="Trazado 982547" transform="translate(9 6)" fill="#f7f4ed">
                                        <path d="M 37.966796875 74.43359375 C 33.04315185546875 74.43359375 28.26757431030273 73.46962738037109 23.77274131774902 71.56847381591797 C 19.43047523498535 69.73184967041016 15.53040790557861 67.10224914550781 12.18087482452393 63.75271987915039 C 8.831341743469238 60.4031867980957 6.201741218566895 56.50312042236328 4.365118980407715 52.16086196899414 C 2.463963508605957 47.66601943969727 1.499996900558472 42.89044189453125 1.499996900558472 37.966796875 C 1.499996900558472 33.04315185546875 2.463963508605957 28.26757431030273 4.365118980407715 23.77274131774902 C 6.201741218566895 19.43047523498535 8.831341743469238 15.53040790557861 12.18087482452393 12.18087482452393 C 15.53040790557861 8.831341743469238 19.43047523498535 6.201741218566895 23.77274131774902 4.365118980407715 C 28.26757431030273 2.463963508605957 33.04315185546875 1.499996900558472 37.966796875 1.499996900558472 C 42.89044189453125 1.499996900558472 47.66601943969727 2.463963508605957 52.16086196899414 4.365118980407715 C 56.50312042236328 6.201741218566895 60.4031867980957 8.831341743469238 63.75271987915039 12.18087482452393 C 67.10224914550781 15.53040790557861 69.73184967041016 19.43047523498535 71.56847381591797 23.77274131774902 C 73.46962738037109 28.26757431030273 74.43359375 33.04315185546875 74.43359375 37.966796875 C 74.43359375 42.89044189453125 73.46962738037109 47.66601943969727 71.56847381591797 52.16086196899414 C 69.73184967041016 56.50313186645508 67.10224914550781 60.4031867980957 63.75271987915039 63.75271987915039 C 60.4031867980957 67.10224914550781 56.50313186645508 69.73184967041016 52.16086196899414 71.56847381591797 C 47.66601943969727 73.46962738037109 42.89044189453125 74.43359375 37.966796875 74.43359375 Z" stroke="none"/>
                                        <path d="M 37.966796875 3 C 33.2449836730957 3 28.66600799560547 3.924095153808594 24.35705947875977 5.746635437011719 C 20.19359588623047 7.507637023925781 16.45379638671875 10.02928161621094 13.24153518676758 13.24153518676758 C 10.02927398681641 16.45379638671875 7.507621765136719 20.19359588623047 5.746635437011719 24.35705947875977 C 3.924095153808594 28.66600799560547 3 33.2449836730957 3 37.966796875 C 3 42.6886100769043 3.924095153808594 47.26758575439453 5.746635437011719 51.57653427124023 C 7.507621765136719 55.73999786376953 10.02927398681641 59.47979736328125 13.24153518676758 62.69205856323242 C 16.45379638671875 65.90431976318359 20.19359588623047 68.42597198486328 24.35705947875977 70.18695831298828 C 28.66600799560547 72.00949859619141 33.2449836730957 72.93359375 37.966796875 72.93359375 C 42.6886100769043 72.93359375 47.26758575439453 72.00949859619141 51.57653427124023 70.18695831298828 C 55.73999786376953 68.42597198486328 59.47979736328125 65.90431976318359 62.69205856323242 62.69205856323242 C 65.90431976318359 59.47979736328125 68.42597198486328 55.73999786376953 70.18695831298828 51.57653427124023 C 72.00949859619141 47.26758575439453 72.93359375 42.6886100769043 72.93359375 37.966796875 C 72.93359375 33.2449836730957 72.00949859619141 28.66600799560547 70.18695831298828 24.35705947875977 C 68.42597198486328 20.19359588623047 65.90431976318359 16.45379638671875 62.69205856323242 13.24153518676758 C 59.47979736328125 10.02928161621094 55.73999786376953 7.507637023925781 51.57653427124023 5.746635437011719 C 47.26758575439453 3.924095153808594 42.6886100769043 3 37.966796875 3 M 37.966796875 0 C 58.93528366088867 0 75.93359375 16.99832153320312 75.93359375 37.966796875 C 75.93359375 58.93528366088867 58.93528366088867 75.93359375 37.966796875 75.93359375 C 16.99831008911133 75.93359375 0 58.93528366088867 0 37.966796875 C 0 16.99832153320312 16.99831008911133 0 37.966796875 0 Z" stroke="none" fill="#847625"/>
                                      </g>
                                    </g>
                                  </g>
                                </g>
                              </g>
                            </g>
                          </g>
                        </g>
                      </g>
                    </g>
                  </g>
                </g>
              </g>
            </g>
          </g>
        </g>
      </g>
    </g>
    <g id="gestion-de-equipos" transform="translate(1051.765 5113.157)">
      <g id="Grupo_1219484" data-name="Grupo 1219484" transform="translate(14.556 1.205)">
        <g id="Grupo_1219479" data-name="Grupo 1219479">
          <circle id="Elipse_12031" data-name="Elipse 12031" cx="11.713" cy="11.713" r="11.713" fill="#f7e365"/>
        </g>
        <g id="Grupo_1219480" data-name="Grupo 1219480" transform="translate(2.312 2.312)">
          <path id="Trazado_1091685" data-name="Trazado 1091685" d="M180.775,30.468a11.714,11.714,0,0,1-16.389,16.389,11.714,11.714,0,1,0,16.389-16.389Z" transform="translate(-164.386 -30.468)" fill="#f3d332"/>
        </g>
        <g id="Grupo_1219483" data-name="Grupo 1219483" transform="translate(4.734 4.333)">
          <g id="Grupo_1219481" data-name="Grupo 1219481">
            <path id="Trazado_1091686" data-name="Trazado 1091686" d="M200.154,57.5l1.523-1.653a1.037,1.037,0,0,0,.135-1.221l-.9-1.553a1.037,1.037,0,0,0-1.125-.493l-2.193.492-.07-.04-.67-2.145a1.037,1.037,0,0,0-.989-.727h-1.793a1.037,1.037,0,0,0-.989.727l-.67,2.145-.07.04-2.193-.492a1.037,1.037,0,0,0-1.125.493l-.9,1.553a1.037,1.037,0,0,0,.135,1.221l1.523,1.653v.08l-1.523,1.653a1.037,1.037,0,0,0-.135,1.221l.9,1.553a1.037,1.037,0,0,0,1.125.493l2.193-.492.07.04.67,2.145a1.037,1.037,0,0,0,.989.727h1.793a1.037,1.037,0,0,0,.989-.727l.67-2.145.07-.04,2.193.492a1.037,1.037,0,0,0,1.125-.493l.9-1.553a1.037,1.037,0,0,0-.135-1.221l-1.523-1.653V57.5Zm-5.182,1.7a1.658,1.658,0,1,1,1.658-1.658A1.658,1.658,0,0,1,194.973,59.2Z" transform="translate(-187.994 -50.161)" fill="#62a4fb"/>
          </g>
          <g id="Grupo_1219482" data-name="Grupo 1219482" transform="translate(4.544 2.396)">
            <path id="Trazado_1091687" data-name="Trazado 1091687" d="M239.9,78.532v-.08l1.523-1.653a1.037,1.037,0,0,0,.135-1.221l-.9-1.553a1.037,1.037,0,0,0-1.125-.493l-1.245.279a7.3,7.3,0,0,1-6.008,9.578l.549,1.756a1.037,1.037,0,0,0,.989.727h1.793a1.037,1.037,0,0,0,.989-.727l.67-2.145.07-.04,2.193.492a1.037,1.037,0,0,0,1.125-.493l.9-1.553a1.037,1.037,0,0,0-.135-1.221Z" transform="translate(-232.282 -73.507)" fill="#5392f9"/>
          </g>
        </g>
      </g>
      <g id="Grupo_1219500" data-name="Grupo 1219500" transform="translate(11.549 20.298)">
        <g id="Grupo_1219489" data-name="Grupo 1219489" transform="translate(16.587)">
          <g id="Grupo_1219485" data-name="Grupo 1219485" transform="translate(0 8.293)">
            <path id="Trazado_1091688" data-name="Trazado 1091688" d="M274.2,278.564V288.4h12.853v-9.839a3.732,3.732,0,0,0-3.732-3.732h-5.39A3.732,3.732,0,0,0,274.2,278.564Z" transform="translate(-274.198 -274.832)" fill="#e175a5"/>
          </g>
          <g id="Grupo_1219486" data-name="Grupo 1219486" transform="translate(0 8.292)">
            <path id="Trazado_1091689" data-name="Trazado 1091689" d="M281.246,278.563A6.187,6.187,0,0,0,280,274.831H277.93a3.732,3.732,0,0,0-3.732,3.732V288.4h7.048Z" transform="translate(-274.198 -274.831)" fill="#de5791"/>
          </g>
          <g id="Grupo_1219487" data-name="Grupo 1219487" transform="translate(2.28)">
            <circle id="Elipse_12032" data-name="Elipse 12032" cx="4.146" cy="4.146" r="4.146" fill="#fed2a4"/>
          </g>
          <g id="Grupo_1219488" data-name="Grupo 1219488" transform="translate(2.767 0.487)">
            <path id="Trazado_1091690" data-name="Trazado 1091690" d="M306.773,198.759a4.147,4.147,0,0,1-5.609,5.609,4.146,4.146,0,1,0,5.609-5.609Z" transform="translate(-301.164 -198.759)" fill="#ffbd86"/>
          </g>
        </g>
        <g id="Grupo_1219494" data-name="Grupo 1219494">
          <g id="Grupo_1219490" data-name="Grupo 1219490" transform="translate(0 8.293)">
            <path id="Trazado_1091691" data-name="Trazado 1091691" d="M112.552,278.564V288.4h12.853v-9.839a3.732,3.732,0,0,0-3.732-3.732h-5.39A3.732,3.732,0,0,0,112.552,278.564Z" transform="translate(-112.552 -274.832)" fill="#e175a5"/>
          </g>
          <g id="Grupo_1219491" data-name="Grupo 1219491" transform="translate(5.806 8.293)">
            <path id="Trazado_1091692" data-name="Trazado 1091692" d="M176.178,288.4v-9.839a3.732,3.732,0,0,0-3.732-3.732h-2.069a6.187,6.187,0,0,0-1.247,3.732V288.4Z" transform="translate(-169.13 -274.832)" fill="#de5791"/>
          </g>
          <g id="Grupo_1219492" data-name="Grupo 1219492" transform="translate(2.28)">
            <circle id="Elipse_12033" data-name="Elipse 12033" cx="4.146" cy="4.146" r="4.146" fill="#fed2a4"/>
          </g>
          <g id="Grupo_1219493" data-name="Grupo 1219493" transform="translate(2.767 0.487)">
            <path id="Trazado_1091693" data-name="Trazado 1091693" d="M145.127,198.759a4.147,4.147,0,0,1-5.609,5.609,4.146,4.146,0,1,0,5.609-5.609Z" transform="translate(-139.518 -198.759)" fill="#ffbd86"/>
          </g>
        </g>
        <g id="Grupo_1219499" data-name="Grupo 1219499" transform="translate(8.293)">
          <g id="Grupo_1219495" data-name="Grupo 1219495" transform="translate(0 8.293)">
            <path id="Trazado_1091694" data-name="Trazado 1091694" d="M193.375,278.564V288.4h12.853v-9.839a3.732,3.732,0,0,0-3.732-3.732h-5.39A3.732,3.732,0,0,0,193.375,278.564Z" transform="translate(-193.375 -274.832)" fill="#62a4fb"/>
          </g>
          <g id="Grupo_1219496" data-name="Grupo 1219496" transform="translate(6.427 8.293)">
            <path id="Trazado_1091695" data-name="Trazado 1091695" d="M258.7,274.832h-2.7a3.732,3.732,0,0,1,3.732,3.732V288.4h2.7v-9.839A3.732,3.732,0,0,0,258.7,274.832Z" transform="translate(-256.007 -274.832)" fill="#5392f9"/>
          </g>
          <g id="Grupo_1219497" data-name="Grupo 1219497" transform="translate(2.28)">
            <circle id="Elipse_12034" data-name="Elipse 12034" cx="4.146" cy="4.146" r="4.146" fill="#fed2a4"/>
          </g>
          <g id="Grupo_1219498" data-name="Grupo 1219498" transform="translate(2.767 0.487)">
            <path id="Trazado_1091696" data-name="Trazado 1091696" d="M225.95,198.759a4.147,4.147,0,0,1-5.609,5.609,4.146,4.146,0,1,0,5.609-5.609Z" transform="translate(-220.341 -198.759)" fill="#ffbd86"/>
          </g>
        </g>
      </g>
      <g id="Grupo_1219506" data-name="Grupo 1219506" transform="translate(0.77 33.613)">
        <g id="Grupo_1219501" data-name="Grupo 1219501" transform="translate(6.634 3.573)">
          <path id="Trazado_1091697" data-name="Trazado 1091697" d="M72.152,358.6h3.732v13.268H72.152Z" transform="translate(-72.152 -358.597)" fill="#d3effd"/>
        </g>
        <g id="Grupo_1219502" data-name="Grupo 1219502" transform="translate(10.366)">
          <path id="Trazado_1091698" data-name="Trazado 1091698" d="M148.424,324.5a2.488,2.488,0,0,0-3.518,0l-7.82,7.82h-7.213a2.488,2.488,0,1,0,0-4.975h-7.878l-1.6-1.3a8.126,8.126,0,0,0-10.152-.066l-1.725,1.362v13.268l15.015.942a8.292,8.292,0,0,0,2.966-.353l11.665-3.6a4.147,4.147,0,0,0,1.708-1.03l8.551-8.551A2.488,2.488,0,0,0,148.424,324.5Z" transform="translate(-108.519 -323.775)" fill="#fed2a4"/>
        </g>
        <g id="Grupo_1219503" data-name="Grupo 1219503" transform="translate(25.269)">
          <path id="Trazado_1091699" data-name="Trazado 1091699" d="M278.764,324.5a2.488,2.488,0,0,0-3.518,0l-7.82,7.82h-1.484a30.446,30.446,0,0,1-2.494,2.821,27.847,27.847,0,0,1-9.685,6.406l.111.007a8.291,8.291,0,0,0,2.966-.353l11.665-3.6a4.147,4.147,0,0,0,1.708-1.03l8.551-8.551A2.488,2.488,0,0,0,278.764,324.5Z" transform="translate(-253.763 -323.775)" fill="#ffbd86"/>
        </g>
        <g id="Grupo_1219504" data-name="Grupo 1219504" transform="translate(0 1.915)">
          <path id="Trazado_1091700" data-name="Trazado 1091700" d="M7.5,342.434h6.634v16.585H7.5Z" transform="translate(-7.5 -342.434)" fill="#62a4fb"/>
        </g>
        <g id="Grupo_1219505" data-name="Grupo 1219505" transform="translate(4.354 1.915)">
          <path id="Trazado_1091701" data-name="Trazado 1091701" d="M49.928,342.434h2.28v16.585h-2.28Z" transform="translate(-49.928 -342.434)" fill="#5392f9"/>
        </g>
      </g>
      <g id="Grupo_1219507" data-name="Grupo 1219507" transform="translate(0 0.435)">
        <circle id="Elipse_12035" data-name="Elipse 12035" cx="0.829" cy="0.829" r="0.829" transform="translate(3.257 37.58)"/>
        <circle id="Elipse_12036" data-name="Elipse 12036" cx="0.829" cy="0.829" r="0.829" transform="translate(3.257 40.897)"/>
        <path id="Trazado_1091702" data-name="Trazado 1091702" d="M237.2,100.854a2.428,2.428,0,1,0-2.428,2.428A2.431,2.431,0,0,0,237.2,100.854Zm-2.428.889a.889.889,0,1,1,.889-.889A.89.89,0,0,1,234.771,101.743Z" transform="translate(-208.502 -88.371)"/>
        <path id="Trazado_1091703" data-name="Trazado 1091703" d="M51.584,33.8a3.257,3.257,0,0,0-4.607,0l-5.219,5.219V36.484a.77.77,0,1,0-1.539,0v4.072l-.836.836H35.255a3.259,3.259,0,0,0-1.789-4.827V32.323a4.481,4.481,0,0,0-1.116-2.962h4.909a2.965,2.965,0,0,1,2.961,2.962v.569a.77.77,0,1,0,1.539,0v-.569a4.508,4.508,0,0,0-3.7-4.429,4.91,4.91,0,0,0-1.485-7.933,12.518,12.518,0,0,0,2.177-7.044A12.375,12.375,0,0,0,34.991,3.99a.77.77,0,0,0-1.075,1.1,10.847,10.847,0,0,1,3.3,7.826,10.969,10.969,0,0,1-2.237,6.63c-.137-.011-.274-.019-.414-.019a4.915,4.915,0,0,0-4.147,2.281,4.952,4.952,0,0,0-1.7-1.624,1.826,1.826,0,0,0,.171-.384l.475-1.521,1.555.349a1.8,1.8,0,0,0,1.96-.859l.9-1.553a1.8,1.8,0,0,0-.236-2.127l-1.08-1.172,1.08-1.172a1.8,1.8,0,0,0,.236-2.127l-.9-1.553a1.8,1.8,0,0,0-1.96-.859l-1.555.349-.475-1.521a1.8,1.8,0,0,0-1.724-1.267H25.373a1.8,1.8,0,0,0-1.724,1.267l-.475,1.521-1.555-.349a1.8,1.8,0,0,0-1.96.859l-.9,1.553A1.8,1.8,0,0,0,19,11.746l1.08,1.172L19,14.09a1.8,1.8,0,0,0-.236,2.127l.9,1.553a1.8,1.8,0,0,0,1.96.859l1.555-.349.475,1.521a1.822,1.822,0,0,0,.171.384,4.951,4.951,0,0,0-1.7,1.624,4.915,4.915,0,0,0-4.147-2.281c-.139,0-.277.007-.414.019A10.944,10.944,0,0,1,26.269,1.974,10.832,10.832,0,0,1,31.2,3.143a.77.77,0,0,0,.694-1.374A12.356,12.356,0,0,0,26.269.435,12.484,12.484,0,0,0,15.963,19.962a4.91,4.91,0,0,0-1.485,7.933,4.508,4.508,0,0,0-3.7,4.428v4.094H8.173v-.889a.77.77,0,0,0-.77-.77H.77a.77.77,0,0,0-.77.77V52.113a.77.77,0,0,0,.77.77H7.4a.77.77,0,0,0,.77-.77v-.889h2.943l10.093.633a.77.77,0,1,0,.1-1.536l-9.4-.59V37.559l1.432-1.131a7.355,7.355,0,0,1,9.19.061l1.6,1.295a.769.769,0,0,0,.484.172h7.878a1.718,1.718,0,0,1,0,3.437H23.574a.769.769,0,0,0-.544.225l-1.088,1.088a.77.77,0,1,0,1.088,1.088l.863-.863H39.7a.77.77,0,0,0,.544-.225l7.819-7.82a1.718,1.718,0,1,1,2.43,2.43l-8.551,8.551a3.388,3.388,0,0,1-1.392.838l-11.666,3.6a7.486,7.486,0,0,1-2.69.32l-1.308-.082a.77.77,0,1,0-.1,1.536l1.308.082q.287.018.572.018a9.006,9.006,0,0,0,2.669-.4l11.665-3.6a4.933,4.933,0,0,0,2.026-1.22L51.584,38.4a3.262,3.262,0,0,0,0-4.607ZM34.562,21.068a3.377,3.377,0,1,1-3.377,3.377,3.38,3.38,0,0,1,3.377-3.377Zm-9.19-1.539a.266.266,0,0,1-.255-.187l-.67-2.145a.77.77,0,0,0-.35-.437l-.069-.04a.77.77,0,0,0-.554-.085l-2.193.492a.266.266,0,0,1-.29-.127l-.9-1.553a.266.266,0,0,1,.035-.314l1.523-1.653a.77.77,0,0,0,.2-.521v-.08a.77.77,0,0,0-.2-.521L20.131,10.7a.266.266,0,0,1-.035-.314l.9-1.553a.266.266,0,0,1,.29-.127l2.193.492a.769.769,0,0,0,.554-.085l.069-.04a.769.769,0,0,0,.35-.437l.67-2.145a.266.266,0,0,1,.255-.187h1.793a.266.266,0,0,1,.255.187l.67,2.145a.769.769,0,0,0,.349.437l.07.04a.769.769,0,0,0,.554.085l2.193-.492a.266.266,0,0,1,.29.127l.9,1.553a.266.266,0,0,1-.035.314l-1.523,1.653a.77.77,0,0,0-.2.521v.08a.77.77,0,0,0,.2.521l1.523,1.653a.266.266,0,0,1,.035.314L31.546,17a.266.266,0,0,1-.29.127l-2.193-.492a.768.768,0,0,0-.553.084l-.071.041a.769.769,0,0,0-.349.437l-.67,2.145a.266.266,0,0,1-.255.187H25.373Zm.9,1.539a3.377,3.377,0,1,1-3.377,3.377,3.38,3.38,0,0,1,3.377-3.377Zm-8.293,0A3.377,3.377,0,1,1,14.6,24.445a3.381,3.381,0,0,1,3.377-3.377ZM6.634,51.343H1.539V36.3H6.634ZM8.173,37.956h2.193V49.685H8.173Zm6.8-4.157a8.872,8.872,0,0,0-2.594,1.421l-.065.052V32.323a2.965,2.965,0,0,1,2.962-2.962h4.908a4.481,4.481,0,0,0-1.116,2.962v1.064a8.852,8.852,0,0,0-4.1.412Zm8.52,1.494a8.9,8.9,0,0,0-2.885-1.558V32.323a2.965,2.965,0,0,1,2.962-2.962h5.39a2.965,2.965,0,0,1,2.962,2.962v4.094H24.883Z" transform="translate(0 -0.435)"/>
      </g>
    </g>
  </g>
</svg>
