<svg xmlns="http://www.w3.org/2000/svg" xmlns:xlink="http://www.w3.org/1999/xlink" width="93.934" height="93.934" viewBox="0 0 93.934 93.934">
  <defs>
    <filter id="Trazado_982547" x="0" y="0" width="93.934" height="93.934" filterUnits="userSpaceOnUse">
      <feOffset dy="3" input="SourceAlpha"/>
      <feGaussianBlur stdDeviation="3" result="blur"/>
      <feFlood flood-opacity="0.161"/>
      <feComposite operator="in" in2="blur"/>
      <feComposite in="SourceGraphic"/>
    </filter>
  </defs>
  <g id="Grupo_1219543" data-name="Grupo 1219543" transform="translate(-1031.066 -8383)">
    <g id="Grupo_1219299" data-name="Grupo 1219299" transform="translate(0 1145.965)">
      <g id="Grupo_1216282" data-name="Grupo 1216282" transform="translate(0 6194.186)">
        <g id="Grupo_1215983" data-name="Grupo 1215983" transform="translate(-0.229 -2679.151)">
          <g id="Grupo_1214661" data-name="Grupo 1214661" transform="translate(0 -1406)">
            <g id="Grupo_1214434" data-name="Grupo 1214434" transform="translate(-0.771 -2738.522)">
              <g id="Grupo_1183184" data-name="Grupo 1183184" transform="translate(1 1016.523)">
                <g id="Grupo_1179612" data-name="Grupo 1179612" transform="translate(848 4723.467)">
                  <g id="Grupo_1175227" data-name="Grupo 1175227" transform="translate(-5.967 140.533)">
                    <g id="Grupo_1167337" data-name="Grupo 1167337" transform="translate(198.033 1992)">
                      <g id="Grupo_1166720" data-name="Grupo 1166720">
                        <g id="Grupo_1164305" data-name="Grupo 1164305">
                          <g id="Grupo_1163948" data-name="Grupo 1163948">
                            <g id="Grupo_1158168" data-name="Grupo 1158168">
                              <g id="Grupo_1152576" data-name="Grupo 1152576">
                                <g id="Grupo_1148633" data-name="Grupo 1148633">
                                  <g id="Grupo_1148525" data-name="Grupo 1148525">
                                    <g transform="matrix(1, 0, 0, 1, -9, -6)" filter="url(#Trazado_982547)">
                                      <g id="Trazado_982547-2" data-name="Trazado 982547" transform="translate(9 6)" fill="#f7f4ed">
                                        <path d="M 37.966796875 74.43359375 C 33.04315185546875 74.43359375 28.26757431030273 73.46962738037109 23.77274131774902 71.56847381591797 C 19.43047523498535 69.73184967041016 15.53040790557861 67.10224914550781 12.18087482452393 63.75271987915039 C 8.831341743469238 60.4031867980957 6.201741218566895 56.50312042236328 4.365118980407715 52.16086196899414 C 2.463963508605957 47.66601943969727 1.499996900558472 42.89044189453125 1.499996900558472 37.966796875 C 1.499996900558472 33.04315185546875 2.463963508605957 28.26757431030273 4.365118980407715 23.77274131774902 C 6.201741218566895 19.43047523498535 8.831341743469238 15.53040790557861 12.18087482452393 12.18087482452393 C 15.53040790557861 8.831341743469238 19.43047523498535 6.201741218566895 23.77274131774902 4.365118980407715 C 28.26757431030273 2.463963508605957 33.04315185546875 1.499996900558472 37.966796875 1.499996900558472 C 42.89044189453125 1.499996900558472 47.66601943969727 2.463963508605957 52.16086196899414 4.365118980407715 C 56.50312042236328 6.201741218566895 60.4031867980957 8.831341743469238 63.75271987915039 12.18087482452393 C 67.10224914550781 15.53040790557861 69.73184967041016 19.43047523498535 71.56847381591797 23.77274131774902 C 73.46962738037109 28.26757431030273 74.43359375 33.04315185546875 74.43359375 37.966796875 C 74.43359375 42.89044189453125 73.46962738037109 47.66601943969727 71.56847381591797 52.16086196899414 C 69.73184967041016 56.50313186645508 67.10224914550781 60.4031867980957 63.75271987915039 63.75271987915039 C 60.4031867980957 67.10224914550781 56.50313186645508 69.73184967041016 52.16086196899414 71.56847381591797 C 47.66601943969727 73.46962738037109 42.89044189453125 74.43359375 37.966796875 74.43359375 Z" stroke="none"/>
                                        <path d="M 37.966796875 3 C 33.2449836730957 3 28.66600799560547 3.924095153808594 24.35705947875977 5.746635437011719 C 20.19359588623047 7.507637023925781 16.45379638671875 10.02928161621094 13.24153518676758 13.24153518676758 C 10.02927398681641 16.45379638671875 7.507621765136719 20.19359588623047 5.746635437011719 24.35705947875977 C 3.924095153808594 28.66600799560547 3 33.2449836730957 3 37.966796875 C 3 42.6886100769043 3.924095153808594 47.26758575439453 5.746635437011719 51.57653427124023 C 7.507621765136719 55.73999786376953 10.02927398681641 59.47979736328125 13.24153518676758 62.69205856323242 C 16.45379638671875 65.90431976318359 20.19359588623047 68.42597198486328 24.35705947875977 70.18695831298828 C 28.66600799560547 72.00949859619141 33.2449836730957 72.93359375 37.966796875 72.93359375 C 42.6886100769043 72.93359375 47.26758575439453 72.00949859619141 51.57653427124023 70.18695831298828 C 55.73999786376953 68.42597198486328 59.47979736328125 65.90431976318359 62.69205856323242 62.69205856323242 C 65.90431976318359 59.47979736328125 68.42597198486328 55.73999786376953 70.18695831298828 51.57653427124023 C 72.00949859619141 47.26758575439453 72.93359375 42.6886100769043 72.93359375 37.966796875 C 72.93359375 33.2449836730957 72.00949859619141 28.66600799560547 70.18695831298828 24.35705947875977 C 68.42597198486328 20.19359588623047 65.90431976318359 16.45379638671875 62.69205856323242 13.24153518676758 C 59.47979736328125 10.02928161621094 55.73999786376953 7.507637023925781 51.57653427124023 5.746635437011719 C 47.26758575439453 3.924095153808594 42.6886100769043 3 37.966796875 3 M 37.966796875 0 C 58.93528366088867 0 75.93359375 16.99832153320312 75.93359375 37.966796875 C 75.93359375 58.93528366088867 58.93528366088867 75.93359375 37.966796875 75.93359375 C 16.99831008911133 75.93359375 0 58.93528366088867 0 37.966796875 C 0 16.99832153320312 16.99831008911133 0 37.966796875 0 Z" stroke="none" fill="#847625"/>
                                      </g>
                                    </g>
                                  </g>
                                </g>
                              </g>
                            </g>
                          </g>
                        </g>
                      </g>
                    </g>
                  </g>
                </g>
              </g>
            </g>
          </g>
        </g>
      </g>
    </g>
    <g id="_x30_7_x2C__workflow_x2C__method_x2C__algorithm_x2C__flow_chart_x2C__business_and_finance" transform="translate(1038.805 8387.771)">
      <g id="XMLID_332_" transform="translate(16 16)">
        <path id="XMLID_333_" d="M395.678,26v9.678H386V26Z" transform="translate(-350.19 -25.032)" fill="#68f0ff"/>
        <path id="XMLID_334_" d="M390.839,386A4.839,4.839,0,1,1,386,390.839,4.839,4.839,0,0,1,390.839,386Z" transform="translate(-350.19 -350.19)" fill="#ff8fa0"/>
        <path id="XMLID_335_" d="M183.421,150.065v17.227H166V146h13.356Z" transform="translate(-151.482 -133.418)" fill="#f0eeff"/>
        <path id="XMLID_336_" d="M35.678,395.678H26V386h9.678Z" transform="translate(-25.032 -350.19)" fill="#68f0ff"/>
        <path id="XMLID_337_" d="M35.678,206v9.678H26V206h9.678Z" transform="translate(-25.032 -187.611)" fill="#b9ed68"/>
        <path id="XMLID_338_" d="M30.839,26A4.839,4.839,0,1,1,26,30.839,4.839,4.839,0,0,1,30.839,26Z" transform="translate(-25.032 -25.032)" fill="#ffe59c"/>
        <g id="XMLID_339_" transform="translate(13.55 11.614)">
          <path id="XMLID_340_" d="M174.389,159.228H156.968a.968.968,0,0,1-.968-.968V136.968a.968.968,0,0,1,.968-.968h13.356a.968.968,0,0,1,.684.283l4.065,4.065a.968.968,0,0,1,.283.684V158.26A.968.968,0,0,1,174.389,159.228Zm-16.453-1.936h15.485V141.434l-3.5-3.5H157.936Z" transform="translate(-156 -136)"/>
        </g>
        <g id="XMLID_343_" transform="translate(0 34.842)">
          <path id="XMLID_344_" d="M26.646,387.614H16.968a.968.968,0,0,1-.968-.968v-9.678a.968.968,0,0,1,.968-.968h9.678a.968.968,0,0,1,.968.968v9.678A.968.968,0,0,1,26.646,387.614Zm-8.711-1.936h7.743v-7.743H17.936Z" transform="translate(-16 -376)"/>
        </g>
        <g id="XMLID_347_" transform="translate(3.871 39.681)">
          <path id="XMLID_348_" d="M58.9,427.936H56.968a.968.968,0,0,1,0-1.936H58.9a.968.968,0,0,1,0,1.936Z" transform="translate(-56 -426)"/>
        </g>
        <g id="XMLID_349_" transform="translate(0 17.421)">
          <path id="XMLID_350_" d="M26.646,207.614H16.968a.968.968,0,0,1-.968-.968v-9.678a.968.968,0,0,1,.968-.968h9.678a.968.968,0,0,1,.968.968v9.678A.968.968,0,0,1,26.646,207.614Zm-8.711-1.936h7.743v-7.743H17.936Z" transform="translate(-16 -196)"/>
        </g>
        <g id="XMLID_353_" transform="translate(3.871 22.26)">
          <path id="XMLID_354_" d="M58.9,247.936H56.968a.968.968,0,1,1,0-1.936H58.9a.968.968,0,1,1,0,1.936Z" transform="translate(-56 -246)"/>
        </g>
        <g id="XMLID_355_" transform="translate(34.842 0)">
          <path id="XMLID_356_" d="M386.646,27.614h-9.678a.968.968,0,0,1-.968-.968V16.968a.968.968,0,0,1,.968-.968h9.678a.968.968,0,0,1,.968.968v9.678A.968.968,0,0,1,386.646,27.614Zm-8.711-1.936h7.743V17.936h-7.743Z" transform="translate(-376 -16)"/>
        </g>
        <g id="XMLID_359_" transform="translate(38.713 4.839)">
          <path id="XMLID_360_" d="M418.9,67.936h-1.936a.968.968,0,1,1,0-1.936H418.9a.968.968,0,1,1,0,1.936Z" transform="translate(-416 -66)"/>
        </g>
        <g id="XMLID_361_" transform="translate(17.421 29.035)">
          <path id="XMLID_362_" d="M206.646,317.936h-9.678a.968.968,0,0,1,0-1.936h9.678a.968.968,0,0,1,0,1.936Z" transform="translate(-196 -316)"/>
        </g>
        <g id="XMLID_363_" transform="translate(17.421 25.164)">
          <path id="XMLID_364_" d="M206.646,277.936h-9.678a.968.968,0,1,1,0-1.936h9.678a.968.968,0,1,1,0,1.936Z" transform="translate(-196 -276)"/>
        </g>
        <g id="XMLID_365_" transform="translate(17.421 21.292)">
          <path id="XMLID_366_" d="M206.646,237.936h-9.678a.968.968,0,0,1,0-1.936h9.678a.968.968,0,0,1,0,1.936Z" transform="translate(-196 -236)"/>
        </g>
        <g id="XMLID_367_" transform="translate(17.421 17.421)">
          <path id="XMLID_368_" d="M203.743,197.936h-6.775a.968.968,0,1,1,0-1.936h6.775a.968.968,0,0,1,0,1.936Z" transform="translate(-196 -196)"/>
        </g>
        <g id="XMLID_369_" transform="translate(0 0)">
          <path id="XMLID_370_" d="M21.807,27.614a5.807,5.807,0,1,1,5.807-5.807A5.814,5.814,0,0,1,21.807,27.614Zm0-9.678a3.871,3.871,0,1,0,3.871,3.871A3.876,3.876,0,0,0,21.807,17.936Z" transform="translate(-16 -16)"/>
        </g>
        <g id="XMLID_373_" transform="translate(3.871 4.839)">
          <path id="XMLID_374_" d="M58.9,67.936H56.968a.968.968,0,1,1,0-1.936H58.9a.968.968,0,1,1,0,1.936Z" transform="translate(-56 -66)"/>
        </g>
        <g id="XMLID_375_" transform="translate(34.842 34.842)">
          <path id="XMLID_376_" d="M381.807,387.614a5.807,5.807,0,1,1,5.807-5.807A5.814,5.814,0,0,1,381.807,387.614Zm0-9.678a3.871,3.871,0,1,0,3.871,3.871A3.876,3.876,0,0,0,381.807,377.936Z" transform="translate(-376 -376)"/>
        </g>
        <g id="XMLID_379_" transform="translate(38.713 39.681)">
          <path id="XMLID_380_" d="M418.9,427.936h-1.936a.968.968,0,1,1,0-1.936H418.9a.968.968,0,1,1,0,1.936Z" transform="translate(-416 -426)"/>
        </g>
        <g id="XMLID_381_" transform="translate(4.839 9.678)">
          <path id="XMLID_382_" d="M66.968,125.678a.968.968,0,0,1-.968-.968v-7.743a.968.968,0,0,1,1.936,0v7.743A.968.968,0,0,1,66.968,125.678Z" transform="translate(-66 -116)"/>
        </g>
        <g id="XMLID_383_" transform="translate(4.839 27.099)">
          <path id="XMLID_384_" d="M66.968,305.678a.968.968,0,0,1-.968-.968v-7.743a.968.968,0,0,1,1.936,0v7.743A.968.968,0,0,1,66.968,305.678Z" transform="translate(-66 -296)"/>
        </g>
        <g id="XMLID_385_" transform="translate(9.678 39.681)">
          <path id="XMLID_386_" d="M137.292,427.936H116.968a.968.968,0,0,1,0-1.936h20.325a.968.968,0,0,1,0,1.936Z" transform="translate(-116 -426)"/>
        </g>
        <g id="XMLID_387_" transform="translate(28.067 37.746)">
          <path id="XMLID_388_" d="M306.284,411.524a.968.968,0,0,1,0-1.369l1.251-1.251-1.251-1.251a.968.968,0,1,1,1.369-1.369l1.936,1.936a.968.968,0,0,1,0,1.369l-1.936,1.936A.968.968,0,0,1,306.284,411.524Z" transform="translate(-306 -406)"/>
        </g>
        <g id="XMLID_389_" transform="translate(39.681 14.518)">
          <path id="XMLID_390_" d="M426.968,188.26a.968.968,0,0,1-.968-.968V166.968a.968.968,0,1,1,1.936,0v20.325A.968.968,0,0,1,426.968,188.26Z" transform="translate(-426 -166)"/>
        </g>
        <g id="XMLID_391_" transform="translate(37.745 14.517)">
          <path id="XMLID_392_" d="M410.839,169.871a.965.965,0,0,1-.684-.283l-1.251-1.251-1.251,1.251a.968.968,0,0,1-1.369-1.369l1.936-1.936a.968.968,0,0,1,1.369,0l1.936,1.936a.968.968,0,0,1-.684,1.652Z" transform="translate(-405.999 -165.999)"/>
        </g>
        <g id="XMLID_393_" transform="translate(14.518 4.839)">
          <path id="XMLID_394_" d="M187.292,67.936H166.968a.968.968,0,1,1,0-1.936h20.325a.968.968,0,0,1,0,1.936Z" transform="translate(-166 -66)"/>
        </g>
        <g id="XMLID_395_" transform="translate(14.518 2.903)">
          <path id="XMLID_396_" d="M168.9,51.806a.965.965,0,0,1-.684-.283l-1.936-1.936a.968.968,0,0,1,0-1.369l1.936-1.936a.968.968,0,1,1,1.369,1.369L168.337,48.9l1.251,1.251a.968.968,0,0,1-.684,1.652Z" transform="translate(-166 -45.999)"/>
        </g>
      </g>
    </g>
  </g>
</svg>
