<svg xmlns="http://www.w3.org/2000/svg" xmlns:xlink="http://www.w3.org/1999/xlink" width="103" height="103" viewBox="0 0 103 103">
  <defs>
    <filter id="Trazado_978624" x="0" y="0" width="103" height="103" filterUnits="userSpaceOnUse">
      <feOffset dy="3" input="SourceAlpha"/>
      <feGaussianBlur stdDeviation="3" result="blur"/>
      <feFlood flood-opacity="0.161"/>
      <feComposite operator="in" in2="blur"/>
      <feComposite in="SourceGraphic"/>
    </filter>
  </defs>
  <g id="Grupo_1219471" data-name="Grupo 1219471" transform="translate(-192 -615)">
    <g id="Grupo_1219284" data-name="Grupo 1219284" transform="translate(-1 -1704.686)">
      <g id="Grupo_1211580" data-name="Grupo 1211580" transform="translate(1 2005.686)">
        <g id="Grupo_1180764" data-name="Grupo 1180764" transform="translate(1 -4144)">
          <g id="Grupo_1179463" data-name="Grupo 1179463" transform="translate(200 4464)">
            <g id="Grupo_1144531" data-name="Grupo 1144531">
              <g transform="matrix(1, 0, 0, 1, -9, -6)" filter="url(#Trazado_978624)">
                <g id="Trazado_978624-2" data-name="Trazado 978624" transform="translate(9 6)" fill="#edeef2">
                  <path d="M 42.5 83.5 C 36.96437835693359 83.5 31.59512901306152 82.41617584228516 26.54141235351562 80.27863311767578 C 21.65934181213379 78.21369171142578 17.27447128295898 75.25723266601562 13.50862312316895 71.49137878417969 C 9.742764472961426 67.72553253173828 6.786305904388428 63.34066009521484 4.721364498138428 58.45858764648438 C 2.583823442459106 53.40486907958984 1.5 48.03562164306641 1.5 42.5 C 1.5 36.96437835693359 2.583823442459106 31.59512901306152 4.721364498138428 26.54141235351562 C 6.786305904388428 21.65934181213379 9.742764472961426 17.27447128295898 13.50862312316895 13.50862312316895 C 17.27447128295898 9.742764472961426 21.65934181213379 6.786305904388428 26.54141235351562 4.721364498138428 C 31.59512901306152 2.583823442459106 36.96437835693359 1.5 42.5 1.5 C 48.03562164306641 1.5 53.40486907958984 2.583823442459106 58.45858764648438 4.721364498138428 C 63.34066009521484 6.786305904388428 67.72553253173828 9.742764472961426 71.49137878417969 13.50862312316895 C 75.25723266601562 17.27447128295898 78.21369171142578 21.65934181213379 80.27863311767578 26.54141235351562 C 82.41617584228516 31.59512901306152 83.5 36.96437835693359 83.5 42.5 C 83.5 48.03562164306641 82.41617584228516 53.40486907958984 80.27863311767578 58.45858764648438 C 78.21369171142578 63.34066009521484 75.25723266601562 67.72553253173828 71.49137878417969 71.49137878417969 C 67.72553253173828 75.25723266601562 63.34066009521484 78.21369171142578 58.45858764648438 80.27863311767578 C 53.40486907958984 82.41617584228516 48.03562164306641 83.5 42.5 83.5 Z" stroke="none"/>
                  <path d="M 42.5 3 C 37.16621398925781 3 31.99356079101562 4.043960571289062 27.125732421875 6.102882385253906 C 22.42246627807617 8.092185974121094 18.19785308837891 10.94070434570312 14.56928253173828 14.56928253173828 C 10.94070434570312 18.19785308837891 8.092185974121094 22.42246627807617 6.102882385253906 27.125732421875 C 4.043960571289062 31.99356079101562 3 37.16621398925781 3 42.5 C 3 47.83378601074219 4.043960571289062 53.00643920898438 6.102882385253906 57.87425231933594 C 8.092185974121094 62.57753372192383 10.94070434570312 66.80213165283203 14.56928253173828 70.43071746826172 C 18.19786834716797 74.05929565429688 22.42246627807617 76.90781402587891 27.125732421875 78.89711761474609 C 31.99356079101562 80.95603942871094 37.16621398925781 82 42.5 82 C 47.83378601074219 82 53.00642395019531 80.95603942871094 57.87425231933594 78.89711761474609 C 62.57753372192383 76.90781402587891 66.80213165283203 74.05929565429688 70.43071746826172 70.43071746826172 C 74.05929565429688 66.80213165283203 76.90781402587891 62.57753372192383 78.89711761474609 57.87425231933594 C 80.95603942871094 53.00642395019531 82 47.83378601074219 82 42.5 C 82 37.16621398925781 80.95603942871094 31.99356079101562 78.89711761474609 27.125732421875 C 76.90781402587891 22.42246627807617 74.05929565429688 18.19786834716797 70.43071746826172 14.56928253173828 C 66.80213165283203 10.94070434570312 62.57753372192383 8.092185974121094 57.87425231933594 6.102882385253906 C 53.00643920898438 4.043960571289062 47.83378601074219 3 42.5 3 M 42.5 0 C 65.97209167480469 0 85 19.02789306640625 85 42.5 C 85 65.97209167480469 65.97209167480469 85 42.5 85 C 19.02789306640625 85 0 65.97209167480469 0 42.5 C 0 19.02789306640625 19.02789306640625 0 42.5 0 Z" stroke="none" fill="#56678d"/>
                </g>
              </g>
            </g>
          </g>
        </g>
      </g>
    </g>
    <g id="habla_6_" data-name="habla (6)" transform="translate(205.855 622.857)">
      <g id="Grupo_1219469" data-name="Grupo 1219469" transform="translate(1.101 12.22)">
        <g id="Grupo_1219405" data-name="Grupo 1219405" transform="translate(26.147 0)">
          <g id="Grupo_1219404" data-name="Grupo 1219404">
            <g id="Grupo_1219403" data-name="Grupo 1219403">
              <g id="Grupo_1219402" data-name="Grupo 1219402">
                <g id="Grupo_1219401" data-name="Grupo 1219401">
                  <g id="Grupo_1219400" data-name="Grupo 1219400">
                    <g id="Grupo_1219399" data-name="Grupo 1219399" transform="translate(0 10.638)">
                      <g id="Grupo_1219398" data-name="Grupo 1219398">
                        <path id="Trazado_1090857" data-name="Trazado 1090857" d="M206.093,123.971H185.3l1.29-6.736a4.912,4.912,0,0,1,3.319-3.751l5.789-1.865,5.789,1.865a4.913,4.913,0,0,1,3.319,3.751Z" transform="translate(-185.298 -108.58)" fill="#5b5555"/>
                        <path id="Trazado_1090858" data-name="Trazado 1090858" d="M286.735,130.52h-3.41l-1.29-7.593a5.6,5.6,0,0,0-2.191-3.631l2.282.735a4.917,4.917,0,0,1,3.319,3.751Z" transform="translate(-265.94 -115.128)" fill="#444"/>
                        <path id="Trazado_1090859" data-name="Trazado 1090859" d="M230.568,113.322l-5.3,13.527-5.3-13.527,5.3-1.709Z" transform="translate(-214.872 -108.575)" fill="#efe2dd"/>
                        <path id="Trazado_1090860" data-name="Trazado 1090860" d="M246.655,90.954v4.278a1.947,1.947,0,1,1-3.894,0V90.954Z" transform="translate(-234.311 -90.954)" fill="#ba5d4f"/>
                      </g>
                    </g>
                    <path id="Trazado_1090861" data-name="Trazado 1090861" d="M226.05,18.618a5.164,5.164,0,0,0-5.164,5.164v2.244a5.164,5.164,0,0,0,10.328,0V23.782A5.164,5.164,0,0,0,226.05,18.618Z" transform="translate(-215.652 -18.617)" fill="#c86f5c"/>
                    <path id="Trazado_1090862" data-name="Trazado 1090862" d="M251.837,23.779v2.243a5.246,5.246,0,0,1-5.164,5.1,4.95,4.95,0,0,1-1.609-.269,5.255,5.255,0,0,0,3.555-4.828V23.779a5.167,5.167,0,0,0-3.555-4.91,5.169,5.169,0,0,1,6.772,4.91Z" transform="translate(-236.276 -18.614)" fill="#ba5d4f"/>
                  </g>
                </g>
              </g>
            </g>
          </g>
        </g>
        <g id="Grupo_1219406" data-name="Grupo 1219406" transform="translate(22.476 25.387)">
          <path id="Trazado_1090863" data-name="Trazado 1090863" d="M187.6,220.691h20.118v24.244H187.6Z" transform="translate(-183.591 -216.36)" fill="#a34f41"/>
          <path id="Trazado_1090864" data-name="Trazado 1090864" d="M207.719,220.694v24.243h-3.728V227.551a2.317,2.317,0,0,0-2.317-2.317H187.6v-4.54Z" transform="translate(-183.592 -216.363)" fill="#873f30"/>
          <path id="Trazado_1090865" data-name="Trazado 1090865" d="M187,196.568H161.816a1.476,1.476,0,0,1-1.476-1.476v-2.373a1.476,1.476,0,0,1,1.476-1.476H187a1.476,1.476,0,0,1,1.476,1.476v2.373A1.476,1.476,0,0,1,187,196.568Z" transform="translate(-160.34 -191.243)" fill="#ba5d4f"/>
          <path id="Trazado_1090866" data-name="Trazado 1090866" d="M321.818,192.719v2.374a1.476,1.476,0,0,1-1.475,1.476h-3.671a1.476,1.476,0,0,0,1.475-1.476v-2.374a1.475,1.475,0,0,0-1.475-1.475h3.671A1.475,1.475,0,0,1,321.818,192.719Z" transform="translate(-293.682 -191.244)" fill="#a34f41"/>
        </g>
        <g id="Grupo_1219431" data-name="Grupo 1219431" transform="translate(9.136 37.449)">
          <g id="Grupo_1219414" data-name="Grupo 1219414" transform="translate(18.272)">
            <g id="Grupo_1219413" data-name="Grupo 1219413" transform="translate(0)">
              <g id="Grupo_1219412" data-name="Grupo 1219412">
                <g id="Grupo_1219411" data-name="Grupo 1219411">
                  <g id="Grupo_1219410" data-name="Grupo 1219410">
                    <g id="Grupo_1219409" data-name="Grupo 1219409">
                      <g id="Grupo_1219408" data-name="Grupo 1219408" transform="translate(0 9.433)">
                        <g id="Grupo_1219407" data-name="Grupo 1219407">
                          <path id="Trazado_1090867" data-name="Trazado 1090867" d="M212.147,359.057H193.875l1.327-15.79a5.168,5.168,0,0,1,3.566-4.487l4.244-1.367,4.244,1.367a5.168,5.168,0,0,1,3.566,4.487Z" transform="translate(-193.875 -337.413)" fill="#bcea73"/>
                          <path id="Trazado_1090868" data-name="Trazado 1090868" d="M277.876,363.166h-3.79l-1.327-16.674c-.143-1.8-.381-3.383-1.822-4.263l2.047.659a5.168,5.168,0,0,1,3.565,4.486Z" transform="translate(-259.604 -341.521)" fill="#a3e440"/>
                        </g>
                      </g>
                      <path id="Trazado_1090869" data-name="Trazado 1090869" d="M229.683,273.271a4.537,4.537,0,0,0-4.537,4.537v1.971a4.538,4.538,0,0,0,9.075,0v-1.971A4.538,4.538,0,0,0,229.683,273.271Z" transform="translate(-220.547 -273.271)" fill="#d5887a"/>
                      <path id="Trazado_1090870" data-name="Trazado 1090870" d="M252.341,277.806v1.971a4.609,4.609,0,0,1-4.537,4.479,4.349,4.349,0,0,1-1.414-.237,4.618,4.618,0,0,0,3.124-4.242v-1.971a4.54,4.54,0,0,0-3.124-4.314,4.542,4.542,0,0,1,5.951,4.314Z" transform="translate(-238.667 -273.268)" fill="#c86f5c"/>
                    </g>
                  </g>
                </g>
              </g>
            </g>
          </g>
          <g id="Grupo_1219422" data-name="Grupo 1219422" transform="translate(36.544)">
            <g id="Grupo_1219421" data-name="Grupo 1219421">
              <g id="Grupo_1219420" data-name="Grupo 1219420">
                <g id="Grupo_1219419" data-name="Grupo 1219419">
                  <g id="Grupo_1219418" data-name="Grupo 1219418">
                    <g id="Grupo_1219417" data-name="Grupo 1219417">
                      <g id="Grupo_1219416" data-name="Grupo 1219416" transform="translate(0 9.433)">
                        <g id="Grupo_1219415" data-name="Grupo 1219415">
                          <path id="Trazado_1090871" data-name="Trazado 1090871" d="M336.4,359.057H318.128l1.327-15.79a5.168,5.168,0,0,1,3.566-4.487l4.244-1.367,4.244,1.367a5.168,5.168,0,0,1,3.566,4.487Z" transform="translate(-318.128 -337.413)" fill="#fcb44d"/>
                          <path id="Trazado_1090872" data-name="Trazado 1090872" d="M402.128,363.166h-3.79l-1.327-16.674c-.143-1.8-.381-3.383-1.822-4.263l2.047.659a5.168,5.168,0,0,1,3.565,4.486Z" transform="translate(-383.856 -341.521)" fill="#fb9927"/>
                        </g>
                      </g>
                      <path id="Trazado_1090873" data-name="Trazado 1090873" d="M353.935,273.271a4.537,4.537,0,0,0-4.537,4.537v1.971a4.538,4.538,0,0,0,9.075,0v-1.971A4.537,4.537,0,0,0,353.935,273.271Z" transform="translate(-344.799 -273.271)" fill="#a34f41"/>
                      <path id="Trazado_1090874" data-name="Trazado 1090874" d="M376.594,277.806v1.971a4.609,4.609,0,0,1-4.537,4.479,4.348,4.348,0,0,1-1.414-.237,4.617,4.617,0,0,0,3.124-4.242v-1.971a4.54,4.54,0,0,0-3.124-4.314,4.542,4.542,0,0,1,5.951,4.314Z" transform="translate(-362.92 -273.268)" fill="#873f30"/>
                    </g>
                  </g>
                </g>
              </g>
            </g>
          </g>
          <g id="Grupo_1219430" data-name="Grupo 1219430">
            <g id="Grupo_1219429" data-name="Grupo 1219429">
              <g id="Grupo_1219428" data-name="Grupo 1219428">
                <g id="Grupo_1219427" data-name="Grupo 1219427">
                  <g id="Grupo_1219426" data-name="Grupo 1219426">
                    <g id="Grupo_1219425" data-name="Grupo 1219425">
                      <g id="Grupo_1219424" data-name="Grupo 1219424" transform="translate(0 9.433)">
                        <g id="Grupo_1219423" data-name="Grupo 1219423">
                          <path id="Trazado_1090875" data-name="Trazado 1090875" d="M87.9,359.057H69.627l1.327-15.79a5.168,5.168,0,0,1,3.566-4.487l4.244-1.367,4.244,1.367a5.168,5.168,0,0,1,3.566,4.487Z" transform="translate(-69.627 -337.413)" fill="#27d1b3"/>
                          <path id="Trazado_1090876" data-name="Trazado 1090876" d="M153.643,363.166h-3.791l-1.327-16.674c-.143-1.8-.38-3.382-1.819-4.263l2.044.659a5.169,5.169,0,0,1,3.566,4.486Z" transform="translate(-135.37 -341.521)" fill="#20b69f"/>
                        </g>
                      </g>
                      <path id="Trazado_1090877" data-name="Trazado 1090877" d="M105.434,273.271a4.537,4.537,0,0,0-4.537,4.537v1.971a4.538,4.538,0,0,0,9.075,0v-1.971A4.537,4.537,0,0,0,105.434,273.271Z" transform="translate(-96.298 -273.271)" fill="#ffcec0"/>
                      <path id="Trazado_1090878" data-name="Trazado 1090878" d="M128.093,277.806v1.971a4.609,4.609,0,0,1-4.537,4.479,4.349,4.349,0,0,1-1.414-.237,4.618,4.618,0,0,0,3.124-4.242v-1.971a4.54,4.54,0,0,0-3.124-4.314,4.542,4.542,0,0,1,5.951,4.314Z" transform="translate(-114.419 -273.268)" fill="#fdb0a0"/>
                    </g>
                  </g>
                </g>
              </g>
            </g>
          </g>
        </g>
        <g id="Grupo_1219467" data-name="Grupo 1219467" transform="translate(0 49.533)">
          <g id="Grupo_1219448" data-name="Grupo 1219448">
            <g id="Grupo_1219439" data-name="Grupo 1219439">
              <g id="Grupo_1219438" data-name="Grupo 1219438">
                <g id="Grupo_1219437" data-name="Grupo 1219437">
                  <g id="Grupo_1219436" data-name="Grupo 1219436">
                    <g id="Grupo_1219435" data-name="Grupo 1219435">
                      <g id="Grupo_1219434" data-name="Grupo 1219434">
                        <g id="Grupo_1219433" data-name="Grupo 1219433" transform="translate(0 9.433)">
                          <g id="Grupo_1219432" data-name="Grupo 1219432">
                            <path id="Trazado_1090879" data-name="Trazado 1090879" d="M25.774,430.433H7.5l1.134-5.918a4.316,4.316,0,0,1,2.916-3.3l5.086-1.639,5.086,1.639a4.316,4.316,0,0,1,2.916,3.3Z" transform="translate(-7.502 -419.58)" fill="#fb3a82"/>
                            <path id="Trazado_1090880" data-name="Trazado 1090880" d="M96.63,436.188H92.9l-1.133-6.671c-.227-1.335-.2-2.481-1.19-3.19l2.005.646a4.32,4.32,0,0,1,2.916,3.3Z" transform="translate(-78.358 -425.334)" fill="#fb1466"/>
                          </g>
                        </g>
                        <path id="Trazado_1090881" data-name="Trazado 1090881" d="M43.309,355.437a4.537,4.537,0,0,0-4.537,4.537v1.971a4.538,4.538,0,0,0,9.075,0v-1.971A4.537,4.537,0,0,0,43.309,355.437Z" transform="translate(-34.173 -355.437)" fill="#a34f41"/>
                        <path id="Trazado_1090882" data-name="Trazado 1090882" d="M65.968,359.972v1.971a4.609,4.609,0,0,1-4.537,4.479,4.348,4.348,0,0,1-1.414-.237,4.617,4.617,0,0,0,3.124-4.242v-1.971a4.54,4.54,0,0,0-3.124-4.314,4.542,4.542,0,0,1,5.951,4.314Z" transform="translate(-52.294 -355.434)" fill="#873f30"/>
                      </g>
                    </g>
                  </g>
                </g>
              </g>
            </g>
            <g id="Grupo_1219447" data-name="Grupo 1219447" transform="translate(18.272)">
              <g id="Grupo_1219446" data-name="Grupo 1219446">
                <g id="Grupo_1219445" data-name="Grupo 1219445">
                  <g id="Grupo_1219444" data-name="Grupo 1219444">
                    <g id="Grupo_1219443" data-name="Grupo 1219443">
                      <g id="Grupo_1219442" data-name="Grupo 1219442">
                        <g id="Grupo_1219441" data-name="Grupo 1219441" transform="translate(0 9.433)">
                          <g id="Grupo_1219440" data-name="Grupo 1219440">
                            <path id="Trazado_1090883" data-name="Trazado 1090883" d="M150.022,430.433H131.75l1.134-5.918a4.316,4.316,0,0,1,2.916-3.3l5.086-1.639,5.086,1.639a4.316,4.316,0,0,1,2.916,3.3Z" transform="translate(-131.75 -419.58)" fill="#21c1f8"/>
                            <path id="Trazado_1090884" data-name="Trazado 1090884" d="M220.881,436.188h-3.732l-1.133-6.671c-.227-1.335-.2-2.481-1.19-3.19l2.005.646a4.317,4.317,0,0,1,2.915,3.3Z" transform="translate(-202.609 -425.334)" fill="#1faaee"/>
                          </g>
                        </g>
                        <path id="Trazado_1090885" data-name="Trazado 1090885" d="M167.558,355.437a4.537,4.537,0,0,0-4.537,4.537v1.971a4.538,4.538,0,0,0,9.075,0v-1.971A4.538,4.538,0,0,0,167.558,355.437Z" transform="translate(-158.422 -355.437)" fill="#ffcec0"/>
                        <path id="Trazado_1090886" data-name="Trazado 1090886" d="M190.216,359.972v1.971a4.609,4.609,0,0,1-4.537,4.479,4.348,4.348,0,0,1-1.414-.237,4.617,4.617,0,0,0,3.124-4.242v-1.971a4.54,4.54,0,0,0-3.124-4.314,4.542,4.542,0,0,1,5.951,4.314Z" transform="translate(-176.542 -355.434)" fill="#fdb0a0"/>
                      </g>
                    </g>
                  </g>
                </g>
              </g>
            </g>
          </g>
          <g id="Grupo_1219457" data-name="Grupo 1219457" transform="translate(36.544)">
            <g id="Grupo_1219456" data-name="Grupo 1219456">
              <g id="Grupo_1219455" data-name="Grupo 1219455">
                <g id="Grupo_1219454" data-name="Grupo 1219454">
                  <g id="Grupo_1219453" data-name="Grupo 1219453">
                    <g id="Grupo_1219452" data-name="Grupo 1219452">
                      <g id="Grupo_1219451" data-name="Grupo 1219451">
                        <g id="Grupo_1219450" data-name="Grupo 1219450" transform="translate(0 9.433)">
                          <g id="Grupo_1219449" data-name="Grupo 1219449">
                            <path id="Trazado_1090887" data-name="Trazado 1090887" d="M274.271,430.433H256l1.134-5.918a4.316,4.316,0,0,1,2.916-3.3l5.086-1.639,5.086,1.639a4.316,4.316,0,0,1,2.916,3.3Z" transform="translate(-255.999 -419.58)" fill="#fc95bb"/>
                            <path id="Trazado_1090888" data-name="Trazado 1090888" d="M345.132,436.188H341.4l-1.135-6.671c-.226-1.335-.2-2.481-1.189-3.19l2.005.646a4.321,4.321,0,0,1,2.915,3.3Z" transform="translate(-326.86 -425.334)" fill="#fc78a8"/>
                          </g>
                        </g>
                        <path id="Trazado_1090889" data-name="Trazado 1090889" d="M291.807,355.437a4.537,4.537,0,0,0-4.537,4.537v1.971a4.538,4.538,0,0,0,9.075,0v-1.971A4.537,4.537,0,0,0,291.807,355.437Z" transform="translate(-282.671 -355.437)" fill="#fdb0a0"/>
                        <path id="Trazado_1090890" data-name="Trazado 1090890" d="M314.465,359.972v1.971a4.609,4.609,0,0,1-4.537,4.479,4.348,4.348,0,0,1-1.414-.237,4.617,4.617,0,0,0,3.124-4.242v-1.971a4.54,4.54,0,0,0-3.124-4.314,4.542,4.542,0,0,1,5.951,4.314Z" transform="translate(-300.791 -355.434)" fill="#f69583"/>
                      </g>
                    </g>
                  </g>
                </g>
              </g>
            </g>
          </g>
          <g id="Grupo_1219466" data-name="Grupo 1219466" transform="translate(54.816)">
            <g id="Grupo_1219465" data-name="Grupo 1219465">
              <g id="Grupo_1219464" data-name="Grupo 1219464">
                <g id="Grupo_1219463" data-name="Grupo 1219463">
                  <g id="Grupo_1219462" data-name="Grupo 1219462">
                    <g id="Grupo_1219461" data-name="Grupo 1219461">
                      <g id="Grupo_1219460" data-name="Grupo 1219460">
                        <g id="Grupo_1219459" data-name="Grupo 1219459" transform="translate(0 9.433)">
                          <g id="Grupo_1219458" data-name="Grupo 1219458">
                            <path id="Trazado_1090891" data-name="Trazado 1090891" d="M398.521,430.433H380.249l1.134-5.918a4.316,4.316,0,0,1,2.916-3.3l5.086-1.639,5.086,1.639a4.316,4.316,0,0,1,2.916,3.3Z" transform="translate(-380.249 -419.58)" fill="#f3eae6"/>
                            <path id="Trazado_1090892" data-name="Trazado 1090892" d="M469.383,436.188h-3.732l-1.135-6.671c-.226-1.335-.2-2.481-1.189-3.19l2.005.646a4.321,4.321,0,0,1,2.915,3.3Z" transform="translate(-451.11 -425.334)" fill="#e0d3ce"/>
                          </g>
                        </g>
                        <path id="Trazado_1090893" data-name="Trazado 1090893" d="M416.057,355.437a4.537,4.537,0,0,0-4.537,4.537v1.971a4.538,4.538,0,0,0,9.075,0v-1.971A4.538,4.538,0,0,0,416.057,355.437Z" transform="translate(-406.921 -355.437)" fill="#fdb0a0"/>
                        <path id="Trazado_1090894" data-name="Trazado 1090894" d="M438.715,359.972v1.971a4.609,4.609,0,0,1-4.537,4.479,4.348,4.348,0,0,1-1.414-.237,4.617,4.617,0,0,0,3.124-4.242v-1.971a4.54,4.54,0,0,0-3.124-4.314,4.542,4.542,0,0,1,5.951,4.314Z" transform="translate(-425.041 -355.434)" fill="#f69583"/>
                      </g>
                    </g>
                  </g>
                </g>
              </g>
            </g>
          </g>
        </g>
        <g id="Grupo_1219468" data-name="Grupo 1219468" transform="translate(44.944 9.7)">
          <path id="Trazado_1090895" data-name="Trazado 1090895" d="M323.42,84.585a9.861,9.861,0,0,0-4.989,1.12h-3.446a.735.735,0,0,0-.735.735v3.446a9.9,9.9,0,1,0,9.17-5.3Z" transform="translate(-313.122 -84.577)" fill="#fcb44d"/>
          <path id="Trazado_1090896" data-name="Trazado 1090896" d="M369.549,104.365a9.608,9.608,0,0,1-1.506-.165,9.9,9.9,0,0,0,0-19.457,9.9,9.9,0,1,1,1.5,19.622Z" transform="translate(-359.966 -84.574)" fill="#fb9927"/>
        </g>
      </g>
      <g id="Grupo_1219470" data-name="Grupo 1219470" transform="translate(-0.002 11.118)">
        <path id="Trazado_1090897" data-name="Trazado 1090897" d="M75.273,81.832l-1.134-5.918a5.417,5.417,0,0,0-3.661-4.139l-.863-.278a5.463,5.463,0,0,0,1.079-3.235V66.291a5.638,5.638,0,0,0-7.629-5.277A6.244,6.244,0,0,0,60.5,59.42l-.02-.007a5.463,5.463,0,0,0,1.079-3.235V54.208a5.64,5.64,0,0,0-11.281,0v1.971a5.462,5.462,0,0,0,1.079,3.235l-.02.007a6.246,6.246,0,0,0-2.528,1.557V44.035h1.43a2.581,2.581,0,0,0,2.428-1.719,10.885,10.885,0,0,0,2.927.5q.178.006.356.006a10.984,10.984,0,0,0,9.715-16.129,1.1,1.1,0,1,0-1.948,1.035,8.786,8.786,0,0,1-8.054,12.884,8.793,8.793,0,0,1-7.511-12.866,1.1,1.1,0,0,0,.126-.512V24.152h3.079a1.1,1.1,0,0,0,.512-.126,8.756,8.756,0,0,1,8.685.314,1.1,1.1,0,0,0,1.164-1.874,10.961,10.961,0,0,0-10.625-.52H47.909a1.84,1.84,0,0,0-1.838,1.838v3.182c-.129.263-.246.531-.354.8a6.026,6.026,0,0,0-1.944-1.056L40.7,25.721v-.706a6.263,6.263,0,0,0,3.217-5.387V17.385a6.267,6.267,0,0,0-12.534,0v2.244A6.263,6.263,0,0,0,34.6,25.015v.706l-3.077.991a6.014,6.014,0,0,0-4.064,4.594l-1,5.2H25.053a2.582,2.582,0,0,0-2.579,2.579v2.373a2.582,2.582,0,0,0,2.579,2.579h1.43v6a1.1,1.1,0,0,0,2.206,0v-6H39.673a1.1,1.1,0,1,0,0-2.206H25.054a.373.373,0,0,1-.373-.373V39.083a.373.373,0,0,1,.373-.373H47.385a11.114,11.114,0,0,0,3.226,2.723v.023a.373.373,0,0,1-.373.373h-5.36a1.1,1.1,0,0,0,0,2.206H46.6v16.62a5.607,5.607,0,0,0-1.81.359,6.246,6.246,0,0,0-2.565-1.594l-.02-.007a5.463,5.463,0,0,0,1.079-3.235V54.207a5.64,5.64,0,0,0-11.281,0v1.971a5.463,5.463,0,0,0,1.079,3.235l-.021.007A6.247,6.247,0,0,0,30.5,61.014a5.6,5.6,0,0,0-1.809-.359V55.237a1.1,1.1,0,1,0-2.206,0v5.74a6.246,6.246,0,0,0-2.529-1.557l-.02-.007a5.463,5.463,0,0,0,1.079-3.235V54.207a5.64,5.64,0,0,0-11.281,0v1.971a5.463,5.463,0,0,0,1.079,3.235l-.02.007a6.242,6.242,0,0,0-2.565,1.594A5.638,5.638,0,0,0,4.6,66.291v1.971A5.463,5.463,0,0,0,5.676,71.5l-.863.278a5.418,5.418,0,0,0-3.661,4.139L.018,81.832a1.1,1.1,0,1,0,2.166.415l1.134-5.918a3.213,3.213,0,0,1,2.171-2.454l2.138-.689a5.506,5.506,0,0,0,5.221,0l2.138.689a3.212,3.212,0,0,1,2.171,2.454l1.134,5.918a1.1,1.1,0,0,0,2.165,0l1.135-5.922a3.212,3.212,0,0,1,2.171-2.454l2.138-.689a5.506,5.506,0,0,0,5.221,0l2.138.689a3.212,3.212,0,0,1,2.171,2.454l1.134,5.918a1.1,1.1,0,0,0,2.165,0l1.135-5.922a3.213,3.213,0,0,1,2.171-2.454l2.137-.689a5.506,5.506,0,0,0,5.221,0l2.138.689A3.212,3.212,0,0,1,53.7,76.328l1.134,5.918A1.1,1.1,0,0,0,57,82.252l1.136-5.924A3.213,3.213,0,0,1,60.3,73.874l2.137-.689a5.506,5.506,0,0,0,5.221,0l2.138.689a3.212,3.212,0,0,1,2.171,2.454l1.134,5.918a1.1,1.1,0,0,0,2.167-.415ZM37.017,36.5,33.8,28.295l.92-.3a3.048,3.048,0,0,0,5.849,0l.92.3L38.274,36.5ZM33.585,17.385a4.061,4.061,0,0,1,8.122,0v2.244a4.062,4.062,0,0,1-8.122,0Zm4.061,8.444a6.075,6.075,0,0,0,.844-.061v1.368a.844.844,0,1,1-1.689,0V25.769A6.072,6.072,0,0,0,37.646,25.829Zm-8.024,5.892a3.809,3.809,0,0,1,2.089-2.716l2.937,7.5H28.705ZM40.643,36.5l2.936-7.5a3.827,3.827,0,0,1,1.475,1.256,11.034,11.034,0,0,0-.1,2A10.884,10.884,0,0,0,46,36.5H40.643Zm11.84,17.7a3.434,3.434,0,1,1,6.869,0v1.971a3.435,3.435,0,0,1-6.869,0Zm-18.272,0a3.434,3.434,0,1,1,6.869,0v1.971a3.435,3.435,0,0,1-6.869,0Zm-18.272,0a3.434,3.434,0,1,1,6.869,0v1.971a3.435,3.435,0,0,1-6.869,0ZM6.8,68.262V66.291a3.434,3.434,0,0,1,6.869,0v1.971a3.5,3.5,0,0,1-3.434,3.376A3.5,3.5,0,0,1,6.8,68.262Zm12.57,7.651a5.48,5.48,0,0,0-3.712-4.139L14.8,71.5a5.463,5.463,0,0,0,1.079-3.235V66.291a5.622,5.622,0,0,0-1.727-4.056,4.056,4.056,0,0,1,1.318-.715l1.295-.417a5.506,5.506,0,0,0,5.221,0l1.295.417a4.057,4.057,0,0,1,1.318.715,5.623,5.623,0,0,0-1.727,4.056v1.971A5.463,5.463,0,0,0,23.948,71.5l-.863.278A5.479,5.479,0,0,0,19.373,75.913Zm5.7-7.651V66.291a3.434,3.434,0,0,1,6.869,0v1.971a3.435,3.435,0,0,1-6.869,0Zm12.571,7.651a5.479,5.479,0,0,0-3.712-4.139L33.07,71.5a5.463,5.463,0,0,0,1.079-3.235V66.291a5.623,5.623,0,0,0-1.727-4.056,4.055,4.055,0,0,1,1.318-.715l1.295-.417a5.506,5.506,0,0,0,5.221,0l1.295.417a4.053,4.053,0,0,1,1.318.715,5.623,5.623,0,0,0-1.727,4.056v1.971A5.464,5.464,0,0,0,42.22,71.5l-.863.278a5.479,5.479,0,0,0-3.711,4.138Zm5.7-7.651V66.291a3.434,3.434,0,0,1,6.869,0v1.971a3.435,3.435,0,0,1-6.869,0Zm12.571,7.651a5.48,5.48,0,0,0-3.712-4.139l-.863-.278a5.463,5.463,0,0,0,1.079-3.235V66.291a5.623,5.623,0,0,0-1.727-4.056,4.056,4.056,0,0,1,1.318-.715l1.295-.417a5.506,5.506,0,0,0,5.221,0l1.295.417a4.055,4.055,0,0,1,1.317.715,5.623,5.623,0,0,0-1.727,4.056v1.971A5.463,5.463,0,0,0,60.492,71.5l-.863.278a5.478,5.478,0,0,0-3.711,4.138Zm5.7-7.651V66.291a3.434,3.434,0,0,1,6.869,0v1.971a3.435,3.435,0,0,1-6.869,0Z" transform="translate(0.002 -11.118)"/>
        <path id="Trazado_1090898" data-name="Trazado 1090898" d="M350.636,119.4V116.64a1.1,1.1,0,0,0-.641-2h-3.569a1.1,1.1,0,0,0-2.2,0h-3.569a1.1,1.1,0,0,0-.641,2V119.4H340a1.1,1.1,0,1,0,0,2.206h2.228a1.1,1.1,0,1,0,0-2.206h-.011v-2.555h2v5.777H343a1.1,1.1,0,0,0,0,2.206h4.654a1.1,1.1,0,1,0,0-2.206h-1.224v-5.777h2V119.4h-.011a1.1,1.1,0,1,0,0,2.206h2.228a1.1,1.1,0,0,0,0-2.206h-.011Z" transform="translate(-289.06 -98.494)"/>
      </g>
    </g>
  </g>
</svg>
