<svg xmlns="http://www.w3.org/2000/svg" xmlns:xlink="http://www.w3.org/1999/xlink" width="1329" height="544" viewBox="0 0 1329 544">
  <defs>
    <clipPath id="clip-path">
      <rect id="Rect치ngulo_418300" data-name="Rect치ngulo 418300" width="1329" height="544" transform="translate(736 -1611)" fill="#fff" stroke="#707070" stroke-width="1" opacity="0.24"/>
    </clipPath>
    <clipPath id="clip-path-2">
      <rect id="Rect치ngulo_418292" data-name="Rect치ngulo 418292" width="1329" height="639" transform="translate(0 0)" fill="none"/>
    </clipPath>
  </defs>
  <g id="Enmascarar_grupo_1098702" data-name="Enmascarar grupo 1098702" transform="translate(-736 1611)" clip-path="url(#clip-path)">
    <g id="_7865642" data-name="7865642" transform="translate(596.92 -2070.67)">
      <g id="BACKGROUND" transform="translate(139.08 412.67)">
        <path id="Trazado_1079118" data-name="Trazado 1079118" d="M0,0H1329V638.962H0Z" transform="translate(0 0)" fill="#083e61"/>
      </g>
      <g id="OBJECTS" transform="translate(139.08 412.67)">
        <g id="Grupo_1209739" data-name="Grupo 1209739" transform="translate(0 0)" clip-path="url(#clip-path-2)">
          <path id="Trazado_1079119" data-name="Trazado 1079119" d="M374.19,0C580.85,0,748.38,167.531,748.38,374.19S580.85,748.38,374.19,748.38,0,580.85,0,374.19,167.531,0,374.19,0Z" transform="translate(600.248 -527.345)" fill="#ba9c5a"/>
        </g>
        <g id="Grupo_1209741" data-name="Grupo 1209741" transform="translate(0 0)" clip-path="url(#clip-path-2)">
          <g id="Grupo_1209740" data-name="Grupo 1209740" transform="translate(-76.545 -107.623)">
            <path id="Trazado_1079120" data-name="Trazado 1079120" d="M757.826,1186.3C651.237,1186.3,564.52,1099.584,564.52,993S651.237,799.69,757.826,799.69,951.131,886.407,951.131,993,864.414,1186.3,757.826,1186.3Zm0-383.084C653.18,803.217,568.047,888.35,568.047,993s85.133,189.779,189.779,189.779S947.6,1097.642,947.6,993,862.472,803.217,757.826,803.217Z" transform="translate(55.689 -197.5)" fill="#cee2ef"/>
            <path id="Trazado_1079121" data-name="Trazado 1079121" d="M1274.151,833.312c-77.286,0-140.171-62.872-140.171-140.171s62.872-140.171,140.171-140.171,140.171,62.872,140.171,140.171-62.885,140.171-140.171,140.171Zm0-277.774c-75.881,0-137.615,61.735-137.615,137.615s61.735,137.615,137.615,137.615,137.615-61.735,137.615-137.615-61.735-137.615-137.615-137.615Z" transform="translate(213.933 -266.059)" fill="#9ec6e0"/>
            <path id="Trazado_1079122" data-name="Trazado 1079122" d="M219.351,608.792c-77.286,0-140.171-62.872-140.171-140.171S142.052,328.45,219.351,328.45s140.171,62.872,140.171,140.171S296.65,608.792,219.351,608.792Zm0-277.774c-75.881,0-137.615,61.735-137.615,137.615S143.47,606.249,219.351,606.249s137.615-61.734,137.615-137.615S295.232,331.019,219.351,331.019Z" transform="translate(-79.18 -328.45)" fill="#e5f0f6"/>
          </g>
        </g>
        <g id="Grupo_1209743" data-name="Grupo 1209743" transform="translate(0 0)" clip-path="url(#clip-path-2)">
          <g id="Grupo_1209742" data-name="Grupo 1209742" transform="translate(-59.69 -125.923)">
            <path id="Trazado_1079123" data-name="Trazado 1079123" d="M152.06,688.63a59.69,59.69,0,1,1,59.69-59.69,59.759,59.759,0,0,1-59.69,59.69Zm0-102.767a43.078,43.078,0,1,0,43.078,43.078,43.123,43.123,0,0,0-43.078-43.078Z" transform="translate(-92.37 -243.236)" fill="#ba9c5a"/>
            <path id="Trazado_1079124" data-name="Trazado 1079124" d="M969.71,502.03a93.95,93.95,0,1,1,93.95-93.95A94.055,94.055,0,0,1,969.71,502.03Zm0-171.3a77.338,77.338,0,1,0,77.338,77.338A77.427,77.427,0,0,0,969.71,330.73Z" transform="translate(125.322 -314.13)" fill="#ba9c5a"/>
            <path id="Trazado_1079125" data-name="Trazado 1079125" d="M1211.31,1072.831A116.53,116.53,0,1,1,1327.84,956.3,116.666,116.666,0,0,1,1211.31,1072.831Zm0-216.448a99.918,99.918,0,1,0,99.918,99.918A100.029,100.029,0,0,0,1211.31,856.383Z" transform="translate(186.184 -168.063)" fill="#ba9c5a"/>
          </g>
        </g>
        <g id="Grupo_1209807" data-name="Grupo 1209807" transform="translate(0 0)" clip-path="url(#clip-path-2)">
          <g id="Grupo_1209806" data-name="Grupo 1209806" transform="translate(-100.02 377.282)">
            <g id="Grupo_1209774" data-name="Grupo 1209774" transform="translate(1304.746 214.826)">
              <g id="Grupo_1209758" data-name="Grupo 1209758">
                <g id="Grupo_1209750" data-name="Grupo 1209750">
                  <g id="Grupo_1209746" data-name="Grupo 1209746">
                    <g id="Grupo_1209744" data-name="Grupo 1209744" transform="translate(0 40.701)">
                      <path id="Trazado_1079126" data-name="Trazado 1079126" d="M1085.5,923.8a3.667,3.667,0,1,1-3.667,3.667A3.668,3.668,0,0,1,1085.5,923.8Z" transform="translate(-1081.83 -903.443)" fill="#9ec6e0"/>
                      <path id="Trazado_1079127" data-name="Trazado 1079127" d="M1085.5,907.87a3.668,3.668,0,1,1-3.667,3.668A3.668,3.668,0,0,1,1085.5,907.87Z" transform="translate(-1081.83 -907.87)" fill="#9ec6e0"/>
                    </g>
                    <g id="Grupo_1209745" data-name="Grupo 1209745">
                      <path id="Trazado_1079128" data-name="Trazado 1079128" d="M1085.5,891.95a3.668,3.668,0,1,1-3.667,3.667A3.668,3.668,0,0,1,1085.5,891.95Z" transform="translate(-1081.83 -871.593)" fill="#9ec6e0"/>
                      <path id="Trazado_1079129" data-name="Trazado 1079129" d="M1085.5,876.02a3.667,3.667,0,1,1-3.667,3.667A3.668,3.668,0,0,1,1085.5,876.02Z" transform="translate(-1081.83 -876.02)" fill="#9ec6e0"/>
                    </g>
                  </g>
                  <g id="Grupo_1209749" data-name="Grupo 1209749" transform="translate(20.357)">
                    <g id="Grupo_1209747" data-name="Grupo 1209747" transform="translate(0 40.701)">
                      <path id="Trazado_1079130" data-name="Trazado 1079130" d="M1101.428,923.8a3.667,3.667,0,1,1-3.667,3.667A3.668,3.668,0,0,1,1101.428,923.8Z" transform="translate(-1097.76 -903.443)" fill="#9ec6e0"/>
                      <path id="Trazado_1079131" data-name="Trazado 1079131" d="M1101.428,907.87a3.668,3.668,0,1,1-3.667,3.668A3.668,3.668,0,0,1,1101.428,907.87Z" transform="translate(-1097.76 -907.87)" fill="#9ec6e0"/>
                    </g>
                    <g id="Grupo_1209748" data-name="Grupo 1209748">
                      <path id="Trazado_1079132" data-name="Trazado 1079132" d="M1101.428,891.95a3.668,3.668,0,1,1-3.667,3.667A3.668,3.668,0,0,1,1101.428,891.95Z" transform="translate(-1097.76 -871.593)" fill="#9ec6e0"/>
                      <path id="Trazado_1079133" data-name="Trazado 1079133" d="M1101.428,876.02a3.667,3.667,0,1,1-3.667,3.667A3.668,3.668,0,0,1,1101.428,876.02Z" transform="translate(-1097.76 -876.02)" fill="#9ec6e0"/>
                    </g>
                  </g>
                </g>
                <g id="Grupo_1209757" data-name="Grupo 1209757" transform="translate(40.701)">
                  <g id="Grupo_1209753" data-name="Grupo 1209753">
                    <g id="Grupo_1209751" data-name="Grupo 1209751" transform="translate(0 40.701)">
                      <circle id="Elipse_11833" data-name="Elipse 11833" cx="3.668" cy="3.668" r="3.668" transform="translate(0 20.357)" fill="#9ec6e0"/>
                      <path id="Trazado_1079134" data-name="Trazado 1079134" d="M1117.348,907.87a3.668,3.668,0,1,1-3.667,3.668A3.668,3.668,0,0,1,1117.348,907.87Z" transform="translate(-1113.68 -907.87)" fill="#9ec6e0"/>
                    </g>
                    <g id="Grupo_1209752" data-name="Grupo 1209752">
                      <path id="Trazado_1079135" data-name="Trazado 1079135" d="M1117.348,891.95a3.668,3.668,0,1,1-3.667,3.667A3.668,3.668,0,0,1,1117.348,891.95Z" transform="translate(-1113.68 -871.593)" fill="#9ec6e0"/>
                      <path id="Trazado_1079136" data-name="Trazado 1079136" d="M1117.348,876.02a3.667,3.667,0,1,1-3.667,3.667A3.668,3.668,0,0,1,1117.348,876.02Z" transform="translate(-1113.68 -876.02)" fill="#9ec6e0"/>
                    </g>
                  </g>
                  <g id="Grupo_1209756" data-name="Grupo 1209756" transform="translate(20.357)">
                    <g id="Grupo_1209754" data-name="Grupo 1209754" transform="translate(0 40.701)">
                      <circle id="Elipse_11834" data-name="Elipse 11834" cx="3.668" cy="3.668" r="3.668" transform="translate(0 20.357)" fill="#9ec6e0"/>
                      <path id="Trazado_1079137" data-name="Trazado 1079137" d="M1133.277,907.87a3.668,3.668,0,1,1-3.667,3.668A3.668,3.668,0,0,1,1133.277,907.87Z" transform="translate(-1129.61 -907.87)" fill="#9ec6e0"/>
                    </g>
                    <g id="Grupo_1209755" data-name="Grupo 1209755">
                      <path id="Trazado_1079138" data-name="Trazado 1079138" d="M1133.277,891.95a3.668,3.668,0,1,1-3.667,3.667A3.668,3.668,0,0,1,1133.277,891.95Z" transform="translate(-1129.61 -871.593)" fill="#9ec6e0"/>
                      <path id="Trazado_1079139" data-name="Trazado 1079139" d="M1133.277,876.02a3.667,3.667,0,1,1-3.667,3.667A3.668,3.668,0,0,1,1133.277,876.02Z" transform="translate(-1129.61 -876.02)" fill="#9ec6e0"/>
                    </g>
                  </g>
                </g>
              </g>
              <g id="Grupo_1209773" data-name="Grupo 1209773" transform="translate(81.414)">
                <g id="Grupo_1209765" data-name="Grupo 1209765">
                  <g id="Grupo_1209761" data-name="Grupo 1209761">
                    <g id="Grupo_1209759" data-name="Grupo 1209759" transform="translate(0 40.701)">
                      <path id="Trazado_1079140" data-name="Trazado 1079140" d="M1149.208,923.8a3.667,3.667,0,1,1-3.668,3.667A3.668,3.668,0,0,1,1149.208,923.8Z" transform="translate(-1145.54 -903.443)" fill="#9ec6e0"/>
                      <path id="Trazado_1079141" data-name="Trazado 1079141" d="M1149.208,907.87a3.668,3.668,0,1,1-3.668,3.668A3.668,3.668,0,0,1,1149.208,907.87Z" transform="translate(-1145.54 -907.87)" fill="#9ec6e0"/>
                    </g>
                    <g id="Grupo_1209760" data-name="Grupo 1209760">
                      <path id="Trazado_1079142" data-name="Trazado 1079142" d="M1149.208,891.95a3.668,3.668,0,1,1-3.668,3.667A3.668,3.668,0,0,1,1149.208,891.95Z" transform="translate(-1145.54 -871.593)" fill="#9ec6e0"/>
                      <path id="Trazado_1079143" data-name="Trazado 1079143" d="M1149.208,876.02a3.667,3.667,0,1,1-3.668,3.667A3.668,3.668,0,0,1,1149.208,876.02Z" transform="translate(-1145.54 -876.02)" fill="#9ec6e0"/>
                    </g>
                  </g>
                  <g id="Grupo_1209764" data-name="Grupo 1209764" transform="translate(20.344)">
                    <g id="Grupo_1209762" data-name="Grupo 1209762" transform="translate(0 40.701)">
                      <path id="Trazado_1079144" data-name="Trazado 1079144" d="M1165.128,923.8a3.667,3.667,0,1,1-3.668,3.667A3.668,3.668,0,0,1,1165.128,923.8Z" transform="translate(-1161.46 -903.443)" fill="#9ec6e0"/>
                      <path id="Trazado_1079145" data-name="Trazado 1079145" d="M1165.128,907.87a3.668,3.668,0,1,1-3.668,3.668A3.668,3.668,0,0,1,1165.128,907.87Z" transform="translate(-1161.46 -907.87)" fill="#9ec6e0"/>
                    </g>
                    <g id="Grupo_1209763" data-name="Grupo 1209763">
                      <path id="Trazado_1079146" data-name="Trazado 1079146" d="M1165.128,891.95a3.668,3.668,0,1,1-3.668,3.667A3.668,3.668,0,0,1,1165.128,891.95Z" transform="translate(-1161.46 -871.593)" fill="#9ec6e0"/>
                      <path id="Trazado_1079147" data-name="Trazado 1079147" d="M1165.128,876.02a3.667,3.667,0,1,1-3.668,3.667A3.668,3.668,0,0,1,1165.128,876.02Z" transform="translate(-1161.46 -876.02)" fill="#9ec6e0"/>
                    </g>
                  </g>
                </g>
                <g id="Grupo_1209772" data-name="Grupo 1209772" transform="translate(40.701)">
                  <g id="Grupo_1209768" data-name="Grupo 1209768">
                    <g id="Grupo_1209766" data-name="Grupo 1209766" transform="translate(0 40.701)">
                      <circle id="Elipse_11835" data-name="Elipse 11835" cx="3.668" cy="3.668" r="3.668" transform="translate(0 20.357)" fill="#9ec6e0"/>
                      <path id="Trazado_1079148" data-name="Trazado 1079148" d="M1181.057,907.87a3.668,3.668,0,1,1-3.667,3.668A3.668,3.668,0,0,1,1181.057,907.87Z" transform="translate(-1177.39 -907.87)" fill="#9ec6e0"/>
                    </g>
                    <g id="Grupo_1209767" data-name="Grupo 1209767">
                      <path id="Trazado_1079149" data-name="Trazado 1079149" d="M1181.057,891.95a3.668,3.668,0,1,1-3.667,3.667A3.668,3.668,0,0,1,1181.057,891.95Z" transform="translate(-1177.39 -871.593)" fill="#9ec6e0"/>
                      <path id="Trazado_1079150" data-name="Trazado 1079150" d="M1181.057,876.02a3.667,3.667,0,1,1-3.667,3.667A3.668,3.668,0,0,1,1181.057,876.02Z" transform="translate(-1177.39 -876.02)" fill="#9ec6e0"/>
                    </g>
                  </g>
                  <g id="Grupo_1209771" data-name="Grupo 1209771" transform="translate(20.298)">
                    <g id="Grupo_1209769" data-name="Grupo 1209769" transform="translate(0 40.701)">
                      <circle id="Elipse_11836" data-name="Elipse 11836" cx="3.668" cy="3.668" r="3.668" transform="translate(0 27.642) rotate(-88.41)" fill="#9ec6e0"/>
                      <path id="Trazado_1079151" data-name="Trazado 1079151" d="M1196.978,907.87a3.668,3.668,0,1,1-3.667,3.668A3.668,3.668,0,0,1,1196.978,907.87Z" transform="translate(-1193.264 -907.87)" fill="#9ec6e0"/>
                    </g>
                    <g id="Grupo_1209770" data-name="Grupo 1209770" transform="translate(0.046)">
                      <path id="Trazado_1079152" data-name="Trazado 1079152" d="M1196.978,891.95a3.668,3.668,0,1,1-3.667,3.667A3.668,3.668,0,0,1,1196.978,891.95Z" transform="translate(-1193.31 -871.593)" fill="#9ec6e0"/>
                      <path id="Trazado_1079153" data-name="Trazado 1079153" d="M1196.978,876.02a3.667,3.667,0,1,1-3.667,3.667A3.668,3.668,0,0,1,1196.978,876.02Z" transform="translate(-1193.31 -876.02)" fill="#9ec6e0"/>
                    </g>
                  </g>
                </g>
              </g>
            </g>
            <g id="Grupo_1209805" data-name="Grupo 1209805">
              <g id="Grupo_1209789" data-name="Grupo 1209789">
                <g id="Grupo_1209781" data-name="Grupo 1209781">
                  <g id="Grupo_1209777" data-name="Grupo 1209777">
                    <g id="Grupo_1209775" data-name="Grupo 1209775" transform="translate(0 40.701)">
                      <path id="Trazado_1079154" data-name="Trazado 1079154" d="M64.478,709.45a3.668,3.668,0,1,1-3.668,3.668,3.668,3.668,0,0,1,3.668-3.668Z" transform="translate(-60.81 -689.093)" fill="#9ec6e0"/>
                      <circle id="Elipse_11837" data-name="Elipse 11837" cx="3.668" cy="3.668" r="3.668" fill="#9ec6e0"/>
                    </g>
                    <g id="Grupo_1209776" data-name="Grupo 1209776">
                      <path id="Trazado_1079155" data-name="Trazado 1079155" d="M64.478,677.59a3.668,3.668,0,1,1-3.668,3.668,3.668,3.668,0,0,1,3.668-3.668Z" transform="translate(-60.81 -657.246)" fill="#9ec6e0"/>
                      <circle id="Elipse_11838" data-name="Elipse 11838" cx="3.668" cy="3.668" r="3.668" fill="#9ec6e0"/>
                    </g>
                  </g>
                  <g id="Grupo_1209780" data-name="Grupo 1209780" transform="translate(20.357)">
                    <g id="Grupo_1209778" data-name="Grupo 1209778" transform="translate(0 40.701)">
                      <path id="Trazado_1079156" data-name="Trazado 1079156" d="M80.408,709.45a3.668,3.668,0,1,1-3.668,3.668A3.668,3.668,0,0,1,80.408,709.45Z" transform="translate(-76.74 -689.093)" fill="#9ec6e0"/>
                      <circle id="Elipse_11839" data-name="Elipse 11839" cx="3.668" cy="3.668" r="3.668" fill="#9ec6e0"/>
                    </g>
                    <g id="Grupo_1209779" data-name="Grupo 1209779">
                      <path id="Trazado_1079157" data-name="Trazado 1079157" d="M80.408,677.59a3.668,3.668,0,1,1-3.668,3.668A3.668,3.668,0,0,1,80.408,677.59Z" transform="translate(-76.74 -657.246)" fill="#9ec6e0"/>
                      <circle id="Elipse_11840" data-name="Elipse 11840" cx="3.668" cy="3.668" r="3.668" fill="#9ec6e0"/>
                    </g>
                  </g>
                </g>
                <g id="Grupo_1209788" data-name="Grupo 1209788" transform="translate(40.701)">
                  <g id="Grupo_1209784" data-name="Grupo 1209784">
                    <g id="Grupo_1209782" data-name="Grupo 1209782" transform="translate(0 40.701)">
                      <path id="Trazado_1079158" data-name="Trazado 1079158" d="M96.328,709.45a3.668,3.668,0,1,1-3.668,3.668A3.668,3.668,0,0,1,96.328,709.45Z" transform="translate(-92.66 -689.093)" fill="#9ec6e0"/>
                      <path id="Trazado_1079159" data-name="Trazado 1079159" d="M96.328,693.52a3.668,3.668,0,1,1-3.668,3.667A3.668,3.668,0,0,1,96.328,693.52Z" transform="translate(-92.66 -693.52)" fill="#9ec6e0"/>
                    </g>
                    <g id="Grupo_1209783" data-name="Grupo 1209783">
                      <path id="Trazado_1079160" data-name="Trazado 1079160" d="M96.328,677.59a3.668,3.668,0,1,1-3.668,3.668A3.668,3.668,0,0,1,96.328,677.59Z" transform="translate(-92.66 -657.246)" fill="#9ec6e0"/>
                      <path id="Trazado_1079161" data-name="Trazado 1079161" d="M96.328,661.67a3.668,3.668,0,1,1-3.668,3.668A3.668,3.668,0,0,1,96.328,661.67Z" transform="translate(-92.66 -661.67)" fill="#9ec6e0"/>
                    </g>
                  </g>
                  <g id="Grupo_1209787" data-name="Grupo 1209787" transform="translate(20.357)">
                    <g id="Grupo_1209785" data-name="Grupo 1209785" transform="translate(0 40.701)">
                      <path id="Trazado_1079162" data-name="Trazado 1079162" d="M112.258,709.45a3.668,3.668,0,1,1-3.668,3.668A3.668,3.668,0,0,1,112.258,709.45Z" transform="translate(-108.59 -689.093)" fill="#9ec6e0"/>
                      <path id="Trazado_1079163" data-name="Trazado 1079163" d="M112.258,693.52a3.668,3.668,0,1,1-3.668,3.667A3.668,3.668,0,0,1,112.258,693.52Z" transform="translate(-108.59 -693.52)" fill="#9ec6e0"/>
                    </g>
                    <g id="Grupo_1209786" data-name="Grupo 1209786">
                      <path id="Trazado_1079164" data-name="Trazado 1079164" d="M112.258,677.59a3.668,3.668,0,1,1-3.668,3.668A3.668,3.668,0,0,1,112.258,677.59Z" transform="translate(-108.59 -657.246)" fill="#9ec6e0"/>
                      <path id="Trazado_1079165" data-name="Trazado 1079165" d="M112.258,661.67a3.668,3.668,0,1,1-3.668,3.668A3.668,3.668,0,0,1,112.258,661.67Z" transform="translate(-108.59 -661.67)" fill="#9ec6e0"/>
                    </g>
                  </g>
                </g>
              </g>
              <g id="Grupo_1209804" data-name="Grupo 1209804" transform="translate(81.414)">
                <g id="Grupo_1209796" data-name="Grupo 1209796">
                  <g id="Grupo_1209792" data-name="Grupo 1209792">
                    <g id="Grupo_1209790" data-name="Grupo 1209790" transform="translate(0 40.701)">
                      <path id="Trazado_1079166" data-name="Trazado 1079166" d="M128.188,709.45a3.668,3.668,0,1,1-3.668,3.668,3.668,3.668,0,0,1,3.668-3.668Z" transform="translate(-124.52 -689.093)" fill="#9ec6e0"/>
                      <circle id="Elipse_11841" data-name="Elipse 11841" cx="3.668" cy="3.668" r="3.668" transform="translate(0)" fill="#9ec6e0"/>
                    </g>
                    <g id="Grupo_1209791" data-name="Grupo 1209791">
                      <path id="Trazado_1079167" data-name="Trazado 1079167" d="M128.188,677.59a3.668,3.668,0,1,1-3.668,3.668,3.668,3.668,0,0,1,3.668-3.668Z" transform="translate(-124.52 -657.246)" fill="#9ec6e0"/>
                      <circle id="Elipse_11842" data-name="Elipse 11842" cx="3.668" cy="3.668" r="3.668" transform="translate(0)" fill="#9ec6e0"/>
                    </g>
                  </g>
                  <g id="Grupo_1209795" data-name="Grupo 1209795" transform="translate(20.344)">
                    <g id="Grupo_1209793" data-name="Grupo 1209793" transform="translate(0 40.701)">
                      <path id="Trazado_1079168" data-name="Trazado 1079168" d="M144.108,709.45a3.668,3.668,0,1,1-3.668,3.668A3.668,3.668,0,0,1,144.108,709.45Z" transform="translate(-140.44 -689.093)" fill="#9ec6e0"/>
                      <circle id="Elipse_11843" data-name="Elipse 11843" cx="3.668" cy="3.668" r="3.668" fill="#9ec6e0"/>
                    </g>
                    <g id="Grupo_1209794" data-name="Grupo 1209794">
                      <path id="Trazado_1079169" data-name="Trazado 1079169" d="M144.108,677.59a3.668,3.668,0,1,1-3.668,3.668A3.668,3.668,0,0,1,144.108,677.59Z" transform="translate(-140.44 -657.246)" fill="#9ec6e0"/>
                      <circle id="Elipse_11844" data-name="Elipse 11844" cx="3.668" cy="3.668" r="3.668" fill="#9ec6e0"/>
                    </g>
                  </g>
                </g>
                <g id="Grupo_1209803" data-name="Grupo 1209803" transform="translate(40.701)">
                  <g id="Grupo_1209799" data-name="Grupo 1209799">
                    <g id="Grupo_1209797" data-name="Grupo 1209797" transform="translate(0 40.701)">
                      <path id="Trazado_1079170" data-name="Trazado 1079170" d="M160.038,709.45a3.668,3.668,0,1,1-3.668,3.668A3.668,3.668,0,0,1,160.038,709.45Z" transform="translate(-156.37 -689.093)" fill="#9ec6e0"/>
                      <path id="Trazado_1079171" data-name="Trazado 1079171" d="M160.038,693.52a3.668,3.668,0,1,1-3.668,3.667A3.668,3.668,0,0,1,160.038,693.52Z" transform="translate(-156.37 -693.52)" fill="#9ec6e0"/>
                    </g>
                    <g id="Grupo_1209798" data-name="Grupo 1209798">
                      <path id="Trazado_1079172" data-name="Trazado 1079172" d="M160.038,677.59a3.668,3.668,0,1,1-3.668,3.668A3.668,3.668,0,0,1,160.038,677.59Z" transform="translate(-156.37 -657.246)" fill="#9ec6e0"/>
                      <path id="Trazado_1079173" data-name="Trazado 1079173" d="M160.038,661.67a3.668,3.668,0,1,1-3.668,3.668A3.668,3.668,0,0,1,160.038,661.67Z" transform="translate(-156.37 -661.67)" fill="#9ec6e0"/>
                    </g>
                  </g>
                  <g id="Grupo_1209802" data-name="Grupo 1209802" transform="translate(20.357)">
                    <g id="Grupo_1209800" data-name="Grupo 1209800" transform="translate(0 40.701)">
                      <path id="Trazado_1079174" data-name="Trazado 1079174" d="M175.968,709.45a3.668,3.668,0,1,1-3.668,3.668A3.668,3.668,0,0,1,175.968,709.45Z" transform="translate(-172.3 -689.093)" fill="#9ec6e0"/>
                      <path id="Trazado_1079175" data-name="Trazado 1079175" d="M175.968,693.52a3.668,3.668,0,1,1-3.668,3.667A3.668,3.668,0,0,1,175.968,693.52Z" transform="translate(-172.3 -693.52)" fill="#9ec6e0"/>
                    </g>
                    <g id="Grupo_1209801" data-name="Grupo 1209801">
                      <path id="Trazado_1079176" data-name="Trazado 1079176" d="M175.968,677.59a3.668,3.668,0,1,1-3.668,3.668A3.668,3.668,0,0,1,175.968,677.59Z" transform="translate(-172.3 -657.246)" fill="#9ec6e0"/>
                      <path id="Trazado_1079177" data-name="Trazado 1079177" d="M175.968,661.67a3.668,3.668,0,1,1-3.668,3.668A3.668,3.668,0,0,1,175.968,661.67Z" transform="translate(-172.3 -661.67)" fill="#9ec6e0"/>
                    </g>
                  </g>
                </g>
              </g>
            </g>
          </g>
        </g>
        <g id="Grupo_1209809" data-name="Grupo 1209809" transform="translate(0 0)" clip-path="url(#clip-path-2)">
          <g id="Grupo_1209808" data-name="Grupo 1209808" transform="translate(-75.317 -486.352)">
            <circle id="Elipse_11845" data-name="Elipse 11845" cx="218.876" cy="218.876" r="218.876" transform="translate(685.096 1275.006) rotate(-45)" fill="#ba9c5a"/>
            <circle id="Elipse_11846" data-name="Elipse 11846" cx="218.876" cy="218.876" r="218.876" transform="translate(0 309.539) rotate(-45)" fill="#ba9c5a"/>
          </g>
        </g>
        <g id="Grupo_1209810" data-name="Grupo 1209810" transform="translate(0 0)" clip-path="url(#clip-path-2)">
          <path id="Trazado_1079178" data-name="Trazado 1079178" d="M221.585,0C343.963,0,443.17,99.207,443.17,221.585S343.963,443.17,221.585,443.17,0,343.963,0,221.585,99.207,0,221.585,0Z" transform="translate(-166.5 707.139) rotate(-45)" fill="#ba9c5a"/>
        </g>
      </g>
    </g>
  </g>
</svg>
