<svg xmlns="http://www.w3.org/2000/svg" xmlns:xlink="http://www.w3.org/1999/xlink" width="93.934" height="93.934" viewBox="0 0 93.934 93.934">
  <defs>
    <filter id="Trazado_982547" x="0" y="0" width="93.934" height="93.934" filterUnits="userSpaceOnUse">
      <feOffset dy="3" input="SourceAlpha"/>
      <feGaussianBlur stdDeviation="3" result="blur"/>
      <feFlood flood-opacity="0.161"/>
      <feComposite operator="in" in2="blur"/>
      <feComposite in="SourceGraphic"/>
    </filter>
  </defs>
  <g id="Grupo_1219478" data-name="Grupo 1219478" transform="translate(-191.066 -5095.849)">
    <g id="Grupo_1219289" data-name="Grupo 1219289" transform="translate(-0.229 1373.849)">
      <g id="Grupo_1214594" data-name="Grupo 1214594" transform="translate(0 -1406)">
        <g id="Grupo_1214432" data-name="Grupo 1214432" transform="translate(-0.771 -2738.674)">
          <g id="Grupo_1183196" data-name="Grupo 1183196" transform="translate(1 1016.674)">
            <g id="Grupo_1179610" data-name="Grupo 1179610" transform="translate(8 4723.467)">
              <g id="Grupo_1175227" data-name="Grupo 1175227" transform="translate(-5.967 140.533)">
                <g id="Grupo_1167337" data-name="Grupo 1167337" transform="translate(198.033 1992)">
                  <g id="Grupo_1166720" data-name="Grupo 1166720">
                    <g id="Grupo_1164305" data-name="Grupo 1164305">
                      <g id="Grupo_1163948" data-name="Grupo 1163948">
                        <g id="Grupo_1158168" data-name="Grupo 1158168">
                          <g id="Grupo_1152576" data-name="Grupo 1152576">
                            <g id="Grupo_1148633" data-name="Grupo 1148633">
                              <g id="Grupo_1148525" data-name="Grupo 1148525">
                                <g transform="matrix(1, 0, 0, 1, -9, -6)" filter="url(#Trazado_982547)">
                                  <g id="Trazado_982547-2" data-name="Trazado 982547" transform="translate(9 6)" fill="#f7f4ed">
                                    <path d="M 37.966796875 74.43359375 C 33.04315185546875 74.43359375 28.26757431030273 73.46962738037109 23.77274131774902 71.56847381591797 C 19.43047523498535 69.73184967041016 15.53040790557861 67.10224914550781 12.18087482452393 63.75271987915039 C 8.831341743469238 60.4031867980957 6.201741218566895 56.50312042236328 4.365118980407715 52.16086196899414 C 2.463963508605957 47.66601943969727 1.499996900558472 42.89044189453125 1.499996900558472 37.966796875 C 1.499996900558472 33.04315185546875 2.463963508605957 28.26757431030273 4.365118980407715 23.77274131774902 C 6.201741218566895 19.43047523498535 8.831341743469238 15.53040790557861 12.18087482452393 12.18087482452393 C 15.53040790557861 8.831341743469238 19.43047523498535 6.201741218566895 23.77274131774902 4.365118980407715 C 28.26757431030273 2.463963508605957 33.04315185546875 1.499996900558472 37.966796875 1.499996900558472 C 42.89044189453125 1.499996900558472 47.66601943969727 2.463963508605957 52.16086196899414 4.365118980407715 C 56.50312042236328 6.201741218566895 60.4031867980957 8.831341743469238 63.75271987915039 12.18087482452393 C 67.10224914550781 15.53040790557861 69.73184967041016 19.43047523498535 71.56847381591797 23.77274131774902 C 73.46962738037109 28.26757431030273 74.43359375 33.04315185546875 74.43359375 37.966796875 C 74.43359375 42.89044189453125 73.46962738037109 47.66601943969727 71.56847381591797 52.16086196899414 C 69.73184967041016 56.50313186645508 67.10224914550781 60.4031867980957 63.75271987915039 63.75271987915039 C 60.4031867980957 67.10224914550781 56.50313186645508 69.73184967041016 52.16086196899414 71.56847381591797 C 47.66601943969727 73.46962738037109 42.89044189453125 74.43359375 37.966796875 74.43359375 Z" stroke="none"/>
                                    <path d="M 37.966796875 3 C 33.2449836730957 3 28.66600799560547 3.924095153808594 24.35705947875977 5.746635437011719 C 20.19359588623047 7.507637023925781 16.45379638671875 10.02928161621094 13.24153518676758 13.24153518676758 C 10.02927398681641 16.45379638671875 7.507621765136719 20.19359588623047 5.746635437011719 24.35705947875977 C 3.924095153808594 28.66600799560547 3 33.2449836730957 3 37.966796875 C 3 42.6886100769043 3.924095153808594 47.26758575439453 5.746635437011719 51.57653427124023 C 7.507621765136719 55.73999786376953 10.02927398681641 59.47979736328125 13.24153518676758 62.69205856323242 C 16.45379638671875 65.90431976318359 20.19359588623047 68.42597198486328 24.35705947875977 70.18695831298828 C 28.66600799560547 72.00949859619141 33.2449836730957 72.93359375 37.966796875 72.93359375 C 42.6886100769043 72.93359375 47.26758575439453 72.00949859619141 51.57653427124023 70.18695831298828 C 55.73999786376953 68.42597198486328 59.47979736328125 65.90431976318359 62.69205856323242 62.69205856323242 C 65.90431976318359 59.47979736328125 68.42597198486328 55.73999786376953 70.18695831298828 51.57653427124023 C 72.00949859619141 47.26758575439453 72.93359375 42.6886100769043 72.93359375 37.966796875 C 72.93359375 33.2449836730957 72.00949859619141 28.66600799560547 70.18695831298828 24.35705947875977 C 68.42597198486328 20.19359588623047 65.90431976318359 16.45379638671875 62.69205856323242 13.24153518676758 C 59.47979736328125 10.02928161621094 55.73999786376953 7.507637023925781 51.57653427124023 5.746635437011719 C 47.26758575439453 3.924095153808594 42.6886100769043 3 37.966796875 3 M 37.966796875 0 C 58.93528366088867 0 75.93359375 16.99832153320312 75.93359375 37.966796875 C 75.93359375 58.93528366088867 58.93528366088867 75.93359375 37.966796875 75.93359375 C 16.99831008911133 75.93359375 0 58.93528366088867 0 37.966796875 C 0 16.99832153320312 16.99831008911133 0 37.966796875 0 Z" stroke="none" fill="#847625"/>
                                  </g>
                                </g>
                              </g>
                            </g>
                          </g>
                        </g>
                      </g>
                    </g>
                  </g>
                </g>
              </g>
            </g>
          </g>
        </g>
      </g>
    </g>
    <g id="carpeta" transform="translate(201.121 5117.54)">
      <path id="Trazado_1091663" data-name="Trazado 1091663" d="M128.108,250.773H116.13a1.4,1.4,0,0,1-.986-.409l-1.769-1.769a2.092,2.092,0,0,0-1.48-.613h-6.108a2.092,2.092,0,0,0-2.092,2.092v18.135a2.092,2.092,0,0,0,2.092,2.093h22.32a2.092,2.092,0,0,0,2.092-2.093V252.866A2.093,2.093,0,0,0,128.108,250.773Z" transform="translate(-80.035 -226.405)" fill="#ffe09f"/>
      <path id="Trazado_1091664" data-name="Trazado 1091664" d="M130.071,268.212h-20.8a3.492,3.492,0,0,1-3.488-3.488v-16.74a2.092,2.092,0,0,0-2.092,2.092v18.135a2.092,2.092,0,0,0,2.092,2.092h22.32a2.092,2.092,0,0,0,2.092-2.092h-.128Z" transform="translate(-80.034 -226.406)" fill="#f6d190"/>
      <path id="Trazado_1091665" data-name="Trazado 1091665" d="M134.1,327.422l4.8-14.391a.7.7,0,0,0-.662-.918H114.208a2.092,2.092,0,0,0-1.985,1.431l-4.777,14.33a2.086,2.086,0,0,0,1.766.979h22.9A2.093,2.093,0,0,0,134.1,327.422Z" transform="translate(-83.46 -284.955)" fill="#ecbd83"/>
      <path id="Trazado_1091666" data-name="Trazado 1091666" d="M29.81,7.5H24.23a.7.7,0,0,0-.7.7v11.16a.7.7,0,0,0,.7.7H32.6a.7.7,0,0,0,.7-.7v-8.37Z" transform="translate(-6.847 -6.847)" fill="#eceaec"/>
      <circle id="Elipse_12030" data-name="Elipse 12030" cx="1.395" cy="1.395" r="1.395" transform="translate(35.517 15.998)" fill="#b6b1b7"/>
      <path id="Trazado_1091667" data-name="Trazado 1091667" d="M25.625,15.87V7.5h-1.4a.7.7,0,0,0-.7.7v11.16a.7.7,0,0,0,.7.7H32.6a.7.7,0,0,0,.7-.7V17.963h-5.58a2.092,2.092,0,0,1-2.092-2.092Z" transform="translate(-6.847 -6.847)" fill="#dad8db"/>
      <path id="Trazado_1091668" data-name="Trazado 1091668" d="M95.677,10.29a.7.7,0,0,0,.7.7h2.79L95.677,7.5Z" transform="translate(-72.715 -6.847)" fill="#dad8db"/>
      <path id="Trazado_1091669" data-name="Trazado 1091669" d="M112.7,436.54a3.492,3.492,0,0,1-3.488-3.488v-.7l-1.766,5.3a2.086,2.086,0,0,0,1.766.979h22.9A2.093,2.093,0,0,0,134.1,437.2l.22-.662Z" transform="translate(-83.459 -394.734)" fill="#e2a975"/>
      <path id="Trazado_1091670" data-name="Trazado 1091670" d="M206.165,7.5h-5.58a.7.7,0,0,0-.7.7v11.16a.7.7,0,0,0,.7.7h8.37a.7.7,0,0,0,.7-.7v-8.37Z" transform="translate(-167.857 -6.847)" fill="#eceaec"/>
      <path id="Trazado_1091671" data-name="Trazado 1091671" d="M201.979,15.87V7.5h-1.395a.7.7,0,0,0-.7.7v11.16a.7.7,0,0,0,.7.7h8.37a.7.7,0,0,0,.7-.7V17.963h-5.58A2.093,2.093,0,0,1,201.979,15.87Z" transform="translate(-167.857 -6.847)" fill="#dad8db"/>
      <path id="Trazado_1091672" data-name="Trazado 1091672" d="M272.032,10.29a.7.7,0,0,0,.7.7h2.79L272.032,7.5Z" transform="translate(-233.725 -6.847)" fill="#dad8db"/>
      <path id="Trazado_1091673" data-name="Trazado 1091673" d="M382.52,7.5h-5.58a.7.7,0,0,0-.7.7v11.16a.7.7,0,0,0,.7.7h8.37a.7.7,0,0,0,.7-.7v-8.37Z" transform="translate(-328.867 -6.847)" fill="#eceaec"/>
      <path id="Trazado_1091674" data-name="Trazado 1091674" d="M378.335,15.87V7.5h-1.4a.7.7,0,0,0-.7.7v11.16a.7.7,0,0,0,.7.7h8.37a.7.7,0,0,0,.7-.7V17.963h-5.58A2.093,2.093,0,0,1,378.335,15.87Z" transform="translate(-328.867 -6.847)" fill="#dad8db"/>
      <path id="Trazado_1091675" data-name="Trazado 1091675" d="M448.387,10.29a.7.7,0,0,0,.7.7h2.79L448.387,7.5Z" transform="translate(-394.734 -6.847)" fill="#dad8db"/>
      <path id="Trazado_1091676" data-name="Trazado 1091676" d="M318.164,456.919h-4.883a.653.653,0,0,0,0,1.305h4.883a.653.653,0,0,0,0-1.305Z" transform="translate(-270.789 -417.161)"/>
      <path id="Trazado_1091677" data-name="Trazado 1091677" d="M334.2,424.854h-4.883a.653.653,0,1,0,0,1.305H334.2a.653.653,0,1,0,0-1.305Z" transform="translate(-285.426 -387.886)"/>
      <path id="Trazado_1091678" data-name="Trazado 1091678" d="M48.75,73.45h3.488a.653.653,0,1,0,0-1.305H48.75a.653.653,0,1,0,0,1.305Z" transform="translate(-29.275 -65.867)"/>
      <path id="Trazado_1091679" data-name="Trazado 1091679" d="M52.89,104.862a.653.653,0,0,0-.653-.653H48.75a.653.653,0,1,0,0,1.305h3.488A.653.653,0,0,0,52.89,104.862Z" transform="translate(-29.275 -95.141)"/>
      <path id="Trazado_1091680" data-name="Trazado 1091680" d="M225.1,73.45h3.488a.653.653,0,0,0,0-1.305H225.1a.653.653,0,0,0,0,1.305Z" transform="translate(-190.285 -65.867)"/>
      <path id="Trazado_1091681" data-name="Trazado 1091681" d="M229.244,104.862a.653.653,0,0,0-.653-.653H225.1a.653.653,0,1,0,0,1.305h3.488A.653.653,0,0,0,229.244,104.862Z" transform="translate(-190.284 -95.141)"/>
      <path id="Trazado_1091682" data-name="Trazado 1091682" d="M57.6,3.679,54.114.191A.652.652,0,0,0,53.653,0h-5.58a1.352,1.352,0,0,0-1.35,1.35V12.51a1.352,1.352,0,0,0,1.35,1.35H51.6V16a.743.743,0,0,1-.742.742H38.853a2.057,2.057,0,0,0-1.288-1.288V13.86H41.1a1.352,1.352,0,0,0,1.35-1.35V4.14a.652.652,0,0,0-.191-.461L38.769.191A.652.652,0,0,0,38.307,0h-5.58a1.352,1.352,0,0,0-1.35,1.35V12.51a1.352,1.352,0,0,0,1.35,1.35H36.26v1.592a2.057,2.057,0,0,0-1.288,1.288H22.962A.743.743,0,0,1,22.22,16V13.86h3.532a1.352,1.352,0,0,0,1.35-1.35V4.14a.652.652,0,0,0-.191-.461L23.424.191A.652.652,0,0,0,22.962,0h-5.58a1.352,1.352,0,0,0-1.35,1.35V12.51a1.352,1.352,0,0,0,1.35,1.35h3.532V16a2.05,2.05,0,0,0,2.048,2.048h12.01a2.057,2.057,0,0,0,1.288,1.288v4.376a1.428,1.428,0,0,1-.894-.416L33.8,21.729a2.727,2.727,0,0,0-1.941-.8H25.752a2.748,2.748,0,0,0-2.745,2.745V41.805a2.748,2.748,0,0,0,2.745,2.745H48.657a2.742,2.742,0,0,0,2.6-1.877l4.8-14.391a1.35,1.35,0,0,0-1.281-1.777h-3.96V26.46a2.748,2.748,0,0,0-2.745-2.745H39.7a.653.653,0,1,0,0,1.305h8.37a1.441,1.441,0,0,1,1.44,1.44v.045H37.565V19.333a2.057,2.057,0,0,0,1.288-1.288h12.01A2.05,2.05,0,0,0,52.91,16V13.86h3.532a1.352,1.352,0,0,0,1.35-1.35V4.14a.653.653,0,0,0-.191-.462ZM38.96,2.228l1.259,1.259H39a.045.045,0,0,1-.045-.045ZM32.682,12.51V1.35a.045.045,0,0,1,.045-.045h4.927V3.443A1.352,1.352,0,0,0,39,4.793h2.137V12.51a.045.045,0,0,1-.045.045h-8.37A.045.045,0,0,1,32.682,12.51ZM23.615,2.228l1.259,1.259H23.66a.045.045,0,0,1-.045-.045ZM17.337,12.51V1.35a.045.045,0,0,1,.045-.045H22.31V3.443a1.352,1.352,0,0,0,1.35,1.35H25.8V12.51a.045.045,0,0,1-.045.045h-8.37A.045.045,0,0,1,17.337,12.51Zm19.575,4.14a.743.743,0,0,1,.742.741h0a.742.742,0,1,1-.742-.744Zm17.9,11.179a.041.041,0,0,1,.006.04l-4.8,14.391a1.438,1.438,0,0,1-1.366.985h-22.9a1.435,1.435,0,0,1-1.039-.445l4.668-14.005a1.438,1.438,0,0,1,1.366-.985H54.777a.041.041,0,0,1,.036.019ZM30.748,26.505a2.742,2.742,0,0,0-2.6,1.877L24.312,39.877V23.67a1.441,1.441,0,0,1,1.44-1.44h6.108a1.43,1.43,0,0,1,1.018.422l1.564,1.564a2.725,2.725,0,0,0,1.817.8v1.488ZM54.305,2.228l1.259,1.259H54.35a.045.045,0,0,1-.045-.045Zm2.137,10.327h-8.37a.045.045,0,0,1-.045-.045V1.35a.045.045,0,0,1,.045-.045H53V3.443a1.352,1.352,0,0,0,1.35,1.35h2.137V12.51a.045.045,0,0,1-.045.045Z"/>
      <path id="Trazado_1091683" data-name="Trazado 1091683" d="M404.946,72.145h-3.488a.653.653,0,0,0,0,1.305h3.488a.653.653,0,1,0,0-1.305Z" transform="translate(-351.294 -65.867)"/>
      <path id="Trazado_1091684" data-name="Trazado 1091684" d="M404.946,104.209h-3.488a.653.653,0,0,0,0,1.305h3.488a.653.653,0,1,0,0-1.305Z" transform="translate(-351.294 -95.141)"/>
    </g>
  </g>
</svg>
