<svg xmlns="http://www.w3.org/2000/svg" xmlns:xlink="http://www.w3.org/1999/xlink" width="93.934" height="93.934" viewBox="0 0 93.934 93.934">
  <defs>
    <filter id="Trazado_982547" x="0" y="0" width="93.934" height="93.934" filterUnits="userSpaceOnUse">
      <feOffset dy="3" input="SourceAlpha"/>
      <feGaussianBlur stdDeviation="3" result="blur"/>
      <feFlood flood-opacity="0.161"/>
      <feComposite operator="in" in2="blur"/>
      <feComposite in="SourceGraphic"/>
    </filter>
  </defs>
  <g id="Grupo_1219530" data-name="Grupo 1219530" transform="translate(-191.066 -5250.849)">
    <g id="Grupo_1219292" data-name="Grupo 1219292" transform="translate(-0.229 1528.849)">
      <g id="Grupo_1214594" data-name="Grupo 1214594" transform="translate(0 -1406)">
        <g id="Grupo_1214432" data-name="Grupo 1214432" transform="translate(-0.771 -2738.674)">
          <g id="Grupo_1183196" data-name="Grupo 1183196" transform="translate(1 1016.674)">
            <g id="Grupo_1179610" data-name="Grupo 1179610" transform="translate(8 4723.467)">
              <g id="Grupo_1175227" data-name="Grupo 1175227" transform="translate(-5.967 140.533)">
                <g id="Grupo_1167337" data-name="Grupo 1167337" transform="translate(198.033 1992)">
                  <g id="Grupo_1166720" data-name="Grupo 1166720">
                    <g id="Grupo_1164305" data-name="Grupo 1164305">
                      <g id="Grupo_1163948" data-name="Grupo 1163948">
                        <g id="Grupo_1158168" data-name="Grupo 1158168">
                          <g id="Grupo_1152576" data-name="Grupo 1152576">
                            <g id="Grupo_1148633" data-name="Grupo 1148633">
                              <g id="Grupo_1148525" data-name="Grupo 1148525">
                                <g transform="matrix(1, 0, 0, 1, -9, -6)" filter="url(#Trazado_982547)">
                                  <g id="Trazado_982547-2" data-name="Trazado 982547" transform="translate(9 6)" fill="#f7f4ed">
                                    <path d="M 37.966796875 74.43359375 C 33.04315185546875 74.43359375 28.26757431030273 73.46962738037109 23.77274131774902 71.56847381591797 C 19.43047523498535 69.73184967041016 15.53040790557861 67.10224914550781 12.18087482452393 63.75271987915039 C 8.831341743469238 60.4031867980957 6.201741218566895 56.50312042236328 4.365118980407715 52.16086196899414 C 2.463963508605957 47.66601943969727 1.499996900558472 42.89044189453125 1.499996900558472 37.966796875 C 1.499996900558472 33.04315185546875 2.463963508605957 28.26757431030273 4.365118980407715 23.77274131774902 C 6.201741218566895 19.43047523498535 8.831341743469238 15.53040790557861 12.18087482452393 12.18087482452393 C 15.53040790557861 8.831341743469238 19.43047523498535 6.201741218566895 23.77274131774902 4.365118980407715 C 28.26757431030273 2.463963508605957 33.04315185546875 1.499996900558472 37.966796875 1.499996900558472 C 42.89044189453125 1.499996900558472 47.66601943969727 2.463963508605957 52.16086196899414 4.365118980407715 C 56.50312042236328 6.201741218566895 60.4031867980957 8.831341743469238 63.75271987915039 12.18087482452393 C 67.10224914550781 15.53040790557861 69.73184967041016 19.43047523498535 71.56847381591797 23.77274131774902 C 73.46962738037109 28.26757431030273 74.43359375 33.04315185546875 74.43359375 37.966796875 C 74.43359375 42.89044189453125 73.46962738037109 47.66601943969727 71.56847381591797 52.16086196899414 C 69.73184967041016 56.50313186645508 67.10224914550781 60.4031867980957 63.75271987915039 63.75271987915039 C 60.4031867980957 67.10224914550781 56.50313186645508 69.73184967041016 52.16086196899414 71.56847381591797 C 47.66601943969727 73.46962738037109 42.89044189453125 74.43359375 37.966796875 74.43359375 Z" stroke="none"/>
                                    <path d="M 37.966796875 3 C 33.2449836730957 3 28.66600799560547 3.924095153808594 24.35705947875977 5.746635437011719 C 20.19359588623047 7.507637023925781 16.45379638671875 10.02928161621094 13.24153518676758 13.24153518676758 C 10.02927398681641 16.45379638671875 7.507621765136719 20.19359588623047 5.746635437011719 24.35705947875977 C 3.924095153808594 28.66600799560547 3 33.2449836730957 3 37.966796875 C 3 42.6886100769043 3.924095153808594 47.26758575439453 5.746635437011719 51.57653427124023 C 7.507621765136719 55.73999786376953 10.02927398681641 59.47979736328125 13.24153518676758 62.69205856323242 C 16.45379638671875 65.90431976318359 20.19359588623047 68.42597198486328 24.35705947875977 70.18695831298828 C 28.66600799560547 72.00949859619141 33.2449836730957 72.93359375 37.966796875 72.93359375 C 42.6886100769043 72.93359375 47.26758575439453 72.00949859619141 51.57653427124023 70.18695831298828 C 55.73999786376953 68.42597198486328 59.47979736328125 65.90431976318359 62.69205856323242 62.69205856323242 C 65.90431976318359 59.47979736328125 68.42597198486328 55.73999786376953 70.18695831298828 51.57653427124023 C 72.00949859619141 47.26758575439453 72.93359375 42.6886100769043 72.93359375 37.966796875 C 72.93359375 33.2449836730957 72.00949859619141 28.66600799560547 70.18695831298828 24.35705947875977 C 68.42597198486328 20.19359588623047 65.90431976318359 16.45379638671875 62.69205856323242 13.24153518676758 C 59.47979736328125 10.02928161621094 55.73999786376953 7.507637023925781 51.57653427124023 5.746635437011719 C 47.26758575439453 3.924095153808594 42.6886100769043 3 37.966796875 3 M 37.966796875 0 C 58.93528366088867 0 75.93359375 16.99832153320312 75.93359375 37.966796875 C 75.93359375 58.93528366088867 58.93528366088867 75.93359375 37.966796875 75.93359375 C 16.99831008911133 75.93359375 0 58.93528366088867 0 37.966796875 C 0 16.99832153320312 16.99831008911133 0 37.966796875 0 Z" stroke="none" fill="#847625"/>
                                  </g>
                                </g>
                              </g>
                            </g>
                          </g>
                        </g>
                      </g>
                    </g>
                  </g>
                </g>
              </g>
            </g>
          </g>
        </g>
      </g>
    </g>
    <g id="gerente-de-tiempo_1_" data-name="gerente-de-tiempo (1)" transform="translate(241.214 5297.949)">
      <g id="Grupo_1219528" data-name="Grupo 1219528" transform="translate(-29.897 -29.848)">
        <g id="Grupo_1219527" data-name="Grupo 1219527" transform="translate(0 0)">
          <circle id="Elipse_12037" data-name="Elipse 12037" cx="21.947" cy="21.947" r="21.947" transform="translate(3.737 3.732)" fill="#ffe27a"/>
          <path id="Trazado_1091723" data-name="Trazado 1091723" d="M29.948,242.636A21.946,21.946,0,0,1,8.02,221.577c-.012.295-.019.59-.019.887a21.947,21.947,0,0,0,43.894,0c0-.3-.008-.593-.019-.887a21.946,21.946,0,0,1-21.928,21.059Z" transform="translate(-4.264 -196.786)" fill="#f9cf58"/>
          <circle id="Elipse_12038" data-name="Elipse 12038" cx="18.16" cy="18.16" r="18.16" transform="translate(0 25.679) rotate(-45)" fill="#f9f6f6"/>
          <path id="Trazado_1091724" data-name="Trazado 1091724" d="M64.562,238.85a18.161,18.161,0,0,1-18.138-17.273q-.021.441-.022.887a18.16,18.16,0,0,0,36.321,0q0-.446-.022-.887A18.161,18.161,0,0,1,64.562,238.85Z" transform="translate(-38.879 -196.786)" fill="#ecdaec"/>
          <path id="Trazado_1091725" data-name="Trazado 1091725" d="M111.5,66.244,100.345,77.4a18.16,18.16,0,1,0,12.841-31v15.78" transform="translate(-87.503 -38.883)" fill="#ff4755"/>
          <circle id="Elipse_12039" data-name="Elipse 12039" cx="2.38" cy="2.38" r="2.38" transform="translate(23.303 23.298)" fill="#ffe27a"/>
          <path id="Trazado_1091726" data-name="Trazado 1091726" d="M208.816,223.07a2.381,2.381,0,0,1-2.209-1.493,2.38,2.38,0,1,0,4.417,0A2.38,2.38,0,0,1,208.816,223.07Z" transform="translate(-183.133 -196.786)" fill="#f9cf58"/>
          <path id="Trazado_1091727" data-name="Trazado 1091727" d="M113.186,238.85a18.09,18.09,0,0,1-11.923-4.462l-.918.918a18.16,18.16,0,0,0,31-12.841q0-.446-.022-.887A18.161,18.161,0,0,1,113.186,238.85Z" transform="translate(-87.503 -196.786)" fill="#fc2b3a"/>
        </g>
        <path id="Trazado_1091728" data-name="Trazado 1091728" d="M256.842,242.418l-2.279-.343a10.631,10.631,0,0,0-1.676-4.044l1.37-1.854a.815.815,0,0,0-.079-1.061L253,233.937a.815.815,0,0,0-1.061-.079l-1.854,1.37a10.632,10.632,0,0,0-4.044-1.676l-.343-2.279a.815.815,0,0,0-.806-.694h-1.668a.815.815,0,0,0-.806.694l-.343,2.279a10.631,10.631,0,0,0-4.044,1.676l-1.854-1.37a.815.815,0,0,0-1.061.079l-1.18,1.179a.815.815,0,0,0-.079,1.061l1.37,1.854a10.631,10.631,0,0,0-1.676,4.044l-2.279.343a.815.815,0,0,0-.694.806v1.668a.815.815,0,0,0,.694.806l2.279.343a10.631,10.631,0,0,0,1.676,4.044l-1.37,1.854a.815.815,0,0,0,.079,1.061l1.18,1.18a.815.815,0,0,0,1.061.079l1.854-1.37a10.632,10.632,0,0,0,4.044,1.676l.343,2.279a.815.815,0,0,0,.806.694h1.668a.815.815,0,0,0,.806-.694l.343-2.279a10.632,10.632,0,0,0,4.044-1.676l1.854,1.37A.815.815,0,0,0,253,254.18l1.18-1.18a.815.815,0,0,0,.079-1.061l-1.37-1.854a10.631,10.631,0,0,0,1.676-4.044l2.279-.343a.815.815,0,0,0,.694-.806v-1.668A.816.816,0,0,0,256.842,242.418Zm-12.786,8.47a6.83,6.83,0,1,1,6.83-6.83A6.83,6.83,0,0,1,244.056,250.888Z" transform="translate(-204.893 -204.899)" fill="#4a80aa"/>
        <circle id="Elipse_12040" data-name="Elipse 12040" cx="6.83" cy="6.83" r="6.83" transform="translate(32.334 32.329)" fill="#ffe27a"/>
        <path id="Trazado_1091729" data-name="Trazado 1091729" d="M304.856,384.005a6.83,6.83,0,0,0,6.83-6.83,6.9,6.9,0,0,0-.059-.887,6.828,6.828,0,0,1-13.54,0,6.82,6.82,0,0,0,6.77,7.717Z" transform="translate(-265.693 -336.242)" fill="#407093"/>
        <path id="Trazado_1091730" data-name="Trazado 1091730" d="M304.855,364.23a6.829,6.829,0,0,1-6.77-5.942,6.83,6.83,0,1,0,13.541,0A6.829,6.829,0,0,1,304.855,364.23Z" transform="translate(-265.692 -320.017)" fill="#f9cf58"/>
      </g>
      <g id="Grupo_1219529" data-name="Grupo 1219529" transform="translate(-26.949 -26.905)">
        <path id="Trazado_1091731" data-name="Trazado 1091731" d="M298.177,290.593a7.584,7.584,0,1,0,2.78,14.642.741.741,0,0,0-.543-1.379,6.109,6.109,0,1,1,2.193-1.482.741.741,0,1,0,1.076,1.02,7.584,7.584,0,0,0-5.5-12.8Z" transform="translate(-261.94 -261.94)"/>
        <path id="Trazado_1091732" data-name="Trazado 1091732" d="M49.159,33.861l-1.775-.267a11.306,11.306,0,0,0-1.4-3.369l1.067-1.444a1.549,1.549,0,0,0-.151-2.027l-1.182-1.182a1.574,1.574,0,0,0-.4-.291,22.952,22.952,0,0,0,.144-2.55A22.731,22.731,0,0,0,8.082,5.349a.741.741,0,0,0,.956,1.133A21.249,21.249,0,0,1,43.98,22.731a21.487,21.487,0,0,1-.16,2.606c-.043.026-.085.053-.126.084l-1.444,1.067q-.423-.262-.865-.484a19.1,19.1,0,0,0,.283-3.273A18.851,18.851,0,0,0,38.5,12.246a.741.741,0,1,0-1.233.821,17.374,17.374,0,0,1,2.917,9.663,17.636,17.636,0,0,1-.205,2.681,11.358,11.358,0,0,0-1.1-.321l-.267-1.775a1.548,1.548,0,0,0-1.541-1.326H35.4a1.549,1.549,0,0,0-1.541,1.326l-.267,1.775a11.3,11.3,0,0,0-3.369,1.4L28.781,25.42a1.549,1.549,0,0,0-2.027.152l-1.182,1.182a1.549,1.549,0,0,0-.151,2.027l1.067,1.444a11.3,11.3,0,0,0-1.4,3.369l-1.775.267A1.549,1.549,0,0,0,21.99,35.4v1.671a1.549,1.549,0,0,0,1.326,1.541l1.775.267a11.357,11.357,0,0,0,.321,1.1,17.636,17.636,0,0,1-2.681.205,17.388,17.388,0,0,1-11.8-4.606L21.108,25.4a3.125,3.125,0,1,0,2.364-5.707V5.293a17.392,17.392,0,0,1,12.034,5.544.741.741,0,0,0,1.084-1.01A18.937,18.937,0,1,0,22.731,41.668,19.1,19.1,0,0,0,26,41.384q.223.441.484.865L25.42,43.694c-.03.041-.058.083-.084.126a21.49,21.49,0,0,1-2.606.16A21.249,21.249,0,0,1,6.974,8.474a.741.741,0,0,0-1.1-.995A22.731,22.731,0,0,0,22.731,45.461a22.953,22.953,0,0,0,2.55-.144,1.573,1.573,0,0,0,.291.4L26.754,46.9a1.549,1.549,0,0,0,2.027.151l1.444-1.067a11.3,11.3,0,0,0,3.369,1.4l.267,1.775A1.549,1.549,0,0,0,35.4,50.485h1.671a1.549,1.549,0,0,0,1.541-1.326l.267-1.775a11.3,11.3,0,0,0,3.369-1.4l1.444,1.067a1.549,1.549,0,0,0,2.027-.151L46.9,45.721a1.549,1.549,0,0,0,.151-2.027l-1.067-1.444a11.3,11.3,0,0,0,1.4-3.369l1.775-.267a1.549,1.549,0,0,0,1.326-1.541V35.4a1.548,1.548,0,0,0-1.326-1.541ZM24.375,22.731a1.644,1.644,0,1,1-1.644-1.644A1.646,1.646,0,0,1,24.375,22.731Zm-19.082.741H7.977a.741.741,0,1,0,0-1.482H5.293A17.388,17.388,0,0,1,9.882,10.93l1.892,1.892a.741.741,0,0,0,1.048-1.048L10.93,9.882A17.388,17.388,0,0,1,21.99,5.293v14.4a3.124,3.124,0,0,0-1.93,4.659L9.882,34.532a17.388,17.388,0,0,1-4.589-11.06ZM49,37.073a.075.075,0,0,1-.065.075l-2.283.343a.741.741,0,0,0-.618.6,9.86,9.86,0,0,1-1.562,3.77.741.741,0,0,0,.016.858l1.372,1.858a.075.075,0,0,1-.007.1l-1.182,1.182a.075.075,0,0,1-.1.007L42.717,44.49a.741.741,0,0,0-.858-.016,9.858,9.858,0,0,1-3.77,1.562.741.741,0,0,0-.6.618l-.343,2.283a.075.075,0,0,1-.075.065H35.4a.075.075,0,0,1-.075-.065l-.343-2.283a.741.741,0,0,0-.6-.618,9.861,9.861,0,0,1-3.77-1.562.741.741,0,0,0-.858.016L27.9,45.862a.077.077,0,0,1-.1-.007L26.62,44.673a.076.076,0,0,1-.007-.1l1.372-1.858A.741.741,0,0,0,28,41.858a9.86,9.86,0,0,1-1.563-3.77.741.741,0,0,0-.618-.6l-2.283-.343a.076.076,0,0,1-.065-.075V35.4a.075.075,0,0,1,.065-.075l2.283-.343a.741.741,0,0,0,.618-.6A9.86,9.86,0,0,1,28,30.617a.741.741,0,0,0-.016-.858L26.613,27.9a.076.076,0,0,1,.007-.1L27.8,26.62a.076.076,0,0,1,.1-.007l1.858,1.372a.741.741,0,0,0,.858.016,9.86,9.86,0,0,1,3.77-1.563.741.741,0,0,0,.6-.618l.343-2.283a.076.076,0,0,1,.075-.065h1.671a.075.075,0,0,1,.075.065l.343,2.283a.741.741,0,0,0,.6.618A9.86,9.86,0,0,1,41.858,28a.741.741,0,0,0,.858-.016l1.858-1.372a.076.076,0,0,1,.1.007L45.855,27.8a.076.076,0,0,1,.007.1L44.49,29.758a.741.741,0,0,0-.016.858,9.86,9.86,0,0,1,1.562,3.77.741.741,0,0,0,.618.6l2.283.343A.076.076,0,0,1,49,35.4v1.671Z" transform="translate(0)"/>
        <path id="Trazado_1091733" data-name="Trazado 1091733" d="M339.782,343.135l-2.768,2.838-1.2-1.168a.741.741,0,1,0-1.033,1.062l1.732,1.684a.741.741,0,0,0,1.047-.014l3.285-3.368a.741.741,0,0,0-1.061-1.035Z" transform="translate(-301.567 -309.099)"/>
      </g>
    </g>
  </g>
</svg>
