<svg xmlns="http://www.w3.org/2000/svg" xmlns:xlink="http://www.w3.org/1999/xlink" width="93.934" height="93.934" viewBox="0 0 93.934 93.934">
  <defs>
    <filter id="Trazado_982547" x="0" y="0" width="93.934" height="93.934" filterUnits="userSpaceOnUse">
      <feOffset dy="3" input="SourceAlpha"/>
      <feGaussianBlur stdDeviation="3" result="blur"/>
      <feFlood flood-opacity="0.161"/>
      <feComposite operator="in" in2="blur"/>
      <feComposite in="SourceGraphic"/>
    </filter>
  </defs>
  <g id="Grupo_1219605" data-name="Grupo 1219605" transform="translate(-611.066 -5251)">
    <g id="Grupo_1214594" data-name="Grupo 1214594" transform="translate(419.771 123)">
      <g id="Grupo_1214432" data-name="Grupo 1214432" transform="translate(-0.771 -2738.674)">
        <g id="Grupo_1183196" data-name="Grupo 1183196" transform="translate(1 1016.674)">
          <g id="Grupo_1179610" data-name="Grupo 1179610" transform="translate(8 4723.467)">
            <g id="Grupo_1175227" data-name="Grupo 1175227" transform="translate(-5.967 140.533)">
              <g id="Grupo_1167337" data-name="Grupo 1167337" transform="translate(198.033 1992)">
                <g id="Grupo_1166720" data-name="Grupo 1166720">
                  <g id="Grupo_1164305" data-name="Grupo 1164305">
                    <g id="Grupo_1163948" data-name="Grupo 1163948">
                      <g id="Grupo_1158168" data-name="Grupo 1158168">
                        <g id="Grupo_1152576" data-name="Grupo 1152576">
                          <g id="Grupo_1148633" data-name="Grupo 1148633">
                            <g id="Grupo_1148525" data-name="Grupo 1148525">
                              <g transform="matrix(1, 0, 0, 1, -9, -6)" filter="url(#Trazado_982547)">
                                <g id="Trazado_982547-2" data-name="Trazado 982547" transform="translate(9 6)" fill="#f7f4ed">
                                  <path d="M 37.966796875 74.43359375 C 33.04315185546875 74.43359375 28.26757431030273 73.46962738037109 23.77274131774902 71.56847381591797 C 19.43047523498535 69.73184967041016 15.53040790557861 67.10224914550781 12.18087482452393 63.75271987915039 C 8.831341743469238 60.4031867980957 6.201741218566895 56.50312042236328 4.365118980407715 52.16086196899414 C 2.463963508605957 47.66601943969727 1.499996900558472 42.89044189453125 1.499996900558472 37.966796875 C 1.499996900558472 33.04315185546875 2.463963508605957 28.26757431030273 4.365118980407715 23.77274131774902 C 6.201741218566895 19.43047523498535 8.831341743469238 15.53040790557861 12.18087482452393 12.18087482452393 C 15.53040790557861 8.831341743469238 19.43047523498535 6.201741218566895 23.77274131774902 4.365118980407715 C 28.26757431030273 2.463963508605957 33.04315185546875 1.499996900558472 37.966796875 1.499996900558472 C 42.89044189453125 1.499996900558472 47.66601943969727 2.463963508605957 52.16086196899414 4.365118980407715 C 56.50312042236328 6.201741218566895 60.4031867980957 8.831341743469238 63.75271987915039 12.18087482452393 C 67.10224914550781 15.53040790557861 69.73184967041016 19.43047523498535 71.56847381591797 23.77274131774902 C 73.46962738037109 28.26757431030273 74.43359375 33.04315185546875 74.43359375 37.966796875 C 74.43359375 42.89044189453125 73.46962738037109 47.66601943969727 71.56847381591797 52.16086196899414 C 69.73184967041016 56.50313186645508 67.10224914550781 60.4031867980957 63.75271987915039 63.75271987915039 C 60.4031867980957 67.10224914550781 56.50313186645508 69.73184967041016 52.16086196899414 71.56847381591797 C 47.66601943969727 73.46962738037109 42.89044189453125 74.43359375 37.966796875 74.43359375 Z" stroke="none"/>
                                  <path d="M 37.966796875 3 C 33.2449836730957 3 28.66600799560547 3.924095153808594 24.35705947875977 5.746635437011719 C 20.19359588623047 7.507637023925781 16.45379638671875 10.02928161621094 13.24153518676758 13.24153518676758 C 10.02927398681641 16.45379638671875 7.507621765136719 20.19359588623047 5.746635437011719 24.35705947875977 C 3.924095153808594 28.66600799560547 3 33.2449836730957 3 37.966796875 C 3 42.6886100769043 3.924095153808594 47.26758575439453 5.746635437011719 51.57653427124023 C 7.507621765136719 55.73999786376953 10.02927398681641 59.47979736328125 13.24153518676758 62.69205856323242 C 16.45379638671875 65.90431976318359 20.19359588623047 68.42597198486328 24.35705947875977 70.18695831298828 C 28.66600799560547 72.00949859619141 33.2449836730957 72.93359375 37.966796875 72.93359375 C 42.6886100769043 72.93359375 47.26758575439453 72.00949859619141 51.57653427124023 70.18695831298828 C 55.73999786376953 68.42597198486328 59.47979736328125 65.90431976318359 62.69205856323242 62.69205856323242 C 65.90431976318359 59.47979736328125 68.42597198486328 55.73999786376953 70.18695831298828 51.57653427124023 C 72.00949859619141 47.26758575439453 72.93359375 42.6886100769043 72.93359375 37.966796875 C 72.93359375 33.2449836730957 72.00949859619141 28.66600799560547 70.18695831298828 24.35705947875977 C 68.42597198486328 20.19359588623047 65.90431976318359 16.45379638671875 62.69205856323242 13.24153518676758 C 59.47979736328125 10.02928161621094 55.73999786376953 7.507637023925781 51.57653427124023 5.746635437011719 C 47.26758575439453 3.924095153808594 42.6886100769043 3 37.966796875 3 M 37.966796875 0 C 58.93528366088867 0 75.93359375 16.99832153320312 75.93359375 37.966796875 C 75.93359375 58.93528366088867 58.93528366088867 75.93359375 37.966796875 75.93359375 C 16.99831008911133 75.93359375 0 58.93528366088867 0 37.966796875 C 0 16.99832153320312 16.99831008911133 0 37.966796875 0 Z" stroke="none" fill="#847625"/>
                                </g>
                              </g>
                            </g>
                          </g>
                        </g>
                      </g>
                    </g>
                  </g>
                </g>
              </g>
            </g>
          </g>
        </g>
      </g>
    </g>
    <path id="Trazado_1091751" data-name="Trazado 1091751" d="M74.683,40.822a.8.8,0,0,0-1.117-.2l-.161.109a11.591,11.591,0,0,0-5.055-11.1.8.8,0,0,0-.89,1.335,9.994,9.994,0,0,1,4.407,9.057.8.8,0,0,0-1.335.862l.947,1.994a.8.8,0,0,0,.516.431.807.807,0,0,0,.208.027.793.793,0,0,0,.454-.142l1.817-1.254a.8.8,0,0,0,.208-1.116ZM63.48,26.5a.8.8,0,0,0-.2,1.115l.108.157a11.6,11.6,0,0,0-11.1,5.057.8.8,0,1,0,1.335.89,10,10,0,0,1,9.058-4.408.8.8,0,0,0,.86,1.337l1.994-.947a.8.8,0,0,0,.316-1.18l-1.255-1.818A.8.8,0,0,0,63.48,26.5Zm-7.1,21.06A10,10,0,0,1,51.971,38.5a.8.8,0,0,0,.613.287.791.791,0,0,0,.343-.078.8.8,0,0,0,.381-1.069l-.947-1.994a.8.8,0,0,0-1.181-.316l-1.817,1.254a.8.8,0,1,0,.911,1.32l.158-.108a11.6,11.6,0,0,0,5.057,11.1.8.8,0,0,0,.89-1.334Zm14.953-2.98a.8.8,0,0,0-1.114.222,10,10,0,0,1-9.058,4.409.8.8,0,0,0-.86-1.337l-1.994.947A.8.8,0,0,0,57.991,50l1.254,1.818a.8.8,0,0,0,1.321-.911l-.108-.158a11.6,11.6,0,0,0,11.1-5.057.8.8,0,0,0-.222-1.112ZM59.086,39.26a2.835,2.835,0,1,0,2.834-2.833A2.838,2.838,0,0,0,59.086,39.26Zm-1.6,0a4.438,4.438,0,1,1,4.437,4.44A4.441,4.441,0,0,1,57.482,39.26Zm.418,4.616-.3.3-.6-.6.3-.3a.8.8,0,0,0,.1-1.013,5.4,5.4,0,0,1-.806-1.939.8.8,0,0,0-.786-.645h-.427V38.84h.427a.8.8,0,0,0,.786-.645,5.349,5.349,0,0,1,.8-1.938.8.8,0,0,0-.1-1.014l-.3-.3.6-.6.3.3a.8.8,0,0,0,1.015.1,5.353,5.353,0,0,1,1.938-.8.8.8,0,0,0,.644-.787V32.73h.845v.426a.8.8,0,0,0,.645.787,5.4,5.4,0,0,1,1.94.805.8.8,0,0,0,1.012-.1l.3-.3.595.6-.3.3a.8.8,0,0,0-.1,1.014,5.347,5.347,0,0,1,.8,1.938.8.8,0,0,0,.787.645h.423v.844h-.423a.8.8,0,0,0-.787.645,5.365,5.365,0,0,1-.805,1.939.8.8,0,0,0,.1,1.013l.3.3-.595.6-.3-.3a.8.8,0,0,0-1.012-.1,5.4,5.4,0,0,1-1.94.805.8.8,0,0,0-.645.787v.424H61.5v-.424a.8.8,0,0,0-.644-.787,5.355,5.355,0,0,1-1.938-.8A.8.8,0,0,0,57.9,43.876Zm.269,2a.8.8,0,0,1-1.135,0L55.3,44.148a.8.8,0,0,1,0-1.135l.426-.425a6.945,6.945,0,0,1-.54-1.3h-.6a.8.8,0,0,1-.8-.8V38.038a.8.8,0,0,1,.8-.8h.6a6.951,6.951,0,0,1,.539-1.3l-.425-.425a.8.8,0,0,1,0-1.135l1.733-1.732a.8.8,0,0,1,1.135,0l.425.425a6.957,6.957,0,0,1,1.3-.539v-.6a.8.8,0,0,1,.8-.8h2.448a.8.8,0,0,1,.8.8v.6a6.956,6.956,0,0,1,1.3.54l.424-.426a.8.8,0,0,1,.568-.236h0a.8.8,0,0,1,.567.235l1.732,1.732a.8.8,0,0,1,0,1.135l-.425.425a6.89,6.89,0,0,1,.538,1.3h.6a.8.8,0,0,1,.8.8v2.448a.8.8,0,0,1-.8.8h-.6a6.886,6.886,0,0,1-.54,1.3l.426.425a.8.8,0,0,1,0,1.135L66.806,45.88a.8.8,0,0,1-.567.235h0a.806.806,0,0,1-.568-.236l-.424-.426a6.951,6.951,0,0,1-1.3.54v.6a.8.8,0,0,1-.8.8H60.7a.8.8,0,0,1-.8-.8v-.6a6.96,6.96,0,0,1-1.3-.539ZM41.117,39.8h6.013a.8.8,0,0,0,0-1.6H41.117a.8.8,0,0,0,0,1.6Zm0,3.234h6.425a.8.8,0,0,0,0-1.6H41.117a.8.8,0,0,0,0,1.6ZM35.787,44.5a.8.8,0,0,0,.8-.8v-.25a1.884,1.884,0,0,0-.682-3.641h-.242a.279.279,0,0,1,0-.557h.341a.282.282,0,0,1,.228.119.8.8,0,0,0,1.3-.943,1.9,1.9,0,0,0-.942-.687v-.216a.8.8,0,1,0-1.6,0v.249a1.883,1.883,0,0,0,.679,3.639h.242a.28.28,0,1,1,0,.56h-.338a.3.3,0,0,1-.234-.123.8.8,0,1,0-1.291.951,1.917,1.917,0,0,0,.942.682V43.7A.8.8,0,0,0,35.787,44.5ZM52.681,30.327a.8.8,0,0,1-.8.8H41.117a.8.8,0,0,1,0-1.6H51.879A.8.8,0,0,1,52.681,30.327Zm-2.972,3.231a.8.8,0,0,0-.8-.8h-7.79a.8.8,0,0,0,0,1.6h7.79A.8.8,0,0,0,49.709,33.558Zm-13.8-2.418h-.242a.279.279,0,0,1,0-.557h.341a.276.276,0,0,1,.225.115.8.8,0,1,0,1.3-.936,1.882,1.882,0,0,0-.944-.69v-.215a.8.8,0,1,0-1.6,0v.249a1.883,1.883,0,0,0,.679,3.639h.242a.279.279,0,1,1,0,.557h-.338a.281.281,0,0,1-.231-.12.8.8,0,0,0-1.3.945,1.9,1.9,0,0,0,.944.685v.216a.8.8,0,1,0,1.6,0v-.25a1.883,1.883,0,0,0-.682-3.638Zm5-14.827H33.247a3.911,3.911,0,0,0,7.656,0Zm-6.081-1.6h4.51l-2.007-3.589a2.085,2.085,0,0,1-.25.017,2.193,2.193,0,0,1-.25-.016Zm23.639,0-2.006-3.588a1.952,1.952,0,0,1-.5,0l-2,3.588Zm1.575,1.6H52.377a3.913,3.913,0,0,0,7.659,0ZM56.205,8.526a.5.5,0,1,0,.505.5A.5.5,0,0,0,56.205,8.526ZM46.64,7.221a.5.5,0,1,0,.5.5.5.5,0,0,0-.5-.5ZM37.075,8.526a.5.5,0,1,0,.5.5A.5.5,0,0,0,37.075,8.526Zm12.7,14.434H43.5a.85.85,0,0,0-.839.839v.165H50.62V23.8A.842.842,0,0,0,49.778,22.961Zm-12.7-1.934a5.521,5.521,0,0,1-5.515-5.515.8.8,0,0,1,.8-.8h.621l2.442-4.371a2.1,2.1,0,0,1,1.567-3.412c.027,0,7.7,0,7.7,0a2.121,2.121,0,0,1,1.147-1.146V4.334a.8.8,0,0,1,1.6,0V5.776a2.122,2.122,0,0,1,1.147,1.146s7.672,0,7.7,0a2.1,2.1,0,0,1,1.568,3.412l2.443,4.37h.622a.8.8,0,0,1,.8.8,5.516,5.516,0,0,1-11.033,0,.8.8,0,0,1,.8-.8h.621l2.442-4.371a2.071,2.071,0,0,1-.394-1.812H48.588a2.121,2.121,0,0,1-1.147,1.146V21.356h2.336A2.447,2.447,0,0,1,52.223,23.8v.967a.8.8,0,0,1-.8.8H41.862a.8.8,0,0,1-.8-.8V23.8A2.446,2.446,0,0,1,43.5,21.356h2.335V9.672a2.121,2.121,0,0,1-1.147-1.146H39.12a2.132,2.132,0,0,1,.063.5,2.1,2.1,0,0,1-.459,1.308l2.444,4.372h.619a.8.8,0,0,1,.8.8,5.521,5.521,0,0,1-5.515,5.515Zm15.16,26.229a.8.8,0,0,1-.8.8H31.765a2.428,2.428,0,0,1-2.426-2.423V3.418A2.429,2.429,0,0,1,31.765.992H61.518a2.427,2.427,0,0,1,2.423,2.426V24.786a.8.8,0,0,1-1.6,0V3.418a.821.821,0,0,0-.819-.822H31.765a.823.823,0,0,0-.822.822V45.634a.822.822,0,0,0,.822.819H51.432a.8.8,0,0,1,.8.8Z" transform="translate(606.8 5268.008)" fill-rule="evenodd"/>
  </g>
</svg>
