<svg xmlns="http://www.w3.org/2000/svg" xmlns:xlink="http://www.w3.org/1999/xlink" width="110" height="110" viewBox="0 0 110 110">
  <defs>
    <filter id="Trazado_982547" x="0" y="0" width="110" height="110" filterUnits="userSpaceOnUse">
      <feOffset dy="3" input="SourceAlpha"/>
      <feGaussianBlur stdDeviation="3" result="blur"/>
      <feFlood flood-opacity="0.161"/>
      <feComposite operator="in" in2="blur"/>
      <feComposite in="SourceGraphic"/>
    </filter>
  </defs>
  <g id="Grupo_1219328" data-name="Grupo 1219328" transform="translate(-799 -4547.049)">
    <g id="Grupo_1219270" data-name="Grupo 1219270" transform="translate(808 4553.049)">
      <g id="Grupo_1210976" data-name="Grupo 1210976" transform="translate(0 0)">
        <g id="Grupo_1200150" data-name="Grupo 1200150" transform="translate(0 0)">
          <g id="Grupo_1185951" data-name="Grupo 1185951" transform="translate(0 0)">
            <g id="Grupo_1184083" data-name="Grupo 1184083" transform="translate(0 0)">
              <g id="Grupo_1183743" data-name="Grupo 1183743">
                <g id="Grupo_1181545" data-name="Grupo 1181545">
                  <g id="Grupo_1177562" data-name="Grupo 1177562">
                    <g id="Grupo_1173147" data-name="Grupo 1173147">
                      <g id="Grupo_1163801" data-name="Grupo 1163801" transform="translate(0 0)">
                        <g id="Grupo_1163014" data-name="Grupo 1163014" transform="translate(0 0)">
                          <g id="Grupo_1157015" data-name="Grupo 1157015">
                            <g id="Grupo_1155792" data-name="Grupo 1155792">
                              <g id="Grupo_1154703" data-name="Grupo 1154703">
                                <g id="Grupo_1150789" data-name="Grupo 1150789">
                                  <g id="Grupo_1154212" data-name="Grupo 1154212">
                                    <g id="Grupo_1152583" data-name="Grupo 1152583">
                                      <g id="Grupo_1146973" data-name="Grupo 1146973">
                                        <g id="Grupo_1146954" data-name="Grupo 1146954">
                                          <g transform="matrix(1, 0, 0, 1, -9, -6)" filter="url(#Trazado_982547)">
                                            <g id="Trazado_982547-2" data-name="Trazado 982547" transform="translate(9 6)" fill="#f2d944">
                                              <path d="M 46.00000762939453 90.49987030029297 C 39.99188613891602 90.49987030029297 34.16427612304688 89.32350921630859 28.67906188964844 87.00345611572266 C 23.38020706176758 84.76224517822266 18.62104797363281 81.55341339111328 14.53375434875488 77.46613311767578 C 10.44647407531738 73.37885284423828 7.237647533416748 68.61969757080078 4.996420860290527 63.32085418701172 C 2.676367521286011 57.83565521240234 1.500007629394531 52.008056640625 1.500007629394531 45.99993515014648 C 1.500007629394531 39.99181365966797 2.676367521286011 34.16421508789062 4.996420860290527 28.67901420593262 C 7.237647533416748 23.38017463684082 10.44647407531738 18.62101554870605 14.53375434875488 14.53373527526855 C 18.62104797363281 10.44645500183105 23.38020706176758 7.23762845993042 28.67906188964844 4.996415138244629 C 34.16427612304688 2.676361799240112 39.99188613891602 1.500001788139343 46.00000762939453 1.500001788139343 C 52.00812911987305 1.500001788139343 57.83573913574219 2.676361799240112 63.32095336914062 4.996415138244629 C 68.61980438232422 7.23762845993042 73.37896728515625 10.44645500183105 77.46626281738281 14.53373527526855 C 81.55354309082031 18.62101554870605 84.76236724853516 23.38017463684082 87.00359344482422 28.67901420593262 C 89.32364654541016 34.16421508789062 90.50000762939453 39.99181365966797 90.50000762939453 45.99993515014648 C 90.50000762939453 52.008056640625 89.32364654541016 57.83565521240234 87.00359344482422 63.32085418701172 C 84.76236724853516 68.61969757080078 81.55354309082031 73.37885284423828 77.46626281738281 77.46613311767578 C 73.37896728515625 81.55341339111328 68.61980438232422 84.76224517822266 63.32095336914062 87.00345611572266 C 57.83573913574219 89.32350921630859 52.00812911987305 90.49987030029297 46.00000762939453 90.49987030029297 Z" stroke="none"/>
                                              <path d="M 46.00000762939453 2.999992370605469 C 40.19372177124023 2.999992370605469 34.56270599365234 4.136489868164062 29.26337814331055 6.377906799316406 C 24.14333343505859 8.543502807617188 19.54441833496094 11.64437866210938 15.59440612792969 15.59437561035156 C 11.6444091796875 19.54439544677734 8.543525695800781 24.14329528808594 6.377922058105469 29.26333618164062 C 4.136505126953125 34.56264877319336 3.000007629394531 40.19366455078125 3.000007629394531 45.99993515014648 C 3.000007629394531 51.80620574951172 4.136505126953125 57.43720626831055 6.377922058105469 62.73651885986328 C 8.543525695800781 67.8565673828125 11.6444091796875 72.45545959472656 15.59440612792969 76.40547943115234 C 19.54441833496094 80.35547637939453 24.14333343505859 83.45635223388672 29.26337814331055 85.6219482421875 C 34.56270599365234 87.86336517333984 40.19372177124023 88.99986267089844 46.00000762939453 88.99986267089844 C 51.80629348754883 88.99986267089844 57.43730926513672 87.86336517333984 62.73662185668945 85.6219482421875 C 67.85668182373047 83.45635223388672 72.45558166503906 80.35547637939453 76.40559387207031 76.40547943115234 C 80.35560607910156 72.45545959472656 83.45648193359375 67.8565673828125 85.62207794189453 62.73651885986328 C 87.86351013183594 57.43720626831055 89.00000762939453 51.80620574951172 89.00000762939453 45.99993515014648 C 89.00000762939453 40.19366455078125 87.86351013183594 34.56264877319336 85.62207794189453 29.26333618164062 C 83.45648193359375 24.14329528808594 80.35560607910156 19.54439544677734 76.40559387207031 15.59437561035156 C 72.45558166503906 11.64437866210938 67.85668182373047 8.543502807617188 62.73662185668945 6.377906799316406 C 57.43730926513672 4.136489868164062 51.80629348754883 2.999992370605469 46.00000762939453 2.999992370605469 M 46.00000762939453 -7.62939453125e-06 C 71.40509033203125 -7.62939453125e-06 92.00000762939453 20.59486389160156 92.00000762939453 45.99993515014648 C 92.00000762939453 71.40499114990234 71.40509033203125 91.99986267089844 46.00000762939453 91.99986267089844 C 20.59490966796875 91.99986267089844 7.62939453125e-06 71.40499114990234 7.62939453125e-06 45.99993515014648 C 7.62939453125e-06 20.59486389160156 20.59490966796875 -7.62939453125e-06 46.00000762939453 -7.62939453125e-06 Z" stroke="none" fill="#ba9c5a"/>
                                            </g>
                                          </g>
                                        </g>
                                      </g>
                                    </g>
                                  </g>
                                </g>
                              </g>
                            </g>
                          </g>
                        </g>
                      </g>
                    </g>
                  </g>
                </g>
              </g>
            </g>
          </g>
        </g>
      </g>
    </g>
    <g id="logro" transform="translate(827.5 4567.078)">
      <g id="Grupo_1219319" data-name="Grupo 1219319" transform="translate(1.017 2.059)">
        <path id="Trazado_1090156" data-name="Trazado 1090156" d="M4.5,9.417V61.053a4.294,4.294,0,0,0,4.279,4.283H47.866a4.294,4.294,0,0,0,4.279-4.283V9.417a4.294,4.294,0,0,0-4.279-4.283H8.779A4.294,4.294,0,0,0,4.5,9.417Z" transform="translate(-4.5 -5.134)" fill="#eaf6ff" fill-rule="evenodd"/>
      </g>
      <g id="Grupo_1219320" data-name="Grupo 1219320" transform="translate(5.951 44.769)">
        <path id="Trazado_1090157" data-name="Trazado 1090157" d="M42.705,335.816H53.564v10.855H42.705Z" transform="translate(-42.705 -335.816)" fill="#ffd301" fill-rule="evenodd"/>
      </g>
      <g id="Grupo_1219321" data-name="Grupo 1219321" transform="translate(5.951 27.979)">
        <path id="Trazado_1090158" data-name="Trazado 1090158" d="M42.705,205.815H53.564V216.67H42.705Z" transform="translate(-42.705 -205.815)" fill="#ffd301" fill-rule="evenodd"/>
      </g>
      <g id="Grupo_1219322" data-name="Grupo 1219322" transform="translate(5.951 11.188)">
        <path id="Trazado_1090159" data-name="Trazado 1090159" d="M42.705,75.814H53.564V86.673H42.705Z" transform="translate(-42.705 -75.814)" fill="#ffd301" fill-rule="evenodd"/>
      </g>
      <g id="Grupo_1219323" data-name="Grupo 1219323" transform="translate(27.615 40.12)">
        <path id="Trazado_1090160" data-name="Trazado 1090160" d="M223.805,326.558a13.371,13.371,0,1,0-13.371-13.371A13.4,13.4,0,0,0,223.805,326.558Z" transform="translate(-210.434 -299.816)" fill="#fd646f" fill-rule="evenodd"/>
      </g>
      <g id="Grupo_1219324" data-name="Grupo 1219324" transform="translate(32.29 44.537)">
        <path id="Trazado_1090161" data-name="Trazado 1090161" d="M255.33,351.408a8.7,8.7,0,1,0-8.7-8.7A8.711,8.711,0,0,0,255.33,351.408Z" transform="translate(-246.635 -334.017)" fill="#f5f5f5" fill-rule="evenodd"/>
      </g>
      <g id="Grupo_1219325" data-name="Grupo 1219325" transform="translate(37.014 49.261)">
        <path id="Trazado_1090162" data-name="Trazado 1090162" d="M287.181,378.535a3.972,3.972,0,1,0-3.972-3.972A3.979,3.979,0,0,0,287.181,378.535Z" transform="translate(-283.209 -370.592)" fill="#fd646f" fill-rule="evenodd"/>
      </g>
      <g id="Grupo_1219326" data-name="Grupo 1219326" transform="translate(30.788 49.616)">
        <path id="Trazado_1090163" data-name="Trazado 1090163" d="M257.924,376.241A13.666,13.666,0,0,1,235,386.3a13.375,13.375,0,0,0,22.611-12.96A13.635,13.635,0,0,1,257.924,376.241Z" transform="translate(-235.002 -373.336)" fill="#eb4954" fill-rule="evenodd"/>
      </g>
      <g id="Grupo_1219327" data-name="Grupo 1219327" transform="translate(56.055 38.486)">
        <path id="Trazado_1090164" data-name="Trazado 1090164" d="M430.633,293.246v-3.757l4.024-2.323v3.757l3.257,1.882-4.024,2.323Z" transform="translate(-430.633 -287.166)" fill="#fac149" fill-rule="evenodd"/>
      </g>
      <path id="Trazado_1090165" data-name="Trazado 1090165" d="M5.243,44.627a.9.9,0,0,1,.9-.9h7.479a.9.9,0,0,1,0,1.805H7.048v8.9h8.9V48.844a.9.9,0,1,1,1.8,0v6.489a.9.9,0,0,1-.9.9H6.145a.9.9,0,0,1-.9-.9ZM19.461,41.46a.9.9,0,0,0-1.269.141l-6.874,8.587L9.475,47.24a.9.9,0,1,0-1.53.957l2.518,4.027a.9.9,0,0,0,.713.423l.052,0a.9.9,0,0,0,.7-.339l7.669-9.58a.9.9,0,0,0-.14-1.269ZM5.243,38.774a.9.9,0,0,0,.9.9H16.851a.9.9,0,0,0,.9-.9V32.285a.9.9,0,1,0-1.8,0v5.587h-8.9v-8.9h6.577a.9.9,0,0,0,0-1.805H6.145a.9.9,0,0,0-.9.9ZM19.461,24.9a.9.9,0,0,0-1.269.14l-6.874,8.584L9.475,30.681a.9.9,0,1,0-1.53.957l2.518,4.027a.9.9,0,0,0,.713.422l.053,0a.9.9,0,0,0,.7-.338L19.6,26.173a.9.9,0,0,0-.14-1.269Zm8.307,36.07H5.626A3.325,3.325,0,0,1,2.3,57.654V6.729A3.325,3.325,0,0,1,5.626,3.408H44.171a3.325,3.325,0,0,1,3.321,3.321v32.6a.9.9,0,1,0,1.8,0V6.729A5.132,5.132,0,0,0,44.171,1.6H5.626A5.132,5.132,0,0,0,.5,6.729V57.654A5.132,5.132,0,0,0,5.626,62.78H27.769a.9.9,0,0,0,0-1.805ZM13.625,12.411a.9.9,0,0,0,0-1.805H6.145a.9.9,0,0,0-.9.9V22.218a.9.9,0,0,0,.9.9H16.851a.9.9,0,0,0,.9-.9V15.725a.9.9,0,1,0-1.8,0v5.59h-8.9v-8.9Zm5.837-4.066a.9.9,0,0,0-1.269.14L11.318,17.07,9.475,14.125a.9.9,0,1,0-1.53.957l2.518,4.023a.9.9,0,0,0,.713.422l.052,0a.9.9,0,0,0,.7-.338L19.6,9.614a.9.9,0,0,0-.14-1.269ZM41.5,10.606H23.253a.9.9,0,0,0,0,1.805H41.5a.9.9,0,0,0,0-1.805Zm0,4.83H23.253a.9.9,0,0,0,0,1.805H41.5a.9.9,0,0,0,0-1.805Zm0,11.729H23.253a.9.9,0,0,0,0,1.805H41.5a.9.9,0,0,0,0-1.805Zm.9,5.733a.9.9,0,0,0-.9-.9H23.253a.9.9,0,0,0,0,1.805H41.5A.9.9,0,0,0,42.406,32.9ZM28.642,44.627a.9.9,0,0,0-.9-.9H23.253a.9.9,0,0,0,0,1.805H27.74A.9.9,0,0,0,28.642,44.627Zm-5.389,3.928a.9.9,0,0,0,0,1.805h2.39a.9.9,0,0,0,0-1.805Zm42.8-8.773-4.08,2.354,1.859,1.074a.9.9,0,0,1,0,1.563l-3.968,2.291a.9.9,0,0,1-.9,0l-2.761-1.6L53.578,46.98a14.129,14.129,0,1,1-.9-1.562l2.621-1.513V40.722a.9.9,0,0,1,.451-.782l3.968-2.291a.9.9,0,0,1,1.354.782v2.142l4.08-2.354a.9.9,0,0,1,.9,1.563Zm-14.037,8.1-2.44,1.409a9.509,9.509,0,1,1-.905-1.562l2.44-1.409a12.22,12.22,0,1,0,.905,1.562Zm-11.993,4.84,2.971-1.715a3.014,3.014,0,1,0,.9,1.562l-2.973,1.716a.9.9,0,1,1-.9-1.563ZM44.6,50.081l2.5-1.443A7.654,7.654,0,1,0,48,50.2l-2.5,1.443a4.835,4.835,0,1,1-.905-1.562Zm16.974-6.09-1.85-1.069,0,0,0,0-.022-.015c-.026-.016-.051-.032-.075-.05l-.028-.025c-.021-.017-.041-.034-.06-.053s-.023-.026-.035-.04-.029-.032-.043-.049a.919.919,0,0,1-.066-.1h0a.917.917,0,0,1-.048-.1l-.01-.026c-.01-.026-.019-.053-.027-.079l-.007-.026a.9.9,0,0,1-.02-.1v-.006a.888.888,0,0,1-.007-.111s0-.005,0-.007V39.994L57.1,41.243v2.663l2.309,1.335Z"/>
    </g>
  </g>
</svg>
