<svg xmlns="http://www.w3.org/2000/svg" xmlns:xlink="http://www.w3.org/1999/xlink" width="110" height="110" viewBox="0 0 110 110">
  <defs>
    <filter id="Trazado_982547" x="0" y="0" width="110" height="110" filterUnits="userSpaceOnUse">
      <feOffset dy="3" input="SourceAlpha"/>
      <feGaussianBlur stdDeviation="3" result="blur"/>
      <feFlood flood-opacity="0.161"/>
      <feComposite operator="in" in2="blur"/>
      <feComposite in="SourceGraphic"/>
    </filter>
  </defs>
  <g id="Grupo_1219331" data-name="Grupo 1219331" transform="translate(-157 -4570.049)">
    <g id="Grupo_1219272" data-name="Grupo 1219272" transform="translate(166 4576.049)">
      <g id="Grupo_1210976" data-name="Grupo 1210976" transform="translate(0 0)">
        <g id="Grupo_1200150" data-name="Grupo 1200150" transform="translate(0 0)">
          <g id="Grupo_1185951" data-name="Grupo 1185951" transform="translate(0 0)">
            <g id="Grupo_1184083" data-name="Grupo 1184083" transform="translate(0 0)">
              <g id="Grupo_1183743" data-name="Grupo 1183743">
                <g id="Grupo_1181545" data-name="Grupo 1181545">
                  <g id="Grupo_1177562" data-name="Grupo 1177562">
                    <g id="Grupo_1173147" data-name="Grupo 1173147">
                      <g id="Grupo_1163801" data-name="Grupo 1163801" transform="translate(0 0)">
                        <g id="Grupo_1163014" data-name="Grupo 1163014" transform="translate(0 0)">
                          <g id="Grupo_1157015" data-name="Grupo 1157015">
                            <g id="Grupo_1155792" data-name="Grupo 1155792">
                              <g id="Grupo_1154703" data-name="Grupo 1154703">
                                <g id="Grupo_1150789" data-name="Grupo 1150789">
                                  <g id="Grupo_1154212" data-name="Grupo 1154212">
                                    <g id="Grupo_1152583" data-name="Grupo 1152583">
                                      <g id="Grupo_1146973" data-name="Grupo 1146973">
                                        <g id="Grupo_1146954" data-name="Grupo 1146954">
                                          <g transform="matrix(1, 0, 0, 1, -9, -6)" filter="url(#Trazado_982547)">
                                            <g id="Trazado_982547-2" data-name="Trazado 982547" transform="translate(9 6)" fill="#f2d944">
                                              <path d="M 46.00000762939453 90.49987030029297 C 39.99188613891602 90.49987030029297 34.16427612304688 89.32350921630859 28.67906188964844 87.00345611572266 C 23.38020706176758 84.76224517822266 18.62104797363281 81.55341339111328 14.53375434875488 77.46613311767578 C 10.44647407531738 73.37885284423828 7.237647533416748 68.61969757080078 4.996420860290527 63.32085418701172 C 2.676367521286011 57.83565521240234 1.500007629394531 52.008056640625 1.500007629394531 45.99993515014648 C 1.500007629394531 39.99181365966797 2.676367521286011 34.16421508789062 4.996420860290527 28.67901420593262 C 7.237647533416748 23.38017463684082 10.44647407531738 18.62101554870605 14.53375434875488 14.53373527526855 C 18.62104797363281 10.44645500183105 23.38020706176758 7.23762845993042 28.67906188964844 4.996415138244629 C 34.16427612304688 2.676361799240112 39.99188613891602 1.500001788139343 46.00000762939453 1.500001788139343 C 52.00812911987305 1.500001788139343 57.83573913574219 2.676361799240112 63.32095336914062 4.996415138244629 C 68.61980438232422 7.23762845993042 73.37896728515625 10.44645500183105 77.46626281738281 14.53373527526855 C 81.55354309082031 18.62101554870605 84.76236724853516 23.38017463684082 87.00359344482422 28.67901420593262 C 89.32364654541016 34.16421508789062 90.50000762939453 39.99181365966797 90.50000762939453 45.99993515014648 C 90.50000762939453 52.008056640625 89.32364654541016 57.83565521240234 87.00359344482422 63.32085418701172 C 84.76236724853516 68.61969757080078 81.55354309082031 73.37885284423828 77.46626281738281 77.46613311767578 C 73.37896728515625 81.55341339111328 68.61980438232422 84.76224517822266 63.32095336914062 87.00345611572266 C 57.83573913574219 89.32350921630859 52.00812911987305 90.49987030029297 46.00000762939453 90.49987030029297 Z" stroke="none"/>
                                              <path d="M 46.00000762939453 2.999992370605469 C 40.19372177124023 2.999992370605469 34.56270599365234 4.136489868164062 29.26337814331055 6.377906799316406 C 24.14333343505859 8.543502807617188 19.54441833496094 11.64437866210938 15.59440612792969 15.59437561035156 C 11.6444091796875 19.54439544677734 8.543525695800781 24.14329528808594 6.377922058105469 29.26333618164062 C 4.136505126953125 34.56264877319336 3.000007629394531 40.19366455078125 3.000007629394531 45.99993515014648 C 3.000007629394531 51.80620574951172 4.136505126953125 57.43720626831055 6.377922058105469 62.73651885986328 C 8.543525695800781 67.8565673828125 11.6444091796875 72.45545959472656 15.59440612792969 76.40547943115234 C 19.54441833496094 80.35547637939453 24.14333343505859 83.45635223388672 29.26337814331055 85.6219482421875 C 34.56270599365234 87.86336517333984 40.19372177124023 88.99986267089844 46.00000762939453 88.99986267089844 C 51.80629348754883 88.99986267089844 57.43730926513672 87.86336517333984 62.73662185668945 85.6219482421875 C 67.85668182373047 83.45635223388672 72.45558166503906 80.35547637939453 76.40559387207031 76.40547943115234 C 80.35560607910156 72.45545959472656 83.45648193359375 67.8565673828125 85.62207794189453 62.73651885986328 C 87.86351013183594 57.43720626831055 89.00000762939453 51.80620574951172 89.00000762939453 45.99993515014648 C 89.00000762939453 40.19366455078125 87.86351013183594 34.56264877319336 85.62207794189453 29.26333618164062 C 83.45648193359375 24.14329528808594 80.35560607910156 19.54439544677734 76.40559387207031 15.59437561035156 C 72.45558166503906 11.64437866210938 67.85668182373047 8.543502807617188 62.73662185668945 6.377906799316406 C 57.43730926513672 4.136489868164062 51.80629348754883 2.999992370605469 46.00000762939453 2.999992370605469 M 46.00000762939453 -7.62939453125e-06 C 71.40509033203125 -7.62939453125e-06 92.00000762939453 20.59486389160156 92.00000762939453 45.99993515014648 C 92.00000762939453 71.40499114990234 71.40509033203125 91.99986267089844 46.00000762939453 91.99986267089844 C 20.59490966796875 91.99986267089844 7.62939453125e-06 71.40499114990234 7.62939453125e-06 45.99993515014648 C 7.62939453125e-06 20.59486389160156 20.59490966796875 -7.62939453125e-06 46.00000762939453 -7.62939453125e-06 Z" stroke="none" fill="#ba9c5a"/>
                                            </g>
                                          </g>
                                        </g>
                                      </g>
                                    </g>
                                  </g>
                                </g>
                              </g>
                            </g>
                          </g>
                        </g>
                      </g>
                    </g>
                  </g>
                </g>
              </g>
            </g>
          </g>
        </g>
      </g>
    </g>
    <g id="Layer_7" data-name="Layer 7" transform="translate(175.594 4592.073)">
      <path id="Trazado_1090176" data-name="Trazado 1090176" d="M16,40V65.877H53.64V40" transform="translate(1.586 6.874)" fill="#442518"/>
      <path id="Trazado_1090177" data-name="Trazado 1090177" d="M44,40h4.7V65.877H44Z" transform="translate(6.521 6.874)" fill="#976947"/>
      <path id="Trazado_1090178" data-name="Trazado 1090178" d="M46.352,62.349V40H44V63.525h1.176A1.176,1.176,0,0,0,46.352,62.349Z" transform="translate(6.521 6.874)" fill="#c18e59"/>
      <path id="Trazado_1090179" data-name="Trazado 1090179" d="M16,40h4.7V65.877H16Z" transform="translate(1.586 6.874)" fill="#976947"/>
      <path id="Trazado_1090180" data-name="Trazado 1090180" d="M14,36v4.7H56.345V36" transform="translate(1.234 6.169)" fill="#674025"/>
      <path id="Trazado_1090181" data-name="Trazado 1090181" d="M53.992,37.176V36H14v2.352H52.816A1.176,1.176,0,0,0,53.992,37.176Z" transform="translate(1.234 6.169)" fill="#754b2f"/>
      <path id="Trazado_1090182" data-name="Trazado 1090182" d="M12,30H59.05v7.057H12Z" transform="translate(0.881 5.111)" fill="#976947"/>
      <path id="Trazado_1090183" data-name="Trazado 1090183" d="M55.521,31.176V30H12v3.529H53.169A2.353,2.353,0,0,0,55.521,31.176Z" transform="translate(0.881 5.111)" fill="#c18e59"/>
      <path id="Trazado_1090184" data-name="Trazado 1090184" d="M38.482,12.407a10.614,10.614,0,0,0-4.605,8.413,9.235,9.235,0,0,0,.1,1.355,15.817,15.817,0,0,1-3.6,2.012L29.172,30.23l-5.881-4.7C14.846,25.525,8,20.259,8,13.762S14.846,2,23.291,2C31.14,2,37.609,6.55,38.482,12.407Z" transform="translate(0.176 0.176)" fill="#5e87ca"/>
      <path id="Trazado_1090185" data-name="Trazado 1090185" d="M38.2,30.186,39.41,36.23l5.881-4.7c8.445,0,15.291-5.266,15.291-11.762S53.737,8,45.291,8,30,13.266,30,19.762C30,24.291,33.326,28.221,38.2,30.186Z" transform="translate(4.054 1.234)" fill="#f9d266"/>
      <path id="Trazado_1090186" data-name="Trazado 1090186" d="M58.23,16.235a9.309,9.309,0,0,0-.682-3.484A17.1,17.1,0,0,0,45.291,8C36.846,8,30,13.267,30,19.763a9.279,9.279,0,0,0,.7,3.5A17.1,17.1,0,0,0,42.939,28C51.384,28,58.23,22.731,58.23,16.235Z" transform="translate(4.054 1.233)" fill="#fce797"/>
      <path id="Trazado_1090187" data-name="Trazado 1090187" d="M36.23,10.235a9.309,9.309,0,0,0-.682-3.484A17.1,17.1,0,0,0,23.291,2C14.846,2,8,7.267,8,13.763a9.279,9.279,0,0,0,.7,3.5A17.1,17.1,0,0,0,20.939,22C29.384,22,36.23,16.731,36.23,10.235Z" transform="translate(0.176 0.175)" fill="#78a0d4"/>
      <g id="Grupo_1219330" data-name="Grupo 1219330" transform="translate(40.238 19.71)">
        <ellipse id="Elipse_12002" data-name="Elipse 12002" cx="2.046" cy="2.557" rx="2.046" ry="2.557" transform="translate(0 0)" fill="#f0ae42"/>
        <ellipse id="Elipse_12003" data-name="Elipse 12003" cx="2.046" cy="2.557" rx="2.046" ry="2.557" transform="translate(7.161 0)" fill="#f0ae42"/>
        <ellipse id="Elipse_12004" data-name="Elipse 12004" cx="2.046" cy="2.557" rx="2.046" ry="2.557" transform="translate(14.322 0)" fill="#f0ae42"/>
      </g>
      <circle id="Elipse_12005" data-name="Elipse 12005" cx="2.557" cy="2.557" r="2.557" transform="translate(13.641 11.527)" fill="#c0dafc"/>
      <circle id="Elipse_12006" data-name="Elipse 12006" cx="2.557" cy="2.557" r="2.557" transform="translate(20.802 11.527)" fill="#c0dafc"/>
      <circle id="Elipse_12007" data-name="Elipse 12007" cx="2.557" cy="2.557" r="2.557" transform="translate(27.963 11.527)" fill="#c0dafc"/>
      <path id="Trazado_1090188" data-name="Trazado 1090188" d="M24,40V56.467H42.82V40" transform="translate(2.996 6.874)" fill="#f0ae42"/>
      <path id="Trazado_1090189" data-name="Trazado 1090189" d="M39.291,50.586V40H24V52.939H36.939A2.353,2.353,0,0,0,39.291,50.586Z" transform="translate(2.996 6.874)" fill="#f9d266"/>
      <path id="Trazado_1090190" data-name="Trazado 1090190" d="M18.352,62.349V40H16V63.525h1.176A1.176,1.176,0,0,0,18.352,62.349Z" transform="translate(1.586 6.874)" fill="#c18e59"/>
      <path id="Trazado_1090191" data-name="Trazado 1090191" d="M65.812,21c0-7.134-7.387-12.939-16.467-12.939A19.408,19.408,0,0,0,39.4,10.706C37.564,5.07,31.072,1,23.467,1,14.387,1,7,6.8,7,13.939c0,7.025,7.162,12.76,16.05,12.939l5.564,4.451a1.181,1.181,0,0,0,1.888-.687l1.087-5.433a17.243,17.243,0,0,0,1.818-.947,13.781,13.781,0,0,0,7.822,8l.329,1.674H12.881A1.176,1.176,0,0,0,11.7,35.111v7.057a1.176,1.176,0,0,0,1.176,1.176h1.176v3.529a1.176,1.176,0,0,0,1.176,1.176H16.41v24.7a1.176,1.176,0,0,0,1.176,1.176h37.64A1.176,1.176,0,0,0,56.4,72.751V48.05h1.176a1.176,1.176,0,0,0,1.176-1.176V43.345h1.176a1.176,1.176,0,0,0,1.176-1.176V35.111a1.176,1.176,0,0,0-1.176-1.176H49.758C58.65,33.756,65.812,28.021,65.812,21Zm-35.7,2.276a1.176,1.176,0,0,0-.713.86l-.829,4.149-4.372-3.5a1.176,1.176,0,0,0-.735-.258c-7.783,0-14.115-4.75-14.115-10.586S15.684,3.353,23.467,3.353c6.92,0,12.747,3.74,13.9,8.794A11.586,11.586,0,0,0,32.877,21c0,.256.013.51.032.765a14.8,14.8,0,0,1-2.792,1.511ZM35.23,21c0-5.837,6.332-10.586,14.115-10.586S63.46,15.16,63.46,21,57.128,31.582,49.345,31.582a1.176,1.176,0,0,0-.735.258l-4.372,3.5-.823-4.149a1.176,1.176,0,0,0-.713-.86C38.091,28.472,35.23,24.9,35.23,21ZM18.762,48.05h2.352V71.575H18.762Zm9.41,0H44.64V62.165H28.172ZM27,64.517h18.82a1.176,1.176,0,0,0,1.176-1.176V48.05h2.352V71.575H23.467V48.05H25.82V63.341A1.176,1.176,0,0,0,27,64.517ZM54.05,71.575H51.7V48.05H54.05ZM56.4,45.7H16.41V43.345H56.4Zm2.352-9.41v4.7h-44.7v-4.7H42.029l.282,1.411a1.176,1.176,0,0,0,1.882.688l2.624-2.1Z"/>
      <ellipse id="Elipse_12008" data-name="Elipse 12008" cx="2.046" cy="2.557" rx="2.046" ry="2.557" transform="translate(40.238 19.71)"/>
      <ellipse id="Elipse_12009" data-name="Elipse 12009" cx="2.046" cy="2.557" rx="2.046" ry="2.557" transform="translate(47.399 19.71)"/>
      <ellipse id="Elipse_12010" data-name="Elipse 12010" cx="2.046" cy="2.557" rx="2.046" ry="2.557" transform="translate(54.56 19.71)"/>
      <circle id="Elipse_12011" data-name="Elipse 12011" cx="2.557" cy="2.557" r="2.557" transform="translate(13.641 11.527)"/>
      <circle id="Elipse_12012" data-name="Elipse 12012" cx="2.557" cy="2.557" r="2.557" transform="translate(20.802 11.527)"/>
      <circle id="Elipse_12013" data-name="Elipse 12013" cx="2.557" cy="2.557" r="2.557" transform="translate(27.963 11.527)"/>
    </g>
  </g>
</svg>
