<svg xmlns="http://www.w3.org/2000/svg" xmlns:xlink="http://www.w3.org/1999/xlink" width="108" height="108" viewBox="0 0 108 108">
  <defs>
    <filter id="Trazado_978624" x="0" y="0" width="108" height="108" filterUnits="userSpaceOnUse">
      <feOffset dy="3" input="SourceAlpha"/>
      <feGaussianBlur stdDeviation="3" result="blur"/>
      <feFlood flood-opacity="0.161"/>
      <feComposite operator="in" in2="blur"/>
      <feComposite in="SourceGraphic"/>
    </filter>
    <filter id="Trazado_1076716" x="0" y="0" width="108" height="108" filterUnits="userSpaceOnUse">
      <feOffset dy="3" input="SourceAlpha"/>
      <feGaussianBlur stdDeviation="3" result="blur-2"/>
      <feFlood flood-opacity="0.161"/>
      <feComposite operator="in" in2="blur-2"/>
      <feComposite in="SourceGraphic"/>
    </filter>
  </defs>
  <g id="Grupo_1219303" data-name="Grupo 1219303" transform="translate(-200 -303)">
    <g id="Grupo_1218004" data-name="Grupo 1218004" transform="translate(4 -183)">
      <g id="Grupo_1200660" data-name="Grupo 1200660" transform="translate(205 492)">
        <g id="Grupo_1181203" data-name="Grupo 1181203">
          <g id="Grupo_1172348" data-name="Grupo 1172348">
            <g id="Grupo_1171897" data-name="Grupo 1171897">
              <g id="Grupo_1171052" data-name="Grupo 1171052">
                <g id="Grupo_1164581" data-name="Grupo 1164581">
                  <g id="Grupo_1144123" data-name="Grupo 1144123">
                    <g transform="matrix(1, 0, 0, 1, -9, -6)" filter="url(#Trazado_978624)">
                      <g id="Trazado_978624-2" data-name="Trazado 978624" transform="translate(9 6)" fill="#fdfaeb">
                        <path d="M 45 88.5 C 39.12687683105469 88.5 33.43022537231445 87.35007476806641 28.06830024719238 85.08217620849609 C 22.88852500915527 82.89131164550781 18.23629951477051 79.75458526611328 14.2408504486084 75.75914764404297 C 10.24541282653809 71.76370239257812 7.108687400817871 67.11147308349609 4.917825222015381 61.93170166015625 C 2.649924993515015 56.56977462768555 1.5 50.87312316894531 1.5 45 C 1.5 39.12687683105469 2.649924993515015 33.43022537231445 4.917825222015381 28.06830024719238 C 7.108687400817871 22.88852500915527 10.24541282653809 18.23629951477051 14.2408504486084 14.2408504486084 C 18.23629951477051 10.24541282653809 22.88852500915527 7.108687400817871 28.06830024719238 4.917825222015381 C 33.43022537231445 2.649924993515015 39.12687683105469 1.5 45 1.5 C 50.87312316894531 1.5 56.56977462768555 2.649924993515015 61.93170166015625 4.917825222015381 C 67.11147308349609 7.108687400817871 71.76370239257812 10.24541282653809 75.75914764404297 14.2408504486084 C 79.75458526611328 18.23629951477051 82.89131164550781 22.88852500915527 85.08217620849609 28.06830024719238 C 87.35007476806641 33.43022537231445 88.5 39.12687683105469 88.5 45 C 88.5 50.87312316894531 87.35007476806641 56.56977462768555 85.08217620849609 61.93170166015625 C 82.89131164550781 67.11147308349609 79.75458526611328 71.76370239257812 75.75914764404297 75.75914764404297 C 71.76370239257812 79.75458526611328 67.11147308349609 82.89131164550781 61.93170166015625 85.08217620849609 C 56.56977462768555 87.35007476806641 50.87312316894531 88.5 45 88.5 Z" stroke="none"/>
                        <path d="M 45 3 C 39.32871246337891 3 33.82865524291992 4.110054016113281 28.65262985229492 6.299339294433594 C 23.65165710449219 8.414573669433594 19.15968322753906 11.44334411621094 15.301513671875 15.301513671875 C 11.44334411621094 19.15968322753906 8.414573669433594 23.65165710449219 6.299339294433594 28.65262985229492 C 4.110054016113281 33.82865524291992 3 39.32871246337891 3 45 C 3 50.67128753662109 4.110054016113281 56.17134475708008 6.299339294433594 61.34737396240234 C 8.414573669433594 66.34834289550781 11.44334411621094 70.84031677246094 15.301513671875 74.698486328125 C 19.15968322753906 78.55665588378906 23.65165710449219 81.58542633056641 28.65262985229492 83.70066070556641 C 33.82865524291992 85.88994598388672 39.32871246337891 87 45 87 C 50.67128753662109 87 56.17134475708008 85.88994598388672 61.34737396240234 83.70066070556641 C 66.34834289550781 81.58542633056641 70.84031677246094 78.55665588378906 74.698486328125 74.698486328125 C 78.55665588378906 70.84031677246094 81.58542633056641 66.34834289550781 83.70066070556641 61.34737396240234 C 85.88994598388672 56.17134475708008 87 50.67128753662109 87 45 C 87 39.32871246337891 85.88994598388672 33.82865524291992 83.70066070556641 28.65262985229492 C 81.58542633056641 23.65165710449219 78.55665588378906 19.15968322753906 74.698486328125 15.301513671875 C 70.84031677246094 11.44334411621094 66.34834289550781 8.414573669433594 61.34737396240234 6.299339294433594 C 56.17134475708008 4.110054016113281 50.67128753662109 3 45 3 M 45 0 C 69.85281372070312 0 90 20.14718627929688 90 45 C 90 69.85281372070312 69.85281372070312 90 45 90 C 20.14718627929688 90 0 69.85281372070312 0 45 C 0 20.14718627929688 20.14718627929688 0 45 0 Z" stroke="none" fill="#847625"/>
                      </g>
                    </g>
                    <g transform="matrix(1, 0, 0, 1, -9, -6)" filter="url(#Trazado_1076716)">
                      <g id="Trazado_1076716-2" data-name="Trazado 1076716" transform="translate(9 6)" fill="#fdfaeb">
                        <path d="M 45 88.5 C 39.12687683105469 88.5 33.43022537231445 87.35007476806641 28.06830024719238 85.08217620849609 C 22.88852500915527 82.89131164550781 18.23629951477051 79.75458526611328 14.2408504486084 75.75914764404297 C 10.24541282653809 71.76370239257812 7.108687400817871 67.11147308349609 4.917825222015381 61.93170166015625 C 2.649924993515015 56.56977462768555 1.5 50.87312316894531 1.5 45 C 1.5 39.12687683105469 2.649924993515015 33.43022537231445 4.917825222015381 28.06830024719238 C 7.108687400817871 22.88852500915527 10.24541282653809 18.23629951477051 14.2408504486084 14.2408504486084 C 18.23629951477051 10.24541282653809 22.88852500915527 7.108687400817871 28.06830024719238 4.917825222015381 C 33.43022537231445 2.649924993515015 39.12687683105469 1.5 45 1.5 C 50.87312316894531 1.5 56.56977462768555 2.649924993515015 61.93170166015625 4.917825222015381 C 67.11147308349609 7.108687400817871 71.76370239257812 10.24541282653809 75.75914764404297 14.2408504486084 C 79.75458526611328 18.23629951477051 82.89131164550781 22.88852500915527 85.08217620849609 28.06830024719238 C 87.35007476806641 33.43022537231445 88.5 39.12687683105469 88.5 45 C 88.5 50.87312316894531 87.35007476806641 56.56977462768555 85.08217620849609 61.93170166015625 C 82.89131164550781 67.11147308349609 79.75458526611328 71.76370239257812 75.75914764404297 75.75914764404297 C 71.76370239257812 79.75458526611328 67.11147308349609 82.89131164550781 61.93170166015625 85.08217620849609 C 56.56977462768555 87.35007476806641 50.87312316894531 88.5 45 88.5 Z" stroke="none"/>
                        <path d="M 45 3 C 39.32871246337891 3 33.82865524291992 4.110054016113281 28.65262985229492 6.299339294433594 C 23.65165710449219 8.414573669433594 19.15968322753906 11.44334411621094 15.301513671875 15.301513671875 C 11.44334411621094 19.15968322753906 8.414573669433594 23.65165710449219 6.299339294433594 28.65262985229492 C 4.110054016113281 33.82865524291992 3 39.32871246337891 3 45 C 3 50.67128753662109 4.110054016113281 56.17134475708008 6.299339294433594 61.34737396240234 C 8.414573669433594 66.34834289550781 11.44334411621094 70.84031677246094 15.301513671875 74.698486328125 C 19.15968322753906 78.55665588378906 23.65165710449219 81.58542633056641 28.65262985229492 83.70066070556641 C 33.82865524291992 85.88994598388672 39.32871246337891 87 45 87 C 50.67128753662109 87 56.17134475708008 85.88994598388672 61.34737396240234 83.70066070556641 C 66.34834289550781 81.58542633056641 70.84031677246094 78.55665588378906 74.698486328125 74.698486328125 C 78.55665588378906 70.84031677246094 81.58542633056641 66.34834289550781 83.70066070556641 61.34737396240234 C 85.88994598388672 56.17134475708008 87 50.67128753662109 87 45 C 87 39.32871246337891 85.88994598388672 33.82865524291992 83.70066070556641 28.65262985229492 C 81.58542633056641 23.65165710449219 78.55665588378906 19.15968322753906 74.698486328125 15.301513671875 C 70.84031677246094 11.44334411621094 66.34834289550781 8.414573669433594 61.34737396240234 6.299339294433594 C 56.17134475708008 4.110054016113281 50.67128753662109 3 45 3 M 45 0 C 69.85281372070312 0 90 20.14718627929688 90 45 C 90 69.85281372070312 69.85281372070312 90 45 90 C 20.14718627929688 90 0 69.85281372070312 0 45 C 0 20.14718627929688 20.14718627929688 0 45 0 Z" stroke="none" fill="#847625"/>
                      </g>
                    </g>
                  </g>
                </g>
              </g>
            </g>
          </g>
        </g>
      </g>
    </g>
    <g id="publico_1_" data-name="publico (1)" transform="translate(188.261 295.069)">
      <ellipse id="Elipse_11994" data-name="Elipse 11994" cx="29.907" cy="31.288" rx="29.907" ry="31.288" transform="translate(34.614 30.377)" fill="#60b7fe"/>
      <path id="Trazado_1089535" data-name="Trazado 1089535" d="M150.3,36.074c8.2,6.886,13.574,18.323,13.574,31.271S158.508,91.731,150.3,98.617c-8.2-6.886-13.574-18.323-13.574-31.271S142.1,42.96,150.3,36.074Z" transform="translate(-85.783 -5.68)" fill="#60b7fe" fill-rule="evenodd"/>
      <path id="Trazado_1089536" data-name="Trazado 1089536" d="M109.518,399.845h35.811v-5.908a3.947,3.947,0,0,0-3.94-3.94H113.458a3.947,3.947,0,0,0-3.94,3.94Z" transform="translate(-63.174 -299.729)" fill="#ffbf31" fill-rule="evenodd"/>
      <path id="Trazado_1089537" data-name="Trazado 1089537" d="M59.5,427.041h46.733a3.947,3.947,0,0,1,3.94,3.94v2.327H55.556v-2.327A3.947,3.947,0,0,1,59.5,427.041Z" transform="translate(-18.341 -330.506)" fill="#f0b16e" fill-rule="evenodd"/>
      <path id="Trazado_1089538" data-name="Trazado 1089538" d="M265.974,256.486l1.343-2.326a1.8,1.8,0,0,1,2.446-.655l27.912,16.115a1.8,1.8,0,0,1,.655,2.446l-1.343,2.326a1.8,1.8,0,0,1-2.446.655l-27.912-16.115A1.8,1.8,0,0,1,265.974,256.486Z" transform="translate(-192.964 -186.129)" fill="#f0b16e" fill-rule="evenodd"/>
      <path id="Trazado_1089539" data-name="Trazado 1089539" d="M0,0H26.858V21.487H0Z" transform="matrix(0.5, -0.866, 0.866, 0.5, 53.785, 73.215)" fill="#ffbf31" fill-rule="evenodd"/>
      <path id="Trazado_1089540" data-name="Trazado 1089540" d="M139.933,276.231l1.153-2a1.537,1.537,0,0,1,2.094-.561l19.83,11.449a1.537,1.537,0,0,1,.561,2.094l-1.153,2a1.537,1.537,0,0,1-2.094.561l-19.83-11.449A1.537,1.537,0,0,1,139.933,276.231Z" transform="translate(-88.274 -202.914)" fill="#f0b16e" fill-rule="evenodd"/>
      <path id="Trazado_1089541" data-name="Trazado 1089541" d="M219.315,138.738l1.153-2a1.537,1.537,0,0,1,2.093-.561l19.83,11.449a1.537,1.537,0,0,1,.561,2.094l-1.153,2a1.537,1.537,0,0,1-2.094.561l-19.83-11.449A1.537,1.537,0,0,1,219.315,138.738Z" transform="translate(-154.227 -88.681)" fill="#f0b16e" fill-rule="evenodd"/>
      <path id="Trazado_1089542" data-name="Trazado 1089542" d="M104.388,85.368l-1.343,2.327a.662.662,0,0,1-.9.241L79.091,74.625l2-3.467,23.055,13.311A.659.659,0,0,1,104.388,85.368ZM76.4,89.134a29.085,29.085,0,0,0,9.875-7.744l-8.323-4.806-2.669,4.631a2.668,2.668,0,0,1,.989,3.65l-1.153,2a2.66,2.66,0,0,1-2.315,1.331,3.121,3.121,0,0,1-1.761-.608c-.39.528-.79,1.046-1.2,1.548H76.4ZM81.3,94.205v1.2H47.749v-1.2a2.812,2.812,0,0,1,2.8-2.808H78.491A2.812,2.812,0,0,1,81.3,94.205Zm9.4,6.268v1.2H38.345v-1.2a2.813,2.813,0,0,1,2.814-2.808H87.886a2.813,2.813,0,0,1,2.814,2.808ZM35.767,62.8h14.06a46.577,46.577,0,0,0,1.18,9.384,3.229,3.229,0,0,0-.59,2.591,2.65,2.65,0,0,0,1.234,1.619l.69.4A40.75,40.75,0,0,0,59.2,89.134H52.641A30.244,30.244,0,0,1,35.767,62.8Zm8.587-22.622a59.385,59.385,0,0,0,9.721,2.165,45.215,45.215,0,0,0-4.248,18.194H35.767A30.778,30.778,0,0,1,44.354,40.173ZM93.278,60.532H90.046a2.651,2.651,0,0,0-1.316-2.567L78.2,51.883a43.757,43.757,0,0,0-3.222-9.545,59.64,59.64,0,0,0,9.712-2.165A30.778,30.778,0,0,1,93.278,60.532Zm-40.491,13.9a.4.4,0,0,1-.145-.548l1.153-2a.4.4,0,0,1,.545-.146L74.171,83.186a.4.4,0,0,1,.145.548l-1.153,2a.4.4,0,0,1-.545.147ZM58.5,62.8H52.087a44.433,44.433,0,0,0,.726,6.98,2.679,2.679,0,0,1,1.825-.306ZM66.22,51.168,86.043,62.617a.413.413,0,0,0,.554-.146l1.153-2a.412.412,0,0,0-.145-.548L67.772,48.477a.417.417,0,0,0-.554.146l-1.144,2A.389.389,0,0,0,66.22,51.168Zm-1.7-8.115a76.569,76.569,0,0,1-8.087-.422,42.821,42.821,0,0,0-4.348,17.9H59.8l4.6-7.97a2.638,2.638,0,0,1-.29-3.074l1.153-2a2.655,2.655,0,0,1,3.631-.975l6.6,3.808a40.828,40.828,0,0,0-2.886-7.694A76.88,76.88,0,0,1,64.522,43.053Zm3.059-11.377a37.951,37.951,0,0,1,6.308,8.515,59.507,59.507,0,0,0,8.9-1.808A27.973,27.973,0,0,0,67.581,31.677ZM55.164,40.193a37.78,37.78,0,0,1,6.3-8.516,27.974,27.974,0,0,0-15.213,6.707A59.887,59.887,0,0,0,55.164,40.193Zm9.358-8.3a35.14,35.14,0,0,1,6.926,8.572,75.583,75.583,0,0,1-13.851,0A35.107,35.107,0,0,1,64.522,31.888ZM62.19,89.134h4.665c.772-.848,1.516-1.746,2.224-2.686L55.464,78.59A37.564,37.564,0,0,0,62.19,89.134Zm11.137-9.05,9.612-16.649L66.283,53.824l-9.6,16.647Zm8.9-10.886,8.514,4.916A30.912,30.912,0,0,0,93.278,62.8H89.02l-.463.807a2.673,2.673,0,0,1-3.658.964Zm24.417,15.085a2.9,2.9,0,0,0-1.362-1.774L92.706,75.253a33.59,33.59,0,0,0-6.217-36.5,30.1,30.1,0,0,0-43.932,0,33.29,33.29,0,0,0,6.072,50.759,5.077,5.077,0,0,0-3.141,4.69v1.2h-4.33a5.079,5.079,0,0,0-5.074,5.071V102.8a1.134,1.134,0,0,0,1.135,1.132H91.825A1.134,1.134,0,0,0,92.96,102.8v-2.327A5.079,5.079,0,0,0,87.886,95.4h-4.33v-1.2a5.077,5.077,0,0,0-3.141-4.691,31.59,31.59,0,0,0,7.851-6.975L101.011,89.9A2.928,2.928,0,0,0,105,88.826l1.343-2.327A2.909,2.909,0,0,0,106.639,84.283Z" fill="#1e2f3f" fill-rule="evenodd"/>
    </g>
  </g>
</svg>
