<svg xmlns="http://www.w3.org/2000/svg" xmlns:xlink="http://www.w3.org/1999/xlink" width="110" height="110" viewBox="0 0 110 110">
  <defs>
    <filter id="Trazado_982547" x="0" y="0" width="110" height="110" filterUnits="userSpaceOnUse">
      <feOffset dy="3" input="SourceAlpha"/>
      <feGaussianBlur stdDeviation="3" result="blur"/>
      <feFlood flood-opacity="0.161"/>
      <feComposite operator="in" in2="blur"/>
      <feComposite in="SourceGraphic"/>
    </filter>
  </defs>
  <g id="Grupo_1219359" data-name="Grupo 1219359" transform="translate(-472 -4571.049)">
    <g id="Grupo_1219273" data-name="Grupo 1219273" transform="translate(481 4577.049)">
      <g id="Grupo_1211001" data-name="Grupo 1211001" transform="translate(0 0)">
        <g id="Grupo_1200151" data-name="Grupo 1200151" transform="translate(0 0)">
          <g id="Grupo_1185952" data-name="Grupo 1185952" transform="translate(0 0)">
            <g id="Grupo_1184115" data-name="Grupo 1184115" transform="translate(0 0)">
              <g id="Grupo_1183744" data-name="Grupo 1183744">
                <g id="Grupo_1181546" data-name="Grupo 1181546">
                  <g id="Grupo_1177563" data-name="Grupo 1177563">
                    <g id="Grupo_1173148" data-name="Grupo 1173148">
                      <g id="Grupo_1163803" data-name="Grupo 1163803" transform="translate(0 0)">
                        <g id="Grupo_1163015" data-name="Grupo 1163015" transform="translate(0 0)">
                          <g id="Grupo_1157017" data-name="Grupo 1157017">
                            <g id="Grupo_1155793" data-name="Grupo 1155793">
                              <g id="Grupo_1154704" data-name="Grupo 1154704">
                                <g id="Grupo_1150790" data-name="Grupo 1150790">
                                  <g id="Grupo_1154214" data-name="Grupo 1154214">
                                    <g id="Grupo_1152583" data-name="Grupo 1152583">
                                      <g id="Grupo_1146973" data-name="Grupo 1146973">
                                        <g id="Grupo_1146954" data-name="Grupo 1146954">
                                          <g transform="matrix(1, 0, 0, 1, -9, -6)" filter="url(#Trazado_982547)">
                                            <g id="Trazado_982547-2" data-name="Trazado 982547" transform="translate(9 6)" fill="#f2d944">
                                              <path d="M 46.00000762939453 90.49987030029297 C 39.99188613891602 90.49987030029297 34.16427612304688 89.32350921630859 28.67906188964844 87.00345611572266 C 23.38020706176758 84.76224517822266 18.62104797363281 81.55341339111328 14.53375434875488 77.46613311767578 C 10.44647407531738 73.37885284423828 7.237647533416748 68.61969757080078 4.996420860290527 63.32085418701172 C 2.676367521286011 57.83565521240234 1.500007629394531 52.008056640625 1.500007629394531 45.99993515014648 C 1.500007629394531 39.99181365966797 2.676367521286011 34.16421508789062 4.996420860290527 28.67901420593262 C 7.237647533416748 23.38017463684082 10.44647407531738 18.62101554870605 14.53375434875488 14.53373527526855 C 18.62104797363281 10.44645500183105 23.38020706176758 7.23762845993042 28.67906188964844 4.996415138244629 C 34.16427612304688 2.676361799240112 39.99188613891602 1.500001788139343 46.00000762939453 1.500001788139343 C 52.00812911987305 1.500001788139343 57.83573913574219 2.676361799240112 63.32095336914062 4.996415138244629 C 68.61980438232422 7.23762845993042 73.37896728515625 10.44645500183105 77.46626281738281 14.53373527526855 C 81.55354309082031 18.62101554870605 84.76236724853516 23.38017463684082 87.00359344482422 28.67901420593262 C 89.32364654541016 34.16421508789062 90.50000762939453 39.99181365966797 90.50000762939453 45.99993515014648 C 90.50000762939453 52.008056640625 89.32364654541016 57.83565521240234 87.00359344482422 63.32085418701172 C 84.76236724853516 68.61969757080078 81.55354309082031 73.37885284423828 77.46626281738281 77.46613311767578 C 73.37896728515625 81.55341339111328 68.61980438232422 84.76224517822266 63.32095336914062 87.00345611572266 C 57.83573913574219 89.32350921630859 52.00812911987305 90.49987030029297 46.00000762939453 90.49987030029297 Z" stroke="none"/>
                                              <path d="M 46.00000762939453 2.999992370605469 C 40.19372177124023 2.999992370605469 34.56270599365234 4.136489868164062 29.26337814331055 6.377906799316406 C 24.14333343505859 8.543502807617188 19.54441833496094 11.64437866210938 15.59440612792969 15.59437561035156 C 11.6444091796875 19.54439544677734 8.543525695800781 24.14329528808594 6.377922058105469 29.26333618164062 C 4.136505126953125 34.56264877319336 3.000007629394531 40.19366455078125 3.000007629394531 45.99993515014648 C 3.000007629394531 51.80620574951172 4.136505126953125 57.43720626831055 6.377922058105469 62.73651885986328 C 8.543525695800781 67.8565673828125 11.6444091796875 72.45545959472656 15.59440612792969 76.40547943115234 C 19.54441833496094 80.35547637939453 24.14333343505859 83.45635223388672 29.26337814331055 85.6219482421875 C 34.56270599365234 87.86336517333984 40.19372177124023 88.99986267089844 46.00000762939453 88.99986267089844 C 51.80629348754883 88.99986267089844 57.43730926513672 87.86336517333984 62.73662185668945 85.6219482421875 C 67.85668182373047 83.45635223388672 72.45558166503906 80.35547637939453 76.40559387207031 76.40547943115234 C 80.35560607910156 72.45545959472656 83.45648193359375 67.8565673828125 85.62207794189453 62.73651885986328 C 87.86351013183594 57.43720626831055 89.00000762939453 51.80620574951172 89.00000762939453 45.99993515014648 C 89.00000762939453 40.19366455078125 87.86351013183594 34.56264877319336 85.62207794189453 29.26333618164062 C 83.45648193359375 24.14329528808594 80.35560607910156 19.54439544677734 76.40559387207031 15.59437561035156 C 72.45558166503906 11.64437866210938 67.85668182373047 8.543502807617188 62.73662185668945 6.377906799316406 C 57.43730926513672 4.136489868164062 51.80629348754883 2.999992370605469 46.00000762939453 2.999992370605469 M 46.00000762939453 -7.62939453125e-06 C 71.40509033203125 -7.62939453125e-06 92.00000762939453 20.59486389160156 92.00000762939453 45.99993515014648 C 92.00000762939453 71.40499114990234 71.40509033203125 91.99986267089844 46.00000762939453 91.99986267089844 C 20.59490966796875 91.99986267089844 7.62939453125e-06 71.40499114990234 7.62939453125e-06 45.99993515014648 C 7.62939453125e-06 20.59486389160156 20.59490966796875 -7.62939453125e-06 46.00000762939453 -7.62939453125e-06 Z" stroke="none" fill="#ba9c5a"/>
                                            </g>
                                          </g>
                                        </g>
                                      </g>
                                    </g>
                                  </g>
                                </g>
                              </g>
                            </g>
                          </g>
                        </g>
                      </g>
                    </g>
                  </g>
                </g>
              </g>
            </g>
          </g>
        </g>
      </g>
    </g>
    <g id="lista-de-verificacion_4_" data-name="lista-de-verificacion (4)" transform="translate(465.226 4592.465)">
      <g id="Grupo_1219332" data-name="Grupo 1219332" transform="translate(39.786 0.896)">
        <path id="Trazado_1090192" data-name="Trazado 1090192" d="M88.872,66.876H48.322a1.931,1.931,0,0,1-1.931-1.931V9.431A1.931,1.931,0,0,1,48.322,7.5h40.55A1.931,1.931,0,0,1,90.8,9.431V64.946a1.931,1.931,0,0,1-1.931,1.931Z" transform="translate(-46.391 -7.5)" fill="#ecf4ff"/>
      </g>
      <g id="Grupo_1219333" data-name="Grupo 1219333" transform="translate(79.853 0.896)">
        <path id="Trazado_1090193" data-name="Trazado 1090193" d="M384.179,7.5h-2.414A1.931,1.931,0,0,1,383.7,9.431V64.946a1.931,1.931,0,0,1-1.931,1.931h2.414a1.931,1.931,0,0,0,1.931-1.931V9.431A1.931,1.931,0,0,0,384.179,7.5Z" transform="translate(-381.765 -7.5)" fill="#ddeafb"/>
      </g>
      <g id="Grupo_1219352" data-name="Grupo 1219352" transform="translate(44.493 8.62)">
        <g id="Grupo_1219339" data-name="Grupo 1219339" transform="translate(0)">
          <g id="Grupo_1219338" data-name="Grupo 1219338">
            <g id="Grupo_1219337" data-name="Grupo 1219337">
              <g id="Grupo_1219336" data-name="Grupo 1219336">
                <g id="Grupo_1219334" data-name="Grupo 1219334" transform="translate(0)">
                  <path id="Trazado_1090194" data-name="Trazado 1090194" d="M96.132,84.218h-8.62a1.724,1.724,0,0,1-1.724-1.724v-8.62a1.724,1.724,0,0,1,1.724-1.724h8.62a1.724,1.724,0,0,1,1.724,1.724v8.62A1.724,1.724,0,0,1,96.132,84.218Z" transform="translate(-85.788 -72.15)" fill="#b3e59f"/>
                </g>
                <g id="Grupo_1219335" data-name="Grupo 1219335" transform="translate(0 0.007)">
                  <path id="Trazado_1090195" data-name="Trazado 1090195" d="M96.277,72.212q.027.359.027.725a9.439,9.439,0,0,1-9.439,9.439,9.549,9.549,0,0,1-1.077-.062v.234a1.724,1.724,0,0,0,1.724,1.724h8.62a1.724,1.724,0,0,0,1.724-1.724v-8.62A1.723,1.723,0,0,0,96.277,72.212Z" transform="translate(-85.788 -72.212)" fill="#95d6a4"/>
                </g>
              </g>
            </g>
          </g>
        </g>
        <g id="Grupo_1219345" data-name="Grupo 1219345" transform="translate(0 15.93)">
          <g id="Grupo_1219344" data-name="Grupo 1219344">
            <g id="Grupo_1219343" data-name="Grupo 1219343">
              <g id="Grupo_1219342" data-name="Grupo 1219342">
                <g id="Grupo_1219340" data-name="Grupo 1219340" transform="translate(0)">
                  <path id="Trazado_1090196" data-name="Trazado 1090196" d="M96.132,217.56h-8.62a1.724,1.724,0,0,1-1.724-1.724v-8.62a1.724,1.724,0,0,1,1.724-1.724h8.62a1.724,1.724,0,0,1,1.724,1.724v8.62A1.724,1.724,0,0,1,96.132,217.56Z" transform="translate(-85.788 -205.492)" fill="#b3e59f"/>
                </g>
                <g id="Grupo_1219341" data-name="Grupo 1219341" transform="translate(0 0.007)">
                  <path id="Trazado_1090197" data-name="Trazado 1090197" d="M96.277,205.553q.027.359.027.725a9.44,9.44,0,0,1-10.517,9.378v.234a1.724,1.724,0,0,0,1.724,1.724h8.62a1.724,1.724,0,0,0,1.724-1.724v-8.62A1.723,1.723,0,0,0,96.277,205.553Z" transform="translate(-85.788 -205.553)" fill="#95d6a4"/>
                </g>
              </g>
            </g>
          </g>
        </g>
        <g id="Grupo_1219351" data-name="Grupo 1219351" transform="translate(0 31.861)">
          <g id="Grupo_1219350" data-name="Grupo 1219350">
            <g id="Grupo_1219349" data-name="Grupo 1219349">
              <g id="Grupo_1219348" data-name="Grupo 1219348">
                <g id="Grupo_1219346" data-name="Grupo 1219346" transform="translate(0)">
                  <path id="Trazado_1090198" data-name="Trazado 1090198" d="M96.132,350.9h-8.62a1.724,1.724,0,0,1-1.724-1.724v-8.62a1.724,1.724,0,0,1,1.724-1.724h8.62a1.724,1.724,0,0,1,1.724,1.724v8.62A1.724,1.724,0,0,1,96.132,350.9Z" transform="translate(-85.788 -338.834)" fill="#b3e59f"/>
                </g>
                <g id="Grupo_1219347" data-name="Grupo 1219347" transform="translate(0 0.007)">
                  <path id="Trazado_1090199" data-name="Trazado 1090199" d="M96.277,338.895q.027.359.027.725A9.44,9.44,0,0,1,85.788,349v.234a1.724,1.724,0,0,0,1.724,1.724h8.62a1.724,1.724,0,0,0,1.724-1.724v-8.62A1.723,1.723,0,0,0,96.277,338.895Z" transform="translate(-85.788 -338.895)" fill="#95d6a4"/>
                </g>
              </g>
            </g>
          </g>
        </g>
      </g>
      <g id="Grupo_1219357" data-name="Grupo 1219357" transform="translate(70.331 29.383)">
        <g id="Grupo_1219353" data-name="Grupo 1219353" transform="translate(0)">
          <path id="Trazado_1090200" data-name="Trazado 1090200" d="M304.633,275.856l-2.258.98-.28-2.446a4.828,4.828,0,0,1,.615-2.963l14.711-25.481,4.181,2.414-14.711,25.481a4.827,4.827,0,0,1-2.258,2.014Z" transform="translate(-302.064 -245.947)" fill="#4a80aa"/>
        </g>
        <g id="Grupo_1219354" data-name="Grupo 1219354" transform="translate(0.104 1.328)">
          <path id="Trazado_1090201" data-name="Trazado 1090201" d="M320.486,257.059,305.774,282.54a4.827,4.827,0,0,1-2.258,2.014l-.584.254.208,1.813,2.258-.98a4.828,4.828,0,0,0,2.258-2.014l14.711-25.481Z" transform="translate(-302.932 -257.059)" fill="#407093"/>
        </g>
        <g id="Grupo_1219355" data-name="Grupo 1219355" transform="translate(11.254 3.764)">
          <path id="Trazado_1090202" data-name="Trazado 1090202" d="M0,0H3.862V4.827H0Z" transform="matrix(0.5, -0.866, 0.866, 0.5, 0, 3.344)" fill="#ffe07d"/>
        </g>
        <g id="Grupo_1219356" data-name="Grupo 1219356" transform="translate(13.553 5.092)">
          <path id="Trazado_1090203" data-name="Trazado 1090203" d="M0,0H3.862V2.172H0Z" transform="matrix(0.5, -0.866, 0.866, 0.5, 0, 3.344)" fill="#ffd064"/>
        </g>
      </g>
      <g id="Grupo_1219358" data-name="Grupo 1219358" transform="translate(38.89 0)">
        <path id="Trazado_1090204" data-name="Trazado 1090204" d="M39.786,49.263a.9.9,0,0,0,.9-.9V2.827a1.036,1.036,0,0,1,1.035-1.035h40.55A1.036,1.036,0,0,1,83.3,2.827v9.5a.9.9,0,1,0,1.792,0v-9.5A2.83,2.83,0,0,0,82.267,0H41.717A2.83,2.83,0,0,0,38.89,2.827V48.367A.9.9,0,0,0,39.786,49.263Z" transform="translate(-38.89 0)"/>
        <path id="Trazado_1090205" data-name="Trazado 1090205" d="M92.148,67.27a2.623,2.623,0,0,0-2.62-2.62h-8.62a2.623,2.623,0,0,0-2.62,2.62v8.62a2.623,2.623,0,0,0,2.62,2.62h8.62a2.623,2.623,0,0,0,2.62-2.62Zm-1.792,8.62a.829.829,0,0,1-.828.828h-8.62a.829.829,0,0,1-.828-.828V67.27a.829.829,0,0,1,.828-.828h8.62a.829.829,0,0,1,.828.828Z" transform="translate(-73.58 -56.926)"/>
        <path id="Trazado_1090206" data-name="Trazado 1090206" d="M115.462,102.626l-2.424,2.424-.9-.9a.9.9,0,1,0-1.267,1.267l1.529,1.529a.9.9,0,0,0,1.267,0l3.057-3.057a.9.9,0,0,0-1.267-1.267Z" transform="translate(-102.044 -90.135)"/>
        <path id="Trazado_1090207" data-name="Trazado 1090207" d="M226.667,114.931h14.12a.9.9,0,1,0,0-1.792h-14.12a.9.9,0,1,0,0,1.792Z" transform="translate(-203.444 -99.622)"/>
        <path id="Trazado_1090208" data-name="Trazado 1090208" d="M308.978,80.813h-8.569a.9.9,0,1,0,0,1.792h8.569a.9.9,0,1,0,0-1.792Z" transform="translate(-268.376 -71.158)"/>
        <path id="Trazado_1090209" data-name="Trazado 1090209" d="M226.667,82.605h4.586a.9.9,0,1,0,0-1.792h-4.586a.9.9,0,1,0,0,1.792Z" transform="translate(-203.444 -71.158)"/>
        <path id="Trazado_1090210" data-name="Trazado 1090210" d="M272.124,145.464a.9.9,0,0,0,0,1.792h4.707a.9.9,0,0,0,0-1.792Z" transform="translate(-243.471 -128.085)"/>
        <path id="Trazado_1090211" data-name="Trazado 1090211" d="M226.667,147.256h1.207a.9.9,0,0,0,0-1.792h-1.207a.9.9,0,0,0,0,1.792Z" transform="translate(-203.444 -128.085)"/>
        <path id="Trazado_1090212" data-name="Trazado 1090212" d="M92.148,200.612a2.623,2.623,0,0,0-2.62-2.62h-8.62a2.623,2.623,0,0,0-2.62,2.62v8.62a2.623,2.623,0,0,0,2.62,2.62h8.62a2.623,2.623,0,0,0,2.62-2.62Zm-1.792,8.62a.829.829,0,0,1-.828.828h-8.62a.829.829,0,0,1-.828-.828v-8.62a.829.829,0,0,1,.828-.828h8.62a.829.829,0,0,1,.828.828Z" transform="translate(-73.58 -174.338)"/>
        <path id="Trazado_1090213" data-name="Trazado 1090213" d="M115.462,235.968l-2.424,2.424-.9-.9a.9.9,0,0,0-1.267,1.267l1.529,1.529a.9.9,0,0,0,1.267,0l3.057-3.057a.9.9,0,0,0-1.267-1.267Z" transform="translate(-102.044 -207.546)"/>
        <path id="Trazado_1090214" data-name="Trazado 1090214" d="M241.683,247.375a.9.9,0,0,0-.9-.9h-14.12a.9.9,0,1,0,0,1.792h14.12A.9.9,0,0,0,241.683,247.375Z" transform="translate(-203.444 -217.032)"/>
        <path id="Trazado_1090215" data-name="Trazado 1090215" d="M309.874,215.05a.9.9,0,0,0-.9-.9h-8.569a.9.9,0,1,0,0,1.792h8.569A.9.9,0,0,0,309.874,215.05Z" transform="translate(-268.376 -188.569)"/>
        <path id="Trazado_1090216" data-name="Trazado 1090216" d="M226.667,215.946h4.586a.9.9,0,1,0,0-1.792h-4.586a.9.9,0,0,0,0,1.792Z" transform="translate(-203.444 -188.569)"/>
        <path id="Trazado_1090217" data-name="Trazado 1090217" d="M277.728,279.7a.9.9,0,0,0-.9-.9h-4.707a.9.9,0,0,0,0,1.792h4.707A.9.9,0,0,0,277.728,279.7Z" transform="translate(-243.472 -245.496)"/>
        <path id="Trazado_1090218" data-name="Trazado 1090218" d="M226.667,280.6h1.207a.9.9,0,1,0,0-1.792h-1.207a.9.9,0,0,0,0,1.792Z" transform="translate(-203.444 -245.496)"/>
        <path id="Trazado_1090219" data-name="Trazado 1090219" d="M89.527,331.333h-8.62a2.623,2.623,0,0,0-2.62,2.62v8.62a2.623,2.623,0,0,0,2.62,2.62h8.62a2.623,2.623,0,0,0,2.62-2.62v-8.62A2.623,2.623,0,0,0,89.527,331.333Zm.828,11.24a.829.829,0,0,1-.828.828h-8.62a.829.829,0,0,1-.828-.828v-8.62a.829.829,0,0,1,.828-.828h8.62a.829.829,0,0,1,.828.828Z" transform="translate(-73.58 -291.749)"/>
        <path id="Trazado_1090220" data-name="Trazado 1090220" d="M115.462,369.308l-2.424,2.424-.9-.9a.9.9,0,0,0-1.267,1.267l1.529,1.529a.9.9,0,0,0,1.267,0l3.057-3.057a.9.9,0,0,0-1.267-1.267Z" transform="translate(-102.044 -324.956)"/>
        <path id="Trazado_1090221" data-name="Trazado 1090221" d="M226.667,349.288h4.586a.9.9,0,1,0,0-1.792h-4.586a.9.9,0,1,0,0,1.792Z" transform="translate(-203.444 -305.981)"/>
        <path id="Trazado_1090222" data-name="Trazado 1090222" d="M227.874,413.938a.9.9,0,0,0,0-1.792h-1.207a.9.9,0,0,0,0,1.792Z" transform="translate(-203.444 -362.907)"/>
        <path id="Trazado_1090223" data-name="Trazado 1090223" d="M90.736,146.6a.9.9,0,0,0-.418-.544l-4.18-2.413a.9.9,0,0,0-1.044.107V131.536a.9.9,0,0,0-1.792,0v15.225l-5.651,9.788H70.922a.9.9,0,0,0,0,1.792h5.694l-1.195,2.069H62.113a.9.9,0,1,0,0,1.792H74.387l-1.2,2.07H67.543a.9.9,0,1,0,0,1.792h4.613L70.2,169.449a5.679,5.679,0,0,0-.729,3.513l.166,1.448H41.717a1.036,1.036,0,0,1-1.035-1.035v-5.793a.9.9,0,1,0-1.792,0v5.793a2.83,2.83,0,0,0,2.827,2.827h40.55a2.83,2.83,0,0,0,2.827-2.827v-16.48l5.552-9.617a.9.9,0,0,0,.089-.68Zm-5.3,6.115L82.811,151.2l1.035-1.793,2.628,1.517ZM83.3,173.374a1.036,1.036,0,0,1-1.035,1.035H74.493a5.749,5.749,0,0,0,1.441-1.651l3.505-6.07a.9.9,0,1,0-1.552-.9l-3.505,6.07a3.96,3.96,0,0,1-1.839,1.64L71.4,174l-.142-1.244a3.9,3.9,0,0,1,.5-2.412l10.16-17.6,2.628,1.518-4.564,7.906a.9.9,0,0,0,1.552.9L83.3,160v13.375Zm4.068-24.006-2.628-1.517,1.276-2.211,2.628,1.517Z" transform="translate(-38.89 -115.033)"/>
      </g>
    </g>
  </g>
</svg>
