<svg xmlns="http://www.w3.org/2000/svg" xmlns:xlink="http://www.w3.org/1999/xlink" width="93.934" height="93.934" viewBox="0 0 93.934 93.934">
  <defs>
    <filter id="Trazado_982547" x="0" y="0" width="93.934" height="93.934" filterUnits="userSpaceOnUse">
      <feOffset dy="3" input="SourceAlpha"/>
      <feGaussianBlur stdDeviation="3" result="blur"/>
      <feFlood flood-opacity="0.161"/>
      <feComposite operator="in" in2="blur"/>
      <feComposite in="SourceGraphic"/>
    </filter>
  </defs>
  <g id="Grupo_1219540" data-name="Grupo 1219540" transform="translate(-191.066 -8383.033)">
    <g id="Grupo_1219297" data-name="Grupo 1219297" transform="translate(-0.229 4661.033)">
      <g id="Grupo_1214594" data-name="Grupo 1214594" transform="translate(0 -1406)">
        <g id="Grupo_1214432" data-name="Grupo 1214432" transform="translate(-0.771 -2738.674)">
          <g id="Grupo_1183196" data-name="Grupo 1183196" transform="translate(1 1016.674)">
            <g id="Grupo_1179610" data-name="Grupo 1179610" transform="translate(8 4723.467)">
              <g id="Grupo_1175227" data-name="Grupo 1175227" transform="translate(-5.967 140.533)">
                <g id="Grupo_1167337" data-name="Grupo 1167337" transform="translate(198.033 1992)">
                  <g id="Grupo_1166720" data-name="Grupo 1166720">
                    <g id="Grupo_1164305" data-name="Grupo 1164305">
                      <g id="Grupo_1163948" data-name="Grupo 1163948">
                        <g id="Grupo_1158168" data-name="Grupo 1158168">
                          <g id="Grupo_1152576" data-name="Grupo 1152576">
                            <g id="Grupo_1148633" data-name="Grupo 1148633">
                              <g id="Grupo_1148525" data-name="Grupo 1148525">
                                <g transform="matrix(1, 0, 0, 1, -9, -6)" filter="url(#Trazado_982547)">
                                  <g id="Trazado_982547-2" data-name="Trazado 982547" transform="translate(9 6)" fill="#f7f4ed">
                                    <path d="M 37.966796875 74.43359375 C 33.04315185546875 74.43359375 28.26757431030273 73.46962738037109 23.77274131774902 71.56847381591797 C 19.43047523498535 69.73184967041016 15.53040790557861 67.10224914550781 12.18087482452393 63.75271987915039 C 8.831341743469238 60.4031867980957 6.201741218566895 56.50312042236328 4.365118980407715 52.16086196899414 C 2.463963508605957 47.66601943969727 1.499996900558472 42.89044189453125 1.499996900558472 37.966796875 C 1.499996900558472 33.04315185546875 2.463963508605957 28.26757431030273 4.365118980407715 23.77274131774902 C 6.201741218566895 19.43047523498535 8.831341743469238 15.53040790557861 12.18087482452393 12.18087482452393 C 15.53040790557861 8.831341743469238 19.43047523498535 6.201741218566895 23.77274131774902 4.365118980407715 C 28.26757431030273 2.463963508605957 33.04315185546875 1.499996900558472 37.966796875 1.499996900558472 C 42.89044189453125 1.499996900558472 47.66601943969727 2.463963508605957 52.16086196899414 4.365118980407715 C 56.50312042236328 6.201741218566895 60.4031867980957 8.831341743469238 63.75271987915039 12.18087482452393 C 67.10224914550781 15.53040790557861 69.73184967041016 19.43047523498535 71.56847381591797 23.77274131774902 C 73.46962738037109 28.26757431030273 74.43359375 33.04315185546875 74.43359375 37.966796875 C 74.43359375 42.89044189453125 73.46962738037109 47.66601943969727 71.56847381591797 52.16086196899414 C 69.73184967041016 56.50313186645508 67.10224914550781 60.4031867980957 63.75271987915039 63.75271987915039 C 60.4031867980957 67.10224914550781 56.50313186645508 69.73184967041016 52.16086196899414 71.56847381591797 C 47.66601943969727 73.46962738037109 42.89044189453125 74.43359375 37.966796875 74.43359375 Z" stroke="none"/>
                                    <path d="M 37.966796875 3 C 33.2449836730957 3 28.66600799560547 3.924095153808594 24.35705947875977 5.746635437011719 C 20.19359588623047 7.507637023925781 16.45379638671875 10.02928161621094 13.24153518676758 13.24153518676758 C 10.02927398681641 16.45379638671875 7.507621765136719 20.19359588623047 5.746635437011719 24.35705947875977 C 3.924095153808594 28.66600799560547 3 33.2449836730957 3 37.966796875 C 3 42.6886100769043 3.924095153808594 47.26758575439453 5.746635437011719 51.57653427124023 C 7.507621765136719 55.73999786376953 10.02927398681641 59.47979736328125 13.24153518676758 62.69205856323242 C 16.45379638671875 65.90431976318359 20.19359588623047 68.42597198486328 24.35705947875977 70.18695831298828 C 28.66600799560547 72.00949859619141 33.2449836730957 72.93359375 37.966796875 72.93359375 C 42.6886100769043 72.93359375 47.26758575439453 72.00949859619141 51.57653427124023 70.18695831298828 C 55.73999786376953 68.42597198486328 59.47979736328125 65.90431976318359 62.69205856323242 62.69205856323242 C 65.90431976318359 59.47979736328125 68.42597198486328 55.73999786376953 70.18695831298828 51.57653427124023 C 72.00949859619141 47.26758575439453 72.93359375 42.6886100769043 72.93359375 37.966796875 C 72.93359375 33.2449836730957 72.00949859619141 28.66600799560547 70.18695831298828 24.35705947875977 C 68.42597198486328 20.19359588623047 65.90431976318359 16.45379638671875 62.69205856323242 13.24153518676758 C 59.47979736328125 10.02928161621094 55.73999786376953 7.507637023925781 51.57653427124023 5.746635437011719 C 47.26758575439453 3.924095153808594 42.6886100769043 3 37.966796875 3 M 37.966796875 0 C 58.93528366088867 0 75.93359375 16.99832153320312 75.93359375 37.966796875 C 75.93359375 58.93528366088867 58.93528366088867 75.93359375 37.966796875 75.93359375 C 16.99831008911133 75.93359375 0 58.93528366088867 0 37.966796875 C 0 16.99832153320312 16.99831008911133 0 37.966796875 0 Z" stroke="none" fill="#847625"/>
                                  </g>
                                </g>
                              </g>
                            </g>
                          </g>
                        </g>
                      </g>
                    </g>
                  </g>
                </g>
              </g>
            </g>
          </g>
        </g>
      </g>
    </g>
    <g id="rutina" transform="translate(195.323 8393.455)">
      <g id="Grupo_1219539" data-name="Grupo 1219539" transform="translate(19.033 8.814)">
        <g id="Grupo_1219537" data-name="Grupo 1219537" transform="translate(0 0)">
          <path id="Trazado_1091987" data-name="Trazado 1091987" d="M55.609,49.117A1.8,1.8,0,0,1,57.4,50.91V83.9A1.8,1.8,0,0,1,55.609,85.7H28A1.8,1.8,0,0,1,26.2,83.9V50.91A1.8,1.8,0,0,1,28,49.117H55.609Z" transform="translate(-26.203 -45.702)" fill="#837683" fill-rule="evenodd"/>
          <path id="Trazado_1091988" data-name="Trazado 1091988" d="M289.151,85.7h2.314a1.8,1.8,0,0,0,1.793-1.793V50.911a1.8,1.8,0,0,0-1.793-1.793h-2.314Z" transform="translate(-262.059 -45.703)" fill="#685e68" fill-rule="evenodd"/>
          <path id="Trazado_1091989" data-name="Trazado 1091989" d="M75.816,73.328h-24.6a.808.808,0,0,0-.806.806v29.977a.808.808,0,0,0,.806.806h24.6a.808.808,0,0,0,.806-.806V74.134A.808.808,0,0,0,75.816,73.328Z" transform="translate(-47.918 -67.419)" fill="#eceff1" fill-rule="evenodd"/>
          <path id="Trazado_1091990" data-name="Trazado 1091990" d="M289.151,104.917h.806q.038,0,.075,0a.808.808,0,0,0,.731-.8V74.133a.808.808,0,0,0-.731-.8c-.025,0-.05,0-.075,0h-.806Z" transform="translate(-262.059 -67.418)" fill="#d1d1d6" fill-rule="evenodd"/>
          <path id="Trazado_1091991" data-name="Trazado 1091991" d="M111.412,18.306h2.556a.792.792,0,0,0,.74-.487,3.049,3.049,0,0,1,5.6,0,.792.792,0,0,0,.74.487h2.556a.808.808,0,0,1,.806.806v3.049a.808.808,0,0,1-.806.806H111.412a.808.808,0,0,1-.806-.806V19.112A.808.808,0,0,1,111.412,18.306Z" transform="translate(-101.91 -15.975)" fill="#e3a76f" fill-rule="evenodd"/>
          <path id="Trazado_1091992" data-name="Trazado 1091992" d="M122.8,42.454H110.606a.808.808,0,0,0,.806.806h12.194a.808.808,0,0,0,.806-.806V39.4a.808.808,0,0,0-.806-.806v3.049a.808.808,0,0,1-.806.806Z" transform="translate(-101.91 -36.267)" fill="#c48958" fill-rule="evenodd"/>
          <path id="Trazado_1091993" data-name="Trazado 1091993" d="M92.378,289.851H95.4a1,1,0,0,1,1,1v3.024a1,1,0,0,1-1,1H92.378a1,1,0,0,1-1-1v-3.024A1,1,0,0,1,92.378,289.851Z" transform="translate(-84.665 -261.633)" fill="#ffe177" fill-rule="evenodd"/>
          <path id="Trazado_1091994" data-name="Trazado 1091994" d="M119.986,289.851h1.074a1,1,0,0,1,1,1v3.024a1,1,0,0,1-1,1h-1.074a1,1,0,0,0,1-1v-3.024A1,1,0,0,0,119.986,289.851Z" transform="translate(-110.323 -261.633)" fill="#ffd064" fill-rule="evenodd"/>
          <path id="Trazado_1091995" data-name="Trazado 1091995" d="M92.378,207.535H95.4a1,1,0,0,1,1,1v3.024a1,1,0,0,1-1,1H92.378a1,1,0,0,1-1-1v-3.024A1,1,0,0,1,92.378,207.535Z" transform="translate(-84.665 -187.798)" fill="#6cf5c2" fill-rule="evenodd"/>
          <path id="Trazado_1091996" data-name="Trazado 1091996" d="M119.986,207.535h1.074a1,1,0,0,1,1,1v3.024a1,1,0,0,1-1,1h-1.074a1,1,0,0,0,1-1v-3.024a1,1,0,0,0-1-1Z" transform="translate(-110.323 -187.798)" fill="#00e499" fill-rule="evenodd"/>
          <path id="Trazado_1091997" data-name="Trazado 1091997" d="M92.378,125.219H95.4a1,1,0,0,1,1,1v3.024a1,1,0,0,1-1,1H92.378a1,1,0,0,1-1-1v-3.024A1,1,0,0,1,92.378,125.219Z" transform="translate(-84.665 -113.963)" fill="#8ac9fe" fill-rule="evenodd"/>
          <path id="Trazado_1091998" data-name="Trazado 1091998" d="M119.986,125.219h1.074a1,1,0,0,1,1,1v3.024a1,1,0,0,1-1,1h-1.074a1,1,0,0,0,1-1v-3.024A1,1,0,0,0,119.986,125.219Z" transform="translate(-110.323 -113.963)" fill="#60b7ff" fill-rule="evenodd"/>
        </g>
        <g id="Grupo_1219538" data-name="Grupo 1219538" transform="translate(22.095 24.198)">
          <path id="Trazado_1091999" data-name="Trazado 1091999" d="M252.84,252.515a8.675,8.675,0,0,1,2.539,1.053l1.65-.733,1.945,1.945-.733,1.65a8.67,8.67,0,0,1,1.053,2.54l1.683.648v2.75l-1.684.648a8.675,8.675,0,0,1-1.053,2.539l.733,1.65-1.945,1.945-1.65-.733a8.672,8.672,0,0,1-2.54,1.053l-.648,1.683h-2.75l-.648-1.684a8.672,8.672,0,0,1-2.539-1.053l-1.65.733L242.66,267.2l.733-1.65a8.67,8.67,0,0,1-1.053-2.54l-1.683-.648v-2.75l1.684-.648a8.67,8.67,0,0,1,1.053-2.54l-.733-1.65,1.945-1.945,1.65.733a8.671,8.671,0,0,1,2.539-1.053l.648-1.684h2.75Z" transform="translate(-240.656 -250.831)" fill="#ffe177" fill-rule="evenodd"/>
          <path id="Trazado_1092000" data-name="Trazado 1092000" d="M278.417,268.417l-1.65.733-.254-.254,1.547-.687Q278.236,268.318,278.417,268.417Zm6.586-15.9a8.675,8.675,0,0,1,2.539,1.053l-.469.208a11.436,11.436,0,0,0-2.9-1.261l-.648-1.684h.826Zm2.54,15.9a8.673,8.673,0,0,1-2.54,1.053l-.648,1.683h-.826l.648-1.683a11.433,11.433,0,0,0,2.9-1.261Zm-11.03-15.328.254-.254,1.65.733q-.181.1-.357.208Zm12.107,0,.572-.254,1.945,1.945-.733,1.65a8.67,8.67,0,0,1,1.053,2.54l1.683.648v2.75l-1.684.648a8.675,8.675,0,0,1-1.053,2.539l.733,1.65-1.945,1.945-.572-.254,1.691-1.691-.733-1.65a8.672,8.672,0,0,0,1.053-2.539l1.684-.648v-2.75l-1.683-.648a8.671,8.671,0,0,0-1.053-2.54l.733-1.65Z" transform="translate(-272.819 -250.832)" fill="#ffd064" fill-rule="evenodd"/>
          <circle id="Elipse_12043" data-name="Elipse 12043" cx="4.796" cy="4.796" r="4.796" transform="translate(3.372 10.161) rotate(-45)" fill="#eceff1"/>
          <path id="Trazado_1092001" data-name="Trazado 1092001" d="M297.522,302.9a4.8,4.8,0,1,0,0,9.592q.193,0,.382-.015a4.8,4.8,0,0,1,0-9.562C297.778,302.907,297.651,302.9,297.522,302.9Z" transform="translate(-287.361 -297.537)" fill="#d1d1d6" fill-rule="evenodd"/>
        </g>
      </g>
      <path id="Trazado_1092002" data-name="Trazado 1092002" d="M55.261,43.174a3.972,3.972,0,1,0-3.972,3.972A3.975,3.975,0,0,0,55.261,43.174Zm1.649,0a5.621,5.621,0,1,1-5.621-5.621A5.628,5.628,0,0,1,56.91,43.174Zm3.715.809-1.154.445a.825.825,0,0,0-.5.578,7.8,7.8,0,0,1-.955,2.3.826.826,0,0,0-.049.767l.5,1.132-1.14,1.144-1.135-.5a.823.823,0,0,0-.766.052,7.856,7.856,0,0,1-2.3.952.817.817,0,0,0-.577.506L52.1,52.51h-1.62l-.446-1.156a.817.817,0,0,0-.577-.506,7.859,7.859,0,0,1-2.3-.952.822.822,0,0,0-.766-.051l-1.13.5L44.116,49.2l.5-1.132a.826.826,0,0,0-.049-.767,7.8,7.8,0,0,1-.955-2.3.827.827,0,0,0-.5-.579l-1.154-.444V42.365l1.154-.444a.827.827,0,0,0,.5-.579,7.8,7.8,0,0,1,.955-2.3.826.826,0,0,0,.049-.767l-.5-1.133L45.261,36l1.13.5a.822.822,0,0,0,.766-.051,7.856,7.856,0,0,1,2.3-.952.817.817,0,0,0,.577-.506l.446-1.156H52.1l.446,1.156a.817.817,0,0,0,.577.506,7.856,7.856,0,0,1,2.3.952.822.822,0,0,0,.766.051l1.135-.5,1.14,1.144-.5,1.132a.826.826,0,0,0,.049.767,7.8,7.8,0,0,1,.955,2.3.827.827,0,0,0,.5.579l1.154.444Zm-.17,1.831a9.663,9.663,0,0,1-.815,1.973l.558,1.264a.818.818,0,0,1-.17.918l-1.945,1.945a.824.824,0,0,1-.917.171L55.9,51.523a9.489,9.489,0,0,1-1.969.818l-.5,1.289a.82.82,0,0,1-.766.528h-2.75a.822.822,0,0,1-.771-.528l-.5-1.29a9.489,9.489,0,0,1-1.969-.818l-1.266.562a.824.824,0,0,1-.917-.171L42.55,49.969a.818.818,0,0,1-.17-.918l.558-1.264a9.393,9.393,0,0,1-.815-1.973l-1.29-.5a.823.823,0,0,1-.529-.77V41.8a.823.823,0,0,1,.529-.77l1.29-.5a9.662,9.662,0,0,1,.815-1.972L42.38,37.3a.818.818,0,0,1,.17-.917l1.945-1.945a.824.824,0,0,1,.917-.171l1.266.562a9.484,9.484,0,0,1,1.969-.818l.5-1.29a.822.822,0,0,1,.771-.528h2.75a.82.82,0,0,1,.766.528l.5,1.29a9.484,9.484,0,0,1,1.969.818l1.266-.562a.824.824,0,0,1,.917.171l1.945,1.945a.818.818,0,0,1,.17.917L59.64,38.56a9.4,9.4,0,0,1,.815,1.973l1.29.5a.823.823,0,0,1,.529.77v2.75a.823.823,0,0,1-.529.77ZM48.563,14.725V27.484q.422-.073.844-.123V14.024a.971.971,0,0,0-.97-.968H42.361V13.9h5.378A.827.827,0,0,1,48.563,14.725Zm-7.851-2.754H37.594a.824.824,0,0,1-.8-.631,2.223,2.223,0,0,0-4.321,0,.829.829,0,0,1-.8.631H28.554v3.013H40.712ZM26.905,13.9H21.527a.824.824,0,0,0-.824.824V46.314a.824.824,0,0,0,.824.824h14.34c.073.285.155.566.243.846H20.824a.967.967,0,0,1-.965-.969V14.024a.967.967,0,0,1,.965-.968h6.081ZM65.949,52.321a.825.825,0,0,1-.567,1.019L62.7,54.1a.814.814,0,0,1-.228.032.824.824,0,0,1-.824-.794l-.1-2.784A.823.823,0,1,1,63.2,50.5l.019.51A14.275,14.275,0,0,0,44.112,30.832a.824.824,0,0,1-.829-1.425,15.91,15.91,0,0,1,3.632-1.546V15.549H42.361v.259a.824.824,0,0,1-.824.824H27.73a.824.824,0,0,1-.824-.824v-.259H22.351V45.49H35.537a15.552,15.552,0,0,1-.155-1.651,16.143,16.143,0,0,1,.019-1.679h-.31a.824.824,0,1,1,0-1.648h.5a15.518,15.518,0,0,1,.456-1.937h-.955a.824.824,0,1,1,0-1.648h1.552a15.524,15.524,0,0,1,1.285-2.411l-.281.08a.824.824,0,1,1-.451-1.585l2.677-.764a.825.825,0,0,1,1.052.763l.1,2.784a.829.829,0,0,1-.8.854H40.2a.822.822,0,0,1-.824-.795l-.019-.518A14.254,14.254,0,0,0,38.006,37.9a.9.9,0,0,1-.107.278,14.3,14.3,0,0,0-.781,3.045.809.809,0,0,1,.01.109.788.788,0,0,1-.058.3A14.3,14.3,0,0,0,58.462,55.517a.825.825,0,0,1,.834,1.424,15.947,15.947,0,0,1-22.565-7.308H20.824a2.619,2.619,0,0,1-2.614-2.617V14.024a2.619,2.619,0,0,1,2.614-2.617h6.081v-.259a.824.824,0,0,1,.824-.824h3.346a3.876,3.876,0,0,1,7.109,0h3.351a.824.824,0,0,1,.824.824v.259h6.077a2.62,2.62,0,0,1,2.619,2.617V27.253a15.929,15.929,0,0,1,13.6,24.581l.276-.08a.825.825,0,0,1,1.018.566ZM34.631,10.509a.806.806,0,1,1-.8.806A.81.81,0,0,1,34.631,10.509ZM29.941,38.031a.174.174,0,0,0-.17-.174H26.745a.178.178,0,0,0-.175.174v3.023a.178.178,0,0,0,.175.174h3.026a.174.174,0,0,0,.17-.174V38.031Zm1.649,0a1.822,1.822,0,0,0-1.819-1.822H26.745a1.822,1.822,0,0,0-1.819,1.822v3.023a1.822,1.822,0,0,0,1.819,1.822h3.026a1.822,1.822,0,0,0,1.819-1.822ZM29.941,29.55a.174.174,0,0,0-.17-.174H26.745a.178.178,0,0,0-.175.174v3.024a.178.178,0,0,0,.175.174h3.026a.174.174,0,0,0,.17-.174V29.55Zm1.649,3.024V29.55a1.822,1.822,0,0,0-1.819-1.822H26.745a1.822,1.822,0,0,0-1.819,1.822v3.024A1.822,1.822,0,0,0,26.745,34.4h3.026a1.822,1.822,0,0,0,1.819-1.822Zm-1.649-11.5a.173.173,0,0,0-.17-.173H26.745a.178.178,0,0,0-.175.173v3.024a.178.178,0,0,0,.175.174h3.026a.174.174,0,0,0,.17-.174V21.069Zm1.649,3.024V21.069a1.822,1.822,0,0,0-1.819-1.822H26.745a1.822,1.822,0,0,0-1.819,1.822v3.024a1.822,1.822,0,0,0,1.819,1.822h3.026A1.822,1.822,0,0,0,31.59,24.093Zm3.5,7.937a.824.824,0,0,0,0,1.649h.766a.824.824,0,0,0,0-1.649Zm7.473-2.761a.824.824,0,0,0-.824-.824H35.091a.824.824,0,1,0,0,1.648H41.74a.824.824,0,0,0,.824-.824Zm-7.473-7.657a.824.824,0,1,1,0-1.648h8.424a.824.824,0,1,1,0,1.648Zm-.824,2.762a.824.824,0,0,1,.824-.824h8.424a.824.824,0,1,1,0,1.648H35.091A.824.824,0,0,1,34.267,24.374Z" fill="#242222" fill-rule="evenodd"/>
    </g>
  </g>
</svg>
