<svg xmlns="http://www.w3.org/2000/svg" xmlns:xlink="http://www.w3.org/1999/xlink" width="93.934" height="93.934" viewBox="0 0 93.934 93.934">
  <defs>
    <filter id="Trazado_982547" x="0" y="0" width="93.934" height="93.934" filterUnits="userSpaceOnUse">
      <feOffset dy="3" input="SourceAlpha"/>
      <feGaussianBlur stdDeviation="3" result="blur"/>
      <feFlood flood-opacity="0.161"/>
      <feComposite operator="in" in2="blur"/>
      <feComposite in="SourceGraphic"/>
    </filter>
  </defs>
  <g id="Grupo_1219542" data-name="Grupo 1219542" transform="translate(-611.066 -8383)">
    <g id="Grupo_1219298" data-name="Grupo 1219298" transform="translate(0 1145.965)">
      <g id="Grupo_1216284" data-name="Grupo 1216284" transform="translate(0 6194.186)">
        <g id="Grupo_1215982" data-name="Grupo 1215982" transform="translate(-0.229 -2679.151)">
          <g id="Grupo_1214640" data-name="Grupo 1214640" transform="translate(0 -1406)">
            <g id="Grupo_1214433" data-name="Grupo 1214433" transform="translate(-0.771 -2738.674)">
              <g id="Grupo_1183190" data-name="Grupo 1183190" transform="translate(1 1016.674)">
                <g id="Grupo_1179611" data-name="Grupo 1179611" transform="translate(428 4723.467)">
                  <g id="Grupo_1175227" data-name="Grupo 1175227" transform="translate(-5.967 140.533)">
                    <g id="Grupo_1167337" data-name="Grupo 1167337" transform="translate(198.033 1992)">
                      <g id="Grupo_1166720" data-name="Grupo 1166720">
                        <g id="Grupo_1164305" data-name="Grupo 1164305">
                          <g id="Grupo_1163948" data-name="Grupo 1163948">
                            <g id="Grupo_1158168" data-name="Grupo 1158168">
                              <g id="Grupo_1152576" data-name="Grupo 1152576">
                                <g id="Grupo_1148633" data-name="Grupo 1148633">
                                  <g id="Grupo_1148525" data-name="Grupo 1148525">
                                    <g transform="matrix(1, 0, 0, 1, -9, -6)" filter="url(#Trazado_982547)">
                                      <g id="Trazado_982547-2" data-name="Trazado 982547" transform="translate(9 6)" fill="#f7f4ed">
                                        <path d="M 37.966796875 74.43359375 C 33.04315185546875 74.43359375 28.26757431030273 73.46962738037109 23.77274131774902 71.56847381591797 C 19.43047523498535 69.73184967041016 15.53040790557861 67.10224914550781 12.18087482452393 63.75271987915039 C 8.831341743469238 60.4031867980957 6.201741218566895 56.50312042236328 4.365118980407715 52.16086196899414 C 2.463963508605957 47.66601943969727 1.499996900558472 42.89044189453125 1.499996900558472 37.966796875 C 1.499996900558472 33.04315185546875 2.463963508605957 28.26757431030273 4.365118980407715 23.77274131774902 C 6.201741218566895 19.43047523498535 8.831341743469238 15.53040790557861 12.18087482452393 12.18087482452393 C 15.53040790557861 8.831341743469238 19.43047523498535 6.201741218566895 23.77274131774902 4.365118980407715 C 28.26757431030273 2.463963508605957 33.04315185546875 1.499996900558472 37.966796875 1.499996900558472 C 42.89044189453125 1.499996900558472 47.66601943969727 2.463963508605957 52.16086196899414 4.365118980407715 C 56.50312042236328 6.201741218566895 60.4031867980957 8.831341743469238 63.75271987915039 12.18087482452393 C 67.10224914550781 15.53040790557861 69.73184967041016 19.43047523498535 71.56847381591797 23.77274131774902 C 73.46962738037109 28.26757431030273 74.43359375 33.04315185546875 74.43359375 37.966796875 C 74.43359375 42.89044189453125 73.46962738037109 47.66601943969727 71.56847381591797 52.16086196899414 C 69.73184967041016 56.50313186645508 67.10224914550781 60.4031867980957 63.75271987915039 63.75271987915039 C 60.4031867980957 67.10224914550781 56.50313186645508 69.73184967041016 52.16086196899414 71.56847381591797 C 47.66601943969727 73.46962738037109 42.89044189453125 74.43359375 37.966796875 74.43359375 Z" stroke="none"/>
                                        <path d="M 37.966796875 3 C 33.2449836730957 3 28.66600799560547 3.924095153808594 24.35705947875977 5.746635437011719 C 20.19359588623047 7.507637023925781 16.45379638671875 10.02928161621094 13.24153518676758 13.24153518676758 C 10.02927398681641 16.45379638671875 7.507621765136719 20.19359588623047 5.746635437011719 24.35705947875977 C 3.924095153808594 28.66600799560547 3 33.2449836730957 3 37.966796875 C 3 42.6886100769043 3.924095153808594 47.26758575439453 5.746635437011719 51.57653427124023 C 7.507621765136719 55.73999786376953 10.02927398681641 59.47979736328125 13.24153518676758 62.69205856323242 C 16.45379638671875 65.90431976318359 20.19359588623047 68.42597198486328 24.35705947875977 70.18695831298828 C 28.66600799560547 72.00949859619141 33.2449836730957 72.93359375 37.966796875 72.93359375 C 42.6886100769043 72.93359375 47.26758575439453 72.00949859619141 51.57653427124023 70.18695831298828 C 55.73999786376953 68.42597198486328 59.47979736328125 65.90431976318359 62.69205856323242 62.69205856323242 C 65.90431976318359 59.47979736328125 68.42597198486328 55.73999786376953 70.18695831298828 51.57653427124023 C 72.00949859619141 47.26758575439453 72.93359375 42.6886100769043 72.93359375 37.966796875 C 72.93359375 33.2449836730957 72.00949859619141 28.66600799560547 70.18695831298828 24.35705947875977 C 68.42597198486328 20.19359588623047 65.90431976318359 16.45379638671875 62.69205856323242 13.24153518676758 C 59.47979736328125 10.02928161621094 55.73999786376953 7.507637023925781 51.57653427124023 5.746635437011719 C 47.26758575439453 3.924095153808594 42.6886100769043 3 37.966796875 3 M 37.966796875 0 C 58.93528366088867 0 75.93359375 16.99832153320312 75.93359375 37.966796875 C 75.93359375 58.93528366088867 58.93528366088867 75.93359375 37.966796875 75.93359375 C 16.99831008911133 75.93359375 0 58.93528366088867 0 37.966796875 C 0 16.99832153320312 16.99831008911133 0 37.966796875 0 Z" stroke="none" fill="#847625"/>
                                      </g>
                                    </g>
                                  </g>
                                </g>
                              </g>
                            </g>
                          </g>
                        </g>
                      </g>
                    </g>
                  </g>
                </g>
              </g>
            </g>
          </g>
        </g>
      </g>
    </g>
    <g id="extracto-de-cuenta" transform="translate(590.706 8387.324)">
      <g id="Grupo_1219541" data-name="Grupo 1219541" transform="translate(46.677 16)">
        <path id="Trazado_1092003" data-name="Trazado 1092003" d="M83.418,42.721l4.27,3.414a.63.63,0,0,1,.288.529v2.185a.63.63,0,0,1-.63.63h-1.72v1.813a.63.63,0,0,1-.63.63h-.343V57.5h.353a.63.63,0,0,1,.63.63v1.854h1.256a.63.63,0,0,1,.63.63v2.112a.63.63,0,0,1-.63.63h-20.4a.63.63,0,0,1-.63-.63v-.576H48.506a1.832,1.832,0,0,1-1.829-1.829V17.829A1.832,1.832,0,0,1,48.506,16H81.59a1.832,1.832,0,0,1,1.829,1.829Z" transform="translate(-46.677 -16)" fill-rule="evenodd"/>
        <path id="Trazado_1092004" data-name="Trazado 1092004" d="M77.214,57.651l10.6-8.477a.627.627,0,0,1,.793.008l5.063,4.048V29.344a.572.572,0,0,0-.568-.568H68.627V34.9a.631.631,0,0,1-1.155.349l-1.657-2.314L64.145,35.27A.631.631,0,0,1,63,34.9V28.776H60.021a.572.572,0,0,0-.568.568V71.833a.572.572,0,0,0,.568.569H77.38v-.275a.63.63,0,0,1,.63-.63h.9V69.642a.63.63,0,0,1,.63-.63h.353V63.438h-.362a.63.63,0,0,1-.63-.63V61H77.556a.63.63,0,0,1-.63-.63V58.18a.63.63,0,0,1,.288-.529ZM75.649,40.656a.63.63,0,0,1,0-1.26h13.3a.63.63,0,1,1,0,1.26Zm0,4.569a.63.63,0,0,1,0-1.26h13.3a.63.63,0,1,1,0,1.26Zm0,4.569a.63.63,0,0,1,0-1.26h8.889a.63.63,0,1,1,0,1.26ZM64.176,54.364a.63.63,0,1,1,0-1.26H79.2a.63.63,0,0,1,0,1.26Zm0,4.569a.63.63,0,1,1,0-1.26H74.792a.63.63,0,1,1,0,1.26Zm0,4.569a.63.63,0,1,1,0-1.26H75.649a.63.63,0,0,1,0,1.26Zm0,4.569a.63.63,0,1,1,0-1.26H76.564a.63.63,0,0,1,0,1.26Zm6.9-27.175a.628.628,0,1,1-1.123.561,1.531,1.531,0,0,0-.82-.694,2.27,2.27,0,0,0-1.313-.1,1.728,1.728,0,0,0-1.081.665.982.982,0,0,0-.166.769c.18.835,1.04.98,1.75,1.1,1.346.23,2.446.573,2.772,2.084a2.213,2.213,0,0,1-.358,1.739,3.025,3.025,0,0,1-1.888,1.194v1.141a.63.63,0,1,1-1.26,0v-1.11a3.437,3.437,0,0,1-.752-.2,2.782,2.782,0,0,1-1.475-1.3.628.628,0,1,1,1.123-.561,1.532,1.532,0,0,0,.82.694,2.269,2.269,0,0,0,1.313.1,1.729,1.729,0,0,0,1.081-.665.981.981,0,0,0,.166-.769c-.18-.837-1.041-.982-1.753-1.1-1.345-.229-2.444-.572-2.77-2.082a2.213,2.213,0,0,1,.358-1.739,2.909,2.909,0,0,1,1.5-1.087,3.528,3.528,0,0,1,.392-.107v-1.2a.63.63,0,0,1,1.26,0v1.17a3.437,3.437,0,0,1,.752.2A2.782,2.782,0,0,1,71.076,40.9Z" transform="translate(-58.193 -27.516)" fill="#fff" fill-rule="evenodd"/>
        <path id="Trazado_1092005" data-name="Trazado 1092005" d="M278.851,255.728l-8.861-7.084-8.861,7.084Zm-8.861-4.881a2.055,2.055,0,0,1,1.493.648,2.219,2.219,0,0,1,0,3.044,2.044,2.044,0,0,1-2.986,0,2.219,2.219,0,0,1,0-3.044A2.056,2.056,0,0,1,269.991,250.847Z" transform="translate(-239.974 -225.693)" fill="#b3b3b3" fill-rule="evenodd"/>
        <path id="Trazado_1092006" data-name="Trazado 1092006" d="M343.9,284.023a.8.8,0,0,0-1.164,0,.974.974,0,0,0,0,1.311.8.8,0,0,0,1.164,0A.975.975,0,0,0,343.9,284.023Z" transform="translate(-313.298 -257.355)" fill="#fff" fill-rule="evenodd"/>
      </g>
      <path id="Trazado_1092007" data-name="Trazado 1092007" d="M253.95,474.593h19.138v.851H253.95Z" transform="translate(-186.825 -413.352)" fill="gray"/>
      <path id="Trazado_1092008" data-name="Trazado 1092008" d="M269.445,449.414h4.229v1.224h-4.229Z" transform="translate(-200.792 -390.657)" fill="#b3b3b3"/>
      <path id="Trazado_1092009" data-name="Trazado 1092009" d="M316.114,365.875h4.744v-1.854a.63.63,0,0,1,.63-.63h.353v-5.574h-.362a.63.63,0,0,1-.63-.63v-1.813H316.1v1.813a.63.63,0,0,1-.63.63h-.343v5.574h.353a.63.63,0,0,1,.63.63Z" transform="translate(-241.971 -305.894)" fill="#fff" fill-rule="evenodd"/>
      <path id="Trazado_1092010" data-name="Trazado 1092010" d="M385.954,449.414h4.229v1.224h-4.229Z" transform="translate(-305.807 -390.657)" fill="#b3b3b3"/>
      <path id="Trazado_1092011" data-name="Trazado 1092011" d="M390.084,355.374h-4.229v1.183h4.229Z" transform="translate(-305.718 -305.894)" fill="#b3b3b3" fill-rule="evenodd"/>
      <path id="Trazado_1092012" data-name="Trazado 1092012" d="M273.574,355.374h-4.229v1.183h4.229Z" transform="translate(-200.702 -305.894)" fill="#b3b3b3" fill-rule="evenodd"/>
      <path id="Trazado_1092013" data-name="Trazado 1092013" d="M269.393,333.226H249.347v.925h20.046Z" transform="translate(-182.676 -285.931)" fill="gray" fill-rule="evenodd"/>
      <path id="Trazado_1092014" data-name="Trazado 1092014" d="M108.212,28.776v4.165l1.031-1.44a.631.631,0,0,1,1.033-.012l1.04,1.452V28.776Z" transform="translate(-55.465 -11.516)" fill="#f0cb48" fill-rule="evenodd"/>
      <path id="Trazado_1092015" data-name="Trazado 1092015" d="M279.407,380.14h2.264v5.574h-2.264Z" transform="translate(-209.771 -328.217)" fill="#e6e6e6"/>
      <path id="Trazado_1092016" data-name="Trazado 1092016" d="M395.917,380.14h2.264v5.574h-2.264Z" transform="translate(-314.787 -328.217)" fill="#e6e6e6"/>
    </g>
  </g>
</svg>
