<svg xmlns="http://www.w3.org/2000/svg" xmlns:xlink="http://www.w3.org/1999/xlink" width="103" height="103" viewBox="0 0 103 103">
  <defs>
    <filter id="Trazado_978624" x="0" y="0" width="103" height="103" filterUnits="userSpaceOnUse">
      <feOffset dy="3" input="SourceAlpha"/>
      <feGaussianBlur stdDeviation="3" result="blur"/>
      <feFlood flood-opacity="0.161"/>
      <feComposite operator="in" in2="blur"/>
      <feComposite in="SourceGraphic"/>
    </filter>
  </defs>
  <g id="Grupo_1219378" data-name="Grupo 1219378" transform="translate(-171 -5879)">
    <g id="Grupo_1219276" data-name="Grupo 1219276" transform="translate(6.211 4637)">
      <g id="Grupo_1209736" data-name="Grupo 1209736" transform="translate(-0.711 184)">
        <g id="Grupo_1178144" data-name="Grupo 1178144" transform="translate(-19.5 -2004)">
          <g id="Grupo_1177896" data-name="Grupo 1177896" transform="translate(14 196)">
            <g id="Grupo_1176881" data-name="Grupo 1176881">
              <g id="Grupo_1175148" data-name="Grupo 1175148" transform="translate(0 1580)">
                <g id="Grupo_1173798" data-name="Grupo 1173798" transform="translate(-3 -3520)">
                  <g id="Grupo_1171925" data-name="Grupo 1171925" transform="translate(-22 -2246)">
                    <g id="Grupo_1164524" data-name="Grupo 1164524" transform="translate(205 7058)">
                      <g id="Grupo_1144123" data-name="Grupo 1144123">
                        <g transform="matrix(1, 0, 0, 1, -9, -6)" filter="url(#Trazado_978624)">
                          <g id="Trazado_978624-2" data-name="Trazado 978624" transform="translate(9 6)" fill="#edeef2">
                            <path d="M 42.5 83.5 C 36.96437835693359 83.5 31.59512901306152 82.41617584228516 26.54141235351562 80.27863311767578 C 21.65934181213379 78.21369171142578 17.27447128295898 75.25723266601562 13.50862312316895 71.49137878417969 C 9.742764472961426 67.72553253173828 6.786305904388428 63.34066009521484 4.721364498138428 58.45858764648438 C 2.583823442459106 53.40486907958984 1.5 48.03562164306641 1.5 42.5 C 1.5 36.96437835693359 2.583823442459106 31.59512901306152 4.721364498138428 26.54141235351562 C 6.786305904388428 21.65934181213379 9.742764472961426 17.27447128295898 13.50862312316895 13.50862312316895 C 17.27447128295898 9.742764472961426 21.65934181213379 6.786305904388428 26.54141235351562 4.721364498138428 C 31.59512901306152 2.583823442459106 36.96437835693359 1.5 42.5 1.5 C 48.03562164306641 1.5 53.40486907958984 2.583823442459106 58.45858764648438 4.721364498138428 C 63.34066009521484 6.786305904388428 67.72553253173828 9.742764472961426 71.49137878417969 13.50862312316895 C 75.25723266601562 17.27447128295898 78.21369171142578 21.65934181213379 80.27863311767578 26.54141235351562 C 82.41617584228516 31.59512901306152 83.5 36.96437835693359 83.5 42.5 C 83.5 48.03562164306641 82.41617584228516 53.40486907958984 80.27863311767578 58.45858764648438 C 78.21369171142578 63.34066009521484 75.25723266601562 67.72553253173828 71.49137878417969 71.49137878417969 C 67.72553253173828 75.25723266601562 63.34066009521484 78.21369171142578 58.45858764648438 80.27863311767578 C 53.40486907958984 82.41617584228516 48.03562164306641 83.5 42.5 83.5 Z" stroke="none"/>
                            <path d="M 42.5 3 C 37.16621398925781 3 31.99356079101562 4.043960571289062 27.125732421875 6.102882385253906 C 22.42246627807617 8.092185974121094 18.19785308837891 10.94070434570312 14.56928253173828 14.56928253173828 C 10.94070434570312 18.19785308837891 8.092185974121094 22.42246627807617 6.102882385253906 27.125732421875 C 4.043960571289062 31.99356079101562 3 37.16621398925781 3 42.5 C 3 47.83378601074219 4.043960571289062 53.00643920898438 6.102882385253906 57.87425231933594 C 8.092185974121094 62.57753372192383 10.94070434570312 66.80213165283203 14.56928253173828 70.43071746826172 C 18.19786834716797 74.05929565429688 22.42246627807617 76.90781402587891 27.125732421875 78.89711761474609 C 31.99356079101562 80.95603942871094 37.16621398925781 82 42.5 82 C 47.83378601074219 82 53.00642395019531 80.95603942871094 57.87425231933594 78.89711761474609 C 62.57753372192383 76.90781402587891 66.80213165283203 74.05929565429688 70.43071746826172 70.43071746826172 C 74.05929565429688 66.80213165283203 76.90781402587891 62.57753372192383 78.89711761474609 57.87425231933594 C 80.95603942871094 53.00642395019531 82 47.83378601074219 82 42.5 C 82 37.16621398925781 80.95603942871094 31.99356079101562 78.89711761474609 27.125732421875 C 76.90781402587891 22.42246627807617 74.05929565429688 18.19786834716797 70.43071746826172 14.56928253173828 C 66.80213165283203 10.94070434570312 62.57753372192383 8.092185974121094 57.87425231933594 6.102882385253906 C 53.00643920898438 4.043960571289062 47.83378601074219 3 42.5 3 M 42.5 0 C 65.97209167480469 0 85 19.02789306640625 85 42.5 C 85 65.97209167480469 65.97209167480469 85 42.5 85 C 19.02789306640625 85 0 65.97209167480469 0 42.5 C 0 19.02789306640625 19.02789306640625 0 42.5 0 Z" stroke="none" fill="#56678d"/>
                          </g>
                        </g>
                      </g>
                    </g>
                  </g>
                </g>
              </g>
            </g>
          </g>
        </g>
      </g>
    </g>
    <g id="resolucion-de-problemas_2_" data-name="resolucion-de-problemas (2)" transform="translate(166.672 5896.521)">
      <path id="Trazado_1090256" data-name="Trazado 1090256" d="M342.276,132h-5.839A9.918,9.918,0,0,1,332,135.86v6.416a.734.734,0,0,0,.734.734h9.544a.734.734,0,0,0,.734-.734v-9.544A.734.734,0,0,0,342.276,132Z" transform="translate(-266.974 -116.026)" fill="#cb97e7"/>
      <g id="Grupo_1219365" data-name="Grupo 1219365" transform="translate(65.024 16.793)">
        <path id="Trazado_1090257" data-name="Trazado 1090257" d="M335.871,148.23v-9.458A9.91,9.91,0,0,1,332,141.814v6.416a.734.734,0,0,0,.734.734h3.872A.734.734,0,0,1,335.871,148.23Z" transform="translate(-331.999 -138.772)" fill="#bd80e1"/>
      </g>
      <g id="Grupo_1219376" data-name="Grupo 1219376" transform="translate(29.177 0.908)">
        <path id="Trazado_1090258" data-name="Trazado 1090258" d="M108.453,273.658l2.074-5.643a14.172,14.172,0,0,1-13.47,0l2.074,5.643Z" transform="translate(-89.641 -236.489)" fill="#fff0ad"/>
        <path id="Trazado_1090259" data-name="Trazado 1090259" d="M104.229,273.658l-1.462-3.978a14.064,14.064,0,0,1-5.709-1.665l2.074,5.643Z" transform="translate(-89.642 -236.489)" fill="#ffe177"/>
        <path id="Trazado_1090260" data-name="Trazado 1090260" d="M126,393.588v1.888a1.815,1.815,0,0,0,1.815,1.815h2.835a1.815,1.815,0,0,0,1.815-1.815v-1.888Z" transform="translate(-115.081 -346.868)" fill="#02c7dd"/>
        <path id="Trazado_1090261" data-name="Trazado 1090261" d="M129.025,395.476v-1.888H126v1.888a1.815,1.815,0,0,0,1.815,1.815h2.835c.032,0,.063,0,.095,0A1.813,1.813,0,0,1,129.025,395.476Z" transform="translate(-115.081 -346.868)" fill="#07b2cd"/>
        <path id="Trazado_1090262" data-name="Trazado 1090262" d="M113.43,362.995v3.218a.605.605,0,0,0,.605.605h8.3a.605.605,0,0,0,.605-.605v-3.218Z" transform="translate(-104.032 -319.977)" fill="#a6e7f0"/>
        <path id="Trazado_1090263" data-name="Trazado 1090263" d="M116.455,366.213v-3.218H113.43v3.218a.605.605,0,0,0,.605.605h3.025A.605.605,0,0,1,116.455,366.213Z" transform="translate(-104.032 -319.977)" fill="#6bd9e7"/>
        <path id="Trazado_1090264" data-name="Trazado 1090264" d="M57.765,53.149a9.9,9.9,0,0,1,.291-2.384,14.152,14.152,0,1,0,6.016,11.6A9.881,9.881,0,0,1,57.765,53.149Z" transform="translate(-35.77 -43.269)" fill="#ffe177"/>
        <g id="Grupo_1219366" data-name="Grupo 1219366" transform="translate(0 4.924)">
          <path id="Trazado_1090265" data-name="Trazado 1090265" d="M41.861,62.345A14.156,14.156,0,0,1,52.966,48.524a14.151,14.151,0,1,0,0,27.643A14.156,14.156,0,0,1,41.861,62.345Z" transform="translate(-35.769 -48.194)" fill="#ffd15b"/>
        </g>
        <g id="Grupo_1219367" data-name="Grupo 1219367" transform="translate(7.582 37.168)">
          <path id="Trazado_1090266" data-name="Trazado 1090266" d="M110.357,320.622H99.639a1.21,1.21,0,0,1-1.21-1.21v-3.551a1.21,1.21,0,0,1,1.21-1.21h10.718a1.21,1.21,0,0,1,1.21,1.21v3.551A1.21,1.21,0,0,1,110.357,320.622Z" transform="translate(-98.429 -314.651)" fill="#eaf9fa"/>
        </g>
        <path id="Trazado_1090267" data-name="Trazado 1090267" d="M102.492,319.412v-3.551a1.21,1.21,0,0,1,1.21-1.21H99.64a1.21,1.21,0,0,0-1.21,1.21v3.551a1.21,1.21,0,0,0,1.21,1.21H103.7A1.21,1.21,0,0,1,102.492,319.412Z" transform="translate(-90.847 -277.483)" fill="#d4f2f6"/>
        <g id="Grupo_1219368" data-name="Grupo 1219368" transform="translate(25.575 32.417)">
          <path id="Trazado_1090268" data-name="Trazado 1090268" d="M270.875,289.878a4.249,4.249,0,0,1-2.708-.737.364.364,0,0,0-.575.295v5.819a.605.605,0,0,1-.605.605h-5.819a.364.364,0,0,0-.295.575,4.265,4.265,0,1,1-7.029-.011.362.362,0,0,0-.3-.564h-5.819a.605.605,0,0,1-.605-.605v-4.57a.6.6,0,0,1,.651-.6,4.356,4.356,0,0,0,.679.012,4.265,4.265,0,0,0-.264-8.523q-.2,0-.4.018a.607.607,0,0,1-.669-.6v-5a.605.605,0,0,1,.605-.605h4.764a.6.6,0,0,1,.6.619c0,.042,0,.085,0,.128a4.265,4.265,0,0,0,8.531,0q0-.064,0-.128a.6.6,0,0,1,.6-.619h4.764a.605.605,0,0,1,.6.605v5.819a.362.362,0,0,0,.564.3,4.265,4.265,0,1,1,2.718,7.766Z" transform="translate(-247.12 -275.386)" fill="#fe9738"/>
        </g>
        <g id="Grupo_1219369" data-name="Grupo 1219369" transform="translate(25.575 32.417)">
          <path id="Trazado_1090269" data-name="Trazado 1090269" d="M270.875,289.878a4.249,4.249,0,0,1-2.708-.737.364.364,0,0,0-.575.295v5.819a.605.605,0,0,1-.605.605h-5.819a.364.364,0,0,0-.295.575,4.265,4.265,0,1,1-7.029-.011.362.362,0,0,0-.3-.564h-5.819a.605.605,0,0,1-.605-.605v-4.57a.6.6,0,0,1,.651-.6,4.356,4.356,0,0,0,.679.012,4.265,4.265,0,0,0-.264-8.523q-.2,0-.4.018a.607.607,0,0,1-.669-.6v-5a.605.605,0,0,1,.605-.605h4.764a.6.6,0,0,1,.6.619c0,.042,0,.085,0,.128a4.265,4.265,0,0,0,8.531,0q0-.064,0-.128a.6.6,0,0,1,.6-.619h4.764a.605.605,0,0,1,.6.605v5.819a.362.362,0,0,0,.564.3,4.265,4.265,0,1,1,2.718,7.766Z" transform="translate(-247.12 -275.386)" fill="#fe9738"/>
        </g>
        <g id="Grupo_1219372" data-name="Grupo 1219372" transform="translate(25.575 32.417)">
          <g id="Grupo_1219370" data-name="Grupo 1219370" transform="translate(0)">
            <path id="Trazado_1090270" data-name="Trazado 1090270" d="M247.787,281.591q.2-.018.4-.018a4.256,4.256,0,0,1,3.262,1.518v-7.1a.6.6,0,0,1,.6-.605h-4.328a.605.605,0,0,0-.605.605v5A.607.607,0,0,0,247.787,281.591Z" transform="translate(-247.118 -275.388)" fill="#fe860a"/>
          </g>
          <g id="Grupo_1219371" data-name="Grupo 1219371" transform="translate(0 13.191)">
            <path id="Trazado_1090271" data-name="Trazado 1090271" d="M251.446,391.075V384.4a4.262,4.262,0,0,1-3,1.516,4.345,4.345,0,0,1-.679-.012.6.6,0,0,0-.651.6v4.57a.605.605,0,0,0,.605.605h4.328a.6.6,0,0,1-.605-.6Z" transform="translate(-247.118 -384.398)" fill="#fe860a"/>
          </g>
        </g>
        <g id="Grupo_1219375" data-name="Grupo 1219375" transform="translate(21.995)">
          <g id="Grupo_1219373" data-name="Grupo 1219373">
            <circle id="Elipse_12014" data-name="Elipse 12014" cx="9.88" cy="9.88" r="9.88" fill="#05e39c"/>
          </g>
          <g id="Grupo_1219374" data-name="Grupo 1219374" transform="translate(0 0)">
            <path id="Trazado_1090272" data-name="Trazado 1090272" d="M222.639,17.38a9.883,9.883,0,0,1,7.328-9.546,9.88,9.88,0,1,0,0,19.091,9.883,9.883,0,0,1-7.328-9.545Z" transform="translate(-217.536 -7.5)" fill="#0ed290"/>
          </g>
        </g>
      </g>
      <g id="Grupo_1219377" data-name="Grupo 1219377" transform="translate(28.27 0)">
        <path id="Trazado_1090273" data-name="Trazado 1090273" d="M267.767,275.5a5.177,5.177,0,0,0-5.86-1.209V269.4a1.514,1.514,0,0,0-1.513-1.513H255.63a1.522,1.522,0,0,0-1.087.46,1.493,1.493,0,0,0-.424,1.094c0,.033,0,.067,0,.1a3.358,3.358,0,1,1-6.716,0c0-.033,0-.067,0-.1a1.493,1.493,0,0,0-.424-1.094,1.522,1.522,0,0,0-1.087-.46h-4.764a1.514,1.514,0,0,0-1.513,1.513v5a1.511,1.511,0,0,0,.492,1.115,1.528,1.528,0,0,0,1.168.39c.1-.01.209-.014.314-.014a3.358,3.358,0,0,1,.21,6.709,3.458,3.458,0,0,1-.537-.009,1.5,1.5,0,0,0-1.149.383,1.521,1.521,0,0,0-.5,1.124v4.57a1.514,1.514,0,0,0,1.513,1.513h4.893a5.174,5.174,0,0,0,4.733,7.251c.122,0,.246,0,.37-.013a5.176,5.176,0,0,0,4.375-7.239H260.4a1.514,1.514,0,0,0,1.513-1.513v-4.892a5.174,5.174,0,0,0,5.86-8.269Zm-.432,3.769a3.361,3.361,0,0,1-3.114,3.11h0a3.33,3.33,0,0,1-2.132-.58,1.271,1.271,0,0,0-2,1.043v5.516h-5.516a1.271,1.271,0,0,0-1.043,2,3.358,3.358,0,1,1-5.534-.008,1.27,1.27,0,0,0-1.048-1.988h-5.516v-3.946c.159,0,.319,0,.478-.007a5.173,5.173,0,0,0-.478-10.334V269.7h4.159a5.173,5.173,0,0,0,10.341,0h4.159v5.516a1.27,1.27,0,0,0,1.988,1.049,3.358,3.358,0,0,1,5.255,3Z" transform="translate(-214.044 -235.47)"/>
        <path id="Trazado_1090274" data-name="Trazado 1090274" d="M49.26,37.249,50.8,33.064a15.1,15.1,0,0,0,4.287-3.671.908.908,0,1,0-1.416-1.135,13.194,13.194,0,0,1-7.283,4.614v-7.5h1.779a3.595,3.595,0,1,0-3.594-3.595v1.779H42.087V21.774a3.595,3.595,0,1,0-3.594,3.595h1.779v7.5A13.243,13.243,0,1,1,50.446,8.82a10.79,10.79,0,0,0,6.113,11.774,13.153,13.153,0,0,1-.9,4.227.908.908,0,0,0,1.69.663,14.941,14.941,0,0,0,.985-4.255,10.8,10.8,0,0,0,5.78-.1v5.12a1.644,1.644,0,0,0,1.642,1.642H75.3a1.644,1.644,0,0,0,1.642-1.642v-2.9a.908.908,0,1,0-1.815,0v2.723h-9.2V20.406a10.865,10.865,0,0,0,4.018-3.526h5.178v2.239a.908.908,0,1,0,1.815,0V16.707A1.644,1.644,0,0,0,75.3,15.065H70.955A10.787,10.787,0,1,0,50.951,7a15.055,15.055,0,1,0-15.1,26.051l1.542,4.2a2.12,2.12,0,0,0-1.545,2.037v3.551a2.119,2.119,0,0,0,1.815,2.093v2.214a1.514,1.514,0,0,0,1.513,1.513h.008v.86a2.726,2.726,0,0,0,2.723,2.723h2.835a2.726,2.726,0,0,0,2.723-2.723v-.86h.008a1.514,1.514,0,0,0,1.513-1.513V44.93a2.119,2.119,0,0,0,1.815-2.093V39.286a2.12,2.12,0,0,0-1.545-2.037ZM46.386,21.775a1.779,1.779,0,1,1,1.779,1.779H46.386ZM61.053,1.815a8.972,8.972,0,1,1-8.972,8.972A8.982,8.982,0,0,1,61.053,1.815ZM46.386,34.731a14.973,14.973,0,0,0,2.082-.588l-1.112,3.025h-.97Zm-4.3-9.362h2.484v7.8c-.41.038-.825.059-1.242.059s-.833-.02-1.242-.059v-7.8Zm0,9.622c.41.034.824.052,1.242.052s.831-.017,1.242-.051v2.177H42.087ZM38.492,23.554a1.779,1.779,0,1,1,1.779-1.779v1.779ZM40.272,34.73v2.438H39.3l-1.114-3.03A14.927,14.927,0,0,0,40.272,34.73Zm5.382,14.786a.909.909,0,0,1-.908.908H41.911A.909.909,0,0,1,41,49.516v-.86h4.65Zm3.336-6.68a.3.3,0,0,1-.3.3H45.9a.908.908,0,0,0,0,1.815h1.271v1.887H39.483V44.954h2.187a.908.908,0,0,0,0-1.815h-3.7a.3.3,0,0,1-.3-.3V39.286a.3.3,0,0,1,.3-.3H48.688a.3.3,0,0,1,.3.3Z" transform="translate(-28.27 0)"/>
        <path id="Trazado_1090275" data-name="Trazado 1090275" d="M254.611,67.076a.907.907,0,0,0,.683.323h.012a.907.907,0,0,0,.679-.306l5.946-6.707a.908.908,0,0,0-1.358-1.2L255.323,65.1l-3.384-4.019a.908.908,0,1,0-1.388,1.169Z" transform="translate(-223.465 -51.752)"/>
      </g>
    </g>
  </g>
</svg>
