<svg xmlns="http://www.w3.org/2000/svg" xmlns:xlink="http://www.w3.org/1999/xlink" width="505" height="245" viewBox="0 0 505 245">
  <defs>
    <clipPath id="clip-path">
      <rect id="Rect치ngulo_420559" data-name="Rect치ngulo 420559" width="505" height="245" transform="translate(180 6809)" fill="#fff" stroke="#707070" stroke-width="1"/>
    </clipPath>
    <linearGradient id="linear-gradient" x1="0.617" y1="15.277" x2="0.382" y2="16.934" gradientUnits="objectBoundingBox">
      <stop offset="0" stop-color="#c9d5d6"/>
      <stop offset="1" stop-color="#e8e6e9"/>
    </linearGradient>
    <linearGradient id="linear-gradient-2" x1="0.948" y1="9.029" x2="0.005" y2="9.045" gradientUnits="objectBoundingBox">
      <stop offset="0" stop-color="#038775"/>
      <stop offset="1" stop-color="#07a28a"/>
    </linearGradient>
  </defs>
  <g id="Enmascarar_grupo_1098936" data-name="Enmascarar grupo 1098936" transform="translate(-180 -6809)" clip-path="url(#clip-path)">
    <g id="Grupo_1219381" data-name="Grupo 1219381" transform="translate(-12)">
      <rect id="Rect치ngulo_420557" data-name="Rect치ngulo 420557" width="186" height="246" transform="translate(439 6809)" fill="#1172b3"/>
      <g id="Grupo_1219379" data-name="Grupo 1219379" transform="translate(4535.376 417.523)">
        <path id="Trazado_1090277" data-name="Trazado 1090277" d="M1362.936,835.592a15.75,15.75,0,0,0,1.829-2.484,19.823,19.823,0,0,1,6.291-5.5c-3.107,4.628-2.978,10.177-2.909,15.529a7.277,7.277,0,0,1-.119,2.667,49.278,49.278,0,0,1-7.2-4.2A36.025,36.025,0,0,1,1362.936,835.592Z" transform="translate(-5345.977 5771.478)" fill="#e34d4a"/>
        <path id="Trazado_1090278" data-name="Trazado 1090278" d="M1136.956,413.167a10.3,10.3,0,0,1-.805-1.67,21.977,21.977,0,0,0-.238-2.251c-.332-.953-.949-1.829-1.328-2.776a5.638,5.638,0,0,1-.443-1.148,7,7,0,0,1,.377-1.642c.28-1.083.656-2.393,1.774-2.847a12.086,12.086,0,0,0,1.94-.721c.855-.532,1.511-1.388,2.393-1.864a9.238,9.238,0,0,1,5.466-.447l.062.338a6.492,6.492,0,0,0-.808,2.349c.743.714,1.055.458,2,.649s2.654,2.626,3.206,3.438c-1.221,1.646-2.488,3.209-2.956,5.267l-.035.168A19.424,19.424,0,0,0,1136.956,413.167Z" transform="translate(-5175.452 6094.963)" fill="#b3ddef"/>
        <path id="Trazado_1090279" data-name="Trazado 1090279" d="M397.938,459.272a17.787,17.787,0,0,1-1-3.264,3.615,3.615,0,0,1,.435-2.74,6.483,6.483,0,0,1,1.211-.01,6.557,6.557,0,0,1,3.866,2.5c1.27,1.662,1.086,3.6.808,5.541l.61.538c.081-.033.2-.022.242-.1a7,7,0,0,0,.027-1.1,8.2,8.2,0,0,1,.756-3.814c.146-.254.519-.268.8-.344a5.366,5.366,0,0,1,2.946,3.4c.433,1.784-.237,3.275-.268,4.987.806-.959,1.658-2.007,2.987-2.191a2.485,2.485,0,0,1,1.057.161,1.146,1.146,0,0,1,.183,1.182c-.3,1.179-1.343,2.1-2.069,3.029a4.739,4.739,0,0,1,3.059,1.625l-.139.391a7.288,7.288,0,0,1-2.051-.053c-.576-.112-2.253-.759-2.677-.536a15.3,15.3,0,0,0-1.874,2.338c.147-.949.693-1.708.759-2.674l.006-.143c-.812.176-1.519.561-2.311.786a9.457,9.457,0,0,1-4.151.025,7.7,7.7,0,0,1-4.965-3,2.691,2.691,0,0,1,.969-1.561c1.841-1.8,3.62-1.823,6.011-1.818-1.06-.572-2.413.01-3.369-.56l.062-.575-.42-.291-.608.7a5.856,5.856,0,0,1-4.043,1.469,7.482,7.482,0,0,1-5.418-2.662,1.073,1.073,0,0,1,.181-.3,7.347,7.347,0,0,1,5.233-2.424A4.063,4.063,0,0,1,397.938,459.272Z" transform="translate(-4615.209 6053.094)" fill="#10d3c5"/>
        <path id="Trazado_1090280" data-name="Trazado 1090280" d="M1319.176,448.83c.275-2.543.684-4.093,2.765-5.781a4.26,4.26,0,0,1,.924-.566c.533.1.577.167.882.625a5.047,5.047,0,0,1,.476,3.788l-.3,1.277c2.079-.782,4.044-1.249,6.172-.25.523.246,1.472.63,1.734,1.113-1.2,1.972-2.225,3.366-4.586,3.964a11.428,11.428,0,0,1-4.368.034c.813.71,2.839,2.376,2.953,3.477l.015.221a7.146,7.146,0,0,1-5.379,1.462,7.622,7.622,0,0,1-4.2-2.166,6.7,6.7,0,0,0-.88-.853c-.2-.081-1,.436-1.172.566a1.339,1.339,0,0,0,.629.177,5.717,5.717,0,0,1,3.184,2.138l.919,1.362c-1.732.869-3.6,1.652-5.565,1a10.238,10.238,0,0,1-2.272-1.29l-.523-.578a2.648,2.648,0,0,0-.781-.637c-.369-.129-2.036.871-2.567,1.074l-.441-.252.062-.387a18.86,18.86,0,0,1,2.651-1.279l-.456-.79a5.119,5.119,0,0,1-.059-3.894,3.575,3.575,0,0,1,1.987-2.137l.525.214a2.483,2.483,0,0,1,.416.76c.57,1.885.035,3.252-.825,4.888a32.611,32.611,0,0,0,3.228-1.78,8.941,8.941,0,0,0-.669-1.889,6.411,6.411,0,0,1,.052-4.048,6.129,6.129,0,0,1,3.169-3.451,11.865,11.865,0,0,1,1.784,2.8A10.073,10.073,0,0,0,1319.176,448.83Z" transform="translate(-5305.326 6061.18)" fill="#10d3c5"/>
        <path id="Trazado_1090281" data-name="Trazado 1090281" d="M1348.971,463.724a10.111,10.111,0,0,0,.52,1.085,9.836,9.836,0,0,1,.924,2.181L1347.09,469A8.943,8.943,0,0,0,1348.971,463.724Z" transform="translate(-5335.641 6045.201)" fill="#b3ddef"/>
        <path id="Trazado_1090282" data-name="Trazado 1090282" d="M1436.2,323.523a29.149,29.149,0,0,1,5.114.13,17.243,17.243,0,0,1,4.3,1.644c5.463,3.163,9.69,9.287,11.424,15.348a40.461,40.461,0,0,1-20.879,6.044l-.01-22.944-6.348-.031a10.244,10.244,0,0,1,2.436-.222Z" transform="translate(-5397.858 6150.701)" fill="#e1dedd"/>
        <path id="Trazado_1090283" data-name="Trazado 1090283" d="M1455.76,816.558a20.792,20.792,0,0,1,7.616,2.552c4.356,1.786,6.918,5.017,9.321,8.9a31.484,31.484,0,0,1,2.346,5.233l-6.231,3.8a32.353,32.353,0,0,1-13.82,3.651,8.319,8.319,0,0,0-2.339.071l-.089-14.541c-.005-1.631.4-4.925-.23-6.387l-1.273-.315c1.382.02,2.549.094,3.694-.78A2.76,2.76,0,0,0,1455.76,816.558Z" transform="translate(-5413.851 5779.788)" fill="#d5d9d6"/>
        <path id="Trazado_1090284" data-name="Trazado 1090284" d="M1500.77,826.858c4.356,1.786,6.918,5.018,9.321,8.9a31.5,31.5,0,0,1,2.346,5.233l-6.231,3.8c-.144-4.864-.575-10.048-2.9-14.417A23.12,23.12,0,0,0,1500.77,826.858Z" transform="translate(-5451.244 5772.04)" fill="#e34d4a"/>
        <path id="Trazado_1090285" data-name="Trazado 1090285" d="M1246.063,365.854a71.766,71.766,0,0,0,7.049,5.921,41.41,41.41,0,0,0,13.617,5.822,21.868,21.868,0,0,0-5.582,1.9,26.217,26.217,0,0,1-3.937,2.333c-2.029.758-4.373,1.155-6.477,1.732a5.753,5.753,0,0,0-2.478.94,4.852,4.852,0,0,0,.448,2.8,6.129,6.129,0,0,0-3.169,3.451,6.409,6.409,0,0,0-.052,4.048,8.946,8.946,0,0,1,.669,1.889,32.582,32.582,0,0,1-3.229,1.78c.86-1.636,1.4-3,.825-4.888a2.48,2.48,0,0,0-.416-.76l-.525-.214a3.575,3.575,0,0,0-1.987,2.137,5.12,5.12,0,0,0,.059,3.894l.456.79a18.847,18.847,0,0,0-2.651,1.279l-.062.387.441.252c.53-.2,2.2-1.2,2.567-1.074a2.648,2.648,0,0,1,.781.637l.523.578c-.216,1.284-.149,2.24-.9,3.327-.937.183-4.026-.842-4.99-1.367l.563.778c-1.435.231-3.045-.318-4.482-.505a6.8,6.8,0,0,1-1.761-.258l-.191-.144c-.679-.505-2.579-.355-3.444-.365a2.472,2.472,0,0,0-.109,1.592c1.35.331,5.114-.614,6.164.527a2.954,2.954,0,0,1-1.345.876l.092.259-.23-.057a8.185,8.185,0,0,0-3.6.062,4.156,4.156,0,0,1-1.432,0l-.069-5.327-.867-3.039c-1.749-4.852-5.622-8.107-10.154-10.242.86-.681,1.6-1.527,2.493-2.155,2.537-1.771,5.922-2.5,8.9-3.034.907-.718,2.48-1.863,2.663-3.074a5.968,5.968,0,0,0,.134-1.4c-.106-.793-2.069-2.856-2.6-3.638.932-.91,1.888-2.323,3.073-2.883,1.249-.59,3.013.12,4.361.017a29.836,29.836,0,0,0,4.257-.972,9.647,9.647,0,0,0,1.858-.453c1.145-.619,1.769-2.156,2.674-3.049A6.267,6.267,0,0,1,1246.063,365.854Z" transform="translate(-5237.158 6118.822)" fill="#b3ddef"/>
        <path id="Trazado_1090286" data-name="Trazado 1090286" d="M1314.238,676.856c-7.886-5.513-13.166-14.769-14.824-24.143-1.809-10.241,1.2-20.619,7.111-29.02,5.426-7.717,14.658-12.932,23.85-14.509a39.725,39.725,0,0,1,29.8,6.626,37.739,37.739,0,0,1,15.567,24.705c1.645,9.88-1.306,20.144-7.116,28.16a36.8,36.8,0,0,1-8.045,8.128,31.5,31.5,0,0,0-2.346-5.233l.186-.069,1.88-.755c2.245-1.167,4.834-3.613,5.52-6.083a6.717,6.717,0,0,0-1.8-6.216,13.828,13.828,0,0,1-2.7-2.767c-1.583-2.808.134-4.939.837-7.587a9.257,9.257,0,0,0-.763-7.022l-.087-.141c-1.212-2.018-3.5-3.17-4.591-5.263a14.82,14.82,0,0,1-1.013-3.987,13.712,13.712,0,0,0-1.42-3.634,15.649,15.649,0,0,0-1.276-1.947,16.781,16.781,0,0,0-10.961-6.343,14.8,14.8,0,0,0-11.764,3,8.4,8.4,0,0,0-4.965.3c-4.232,1.494-5.79,5.156-6.7,9.224a16.757,16.757,0,0,1-1.273,4.386c-1.541,2.806-4.564,4.2-4.908,7.786a9.529,9.529,0,0,0,.272,3.511c.453,1.594,1.883,4.248,1.556,5.819-.181.879-1.088,1.6-1.685,2.239a11.181,11.181,0,0,0-2.138,2.932,8.427,8.427,0,0,0-.186,6.425c1.145,3.035,3.328,4.174,6.088,5.463A36,36,0,0,0,1314.238,676.856Z" transform="translate(-5299.384 5936.226)" fill="#8ed09f"/>
        <path id="Trazado_1090287" data-name="Trazado 1090287" d="M1349.188,704.215c-2.76-1.289-4.943-2.427-6.087-5.463a8.427,8.427,0,0,1,.186-6.425,11.178,11.178,0,0,1,2.138-2.932c.6-.634,1.5-1.36,1.685-2.239.327-1.572-1.1-4.226-1.556-5.819a9.528,9.528,0,0,1-.272-3.511c.344-3.583,3.367-4.98,4.908-7.786a16.753,16.753,0,0,0,1.274-4.386c.907-4.069,2.465-7.73,6.7-9.224a8.4,8.4,0,0,1,4.965-.3,14.8,14.8,0,0,1,11.764-3,16.781,16.781,0,0,1,10.961,6.343,15.649,15.649,0,0,1,1.276,1.947,13.712,13.712,0,0,1,1.42,3.634,14.819,14.819,0,0,0,1.013,3.987c1.093,2.093,3.38,3.246,4.591,5.263l.087.141a9.256,9.256,0,0,1,.763,7.022c-.7,2.649-2.421,4.779-.837,7.587a13.83,13.83,0,0,0,2.7,2.767,6.717,6.717,0,0,1,1.8,6.216c-.686,2.47-3.275,4.916-5.52,6.083l-1.88.755-.186.069c-2.4-3.882-4.965-7.114-9.321-8.9a20.793,20.793,0,0,0-7.616-2.552,2.76,2.76,0,0,1-1.006,2.18c-1.145.874-2.312.8-3.694.78a4.435,4.435,0,0,1-2.156-.832,2.691,2.691,0,0,1-.986-2.1,20.62,20.62,0,0,0-8.989,2.708,19.822,19.822,0,0,0-6.291,5.5A15.763,15.763,0,0,1,1349.188,704.215Z" transform="translate(-5332.229 5902.854)" fill="#15244d"/>
        <path id="Trazado_1090288" data-name="Trazado 1090288" d="M1395.992,731.034a11.844,11.844,0,0,0,.084-2.04c-.2-.469-2.133-1.1-2.646-1.369a14.038,14.038,0,0,1-2.815-1.979c-2.185-1.952-3.434-4.479-4.663-7.088a2.185,2.185,0,0,0-.595.062c-.265.062-.169.1-.362-.019-1.625-.966-2.5-3.174-2.966-4.913a1.693,1.693,0,0,1,.322-.523,2.065,2.065,0,0,1,1.335-.593,2.5,2.5,0,0,1,1.97.9c.23.2.2.168.471.208l.25-1.1c.225-1.03,2.094-2.359,2.837-3.25a24.819,24.819,0,0,0,3.635-6.511,38.235,38.235,0,0,0,13.9,9.145l-.2.186a3.263,3.263,0,0,0-1.635,1.642,2.028,2.028,0,0,0,.533,1.708,1.719,1.719,0,0,0,1.313.5,1.924,1.924,0,0,0,1.511-.74,2.878,2.878,0,0,0,.528-1.464,4.75,4.75,0,0,0-.751-1.363c1.826.078,3.761.7,5.627.883a2.665,2.665,0,0,1,.359,1.468c.664-.541,1.105-1.353,1.98-1.55a1.65,1.65,0,0,1,1.417.783,3.174,3.174,0,0,1-.208,2.689,13.84,13.84,0,0,1-2.75,3.3c-.577.512-2.024,1.136-2.294,1.809-1.177,2.928-4.229,5.272-7.064,6.45l-1.269.505a4.085,4.085,0,0,0-.01,2.23,2.76,2.76,0,0,1-1.006,2.18c-1.145.874-2.312.8-3.694.78a4.434,4.434,0,0,1-2.156-.832A2.692,2.692,0,0,1,1395.992,731.034Z" transform="translate(-5361.924 5865.341)" fill="#ae7551"/>
        <path id="Trazado_1090289" data-name="Trazado 1090289" d="M1421.937,741.491a1.135,1.135,0,0,1,.275-.064,1.969,1.969,0,0,1,1.836.532,2.306,2.306,0,0,1,.5,1.623,2.725,2.725,0,0,1-1.157,1.35,4.34,4.34,0,0,1-1.1.146,2.468,2.468,0,0,1-.865-.5,2.063,2.063,0,0,1-.58-1.768C1420.966,742.114,1421.422,741.882,1421.937,741.491Z" transform="translate(-5391.098 5836.326)" fill="#15244d"/>
        <path id="Trazado_1090290" data-name="Trazado 1090290" d="M1307.795,172.7a38.033,38.033,0,0,1-9.452-27.958,38.626,38.626,0,0,1,13.451-26.333,39.539,39.539,0,0,1,29.3-9.184c10.235.825,19.849,6.245,26.447,14a37.168,37.168,0,0,1,8.337,27.1,38.407,38.407,0,0,1-13.89,26.157l-3.92,2.878c-1.734-6.061-5.961-12.185-11.424-15.348a17.239,17.239,0,0,0-4.3-1.644,29.148,29.148,0,0,0-5.114-.13l-3.967-.031a10.241,10.241,0,0,0-2.435.222,12.87,12.87,0,0,0-4.465,1.841,32.681,32.681,0,0,0-6.511,6,63.759,63.759,0,0,0-5.012,8.346A71.752,71.752,0,0,1,1307.795,172.7Z" transform="translate(-5298.89 6311.976)" fill="#8ed09f"/>
        <path id="Trazado_1090291" data-name="Trazado 1090291" d="M1382.111,198.355c-2.735-.681-7.326-1.508-9.2-3.711a2.041,2.041,0,0,1-.565-1.542,4.575,4.575,0,0,0,4.1-2.729c.553-1.382.317-3.513.32-5.01l-.015-9.7c-.01-5.815-.1-10.679,3.838-15.426a16.774,16.774,0,0,1,11.026-5.8,16.368,16.368,0,0,1,11.927,3.9,15.688,15.688,0,0,1,5.069,8.28,27.657,27.657,0,0,1,.3,6.278l-.015,10.635c0,1.8-.134,3.715.027,5.5.191,2.119,1.863,3.427,3.38,4.679l-1.07,1.244c-2.034,2.058-6.085,2.642-8.845,3.152a17.24,17.24,0,0,0-4.3-1.644,29.149,29.149,0,0,0-5.114-.13l-3.967-.031a10.243,10.243,0,0,0-2.436.222A12.87,12.87,0,0,0,1382.111,198.355Z" transform="translate(-5354.634 6277.901)" fill="#223b65"/>
        <path id="Trazado_1090292" data-name="Trazado 1090292" d="M1439.392,305.989l2.336.51,1.588.1.027,3.775-3.967-.031A31.092,31.092,0,0,1,1439.392,305.989Z" transform="translate(-5405 6163.855)" fill="#884247"/>
        <path id="Trazado_1090293" data-name="Trazado 1090293" d="M1408.856,249.114a14.734,14.734,0,0,1-5.277-3.415c-3.719-3.611-4.792-8.6-4.879-13.588a49.525,49.525,0,0,0,9.641-.369,26.355,26.355,0,0,0,4.291-1.36l.065,18.791c-.466.448-.88.379-1.5.452Z" transform="translate(-5374.463 6220.729)" fill="#ae7551"/>
        <path id="Trazado_1090294" data-name="Trazado 1090294" d="M1419.1,240.292a2.215,2.215,0,0,1,.647-.038,2.034,2.034,0,0,1,1.437,1.029,1.632,1.632,0,0,1,.1,1.351,2.338,2.338,0,0,1-1.541,1.351,2.877,2.877,0,0,1-.771-.005,1.993,1.993,0,0,1-1.343-1.045,1.6,1.6,0,0,1-.114-1.272A2.3,2.3,0,0,1,1419.1,240.292Z" transform="translate(-5388.557 6213.312)" fill="#15244d"/>
        <path id="Trazado_1090295" data-name="Trazado 1090295" d="M1450.56,216.286a14.95,14.95,0,0,0,5.887-4.643,14.14,14.14,0,0,0,8,7.2c-.114,4.921-1.234,9.636-4.948,13.154-2.557,2.423-5.4,3.237-8.786,3.631l-1.588-.1c.624-.073,1.038,0,1.5-.452Z" transform="translate(-5412.392 6234.825)" fill="#a66133"/>
        <path id="Trazado_1090296" data-name="Trazado 1090296" d="M1478.432,240.217a2.194,2.194,0,0,1,1.95.385,3.039,3.039,0,0,1,.528,1.707,2.78,2.78,0,0,1-1.189,1.5,3.316,3.316,0,0,1-.659.061,1.842,1.842,0,0,1-1.43-.681,1.931,1.931,0,0,1-.32-1.611A2.129,2.129,0,0,1,1478.432,240.217Z" transform="translate(-5433.559 6213.387)" fill="#15244d"/>
        <path id="Trazado_1090297" data-name="Trazado 1090297" d="M774.323,688.961a42.955,42.955,0,0,1,5.715-4.657,38.494,38.494,0,0,1,17.951-6.036,18.713,18.713,0,0,1,5.327.078,37.209,37.209,0,0,1,19.975,8.036c7.886,7.043,12.762,16,13.374,26.678a36.55,36.55,0,0,1-9.375,26.778l-4.3,3.959a37.836,37.836,0,0,1-22.853,8.36,36.613,36.613,0,0,1-22.908-7.967l-1.71-1.557c-7.409-7.15-11.994-16.3-12.142-26.7A37.685,37.685,0,0,1,774.323,688.961Z" transform="translate(-4896.552 5883.929)" fill="#58b7de"/>
        <path id="Trazado_1090298" data-name="Trazado 1090298" d="M842.026,884.967l.229.031-.02,5.969-.03,16.718a36.613,36.613,0,0,1-22.908-7.967,16.42,16.42,0,0,1,1.541-3.162c3.175-5.018,8.217-7.411,13.836-8.622a51.247,51.247,0,0,0,4.177-3.063Z" transform="translate(-4938.618 5728.401)" fill="#e34d4a"/>
        <path id="Trazado_1090299" data-name="Trazado 1090299" d="M888.484,884.967l.229.031-.02,5.969-.576.011c-1.529-.012-5.883-.711-6.9-1.839-.275-.305-.119-.808-.084-1.205a51.238,51.238,0,0,0,4.177-3.063Z" transform="translate(-4985.075 5728.401)" fill="#e5b56e"/>
        <path id="Trazado_1090300" data-name="Trazado 1090300" d="M860.964,740.319a20.408,20.408,0,0,1,9.223,3.669,18.638,18.638,0,0,0,2.428,2.031,5.739,5.739,0,0,0,1.259.173,3.8,3.8,0,0,1,2.223,1.534,5.683,5.683,0,0,1,.879,2.009,23.372,23.372,0,0,1,.305,5.873,8.9,8.9,0,0,1-.187,2.852,2.368,2.368,0,0,0-1.965.655,4.666,4.666,0,0,0-1.034,2.343,11.013,11.013,0,0,1-.18,2.968l-.042.119c-.32.947-.334,1.955-.605,2.918a12.329,12.329,0,0,1-6.422,7.784l-2.3.964-3.286.048-.229-.031-3.173-.1a18.513,18.513,0,0,1-4.546-2.671,11.661,11.661,0,0,1-4.347-8.652,6.24,6.24,0,0,1-2.386-.184,3.084,3.084,0,0,1-1.713-1.643,4.232,4.232,0,0,1,.29-3.683l-.008-.429c-.062-3.344-.942-9.871,2.088-12.107.761-.561,1.9-.331,2.489-.724a7.243,7.243,0,0,0,.51-1,8.839,8.839,0,0,1,1.473-2C854.234,740.477,857.6,740.3,860.964,740.319Z" transform="translate(-4957.62 5837.138)" fill="#15244d"/>
        <path id="Trazado_1090301" data-name="Trazado 1090301" d="M911.223,789.708A27.321,27.321,0,0,0,922.8,786.4l.091,5.62c0,2.5-.391,4.89,1.031,7.072l-.042.119c-.32.948-.334,1.955-.605,2.918a12.329,12.329,0,0,1-6.422,7.784l-2.3.964-3.286.048-.229-.031c.519-.846.186-3.889.186-5.024Z" transform="translate(-5007.623 5802.471)" fill="#ecc092"/>
        <path id="Trazado_1090302" data-name="Trazado 1090302" d="M849.148,801.613l.464-.059a2.135,2.135,0,0,0,.46-1.361c.482-3.462.14-7.388.134-10.9a31.273,31.273,0,0,0,11.015,2.59l-.006,16.164c0,1.135.333,4.178-.186,5.024l-3.173-.1a18.513,18.513,0,0,1-4.546-2.671,11.661,11.661,0,0,1-4.347-8.652,6.241,6.241,0,0,1-2.386-.184,3.084,3.084,0,0,1-1.713-1.643,4.232,4.232,0,0,1,.29-3.683,2.7,2.7,0,0,1,2.338-.262,2.135,2.135,0,0,1,1.238,1.358,8.694,8.694,0,0,1,.01,2.61A5.525,5.525,0,0,0,849.148,801.613Z" transform="translate(-4957.62 5800.298)" fill="#f5d0ae"/>
        <path id="Trazado_1090303" data-name="Trazado 1090303" d="M910.773,693.944l0-15.276,3.415.093a37.208,37.208,0,0,1,19.975,8.036c7.886,7.043,12.762,16,13.374,26.678a36.551,36.551,0,0,1-9.375,26.778l-4.3,3.959a37.836,37.836,0,0,1-22.853,8.36l.03-16.718.02-5.969,3.286-.048,2.3-.964a12.329,12.329,0,0,0,6.422-7.784c.271-.963.285-1.971.605-2.918l.042-.119a11.01,11.01,0,0,0,.18-2.967,4.666,4.666,0,0,1,1.034-2.343,2.368,2.368,0,0,1,1.965-.655,8.9,8.9,0,0,0,.187-2.852,23.373,23.373,0,0,0-.305-5.874,5.685,5.685,0,0,0-.879-2.009,3.8,3.8,0,0,0-2.223-1.534,5.744,5.744,0,0,1-1.259-.173A18.647,18.647,0,0,1,920,697.613,20.408,20.408,0,0,0,910.773,693.944Z" transform="translate(-5007.428 5883.513)" fill="#169cce"/>
        <path id="Trazado_1090304" data-name="Trazado 1090304" d="M963.637,816.545a4.665,4.665,0,0,1,1.034-2.343,2.368,2.368,0,0,1,1.965-.655c.659.414,1.276.789,1.476,1.6a4.2,4.2,0,0,1-.632,3.029,3.41,3.41,0,0,1-2.049,1.47,8.449,8.449,0,0,1-1.49.113C963.415,819.148,963.645,817.394,963.637,816.545Z" transform="translate(-5047.162 5782.052)" fill="#f5d0ae"/>
        <path id="Trazado_1090305" data-name="Trazado 1090305" d="M911.8,885.242l3.286-.048,4.23,2.969c4.918.777,9.911,2.647,12.973,6.815a18.959,18.959,0,0,1,2.313,4.589,37.836,37.836,0,0,1-22.853,8.36l.03-16.718Z" transform="translate(-5008.167 5728.157)" fill="#d53635"/>
        <path id="Trazado_1090306" data-name="Trazado 1090306" d="M911.9,885.242l3.286-.048,4.23,2.969.109,1.139c-1.161,1.23-5.24,1.853-6.963,1.9l-.683.007Z" transform="translate(-5008.257 5728.157)" fill="#e49930"/>
        <path id="Trazado_1090307" data-name="Trazado 1090307" d="M778.265,111.456,774.445,108a37.465,37.465,0,0,1-10.586-26.4A36.487,36.487,0,0,1,774.63,55.7,36.029,36.029,0,0,1,800.867,45.24a37.529,37.529,0,0,1,36.507,37.927,35.511,35.511,0,0,1-7.111,20.942,54.637,54.637,0,0,1-5.793,6.19c-.4,1.856-2.34,2.781-2.54,4.727a3.446,3.446,0,0,1-.945.077,3.225,3.225,0,0,1-1.1-1.445,39.845,39.845,0,0,1-14.17,5.156C795.841,120.342,786.174,117.305,778.265,111.456Z" transform="translate(-4896.915 6360)" fill="#09987f"/>
        <path id="Trazado_1090308" data-name="Trazado 1090308" d="M994.571,307.829c-.4,1.856-2.34,2.781-2.54,4.727a3.445,3.445,0,0,1-.945.077,3.226,3.226,0,0,1-1.1-1.445Z" transform="translate(-5067.015 6162.471)" fill="#d5d9d6"/>
        <path id="Trazado_1090309" data-name="Trazado 1090309" d="M958.135,180.655l.256-.062,3.69.147.158.038c.009,1.715-.216,13.071.093,13.763.064.142.218.223.328.334l.626.109.1.512c-.783.534-4.81.132-6.006.112l-.355-.537.789-.2c.107-.111.257-.193.322-.333C958.43,193.907,958.139,182.325,958.135,180.655Z" transform="translate(-5042.221 6258.182)" fill="#d5d9d6"/>
        <path id="Trazado_1090310" data-name="Trazado 1090310" d="M958.135,180.655l.256-.062-.04,14.22a30.5,30.5,0,0,1,3.777-.021l-.093-9.245a39.9,39.9,0,0,1,.046-4.807l.158.038c.009,1.715-.216,13.071.093,13.763.064.142.218.223.328.334l.626.109.1.512c-.783.534-4.81.132-6.006.112l-.355-.537.789-.2c.107-.111.257-.193.322-.333C958.43,193.907,958.139,182.325,958.135,180.655Z" transform="translate(-5042.221 6258.182)" fill="#bfd0d1"/>
        <path id="Trazado_1090311" data-name="Trazado 1090311" d="M836.859,89.9a3.056,3.056,0,0,1,.645-.1,12.322,12.322,0,0,1,1.988.984l8.093,3.705,9.264,4.179a56.629,56.629,0,0,1,5.2,2.379,1.016,1.016,0,0,1-.1.895c-.989.249-21.649-9.475-24.051-10.634a3.416,3.416,0,0,0-.727-.193,6.108,6.108,0,0,0-1.2.549l-3.345,1.6c-2.08,1.014-18.18,9.056-19.34,8.834l-.244-.522c.743-1.1,4.326-2.36,5.637-2.984Z" transform="translate(-4933.91 6326.484)" fill="url(#linear-gradient)"/>
        <path id="Trazado_1090312" data-name="Trazado 1090312" d="M836.587,152.737l-.046-4.955,37.956.058-.008,4.229a4.478,4.478,0,0,1-.15,1.819,3.266,3.266,0,0,0-.264-.986Z" transform="translate(-4951.589 6282.863)" fill="#d5d9d6"/>
        <path id="Trazado_1090313" data-name="Trazado 1090313" d="M853.8,240.167l.331-1.14.355.537c1.2.02,5.224.422,6.006-.112l.061.774a6.612,6.612,0,0,1,1.725.376l.049.1c.22.5.1,1.649.55,1.812.641.231,1.5-.108,2.082.249a9.423,9.423,0,0,1,.186,3.18l-40.1.083-4.743.029c-.009-.939-.252-2.677.265-3.45l1.721.007.029-.443,14.281-.073a39.232,39.232,0,0,0,5.631-.037,7.113,7.113,0,0,0,.013-1.673l1.954-.046a24.92,24.92,0,0,0,6.874-.012l2.668.007Z" transform="translate(-4939.33 6214.226)" fill="#bfd0d1"/>
        <path id="Trazado_1090314" data-name="Trazado 1090314" d="M868.509,245.387l.049.1c.22.5.1,1.649.55,1.812.641.231,1.5-.108,2.082.249-.87.153-1.745-.149-2.634.054-1.617.369-19.033.426-20.015.014l-.054.128-14.182-.056a30.67,30.67,0,0,1-5.783-.29l.029-.443,14.281-.073a39.23,39.23,0,0,0,5.631-.037l.17.059,14.749.049c1.44.006,3.872.363,5.118-.151Z" transform="translate(-4945.557 6209.442)" fill="#b3ddef"/>
        <path id="Trazado_1090315" data-name="Trazado 1090315" d="M920.573,240.167l.331-1.14.355.537c1.2.02,5.224.422,6.006-.112l.061.774a6.611,6.611,0,0,1,1.725.376l-.008,1.418c-1.247.514-3.678.157-5.118.151l-14.749-.049-.17-.059a7.116,7.116,0,0,0,.013-1.673l1.954-.046a24.92,24.92,0,0,0,6.874-.012l2.668.007Z" transform="translate(-5006.1 6214.226)" fill="#bfd0d1"/>
        <path id="Trazado_1090316" data-name="Trazado 1090316" d="M955.69,240.167l.331-1.14.355.537c1.2.02,5.224.422,6.006-.112l.061.774-.208-.126a4.181,4.181,0,0,0-1.755-.167A17.189,17.189,0,0,0,955.69,240.167Z" transform="translate(-5041.216 6214.226)" fill="#b3ddef"/>
        <path id="Trazado_1090317" data-name="Trazado 1090317" d="M825.053,256.908l-4.743.029c-.009-.939-.252-2.677.265-3.45l1.721.007a30.672,30.672,0,0,0,5.783.29l14.182.056.157,2.859-13.007.006C828.245,256.708,826,256.417,825.053,256.908Z" transform="translate(-4939.33 6203.349)" fill="#d5d9d6"/>
        <path id="Trazado_1090318" data-name="Trazado 1090318" d="M836.725,167.782l37.489.164a3.266,3.266,0,0,1,.264.986l-.1.046a4.638,4.638,0,0,1-1.771.218c-.283,1.056.129,1.254-.861,1.945l-.158-.038-3.69-.147-.256.062c-1.273-.473-.344-.93-.925-1.772l-4.068-.062-.051,1.4-.668.523c-.741-.416-3.109-.147-3.982-.113l-.737-.409,0-1.448-3.538.009c-.6.618-.11.859-.381,1.438a4.694,4.694,0,0,1-.687.476l-.177-.014c-.809-.426-2.714-.2-3.652-.208l-.24.008-.021,11.491a14.114,14.114,0,0,1-.016,2.564,1.66,1.66,0,0,1-.329.338l-.89.1a2.431,2.431,0,0,0-.346,1.206,6.321,6.321,0,0,1-1.673.177,49.51,49.51,0,0,1-8.134-.005l.3-.207a2.493,2.493,0,0,1,.268-1.17l.783-.111c.622-.649.318-3.577.319-4.569l.008-9.745a2.051,2.051,0,0,1-.752-1.452l-.015-.141a2.035,2.035,0,0,1-1.005-.3C836.791,168.825,836.774,168.11,836.725,167.782Z" transform="translate(-4951.727 6267.819)" fill="#e1dedd"/>
        <path id="Trazado_1090319" data-name="Trazado 1090319" d="M849.945,194.717l-3.97,0,0-14.255,3.983.05Z" transform="translate(-4958.685 6258.278)" fill="#fefefe"/>
        <path id="Trazado_1090320" data-name="Trazado 1090320" d="M862.014,175.206l.824-.5.112-1.059c.936-.429,2.751-.165,3.8-.152.466.66.085,1.026.79,1.582l-.021,11.491a14.114,14.114,0,0,1-.016,2.564,1.661,1.661,0,0,1-.329.338l-.89.1a2.431,2.431,0,0,0-.346,1.206,6.321,6.321,0,0,1-1.673.177l-.887-.212a1.8,1.8,0,0,0-.284-1.22l-1.1-.119Z" transform="translate(-4970.74 6263.587)" fill="#09987f"/>
        <path id="Trazado_1090321" data-name="Trazado 1090321" d="M843.14,99.756,858.9,106.9c2.4,1.089,5.291,1.975,7.438,3.491-2.7.618-5.823.336-8.6.342l-13.7.013-23.04-.323Z" transform="translate(-4939.905 6318.99)" fill="#e1dedd"/>
        <path id="Trazado_1090322" data-name="Trazado 1090322" d="M846.519,175.191a4.7,4.7,0,0,0,.687-.476c.271-.579-.223-.82.381-1.438l3.538-.009,0,1.448.737.409c.872-.034,3.241-.3,3.982.113l.668-.523.051-1.4,4.068.062c.581.842-.347,1.3.925,1.772,0,1.67.3,13.252,0,13.886-.065.14-.214.222-.322.334l-.789.2-.331,1.14-.057.173-2.668-.007a24.918,24.918,0,0,1-6.874.012l-1.954.046a7.11,7.11,0,0,1-.013,1.673,39.231,39.231,0,0,1-5.631.037l-14.281.073.131-1.694c.539-.367,1.6-.183,2.269-.164a49.511,49.511,0,0,0,8.134.005,6.321,6.321,0,0,0,1.673-.177,2.431,2.431,0,0,1,.346-1.206l.889-.1a1.661,1.661,0,0,0,.33-.338,14.119,14.119,0,0,0,.016-2.564l.021-11.491.24-.008c.939,0,2.843-.218,3.652.208Z" transform="translate(-4945.646 6263.692)" fill="#d5d9d6"/>
        <path id="Trazado_1090323" data-name="Trazado 1090323" d="M885.315,179.968c.939,0,2.843-.218,3.652.208l-.054,14.106-3.608.034Z" transform="translate(-4988.271 6258.693)" fill="#fefefe"/>
        <path id="Trazado_1090324" data-name="Trazado 1090324" d="M900.532,175.191a4.694,4.694,0,0,0,.687-.476c.271-.579-.223-.82.381-1.438l3.538-.009,0,1.448.737.409-.016,2.059c-.171,1.885.206,11.384-.409,12.166l-.632.24a3.914,3.914,0,0,0-.29,1.289l-1.954.046-.855-.131a3.771,3.771,0,0,0-.073-1.321l-.821-.129c-.1-.1-.236-.18-.287-.311a13.878,13.878,0,0,1,0-3.027Z" transform="translate(-4999.658 6263.692)" fill="url(#linear-gradient-2)"/>
        <path id="Trazado_1090325" data-name="Trazado 1090325" d="M922.992,173.441l4.068.062c.581.842-.347,1.3.925,1.772,0,1.67.3,13.252,0,13.886-.065.14-.214.222-.322.333l-.789.2-.331,1.14-.057.173L923.82,191a24.919,24.919,0,0,1-6.874.012,3.913,3.913,0,0,1,.29-1.289l.632-.24c.614-.782.238-10.282.409-12.166l.016-2.059c.872-.034,3.241-.3,3.982.113l.668-.523Z" transform="translate(-5012.072 6263.562)" fill="#09987f"/>
        <path id="Trazado_1090326" data-name="Trazado 1090326" d="M918.292,180.408c.872-.034,3.241-.3,3.982.113l.033,14.009a3.633,3.633,0,0,1,1.314.316l.2,1.3a24.92,24.92,0,0,1-6.874.012,3.913,3.913,0,0,1,.29-1.289l.632-.24c.614-.782.238-10.282.409-12.166Z" transform="translate(-5012.072 6258.409)" fill="#d5d9d6"/>
        <path id="Trazado_1090327" data-name="Trazado 1090327" d="M917.236,201.478l.632-.24c.614-.782.238-10.282.409-12.166l.122,12.1,3.908-.041a3.633,3.633,0,0,1,1.314.316l.2,1.3a24.92,24.92,0,0,1-6.874.012A3.914,3.914,0,0,1,917.236,201.478Z" transform="translate(-5012.072 6251.804)" fill="#bfd0d1"/>
        <path id="Trazado_1090328" data-name="Trazado 1090328" d="M923.62,239.035l.2,1.3a24.92,24.92,0,0,1-6.874.012,3.913,3.913,0,0,1,.29-1.289l.309.486,5.777.049Z" transform="translate(-5012.072 6214.22)" fill="#b3ddef"/>
        <path id="Trazado_1090329" data-name="Trazado 1090329" d="M222,672.916c-7.306-7.12-12.055-16.856-12.211-27.177a38.418,38.418,0,0,1,38.4-39.245,38.031,38.031,0,0,1,26.882,10.985,39.174,39.174,0,0,1,11.556,28.271A38.543,38.543,0,0,1,275.043,672.8l-1.651,1.541c-7.258,5.7-15.426,9.313-24.811,9.2C238.475,683.619,229.547,679.342,222,672.916Z" transform="translate(-4480.119 5937.805)" fill="#223b65"/>
        <path id="Trazado_1090330" data-name="Trazado 1090330" d="M424.17,729.248a4.329,4.329,0,0,1,2.727,2.18,4.185,4.185,0,0,1,.1,3.211,4.94,4.94,0,0,1-2.386,2.439l-.671.06a17.12,17.12,0,0,1,.178-2.638c.067-1.378.015-2.769-.007-4.149l.09-.428Z" transform="translate(-4641.198 5845.465)" fill="#f5d0ae"/>
        <path id="Trazado_1090331" data-name="Trazado 1090331" d="M424.2,731.973c1.123,1.322.913,3.431.771,5.072l-.336,1.966-.024.117-.671.06a17.12,17.12,0,0,1,.178-2.638c.067-1.378.015-2.77-.007-4.149Z" transform="translate(-4641.198 5843.415)" fill="#e5b56e"/>
        <path id="Trazado_1090332" data-name="Trazado 1090332" d="M294.155,730.012l.079,1.2.172.493c.063,2.083.52,4.26.476,6.316l-.348-.243-.6-.147a3.789,3.789,0,0,1-2.308-2.009,4.247,4.247,0,0,1-.186-3.089C291.9,731.119,292.91,730.64,294.155,730.012Z" transform="translate(-4541.389 5844.891)" fill="#f5d0ae"/>
        <path id="Trazado_1090333" data-name="Trazado 1090333" d="M300.98,734.869l.172.493c.063,2.083.52,4.26.476,6.316l-.348-.243c.153-.834-.841-2.249-.98-3.2A3.876,3.876,0,0,1,300.98,734.869Z" transform="translate(-4548.135 5841.237)" fill="#ecc092"/>
        <path id="Trazado_1090334" data-name="Trazado 1090334" d="M301.757,677.567l-.394-2.629a12.978,12.978,0,0,1,2.841-8.818,9.075,9.075,0,0,1,7.024-3.339,10.482,10.482,0,0,1,7.248-2.488,13.106,13.106,0,0,1,9.325,4.122c3.686,3.722,4.171,7.969,4.162,12.963l.031.675-.09.428a34.219,34.219,0,0,1-14.516-4.553,27.328,27.328,0,0,1-4.548-4.212c-1.4,3.558-3.262,6.666-6.923,8.259a13.476,13.476,0,0,1-3.908,1.288l-.172-.493Z" transform="translate(-4548.991 5897.336)" fill="#169cce"/>
        <path id="Trazado_1090335" data-name="Trazado 1090335" d="M304.041,707.872a13.474,13.474,0,0,0,3.908-1.288c3.661-1.593,5.519-4.7,6.923-8.259a27.323,27.323,0,0,0,4.548,4.212,34.219,34.219,0,0,0,14.516,4.553c.022,1.379.074,2.771.007,4.149a17.128,17.128,0,0,0-.178,2.638,13.769,13.769,0,0,1-6.681,8.434,15.843,15.843,0,0,1-5.614,1.849l-2.13.019-2.318.022a14.649,14.649,0,0,1-12.506-10.013C304.561,712.133,304.1,709.955,304.041,707.872Z" transform="translate(-4551.024 5868.727)" fill="#f5d0ae"/>
        <path id="Trazado_1090336" data-name="Trazado 1090336" d="M325.821,740.543a2.033,2.033,0,0,1,1.721.176,2.182,2.182,0,0,1,.567,1.585c-.074.658-.506.917-.959,1.321a1.982,1.982,0,0,1-1.37-.119c-.461-.481-.936-.895-.838-1.642C325.03,741.194,325.351,740.964,325.821,740.543Z" transform="translate(-4566.737 5837.054)" fill="#223b65"/>
        <path id="Trazado_1090337" data-name="Trazado 1090337" d="M392.937,740.551a2.446,2.446,0,0,1,1.785.131,1.926,1.926,0,0,1,.6,1.631c-.086.651-.58.934-1.04,1.318a2.291,2.291,0,0,1-1.431-.062,2.206,2.206,0,0,1-.859-1.477A2.526,2.526,0,0,1,392.937,740.551Z" transform="translate(-4617.184 5837.046)" fill="#223b65"/>
        <path id="Trazado_1090338" data-name="Trazado 1090338" d="M358.711,802.619l2.13-.019.082,1.253a35.313,35.313,0,0,1,7.028.71c3.712.945,7.28,3.61,9.836,6.4,2.878,3.144,4.464,6.93,5.88,10.891-7.258,5.7-15.426,9.313-24.811,9.2l-.039-17.426-.652-1.514-.06-5.98-.241.094c-.565-.027-1.015.068-1.454-.308l-.031-2.2.014-1.08Z" transform="translate(-4590.395 5790.287)" fill="#177494"/>
        <path id="Trazado_1090339" data-name="Trazado 1090339" d="M367.735,823.566c-.159-1.219-.558-5.548.088-6.453a4.642,4.642,0,0,0,.108.912c.293.636.963,1.023,1.15,1.786C369.337,820.852,367.807,822.383,367.735,823.566Z" transform="translate(-4598.735 5779.37)" fill="#884247"/>
        <path id="Trazado_1090340" data-name="Trazado 1090340" d="M366.024,816.1a6.255,6.255,0,0,1-1.3.252c-.647.9-.248,5.233-.088,6.453l-.577.98-.652-1.514-.06-5.98A12.008,12.008,0,0,1,366.024,816.1Z" transform="translate(-4595.636 5780.134)" fill="#e34d4a"/>
        <path id="Trazado_1090341" data-name="Trazado 1090341" d="M358.711,802.619l2.13-.019.082,1.253a7.388,7.388,0,0,1-.141,2.091,12.008,12.008,0,0,0-2.677.19l-.241.094c-.565-.027-1.015.068-1.454-.308l-.031-2.2.014-1.08Z" transform="translate(-4590.395 5790.287)" fill="#f5d0ae"/>
        <path id="Trazado_1090342" data-name="Trazado 1090342" d="M358.711,802.619l2.13-.019.082,1.253a7.389,7.389,0,0,1-.141,2.091c.023-.734.211-1.573-.225-2.169l-4.178-.054.014-1.08Z" transform="translate(-4590.395 5790.287)" fill="#d68926"/>
        <path id="Trazado_1090343" data-name="Trazado 1090343" d="M259.086,823.837a30.232,30.232,0,0,1,5.33-9.085,22.09,22.09,0,0,1,10.624-6.686,38.452,38.452,0,0,1,8.152-.942l.031,2.2c.439.377.889.281,1.454.308l.241-.094.06,5.98.652,1.514.039,17.426C275.563,834.54,266.635,830.263,259.086,823.837Z" transform="translate(-4517.208 5786.884)" fill="#169cce"/>
        <path id="Trazado_1090344" data-name="Trazado 1090344" d="M357.964,816.959l.241-.094.06,5.98-1.753-2.857Z" transform="translate(-4590.495 5779.557)" fill="#d53635"/>
        <path id="Trazado_1090345" data-name="Trazado 1090345" d="M225.738,178.833a54.353,54.353,0,0,1-7.491-7.286A39.278,39.278,0,0,1,209.8,143.21a38.927,38.927,0,0,1,68.938-20.226,37.913,37.913,0,0,1,8.167,28.052c-1.4,8.935-4.623,16.724-10.911,23.356a33.276,33.276,0,0,1-4.51,4.086,36.666,36.666,0,0,1-23.619,8.042A41.072,41.072,0,0,1,225.738,178.833Z" transform="translate(-4480 6312.341)" fill="#09987f"/>
        <path id="Trazado_1090346" data-name="Trazado 1090346" d="M429.356,251.642a3.821,3.821,0,0,1,2.509,1.946,4.435,4.435,0,0,1,.343,3.36,4.257,4.257,0,0,1-1.915,2.494,3.592,3.592,0,0,1-1.267.324c.034-.449.041-4.565.16-4.675.242-.223.614-.1.991-.5l-.928-2.715Z" transform="translate(-4645.042 6204.736)" fill="#f5d0ae"/>
        <path id="Trazado_1090347" data-name="Trazado 1090347" d="M292.385,251.376l1.555-.862a15.216,15.216,0,0,0,.814,4.085,9.69,9.69,0,0,0,.33,4.586l-1.228-.028a5.83,5.83,0,0,1-2.1-1.194,4.087,4.087,0,0,1-1.193-2.859A5.138,5.138,0,0,1,292.385,251.376Z" transform="translate(-4540.888 6205.585)" fill="#f5d0ae"/>
        <path id="Trazado_1090348" data-name="Trazado 1090348" d="M297.907,251.376l1.555-.862a15.217,15.217,0,0,0,.814,4.085,9.691,9.691,0,0,0,.33,4.586l-1.228-.028c.075-1.439-.205-3.067-.264-4.532a4.368,4.368,0,0,1-1.147-.85A10.717,10.717,0,0,0,297.907,251.376Z" transform="translate(-4546.41 6205.585)" fill="#ecb385"/>
        <path id="Trazado_1090349" data-name="Trazado 1090349" d="M392.362,173.932a18.772,18.772,0,0,0,7.323-1.324,20.208,20.208,0,0,1,2.191-1.105l-.133,4.392a19.977,19.977,0,0,0,4.454-1.408c-.3,3.209-.9,5.945-3.13,8.43-.335.373-1.191,1.1-1.33,1.543a8.109,8.109,0,0,0,.011,1.713l.027,5.186-.107.237-.7,3.264c-.345-3.116-.831-6.451-2.775-9.016l-.336-.439h-5.479Z" transform="translate(-4617.462 6265.02)" fill="#15244d"/>
        <path id="Trazado_1090350" data-name="Trazado 1090350" d="M303.5,198.2l-.223-9.346c-.017-2.187.327-4.353,1.97-5.951a7.115,7.115,0,0,1,3.312-1.79,29.505,29.505,0,0,1,4.956-.068l11.833.008.016,11.473h5.479l.336.439-.517.267-.306.174c-.981.617-9.985.254-11.728.2a56.913,56.913,0,0,1-10.433-.657c-2.614,1.793-3.2,6.381-3.881,9.338A15.215,15.215,0,0,1,303.5,198.2Z" transform="translate(-4550.452 6257.9)" fill="#223b65"/>
        <path id="Trazado_1090351" data-name="Trazado 1090351" d="M340.3,227.37h5.479l.336.439-.517.267-.306.174c-.981.617-9.985.254-11.728.2a56.913,56.913,0,0,1-10.433-.657c1.639-.76,3.991-.429,5.8-.434Z" transform="translate(-4565.384 6223.054)" fill="#ecb385"/>
        <path id="Trazado_1090352" data-name="Trazado 1090352" d="M306.99,238.653c.684-2.957,1.267-7.545,3.881-9.338a56.911,56.911,0,0,0,10.433.657c1.743.056,10.747.419,11.728-.2l.306-.174.517-.267c1.944,2.565,2.43,5.9,2.775,9.016l.7-3.264.928,2.715c-.377.4-.748.273-.991.5-.119.11-.126,4.226-.16,4.675l-.96.089c-1.622,4.116-4.026,7.267-8.192,9.066l-2.555.893c-1.4.349-3.52,1.023-4.935.669l-1.377-.2a4.805,4.805,0,0,0-1.6-.463l-2.567-1.04a16.3,16.3,0,0,1-7.6-8.746A9.69,9.69,0,0,1,306.99,238.653Z" transform="translate(-4553.124 6221.532)" fill="#ecc092"/>
        <path id="Trazado_1090353" data-name="Trazado 1090353" d="M361.748,292.586l-.169-.078c-.572-.344-.615-.53-.737-1.141.4-.618.409-.6,1.123-.794a2.645,2.645,0,0,1,1.517,1.014c-.177.644-.3.62-.889.969Z" transform="translate(-4593.751 6175.451)" fill="#ecb385"/>
        <path id="Trazado_1090354" data-name="Trazado 1090354" d="M395.454,260.693l.821-.064a3.35,3.35,0,0,1,1.024.593,1.749,1.749,0,0,1,.393,1.233c-.059.71-.459,1.008-.976,1.413a2.611,2.611,0,0,1-1.761-.235,2.476,2.476,0,0,1-.606-1.729A2.049,2.049,0,0,1,395.454,260.693Z" transform="translate(-4618.956 6197.976)" fill="#030612"/>
        <path id="Trazado_1090355" data-name="Trazado 1090355" d="M306.99,238.653c.684-2.957,1.267-7.545,3.881-9.338a56.911,56.911,0,0,0,10.433.657l.012,10.957a20.018,20.018,0,0,1,.021,3.564c-.714.191-.723.176-1.123.794.122.611.165.8.737,1.141l.169.078a4.589,4.589,0,0,1,.264,2.257l-.008,4.562a1.312,1.312,0,0,1-.909.363l-1.377-.2a4.805,4.805,0,0,0-1.6-.463l-2.567-1.04a16.3,16.3,0,0,1-7.6-8.746A9.69,9.69,0,0,1,306.99,238.653Z" transform="translate(-4553.124 6221.532)" fill="#f5d0ae"/>
        <path id="Trazado_1090356" data-name="Trazado 1090356" d="M328.166,260.514a2.106,2.106,0,0,1,1.639.088,2.208,2.208,0,0,1,.869,1.454,2.643,2.643,0,0,1-.985,1.542,2.194,2.194,0,0,1-1.443,0,2.881,2.881,0,0,1-1.04-1.542A2.239,2.239,0,0,1,328.166,260.514Z" transform="translate(-4568.45 6198.156)" fill="#030612"/>
        <path id="Trazado_1090357" data-name="Trazado 1090357" d="M296.268,325.655c1.415.353,3.53-.32,4.935-.669l.133.76.123.039a63.432,63.432,0,0,0,6.314,1.18c4.517.881,8.089,3.05,10.3,7.17,1.248,2.322,1.5,4.68,2.333,7.12A36.667,36.667,0,0,1,296.79,349.3a41.072,41.072,0,0,1-22.126-7.687,19.422,19.422,0,0,1,2.59-8.074,15.4,15.4,0,0,1,9.959-6.629c1.966-.468,4-.655,5.977-1.077l.1-.837a4.806,4.806,0,0,1,1.6.463Z" transform="translate(-4528.925 6149.564)" fill="#08744b"/>
        <path id="Trazado_1090358" data-name="Trazado 1090358" d="M359.862,343.176a2.545,2.545,0,0,1,1.864.628l.411.3a2.774,2.774,0,0,1-.717,1.752,2.39,2.39,0,0,1-1.785.382,3.749,3.749,0,0,1-1.3-1.818Z" transform="translate(-4591.869 6135.882)" fill="#15244d"/>
        <path id="Trazado_1090359" data-name="Trazado 1090359" d="M349.54,325.012a4.8,4.8,0,0,1,1.6.463,5.366,5.366,0,0,0,.784.626c.431.194,1.013-.11,1.148.532l.1,2.879-1.523,1.241a19.427,19.427,0,0,1-2.206-4.9Z" transform="translate(-4585.172 6149.545)" fill="#e49930"/>
        <path id="Trazado_1090360" data-name="Trazado 1090360" d="M357.681,325.655c1.414.353,3.53-.32,4.935-.669l.133.76a29.489,29.489,0,0,1-2.142,4.672l-.411-.3a2.545,2.545,0,0,0-1.864-.628l-.1-2.879c-.135-.642-.717-.338-1.148-.532a5.364,5.364,0,0,1-.784-.626Z" transform="translate(-4590.338 6149.564)" fill="#d77e16"/>
        <path id="Trazado_1090361" data-name="Trazado 1090361" d="M471.668,279.887a38.825,38.825,0,0,0,6.738,7.789,44.594,44.594,0,0,0-1.617-7.709,147.165,147.165,0,0,1,19.557,4.224c2.8.776,5.651,1.919,8.473,2.5,3.467.714,7.351.613,10.9,1.007,3.719.413,7.469,1.3,11.2,1.468,4.188.184,8.49-.445,12.669-.716,1.972-.128,4.666.081,6.528-.485,7.91,5.849,17.577,8.886,27.451,7.358a39.844,39.844,0,0,0,14.17-5.156,3.225,3.225,0,0,0,1.1,1.445,3.446,3.446,0,0,0,.945-.077,3.808,3.808,0,0,0,3.511-.1,79.11,79.11,0,0,1,7.46-2.911l-7.155,4.8c-.731.522-1.3,1.238-2.009,1.748a14.957,14.957,0,0,0-2.928,2.015c.26.571.662.74,1.167,1.091,1.8.278,2.809-.874,4.437-.884.877-.006,1.487-.709,2.356-.879,1.608-.316,2.3-2.63,3.885-3.122l.235.381-.035.117a5.357,5.357,0,0,0-.193,1.314c1.041,1.184,4.177.942,5.656,1.422,1.06.344,1.933,1.235,3.035,1.639a2.8,2.8,0,0,0,2.237-.867,3.279,3.279,0,0,0,.624-1.239,2.071,2.071,0,0,1,1.712.517,4.71,4.71,0,0,1,1.333,1.5,2.416,2.416,0,0,1-1.43,1.357c-2.128,1-4.445.927-6.088,2.828a5.1,5.1,0,0,0-.1,3.29,2.593,2.593,0,0,0,.83.994,2.024,2.024,0,0,0,1.948-.141c1.36-.747,2.354-1.952,3.885-2.419,1.209-.37,2.061-1.6,2.924-2.475a5.374,5.374,0,0,1,.711-.721,3.855,3.855,0,0,1,.726.094l.411.5c-.332,1.379-1.489,2.157-2.483,3.149l5.163-.605c.889-.071,1.809.123,2.688.007a14.625,14.625,0,0,0,2.445-.823,8,8,0,0,1,3.015-.231l3.875,3.06c-1.549.445-2.765,1.408-4.2,1.841s-3.164.187-4.648.375a8.953,8.953,0,0,0-4.066,1.95,10.9,10.9,0,0,1-1.41,4.12c-.332.613-.022,1.594.107,2.243a50.155,50.155,0,0,1,1.117,6.5c.818,1.476,3.164,2.012,4.68,2.469l1.063-.8a19.424,19.424,0,0,1,10.607-3.16,27.113,27.113,0,0,1,6.9,1.46c4.532,2.135,8.4,5.39,10.154,10.242l.867,3.039.069,5.327v.232l.2.017c1.578.127,3.409-.334,4.928-.057a15.117,15.117,0,0,1,3.223,1.431c-.885-.16-2.569-.75-3.35-.38.58.723,2.24.985,3.085,1.413.391.2.161.31.379.581a4.989,4.989,0,0,0,1.306.428l-.208.459.359.2-.1.33c-.627.288-.9.515-1.588.314l.047.46-.342.218.342.418.441-.14c.277.152.627.438.939.4.976-.112,1.923.047,2.914-.04.753-.067,1.08.276,1.65.683l.56,1.209a1.25,1.25,0,0,1-.818.716,3.366,3.366,0,0,1-1.891.2,1.558,1.558,0,0,1-.275-.15l0,.236a2.285,2.285,0,0,0,1.085.384,9.146,9.146,0,0,1,2,.939l.882-.336.315.319a2.15,2.15,0,0,1-1,1.1c-.074.9-.8,1.446-1.477,2.019-1.487,1.265-3.015,2.4-4.408,3.778-1.269,1.26-2.48,3.029-3.88,4.068-1.452,1.079-3.3.94-4.779,2.218-2.924,2.524-4.6,6.286-7.686,8.8-.828.674-2.834,2.052-2.988,3.119l-.027.249a4.44,4.44,0,0,0,1.036,2.665c1.521,2.425,3.531,4.59,4.926,7.066,2.242,3.981,5.609,13.484,1.623,17.1a3.589,3.589,0,0,1-2.671.891,4.45,4.45,0,0,1-2.758-1.4c-.835-1.118-1.132-2.65-1.995-3.862-1.658-2.329-3.823-4.278-5.438-6.633a9.528,9.528,0,0,1-.847-1.629c.726-1.487,2-3.162,1.667-4.852a16.594,16.594,0,0,1-2.663-.8c-1.935-1.112-5.032-4.951-7.47-3.888-1.5.656-2.822,3.234-3.7,4.589-.134.2-.077.132-.287.279a3.915,3.915,0,0,0-1.588-3.314c-.855-.749-2.916-3.188-4-3.053a4.428,4.428,0,0,0-2.23,1.461c-2.366,2.257-4.229,4.469-7.445,2.18a11.212,11.212,0,0,0-2.2-1.3,39.236,39.236,0,0,0,2.517,3.651,7.737,7.737,0,0,1,1.633,2.717l-.164.392c-.627-.049-1.236-.786-1.645-1.265a11.99,11.99,0,0,0-1.142-1.474,6.566,6.566,0,0,0-2.237-.546,5.34,5.34,0,0,0-.716.69c-.275.638.245.883-.453,1.455a3.4,3.4,0,0,1-1.762-.485c-.411-.594-.528-.721-.369-1.467l.364-.935c-.352-.417-.5-.65-1.1-.659a2.012,2.012,0,0,0-1.529.769,15.454,15.454,0,0,0,.2,3.025l-.1.128a25.332,25.332,0,0,0-9.252-3.98l-.548.166-.857,1.744a37.209,37.209,0,0,0-19.975-8.037,18.711,18.711,0,0,0-5.326-.078,38.494,38.494,0,0,0-17.951,6.036,42.96,42.96,0,0,0-5.715,4.657c-.716-.373-1.641-.339-2.414-.762-2.459-1.346-4.4-3.872-7.434-3.67a2.5,2.5,0,0,0-1.751.991c-1.466,1.833-1.092,4.218-.881,6.383a17.434,17.434,0,0,1-3.082-1.723c-3.693-2.967-4.947-7.514-8.08-10.874a21.392,21.392,0,0,0-7.278-4.6,9.417,9.417,0,0,0-3.259-.969c-.183.1-.4.155-.509.339-.68,1.195-.091,3.248.25,4.51a8.975,8.975,0,0,1-2.664-.418c-9.515-1.912-18.011-6.226-27.267-8.961-3.492-6.743-9.483-12.052-15.949-15.836a17.145,17.145,0,0,0,.2-4.4c-.226-3.252-1.5-9.108-4-11.216l-.146-.121c.423-.223,2.1.425,2.677.536a7.289,7.289,0,0,0,2.051.053l.139-.391a4.738,4.738,0,0,0-3.059-1.625c.726-.925,1.772-1.85,2.069-3.029a1.146,1.146,0,0,0-.183-1.182,2.484,2.484,0,0,0-1.057-.161c-1.328.184-2.18,1.232-2.987,2.191.031-1.711.7-3.2.268-4.987a5.366,5.366,0,0,0-2.946-3.4,1.4,1.4,0,0,0,.425-.319c1.408-1.747,1.274-4.376.8-6.432a7.711,7.711,0,0,1-.379-1.534,11.591,11.591,0,0,1,1.368-2.407,20.576,20.576,0,0,0,3.3-12.147C467.045,296.611,470.272,288.822,471.668,279.887Z" transform="translate(-4664.763 6183.49)" fill="#b3ddef"/>
        <path id="Trazado_1090362" data-name="Trazado 1090362" d="M1182.062,599.535a54.112,54.112,0,0,0,.087-6.562,8.23,8.23,0,0,1,.2-2.7l1.222-.048,0,14.448-1.521-.014Z" transform="translate(-5211.485 5950.04)" fill="#133639"/>
        <path id="Trazado_1090363" data-name="Trazado 1090363" d="M613.235,556.92l1.419.132a10.588,10.588,0,0,1,.155,3.115c-.008,2.6-.219,5.364.011,7.947l-.023,4.3-1.023-.127c-.574-.55-.456-3.772-.516-4.745Z" transform="translate(-4783.61 5975.096)" fill="#223b65"/>
        <path id="Trazado_1090364" data-name="Trazado 1090364" d="M1161.905,648.164l1.521.014c1.494,0,4.589-.411,5.828.3a2.991,2.991,0,0,1,.332,1.879,2.591,2.591,0,0,1-.441.352,15.279,15.279,0,0,1-3.02.063l-8.939.029c-.805-.038-1.306.059-1.861-.555-.037-.577-.183-1.117.28-1.575C1156.454,647.83,1160.671,648.176,1161.905,648.164Z" transform="translate(-5191.35 5906.538)" fill="#177494"/>
        <path id="Trazado_1090365" data-name="Trazado 1090365" d="M581.7,599.8c.059.973-.058,4.194.516,4.745l1.023.127.284-.031c1.357-.076,9.75-.232,10.472.065a3.759,3.759,0,0,1,.617.541,2.4,2.4,0,0,1-.2,1.762,3.4,3.4,0,0,1-.527.37c-1,.394-3.775.072-4.929.071l-16.649-.057a2,2,0,0,1-1.023-1.045,1.712,1.712,0,0,1,.465-1.468,7.516,7.516,0,0,1,3.144-.261l6.78.046Z" transform="translate(-4752.054 5942.842)" fill="#177494"/>
        <path id="Trazado_1090366" data-name="Trazado 1090366" d="M824.527,617.528a1.148,1.148,0,0,1-.491.249,22.088,22.088,0,0,1-3.868.009l-10.379-.027-37.514.011c-3.5,0-28.949.426-29.922-.267a1.973,1.973,0,0,1,.166-1.374l3.6-.078a42.349,42.349,0,0,0,6.631.1l17.951-.08,9.375.1a12.569,12.569,0,0,0,3.936-.143l.031.163.034,1.153a2.535,2.535,0,0,0,.445.272,6.5,6.5,0,0,0,1.345-.007l3.73-.019,17.814-.063,11.749.023A39.394,39.394,0,0,0,824.527,617.528Z" transform="translate(-4880.706 5930.637)" fill="#bfd0d1"/>
        <path id="Trazado_1090367" data-name="Trazado 1090367" d="M767.911,409.963l35.241-16.829,0,16.91-7.414.024a43.141,43.141,0,0,0-5.152-.014l-14.624.01A53.5,53.5,0,0,1,767.911,409.963Z" transform="translate(-4899.962 6098.301)" fill="#a66133"/>
        <path id="Trazado_1090368" data-name="Trazado 1090368" d="M764,487.737l.271-.039-.006,28.268,30.855.011.154-.018,32.414-.008.164-10.441.055,10.3,3.716-.086a35,35,0,0,1,.017,3.746c.932-.005,3.526-.274,4.163.237a9.743,9.743,0,0,1-.057,1.291,39.394,39.394,0,0,1-5.369.016l-11.749-.023-17.814.063-3.73.019a6.5,6.5,0,0,1-1.345.007,2.534,2.534,0,0,1-.445-.272l-.034-1.153-.031-.163a12.57,12.57,0,0,1-3.936.143l-9.375-.1-17.951.08a42.349,42.349,0,0,1-6.631-.1l-.109-3.655,6.877.016-.057-19.21A65.628,65.628,0,0,0,764,487.737Z" transform="translate(-4891.926 6027.167)" fill="#d5d9d6"/>
        <path id="Trazado_1090369" data-name="Trazado 1090369" d="M887.631,393.134l34.317,16.854.575.154a4.612,4.612,0,0,1,.173,1.973l-.017,4.413-2.287.067-32.621.027-.018-6.405-7.538-.15,7.414-.024Z" transform="translate(-4984.442 6098.301)" fill="#924913"/>
        <path id="Trazado_1090370" data-name="Trazado 1090370" d="M921.948,461.156l.575.154a4.612,4.612,0,0,1,.173,1.973l-.017,4.413-2.287.067-32.621.027-.018-6.405-7.538-.15,7.414-.024Z" transform="translate(-4984.442 6047.133)" fill="#d68926"/>
        <path id="Trazado_1090371" data-name="Trazado 1090371" d="M1132.7,447.765a27.111,27.111,0,0,1,6.9,1.46c4.532,2.135,8.4,5.39,10.153,10.242l.867,3.039.069,5.327v.232c-1.3,5.137-3.937,9.354-8.546,12.106a18.82,18.82,0,0,1-9.474,2.892l-1.222.048a8.227,8.227,0,0,0-.2,2.7,54.113,54.113,0,0,1-.087,6.562c-.186-2.376-.035-4.877-.035-7.266a8.58,8.58,0,0,0,0-1.872c-.094-.215-1.018-.238-1.266-.267a18.189,18.189,0,0,1-11.021-5.553,17.928,17.928,0,0,1-4.447-12.77c.23-5.332,2.83-9.412,6.633-12.918l1.063-.8A19.424,19.424,0,0,1,1132.7,447.765Z" transform="translate(-5160.589 6057.206)" fill="#48a249"/>
        <path id="Trazado_1090372" data-name="Trazado 1090372" d="M1140.161,461.122a15.811,15.811,0,0,1,9.747,1.777,15.539,15.539,0,0,1,7.227,8.836,14.194,14.194,0,0,1-1.814,11.236c-2.349,3.865-5.932,5.819-10.2,6.858-3.565.4-6.365.208-9.6-1.516a14.6,14.6,0,0,1-7.165-8.868,13.966,13.966,0,0,1,1.323-10.971C1132.021,464.4,1135.721,462.3,1140.161,461.122Z" transform="translate(-5170.673 6047.255)" fill="#8ed09f"/>
        <path id="Trazado_1090373" data-name="Trazado 1090373" d="M1181.83,563.074l.116.051a2.926,2.926,0,0,0,2.133-.221,4.065,4.065,0,0,1-.456,2.474,1.685,1.685,0,0,1-1.286-.161A3.554,3.554,0,0,1,1181.83,563.074Z" transform="translate(-5211.327 5970.595)" fill="#0c6e67"/>
        <path id="Trazado_1090374" data-name="Trazado 1090374" d="M1163.543,491.729c-.347-.457-2.572-.792-3.228-1.044a16.35,16.35,0,0,1-2.795-1.485l2.693-4.182a10.249,10.249,0,0,0,3.558,1.46,2.859,2.859,0,0,0,2.386-.536,2.012,2.012,0,0,0,.468-1.6c-1.239-1.729-4.284-1.859-6.13-3a5.22,5.22,0,0,1,.471-9.4c.441-.212,1.967-.557,2.2-.923.253-.4-.231-1.59.223-2.312a2.329,2.329,0,0,1,1.613-.646c1.13.8.833,1.629,1.093,2.855,1.952.125,4.68.9,6.028,2.412l-2.027,3.839a11.251,11.251,0,0,0-5.756-1.47l-.32.387a7.733,7.733,0,0,0,.012,1.1c.153.936,5.124,2.413,6.117,3.037a5.949,5.949,0,0,1,2.371,2.6,4.9,4.9,0,0,1,.213,4.016,6.427,6.427,0,0,1-4.319,3.894,16.338,16.338,0,0,0-2.527.78l-.094.049a2.926,2.926,0,0,1-2.133.222Z" transform="translate(-5193.04 6041.939)" fill="#09987f"/>
        <path id="Trazado_1090375" data-name="Trazado 1090375" d="M557.486,436.874a19.79,19.79,0,0,1-18.239-22.138,19.532,19.532,0,0,1,7.089-13.019,20.148,20.148,0,0,1,28.31,3.207,19.832,19.832,0,0,1-3.828,27.813,20.214,20.214,0,0,1-11.638,4.157c-.012,3.634.3,7.58-.11,11.174-.23-2.583-.019-5.346-.011-7.947a10.587,10.587,0,0,0-.155-3.115Z" transform="translate(-4727.861 6095.142)" fill="#48a249"/>
        <path id="Trazado_1090376" data-name="Trazado 1090376" d="M593.535,456.44c1.171,5.071.962,9.744-1.832,14.295a18.255,18.255,0,0,1-10.858,7.9,17.525,17.525,0,0,1-13.413-2.382,15.968,15.968,0,0,1-2.711-2.286c-.569-.6-.979-1.586-1.711-1.913a24.771,24.771,0,0,1,5.152-2.566,3.468,3.468,0,0,0-.16,1.268,16.372,16.372,0,0,0,7.6,2.463l.068,2.453,3.163.192.058-2.865a15.773,15.773,0,0,0,3.622-1.49,5.943,5.943,0,0,0,2.645-3.948,6.965,6.965,0,0,0-.2-3.116A20.545,20.545,0,0,0,593.535,456.44Z" transform="translate(-4745.83 6050.68)" fill="#4bb259"/>
        <path id="Trazado_1090377" data-name="Trazado 1090377" d="M552.32,435.017a17.051,17.051,0,0,1-2.071-17.485,16.952,16.952,0,0,1,9.729-9.236,17.893,17.893,0,0,1,13.669.561c4.675,2.181,7.469,5.763,9.2,10.547a20.545,20.545,0,0,1-8.576,8.007,6.965,6.965,0,0,1,.2,3.116,5.943,5.943,0,0,1-2.645,3.948,15.771,15.771,0,0,1-3.622,1.49l-.058,2.865-3.163-.192-.068-2.453a16.371,16.371,0,0,1-7.6-2.463,3.466,3.466,0,0,1,.16-1.268A24.771,24.771,0,0,0,552.32,435.017Z" transform="translate(-4735.139 6087.718)" fill="#8ed09f"/>
        <path id="Trazado_1090378" data-name="Trazado 1090378" d="M591.888,437.1,587.8,435.61a6.915,6.915,0,0,1-4.029-3.744,6.8,6.8,0,0,1,.368-4.935c1.281-2.48,3.522-3.209,6-4.017l-.029-2.637,4.236-.064-.02,2.572c1.859.464,4.05.858,5.632,1.975l-1.829,4.125a10.8,10.8,0,0,0-4.28-1.525c-1.092-.1-2.755-.224-3.588.619a2.131,2.131,0,0,0-.555,1.653c1.037,1.8,3.8,2.406,5.611,3.141a7.668,7.668,0,0,1,4.792,4.424,6.964,6.964,0,0,1,.2,3.116,5.943,5.943,0,0,1-2.645,3.948,15.771,15.771,0,0,1-3.622,1.49l-.058,2.865-3.163-.192-.068-2.453a16.372,16.372,0,0,1-7.6-2.463,3.467,3.467,0,0,1,.16-1.268,15.2,15.2,0,0,1,1.565-2.494l1.185.459a29.391,29.391,0,0,0,5.845-.787l.077-.123A12.172,12.172,0,0,0,591.888,437.1Z" transform="translate(-4760.983 6077.932)" fill="#09987f"/>
        <path id="Trazado_1090379" data-name="Trazado 1090379" d="M600.726,488.368c.773.356,1.6.62,1.992,1.435a2.025,2.025,0,0,1-1.931,3.079,10.631,10.631,0,0,1-5.883-1.412,29.4,29.4,0,0,0,5.845-.787l.077-.123A12.167,12.167,0,0,0,600.726,488.368Z" transform="translate(-4769.821 6026.663)" fill="#4bb259"/>
        <path id="Trazado_1090380" data-name="Trazado 1090380" d="M766.457,461.057a53.506,53.506,0,0,0,8.05.1l14.624-.01a43.141,43.141,0,0,1,5.152.014l7.538.15.018,6.405,32.621-.027-.022,17.78-.164,10.441-32.414.008-.154.018-30.854-.011.006-28.268-.271.039c-1.11-.369-3.342-.08-4.574-.083l.014-4.319a8.653,8.653,0,0,1,.006-1.73A3.121,3.121,0,0,1,766.457,461.057Z" transform="translate(-4898.508 6047.207)" fill="#e5b56e"/>
        <path id="Trazado_1090381" data-name="Trazado 1090381" d="M897.151,513.7l.167.023-.075,17.431-4.106-.034c-.495-.878-.2-3.221-.2-4.34l.029-13.06Z" transform="translate(-4993.947 6007.606)" fill="#d68926"/>
        <path id="Trazado_1090382" data-name="Trazado 1090382" d="M910.651,513.721l5.274-.024.005,17.482-5.355-.027Z" transform="translate(-5007.28 6007.61)" fill="#d77e16"/>
        <path id="Trazado_1090383" data-name="Trazado 1090383" d="M818.94,513.814l9.862-.027-.005,17.468-9.86.048Z" transform="translate(-4938.347 6007.542)" fill="#d77e16"/>
        <path id="Trazado_1090384" data-name="Trazado 1090384" d="M965.308,513.169l10.462.011c.384,1.212.089,3.4.087,4.746l-.032,12.826-10.595.022Z" transform="translate(-5048.392 6008.007)" fill="#d77e16"/>
        <path id="Trazado_1090385" data-name="Trazado 1090385" d="M766.457,461.057a53.506,53.506,0,0,0,8.05.1l14.624-.01a43.141,43.141,0,0,1,5.152.014l7.538.15.018,6.405-.12.033-30.862-.092-.271.039c-1.11-.369-3.342-.08-4.574-.083l.014-4.319a8.653,8.653,0,0,1,.006-1.73A3.121,3.121,0,0,1,766.457,461.057Z" transform="translate(-4898.508 6047.207)" fill="#e49930"/>
      </g>
    </g>
  </g>
</svg>
