<svg xmlns="http://www.w3.org/2000/svg" xmlns:xlink="http://www.w3.org/1999/xlink" width="93.934" height="93.934" viewBox="0 0 93.934 93.934">
  <defs>
    <filter id="Trazado_982547" x="0" y="0" width="93.934" height="93.934" filterUnits="userSpaceOnUse">
      <feOffset dy="3" input="SourceAlpha"/>
      <feGaussianBlur stdDeviation="3" result="blur"/>
      <feFlood flood-opacity="0.161"/>
      <feComposite operator="in" in2="blur"/>
      <feComposite in="SourceGraphic"/>
    </filter>
  </defs>
  <g id="Grupo_1219545" data-name="Grupo 1219545" transform="translate(-191 -8538)">
    <g id="Grupo_1219300" data-name="Grupo 1219300" transform="translate(-0.295 4816)">
      <g id="Grupo_1214594" data-name="Grupo 1214594" transform="translate(0 -1406)">
        <g id="Grupo_1214432" data-name="Grupo 1214432" transform="translate(-0.771 -2738.674)">
          <g id="Grupo_1183196" data-name="Grupo 1183196" transform="translate(1 1016.674)">
            <g id="Grupo_1179610" data-name="Grupo 1179610" transform="translate(8 4723.467)">
              <g id="Grupo_1175227" data-name="Grupo 1175227" transform="translate(-5.967 140.533)">
                <g id="Grupo_1167337" data-name="Grupo 1167337" transform="translate(198.033 1992)">
                  <g id="Grupo_1166720" data-name="Grupo 1166720">
                    <g id="Grupo_1164305" data-name="Grupo 1164305">
                      <g id="Grupo_1163948" data-name="Grupo 1163948">
                        <g id="Grupo_1158168" data-name="Grupo 1158168">
                          <g id="Grupo_1152576" data-name="Grupo 1152576">
                            <g id="Grupo_1148633" data-name="Grupo 1148633">
                              <g id="Grupo_1148525" data-name="Grupo 1148525">
                                <g transform="matrix(1, 0, 0, 1, -9, -6)" filter="url(#Trazado_982547)">
                                  <g id="Trazado_982547-2" data-name="Trazado 982547" transform="translate(9 6)" fill="#f7f4ed">
                                    <path d="M 37.966796875 74.43359375 C 33.04315185546875 74.43359375 28.26757431030273 73.46962738037109 23.77274131774902 71.56847381591797 C 19.43047523498535 69.73184967041016 15.53040790557861 67.10224914550781 12.18087482452393 63.75271987915039 C 8.831341743469238 60.4031867980957 6.201741218566895 56.50312042236328 4.365118980407715 52.16086196899414 C 2.463963508605957 47.66601943969727 1.499996900558472 42.89044189453125 1.499996900558472 37.966796875 C 1.499996900558472 33.04315185546875 2.463963508605957 28.26757431030273 4.365118980407715 23.77274131774902 C 6.201741218566895 19.43047523498535 8.831341743469238 15.53040790557861 12.18087482452393 12.18087482452393 C 15.53040790557861 8.831341743469238 19.43047523498535 6.201741218566895 23.77274131774902 4.365118980407715 C 28.26757431030273 2.463963508605957 33.04315185546875 1.499996900558472 37.966796875 1.499996900558472 C 42.89044189453125 1.499996900558472 47.66601943969727 2.463963508605957 52.16086196899414 4.365118980407715 C 56.50312042236328 6.201741218566895 60.4031867980957 8.831341743469238 63.75271987915039 12.18087482452393 C 67.10224914550781 15.53040790557861 69.73184967041016 19.43047523498535 71.56847381591797 23.77274131774902 C 73.46962738037109 28.26757431030273 74.43359375 33.04315185546875 74.43359375 37.966796875 C 74.43359375 42.89044189453125 73.46962738037109 47.66601943969727 71.56847381591797 52.16086196899414 C 69.73184967041016 56.50313186645508 67.10224914550781 60.4031867980957 63.75271987915039 63.75271987915039 C 60.4031867980957 67.10224914550781 56.50313186645508 69.73184967041016 52.16086196899414 71.56847381591797 C 47.66601943969727 73.46962738037109 42.89044189453125 74.43359375 37.966796875 74.43359375 Z" stroke="none"/>
                                    <path d="M 37.966796875 3 C 33.2449836730957 3 28.66600799560547 3.924095153808594 24.35705947875977 5.746635437011719 C 20.19359588623047 7.507637023925781 16.45379638671875 10.02928161621094 13.24153518676758 13.24153518676758 C 10.02927398681641 16.45379638671875 7.507621765136719 20.19359588623047 5.746635437011719 24.35705947875977 C 3.924095153808594 28.66600799560547 3 33.2449836730957 3 37.966796875 C 3 42.6886100769043 3.924095153808594 47.26758575439453 5.746635437011719 51.57653427124023 C 7.507621765136719 55.73999786376953 10.02927398681641 59.47979736328125 13.24153518676758 62.69205856323242 C 16.45379638671875 65.90431976318359 20.19359588623047 68.42597198486328 24.35705947875977 70.18695831298828 C 28.66600799560547 72.00949859619141 33.2449836730957 72.93359375 37.966796875 72.93359375 C 42.6886100769043 72.93359375 47.26758575439453 72.00949859619141 51.57653427124023 70.18695831298828 C 55.73999786376953 68.42597198486328 59.47979736328125 65.90431976318359 62.69205856323242 62.69205856323242 C 65.90431976318359 59.47979736328125 68.42597198486328 55.73999786376953 70.18695831298828 51.57653427124023 C 72.00949859619141 47.26758575439453 72.93359375 42.6886100769043 72.93359375 37.966796875 C 72.93359375 33.2449836730957 72.00949859619141 28.66600799560547 70.18695831298828 24.35705947875977 C 68.42597198486328 20.19359588623047 65.90431976318359 16.45379638671875 62.69205856323242 13.24153518676758 C 59.47979736328125 10.02928161621094 55.73999786376953 7.507637023925781 51.57653427124023 5.746635437011719 C 47.26758575439453 3.924095153808594 42.6886100769043 3 37.966796875 3 M 37.966796875 0 C 58.93528366088867 0 75.93359375 16.99832153320312 75.93359375 37.966796875 C 75.93359375 58.93528366088867 58.93528366088867 75.93359375 37.966796875 75.93359375 C 16.99831008911133 75.93359375 0 58.93528366088867 0 37.966796875 C 0 16.99832153320312 16.99831008911133 0 37.966796875 0 Z" stroke="none" fill="#847625"/>
                                  </g>
                                </g>
                              </g>
                            </g>
                          </g>
                        </g>
                      </g>
                    </g>
                  </g>
                </g>
              </g>
            </g>
          </g>
        </g>
      </g>
    </g>
    <g id="servicios-digitales" transform="translate(215 8559)">
      <path id="Trazado_1092017" data-name="Trazado 1092017" d="M21,24.9V8.432A1.432,1.432,0,0,1,22.432,7H46.769A1.432,1.432,0,0,1,48.2,8.432V24.9Z" transform="translate(-5.684 -1.705)" fill="#c8cded"/>
      <path id="Trazado_1092018" data-name="Trazado 1092018" d="M25,11H46.474V26.032H25Z" transform="translate(-6.821 -2.842)" fill="#e2e7f6"/>
      <path id="Trazado_1092019" data-name="Trazado 1092019" d="M16,53.453h5.726l4.295,2.863,22.906-5.011V50.59a2.863,2.863,0,0,0-2.863-2.863H28.884V47.54a1.432,1.432,0,0,0-.344-.931L24.59,42H16Z" transform="translate(-4.263 -11.652)" fill="#fbe1ca"/>
      <path id="Trazado_1092020" data-name="Trazado 1092020" d="M2,40H7.726V55.748H2Z" transform="translate(-0.284 -11.084)" fill="#d5883e"/>
      <path id="Trazado_1092021" data-name="Trazado 1092021" d="M10,40h4.295V54.316H10Z" transform="translate(-2.558 -11.084)" fill="#f0ae42"/>
      <path id="Trazado_1092022" data-name="Trazado 1092022" d="M12.863,51.453V40H10V52.884h1.432A1.432,1.432,0,0,0,12.863,51.453Z" transform="translate(-2.558 -11.084)" fill="#f9d266"/>
      <path id="Trazado_1092023" data-name="Trazado 1092023" d="M18,32H49.5v2.863a1.432,1.432,0,0,1-1.432,1.432H19.432A1.432,1.432,0,0,1,18,34.863Z" transform="translate(-4.831 -8.81)" fill="#9da1bf"/>
      <path id="Trazado_1092024" data-name="Trazado 1092024" d="M44.748,11.305V8.442h-1.6a6.4,6.4,0,0,0-.827-1.994l1.13-1.13L41.429,3.294,40.3,4.424A6.4,6.4,0,0,0,38.305,3.6V2H35.442V3.6a6.4,6.4,0,0,0-1.994.827l-1.13-1.13L30.294,5.318l1.13,1.13A6.4,6.4,0,0,0,30.6,8.442H29v2.863h1.6a6.4,6.4,0,0,0,.827,1.994l-1.13,1.13,2.024,2.024,1.13-1.13a6.4,6.4,0,0,0,1.994.827v1.6h2.863v-1.6a6.4,6.4,0,0,0,1.994-.827l1.13,1.13,2.024-2.024-1.13-1.13a6.4,6.4,0,0,0,.827-1.994Z" transform="translate(-7.957 -0.284)" fill="#5e87ca"/>
      <circle id="Elipse_12044" data-name="Elipse 12044" cx="3.539" cy="3.539" r="3.539" transform="translate(25.775 6.309)" fill="#e2e7f6"/>
      <path id="Trazado_1092025" data-name="Trazado 1092025" d="M2,16H19.179v8.59H2Z" transform="translate(-0.284 -4.263)" fill="#3b5892"/>
      <path id="Trazado_1092026" data-name="Trazado 1092026" d="M2,16H17.242v6.442H2Z" transform="translate(-0.284 -4.263)" fill="#4c6cb5"/>
      <g id="Grupo_1219544" data-name="Grupo 1219544" transform="translate(3.863 12.851)">
        <path id="Trazado_1092027" data-name="Trazado 1092027" d="M7.357,23.6,5.21,21.453a.716.716,0,0,1,0-1.012l2.147-2.147,1.012,1.012L6.728,20.946l1.641,1.641Z" transform="translate(-5 -17.765)" fill="#5e87ca"/>
        <path id="Trazado_1092028" data-name="Trazado 1092028" d="M19.305,23.6l-1.012-1.012,1.641-1.641-1.641-1.641,1.012-1.012,2.147,2.147a.716.716,0,0,1,0,1.012Z" transform="translate(-8.778 -17.765)" fill="#5e87ca"/>
        <path id="Trazado_1092029" data-name="Trazado 1092029" d="M0,0H6.4V1.432H0Z" transform="translate(4.363 5.724) rotate(-63.435)" fill="#5e87ca"/>
      </g>
      <path id="Trazado_1092030" data-name="Trazado 1092030" d="M41.8,46.158H25.266a2.152,2.152,0,0,0-.442-.868L20.87,40.682a.716.716,0,0,0-.543-.251H12.453v-.716A.716.716,0,0,0,11.737,39H1.716A.716.716,0,0,0,1,39.716V55.464a.716.716,0,0,0,.716.716H7.442a.716.716,0,0,0,.716-.716v-.716h3.579a.716.716,0,0,0,.716-.716v-.716h4.8l4.114,2.743a.716.716,0,0,0,.4.12.743.743,0,0,0,.153-.016l22.906-5.011a.716.716,0,0,0,.563-.7v-.716A3.583,3.583,0,0,0,41.8,46.158ZM6.726,54.748H2.432V40.432H6.726Zm4.295-1.432H8.158V40.432h2.863ZM43.948,49.88,21.9,54.7,17.86,52a.72.72,0,0,0-.4-.12H12.453V41.863H20l3.736,4.359a.716.716,0,0,1,.173.466v.9a.716.716,0,0,1-.716.716h-.838a.716.716,0,0,1-.507-.21l-3.16-3.16-1.012,1.012,3.16,3.16a2.132,2.132,0,0,0,1.519.629h.838a2.147,2.147,0,0,0,2.147-2.147H41.8a2.147,2.147,0,0,1,2.147,2.147Z" transform="translate(0 -10.799)"/>
      <path id="Trazado_1092031" data-name="Trazado 1092031" d="M44.664,22.474H43.232V6.726a2.147,2.147,0,0,0-2.147-2.147H36.036A.567.567,0,0,0,36,4.528L33.978,2.5a.716.716,0,0,0-1.012,0l-.743.743a7.116,7.116,0,0,0-1.159-.481V1.716A.716.716,0,0,0,30.348,1H27.485a.716.716,0,0,0-.716.716V2.765a7.116,7.116,0,0,0-1.159.481L24.867,2.5a.716.716,0,0,0-1.012,0L21.83,4.528a.567.567,0,0,0-.033.051H16.748A2.147,2.147,0,0,0,14.6,6.726v4.295H1.716A.716.716,0,0,0,1,11.737v8.59a.716.716,0,0,0,.716.716H14.6v1.432H13.169a.716.716,0,0,0-.716.716v2.863A2.147,2.147,0,0,0,14.6,28.2H43.232a2.147,2.147,0,0,0,2.147-2.147V23.19A.716.716,0,0,0,44.664,22.474ZM41.8,6.726V22.474H40.369V8.158a.716.716,0,0,0-.716-.716H35.741a7.116,7.116,0,0,0-.481-1.159l.273-.273h5.552a.716.716,0,0,1,.716.716Zm-22.19,13.6v-8.59a.716.716,0,0,0-.716-.716V8.874h1.432v2.147a.716.716,0,0,0,.716.716h1.049a7.116,7.116,0,0,0,.481,1.159l-.743.743a.716.716,0,0,0,0,1.012l2.025,2.025a.716.716,0,0,0,1.012,0l.743-.743a7.109,7.109,0,0,0,1.159.481v1.049a.716.716,0,0,0,.716.716h2.863a.716.716,0,0,0,.716-.716V16.414a7.108,7.108,0,0,0,1.159-.482l.743.744a.716.716,0,0,0,1.012,0L36,14.651a.716.716,0,0,0,0-1.012l-.742-.743a7.116,7.116,0,0,0,.48-1.159H36.79a.716.716,0,0,0,.716-.716V8.874h1.432v13.6H18.9V21.043A.716.716,0,0,0,19.611,20.327Zm3.726-12.01a5.667,5.667,0,0,1,.735-1.77.716.716,0,0,0-.1-.888l-.624-.624,1.012-1.012.624.624a.716.716,0,0,0,.888.1,5.667,5.667,0,0,1,1.77-.735.716.716,0,0,0,.557-.7v-.88h1.432v.88a.716.716,0,0,0,.557.7,5.667,5.667,0,0,1,1.77.735.716.716,0,0,0,.888-.1l.624-.624,1.012,1.012-.624.624a.716.716,0,0,0-.1.888,5.667,5.667,0,0,1,.735,1.77.716.716,0,0,0,.7.557h.88v1.432h-.88a.716.716,0,0,0-.7.557,5.667,5.667,0,0,1-.735,1.77.716.716,0,0,0,.1.888l.624.624-1.012,1.012-.624-.624a.716.716,0,0,0-.888-.1,5.678,5.678,0,0,1-1.77.735.716.716,0,0,0-.558.7v.881H28.2v-.881a.716.716,0,0,0-.558-.7,5.678,5.678,0,0,1-1.77-.735.716.716,0,0,0-.888.1l-.624.624-1.012-1.012.624-.624a.716.716,0,0,0,.1-.888,5.667,5.667,0,0,1-.735-1.77.716.716,0,0,0-.7-.557h-.88V8.874h.88a.716.716,0,0,0,.7-.557ZM16.032,6.726a.716.716,0,0,1,.716-.716H22.3l.273.273a7.115,7.115,0,0,0-.481,1.159H18.179a.716.716,0,0,0-.716.716v2.863H16.032Zm-13.6,5.726H18.179v7.158H2.432Zm13.6,8.59h1.432v1.432H16.032Zm27.916,5.011a.716.716,0,0,1-.716.716H14.6a.716.716,0,0,1-.716-.716V23.906H43.948Z"/>
      <path id="Trazado_1092032" data-name="Trazado 1092032" d="M38.295,15.59A4.295,4.295,0,1,0,34,11.295,4.295,4.295,0,0,0,38.295,15.59Zm0-7.158a2.863,2.863,0,1,1-2.863,2.863A2.863,2.863,0,0,1,38.295,8.432Z" transform="translate(-9.378 -1.705)"/>
      <path id="Trazado_1092033" data-name="Trazado 1092033" d="M7.357,18.293,5.21,20.44a.716.716,0,0,0,0,1.012L7.357,23.6l1.012-1.012L6.728,20.946l1.641-1.641Z" transform="translate(-1.137 -4.915)"/>
      <path id="Trazado_1092034" data-name="Trazado 1092034" d="M19.305,18.293l-1.012,1.012,1.641,1.641-1.641,1.641L19.305,23.6l2.147-2.147a.716.716,0,0,0,0-1.012Z" transform="translate(-4.915 -4.915)"/>
      <path id="Trazado_1092035" data-name="Trazado 1092035" d="M0,0H6.4V1.432H0Z" transform="translate(8.226 18.574) rotate(-63.435)"/>
    </g>
  </g>
</svg>
