<svg xmlns="http://www.w3.org/2000/svg" xmlns:xlink="http://www.w3.org/1999/xlink" width="93.934" height="93.934" viewBox="0 0 93.934 93.934">
  <defs>
    <filter id="Trazado_982547" x="0" y="0" width="93.934" height="93.934" filterUnits="userSpaceOnUse">
      <feOffset dy="3" input="SourceAlpha"/>
      <feGaussianBlur stdDeviation="3" result="blur"/>
      <feFlood flood-opacity="0.161"/>
      <feComposite operator="in" in2="blur"/>
      <feComposite in="SourceGraphic"/>
    </filter>
  </defs>
  <g id="Grupo_1219552" data-name="Grupo 1219552" transform="translate(-611 -8538)">
    <g id="Grupo_1219301" data-name="Grupo 1219301" transform="translate(419.705 4816)">
      <g id="Grupo_1214594" data-name="Grupo 1214594" transform="translate(0 -1406)">
        <g id="Grupo_1214432" data-name="Grupo 1214432" transform="translate(-0.771 -2738.674)">
          <g id="Grupo_1183196" data-name="Grupo 1183196" transform="translate(1 1016.674)">
            <g id="Grupo_1179610" data-name="Grupo 1179610" transform="translate(8 4723.467)">
              <g id="Grupo_1175227" data-name="Grupo 1175227" transform="translate(-5.967 140.533)">
                <g id="Grupo_1167337" data-name="Grupo 1167337" transform="translate(198.033 1992)">
                  <g id="Grupo_1166720" data-name="Grupo 1166720">
                    <g id="Grupo_1164305" data-name="Grupo 1164305">
                      <g id="Grupo_1163948" data-name="Grupo 1163948">
                        <g id="Grupo_1158168" data-name="Grupo 1158168">
                          <g id="Grupo_1152576" data-name="Grupo 1152576">
                            <g id="Grupo_1148633" data-name="Grupo 1148633">
                              <g id="Grupo_1148525" data-name="Grupo 1148525">
                                <g transform="matrix(1, 0, 0, 1, -9, -6)" filter="url(#Trazado_982547)">
                                  <g id="Trazado_982547-2" data-name="Trazado 982547" transform="translate(9 6)" fill="#f7f4ed">
                                    <path d="M 37.966796875 74.43359375 C 33.04315185546875 74.43359375 28.26757431030273 73.46962738037109 23.77274131774902 71.56847381591797 C 19.43047523498535 69.73184967041016 15.53040790557861 67.10224914550781 12.18087482452393 63.75271987915039 C 8.831341743469238 60.4031867980957 6.201741218566895 56.50312042236328 4.365118980407715 52.16086196899414 C 2.463963508605957 47.66601943969727 1.499996900558472 42.89044189453125 1.499996900558472 37.966796875 C 1.499996900558472 33.04315185546875 2.463963508605957 28.26757431030273 4.365118980407715 23.77274131774902 C 6.201741218566895 19.43047523498535 8.831341743469238 15.53040790557861 12.18087482452393 12.18087482452393 C 15.53040790557861 8.831341743469238 19.43047523498535 6.201741218566895 23.77274131774902 4.365118980407715 C 28.26757431030273 2.463963508605957 33.04315185546875 1.499996900558472 37.966796875 1.499996900558472 C 42.89044189453125 1.499996900558472 47.66601943969727 2.463963508605957 52.16086196899414 4.365118980407715 C 56.50312042236328 6.201741218566895 60.4031867980957 8.831341743469238 63.75271987915039 12.18087482452393 C 67.10224914550781 15.53040790557861 69.73184967041016 19.43047523498535 71.56847381591797 23.77274131774902 C 73.46962738037109 28.26757431030273 74.43359375 33.04315185546875 74.43359375 37.966796875 C 74.43359375 42.89044189453125 73.46962738037109 47.66601943969727 71.56847381591797 52.16086196899414 C 69.73184967041016 56.50313186645508 67.10224914550781 60.4031867980957 63.75271987915039 63.75271987915039 C 60.4031867980957 67.10224914550781 56.50313186645508 69.73184967041016 52.16086196899414 71.56847381591797 C 47.66601943969727 73.46962738037109 42.89044189453125 74.43359375 37.966796875 74.43359375 Z" stroke="none"/>
                                    <path d="M 37.966796875 3 C 33.2449836730957 3 28.66600799560547 3.924095153808594 24.35705947875977 5.746635437011719 C 20.19359588623047 7.507637023925781 16.45379638671875 10.02928161621094 13.24153518676758 13.24153518676758 C 10.02927398681641 16.45379638671875 7.507621765136719 20.19359588623047 5.746635437011719 24.35705947875977 C 3.924095153808594 28.66600799560547 3 33.2449836730957 3 37.966796875 C 3 42.6886100769043 3.924095153808594 47.26758575439453 5.746635437011719 51.57653427124023 C 7.507621765136719 55.73999786376953 10.02927398681641 59.47979736328125 13.24153518676758 62.69205856323242 C 16.45379638671875 65.90431976318359 20.19359588623047 68.42597198486328 24.35705947875977 70.18695831298828 C 28.66600799560547 72.00949859619141 33.2449836730957 72.93359375 37.966796875 72.93359375 C 42.6886100769043 72.93359375 47.26758575439453 72.00949859619141 51.57653427124023 70.18695831298828 C 55.73999786376953 68.42597198486328 59.47979736328125 65.90431976318359 62.69205856323242 62.69205856323242 C 65.90431976318359 59.47979736328125 68.42597198486328 55.73999786376953 70.18695831298828 51.57653427124023 C 72.00949859619141 47.26758575439453 72.93359375 42.6886100769043 72.93359375 37.966796875 C 72.93359375 33.2449836730957 72.00949859619141 28.66600799560547 70.18695831298828 24.35705947875977 C 68.42597198486328 20.19359588623047 65.90431976318359 16.45379638671875 62.69205856323242 13.24153518676758 C 59.47979736328125 10.02928161621094 55.73999786376953 7.507637023925781 51.57653427124023 5.746635437011719 C 47.26758575439453 3.924095153808594 42.6886100769043 3 37.966796875 3 M 37.966796875 0 C 58.93528366088867 0 75.93359375 16.99832153320312 75.93359375 37.966796875 C 75.93359375 58.93528366088867 58.93528366088867 75.93359375 37.966796875 75.93359375 C 16.99831008911133 75.93359375 0 58.93528366088867 0 37.966796875 C 0 16.99832153320312 16.99831008911133 0 37.966796875 0 Z" stroke="none" fill="#847625"/>
                                  </g>
                                </g>
                              </g>
                            </g>
                          </g>
                        </g>
                      </g>
                    </g>
                  </g>
                </g>
              </g>
            </g>
          </g>
        </g>
      </g>
    </g>
    <g id="gestion-de-proyectos" transform="translate(628.735 8574.518)">
      <g id="Grupo_1219551" data-name="Grupo 1219551" transform="translate(3.675 -18.517)">
        <g id="Grupo_1219546" data-name="Grupo 1219546" transform="translate(10.76 8.851)">
          <path id="Trazado_1092036" data-name="Trazado 1092036" d="M115.3,72.713h21.981a.693.693,0,0,1,.507.21l4.026,4.026a.693.693,0,0,1,.21.507v30.106a.718.718,0,0,1-.717.717H115.3a.718.718,0,0,1-.717-.717V73.43A.718.718,0,0,1,115.3,72.713Z" transform="translate(-114.583 -72.713)" fill="#eceff1" fill-rule="evenodd"/>
          <path id="Trazado_1092037" data-name="Trazado 1092037" d="M115.3,72.713h1.312v35.566H115.3a.718.718,0,0,1-.717-.717V73.43a.718.718,0,0,1,.717-.717Z" transform="translate(-114.583 -72.713)" fill="#d1d1d6" fill-rule="evenodd"/>
          <path id="Trazado_1092038" data-name="Trazado 1092038" d="M351.589,73.354a.718.718,0,0,1,.21.148l4.026,4.026a.72.72,0,0,1,.148.21h-4.025a.359.359,0,0,1-.358-.358Z" transform="translate(-328.594 -73.292)" fill="#a79ba7" fill-rule="evenodd"/>
          <path id="Trazado_1092039" data-name="Trazado 1092039" d="M161.7,201.19h3.012a.292.292,0,0,1,.291.291v3.012a.292.292,0,0,1-.291.291H161.7a.292.292,0,0,1-.291-.291V201.48A.292.292,0,0,1,161.7,201.19Zm0-13.584h3.012a.292.292,0,0,1,.291.291v3.012a.292.292,0,0,1-.291.291H161.7a.292.292,0,0,1-.291-.291V187.9A.292.292,0,0,1,161.7,187.606Zm0,6.792h3.012a.292.292,0,0,1,.291.291V197.7a.292.292,0,0,1-.291.291H161.7a.292.292,0,0,1-.291-.291v-3.012A.292.292,0,0,1,161.7,194.4Z" transform="translate(-156.864 -176.459)" fill="#8ac9fe" fill-rule="evenodd"/>
          <path id="Trazado_1092040" data-name="Trazado 1092040" d="M185.454,201.19h.97a.292.292,0,0,1,.291.291v3.012a.292.292,0,0,1-.291.291h-.97a.292.292,0,0,0,.291-.291V201.48A.292.292,0,0,0,185.454,201.19Zm0-13.584h.97a.292.292,0,0,1,.291.291v3.012a.292.292,0,0,1-.291.291h-.97a.292.292,0,0,0,.291-.291V187.9A.292.292,0,0,0,185.454,187.606Zm0,6.792h.97a.292.292,0,0,1,.291.291V197.7a.292.292,0,0,1-.291.291h-.97a.292.292,0,0,0,.291-.291v-3.012A.292.292,0,0,0,185.454,194.4Z" transform="translate(-178.578 -176.459)" fill="#60b7ff" fill-rule="evenodd"/>
        </g>
        <g id="Grupo_1219547" data-name="Grupo 1219547" transform="translate(31.572 33.725)">
          <path id="Trazado_1092041" data-name="Trazado 1092041" d="M338.8,330.431a6.911,6.911,0,0,1,2.023.839l1.315-.584,1.55,1.55-.584,1.314a6.911,6.911,0,0,1,.839,2.024l1.341.516v2.192l-1.342.516a6.912,6.912,0,0,1-.839,2.023l.584,1.315-1.55,1.55-1.314-.584a6.91,6.91,0,0,1-2.024.839l-.516,1.342H336.09l-.516-1.342a6.909,6.909,0,0,1-2.023-.839l-1.315.584-1.55-1.55.584-1.314a6.91,6.91,0,0,1-.839-2.024l-1.342-.516V336.09l1.342-.516a6.91,6.91,0,0,1,.839-2.024l-.584-1.315,1.55-1.55,1.315.584a6.908,6.908,0,0,1,2.023-.839l.516-1.342h2.192Z" transform="translate(-329.089 -329.089)" fill="#ffe177" fill-rule="evenodd"/>
          <path id="Trazado_1092042" data-name="Trazado 1092042" d="M360.947,343.1l-1.315.584-.2-.2,1.233-.547Q360.8,343.023,360.947,343.1Zm5.248-12.671a6.912,6.912,0,0,1,2.023.839l-.374.166a9.114,9.114,0,0,0-2.308-1l-.516-1.342h.658Zm2.024,12.672a6.911,6.911,0,0,1-2.024.839l-.516,1.342h-.658l.516-1.342a9.112,9.112,0,0,0,2.309-1.005Zm-8.789-12.214.2-.2,1.315.584q-.144.08-.285.166Zm9.648,0,.456-.2,1.55,1.55-.584,1.314a6.909,6.909,0,0,1,.839,2.024l1.342.516v2.192l-1.342.516a6.913,6.913,0,0,1-.839,2.023l.584,1.315-1.55,1.55-.456-.2,1.347-1.347-.584-1.315a6.912,6.912,0,0,0,.839-2.023l1.342-.516V336.09l-1.341-.516a6.91,6.91,0,0,0-.839-2.024l.584-1.314Z" transform="translate(-356.486 -329.089)" fill="#ffd064" fill-rule="evenodd"/>
          <path id="Trazado_1092043" data-name="Trazado 1092043" d="M372.581,368.289a4.294,4.294,0,1,0,4.294,4.294A4.294,4.294,0,0,0,372.581,368.289Z" transform="translate(-364.484 -364.486)" fill="#eceff1" fill-rule="evenodd"/>
          <path id="Trazado_1092044" data-name="Trazado 1092044" d="M372.582,368.289a4.294,4.294,0,0,0,0,8.587q.172,0,.342-.013a4.294,4.294,0,0,1,0-8.56Q372.754,368.289,372.582,368.289Z" transform="translate(-364.485 -364.486)" fill="#d1d1d6" fill-rule="evenodd"/>
        </g>
        <g id="Grupo_1219548" data-name="Grupo 1219548" transform="translate(1.196 3.349)">
          <circle id="Elipse_12045" data-name="Elipse 12045" cx="8.097" cy="8.097" r="8.097" transform="translate(0 0)" fill="#ffc338"/>
          <path id="Trazado_1092045" data-name="Trazado 1092045" d="M93,16a8.1,8.1,0,1,1,0,16.194c-.234,0-.465-.01-.693-.03a8.1,8.1,0,0,0,0-16.134c.228-.019.459-.03.693-.03Z" transform="translate(-84.905 -15.999)" fill="#f5b829" fill-rule="evenodd"/>
        </g>
        <g id="Grupo_1219549" data-name="Grupo 1219549" transform="translate(0 32.529)">
          <circle id="Elipse_12046" data-name="Elipse 12046" cx="8.097" cy="8.097" r="8.097" transform="matrix(0.16, -0.987, 0.987, 0.16, 0, 15.983)" fill="#685e68"/>
          <path id="Trazado_1092046" data-name="Trazado 1092046" d="M94.937,329.089a8.1,8.1,0,1,1,0,16.194c-.163,0-.325-.005-.485-.015a8.1,8.1,0,0,0,0-16.164C94.613,329.094,94.774,329.089,94.937,329.089Z" transform="translate(-85.645 -327.892)" fill="#544854" fill-rule="evenodd"/>
          <circle id="Elipse_12047" data-name="Elipse 12047" cx="2.859" cy="2.859" r="2.859" transform="translate(6.434 5.327)" fill="#f6dccd"/>
          <path id="Trazado_1092047" data-name="Trazado 1092047" d="M97.418,371.661a2.859,2.859,0,0,1,0,5.718q-.11,0-.219-.008a2.859,2.859,0,0,0,0-5.7Q97.307,371.661,97.418,371.661Z" transform="translate(-88.125 -366.334)" fill="#f1cbbc" fill-rule="evenodd"/>
          <path id="Trazado_1092048" data-name="Trazado 1092048" d="M50.013,430.786a5.661,5.661,0,0,0-6.941,4.025,8.1,8.1,0,0,0,10.94,0,5.661,5.661,0,0,0-4-4.025Z" transform="translate(-39.25 -419.548)" fill="#9bc9ff" fill-rule="evenodd"/>
          <path id="Trazado_1092049" data-name="Trazado 1092049" d="M67.973,430.786a5.664,5.664,0,0,0-5.012,1.053,5.655,5.655,0,0,1,8.811,3.126q-.215.2-.445.379a8.14,8.14,0,0,0,.645-.533,5.661,5.661,0,0,0-4-4.025Z" transform="translate(-57.209 -419.548)" fill="#60b7ff" fill-rule="evenodd"/>
        </g>
        <g id="Grupo_1219550" data-name="Grupo 1219550" transform="translate(28.215 0)">
          <circle id="Elipse_12048" data-name="Elipse 12048" cx="8.097" cy="8.097" r="8.097" transform="translate(0 11.449) rotate(-45)" fill="#8ac9fe"/>
          <path id="Trazado_1092050" data-name="Trazado 1092050" d="M410.287,16a8.1,8.1,0,1,1,0,16.194c-.081,0-.162,0-.243,0a8.1,8.1,0,0,0,0-16.186c.081,0,.161,0,.243,0Z" transform="translate(-398.832 -12.65)" fill="#60b7ff" fill-rule="evenodd"/>
        </g>
      </g>
      <path id="Trazado_1092051" data-name="Trazado 1092051" d="M28.972,40.128H40.735a.776.776,0,0,0,0-1.552H28.972a.776.776,0,0,0,0,1.552Zm0-6.792H40.735a.776.776,0,0,0,0-1.552H28.972a.776.776,0,0,0,0,1.552Zm0,2.911H40.735a.776.776,0,0,0,0-1.552H28.972a.776.776,0,0,0,0,1.552ZM25.7,32.995H23.659v2.042H25.7Zm1.553,2.818a.776.776,0,0,1-.776.776H22.882a.776.776,0,0,1-.776-.776V32.219a.776.776,0,0,1,.776-.776h3.594a.776.776,0,0,1,.776.776Zm1.72-9.268H40.735a.776.776,0,1,0,0-1.552H28.972a.776.776,0,1,0,0,1.552Zm0,2.911H40.735a.776.776,0,0,0,0-1.552H28.972a.776.776,0,0,0,0,1.552Zm-5.314-1.211H25.7V26.2H23.659Zm-1.552.776V25.426a.776.776,0,0,1,.776-.776h3.594a.776.776,0,0,1,.776.776v3.595a.776.776,0,0,1-.776.776H22.882A.776.776,0,0,1,22.106,29.021ZM50.764,47.25a3.517,3.517,0,1,0-3.516,3.518A3.52,3.52,0,0,0,50.764,47.25Zm1.553,0a5.069,5.069,0,1,1-5.069-5.069A5.075,5.075,0,0,1,52.317,47.25Zm2.252-.563v1.125l-.845.325a.777.777,0,0,0-.475.545,6.121,6.121,0,0,1-.744,1.8.765.765,0,0,0-.05.722l.37.828-.8.8-.827-.368a.776.776,0,0,0-.722.048,6.1,6.1,0,0,1-1.8.745.779.779,0,0,0-.544.476l-.325.844H46.684l-.325-.845a.777.777,0,0,0-.544-.476,6.121,6.121,0,0,1-1.8-.745.776.776,0,0,0-.722-.048l-.828.368-.8-.8.368-.828a.774.774,0,0,0-.049-.722,6.152,6.152,0,0,1-.745-1.8.774.774,0,0,0-.476-.545l-.843-.325V46.688l.844-.325a.775.775,0,0,0,.476-.544,6.136,6.136,0,0,1,.744-1.8.774.774,0,0,0,.049-.722l-.368-.828.8-.8.828.368A.777.777,0,0,0,44.018,42a6.129,6.129,0,0,1,1.8-.745.776.776,0,0,0,.545-.476l.325-.844H47.81l.325.844a.777.777,0,0,0,.544.476,6.117,6.117,0,0,1,1.8.745.778.778,0,0,0,.722.048l.827-.368.8.8-.37.828a.777.777,0,0,0,.05.722,6.127,6.127,0,0,1,.744,1.8.777.777,0,0,0,.475.544Zm-28.824.563a8.818,8.818,0,0,0-.89-3.87h1.621a.776.776,0,0,0,.776-.776V39.01a.776.776,0,0,0-.776-.776H22.882a.776.776,0,0,0-.776.776v1.081a8.831,8.831,0,0,0-2.991-1.425V25.459a8.874,8.874,0,0,0,6.441-10.4H38.562A8.879,8.879,0,0,0,45,25.459V39.864a7.627,7.627,0,0,0-1.438.6l-.954-.424a.776.776,0,0,0-.864.161l-1.285,1.284H28.972a.776.776,0,0,0,0,1.552H40.226l.235.53a7.65,7.65,0,0,0-.616,1.488l-.973.375a.775.775,0,0,0-.5.724v2.192a.775.775,0,0,0,.493.722H25.556a8.872,8.872,0,0,0,.188-1.818Zm-8.874,7.321a7.291,7.291,0,0,0,4.793-1.794,4.878,4.878,0,0,0-9.586,0A7.292,7.292,0,0,0,16.871,54.571Zm0-7.316a2.082,2.082,0,1,0-2.083-2.082A2.085,2.085,0,0,0,16.871,47.255Zm7.018-5.427H25.7V39.786H23.659v1.756c.078.093.155.189.231.286ZM9.55,47.25a7.277,7.277,0,0,0,1.3,4.162,6.416,6.416,0,0,1,3.481-3.639,3.635,3.635,0,1,1,5.072,0,6.412,6.412,0,0,1,3.481,3.639A7.319,7.319,0,1,0,9.55,47.25Zm7.321-23.056A7.321,7.321,0,1,0,9.55,16.874,7.329,7.329,0,0,0,16.871,24.195Zm23.056-7.321a7.321,7.321,0,1,0,7.32-7.32A7.329,7.329,0,0,0,39.927,16.874ZM56.121,46.155v2.192a.774.774,0,0,1-.5.724l-.973.375a7.637,7.637,0,0,1-.617,1.487l.425.954a.787.787,0,0,1-.16.865L52.746,54.3a.775.775,0,0,1-.863.16l-.95-.423a7.806,7.806,0,0,1-1.491.617l-.375.972a.776.776,0,0,1-.724.5H46.152a.776.776,0,0,1-.724-.5l-.375-.973a7.667,7.667,0,0,1-1.488-.616l-.954.423a.777.777,0,0,1-.864-.16L40.2,52.75a.778.778,0,0,1-.161-.865l.423-.953c-.055-.1-.107-.207-.159-.312H25.079a8.873,8.873,0,1,1-8.208-12.243c.232,0,.464.009.691.027V25.72c-.228.017-.459.027-.691.027A8.873,8.873,0,1,1,25.079,13.5H39.041a8.873,8.873,0,1,1,8.207,12.243c-.232,0-.464-.01-.691-.027V38.378h1.787a.776.776,0,0,1,.724.5l.375.973a7.646,7.646,0,0,1,1.486.617l.955-.424a.776.776,0,0,1,.863.161l1.548,1.55a.778.778,0,0,1,.164.863l-.425.954a7.648,7.648,0,0,1,.617,1.488l.973.375a.774.774,0,0,1,.5.724ZM17,16.079c-1.643-.27-1.674-.907-1.685-1.148a1.246,1.246,0,0,1,1.11-1.209,1.779,1.779,0,0,1,2.11.993.777.777,0,0,0,1.432-.6A3.164,3.164,0,0,0,17.647,12.2v-.45a.776.776,0,1,0-1.552,0v.457l-.01,0a2.761,2.761,0,0,0-2.317,2.8c.048.972.6,2.213,2.985,2.6,1.608.264,1.877.808,1.932,1.252a.78.78,0,0,1-.178.643,2.235,2.235,0,0,1-1.548.57,1.813,1.813,0,0,1-1.932-1.212.776.776,0,1,0-1.506.375,3.177,3.177,0,0,0,2.574,2.314V22a.776.776,0,1,0,1.552,0v-.431a3.434,3.434,0,0,0,2.033-1.045,2.321,2.321,0,0,0,.544-1.847c-.17-1.4-1.253-2.273-3.221-2.6Zm29.467.795v-4.81a.776.776,0,0,1,1.552,0v4.362l3.092,1.786a.776.776,0,1,1-.776,1.345l-3.479-2.01a.778.778,0,0,1-.388-.672Z" transform="translate(-3.903 -23.946)" fill="#242222" fill-rule="evenodd"/>
    </g>
  </g>
</svg>
