<svg xmlns="http://www.w3.org/2000/svg" xmlns:xlink="http://www.w3.org/1999/xlink" width="93.934" height="93.934" viewBox="0 0 93.934 93.934">
  <defs>
    <filter id="Trazado_982547" x="0" y="0" width="93.934" height="93.934" filterUnits="userSpaceOnUse">
      <feOffset dy="3" input="SourceAlpha"/>
      <feGaussianBlur stdDeviation="3" result="blur"/>
      <feFlood flood-opacity="0.161"/>
      <feComposite operator="in" in2="blur"/>
      <feComposite in="SourceGraphic"/>
    </filter>
  </defs>
  <g id="Grupo_1219388" data-name="Grupo 1219388" transform="translate(-504.066 -7340)">
    <g id="Grupo_1219279" data-name="Grupo 1219279" transform="translate(312.771 3618)">
      <g id="Grupo_1214594" data-name="Grupo 1214594" transform="translate(0 -1406)">
        <g id="Grupo_1214432" data-name="Grupo 1214432" transform="translate(-0.771 -2738.674)">
          <g id="Grupo_1183196" data-name="Grupo 1183196" transform="translate(1 1016.674)">
            <g id="Grupo_1179610" data-name="Grupo 1179610" transform="translate(8 4723.467)">
              <g id="Grupo_1175227" data-name="Grupo 1175227" transform="translate(-5.967 140.533)">
                <g id="Grupo_1167337" data-name="Grupo 1167337" transform="translate(198.033 1992)">
                  <g id="Grupo_1166720" data-name="Grupo 1166720">
                    <g id="Grupo_1164305" data-name="Grupo 1164305">
                      <g id="Grupo_1163948" data-name="Grupo 1163948">
                        <g id="Grupo_1158168" data-name="Grupo 1158168">
                          <g id="Grupo_1152576" data-name="Grupo 1152576">
                            <g id="Grupo_1148633" data-name="Grupo 1148633">
                              <g id="Grupo_1148525" data-name="Grupo 1148525">
                                <g transform="matrix(1, 0, 0, 1, -9, -6)" filter="url(#Trazado_982547)">
                                  <g id="Trazado_982547-2" data-name="Trazado 982547" transform="translate(9 6)" fill="#f7f4ed">
                                    <path d="M 37.966796875 74.43359375 C 33.04315185546875 74.43359375 28.26757431030273 73.46962738037109 23.77274131774902 71.56847381591797 C 19.43047523498535 69.73184967041016 15.53040790557861 67.10224914550781 12.18087482452393 63.75271987915039 C 8.831341743469238 60.4031867980957 6.201741218566895 56.50312042236328 4.365118980407715 52.16086196899414 C 2.463963508605957 47.66601943969727 1.499996900558472 42.89044189453125 1.499996900558472 37.966796875 C 1.499996900558472 33.04315185546875 2.463963508605957 28.26757431030273 4.365118980407715 23.77274131774902 C 6.201741218566895 19.43047523498535 8.831341743469238 15.53040790557861 12.18087482452393 12.18087482452393 C 15.53040790557861 8.831341743469238 19.43047523498535 6.201741218566895 23.77274131774902 4.365118980407715 C 28.26757431030273 2.463963508605957 33.04315185546875 1.499996900558472 37.966796875 1.499996900558472 C 42.89044189453125 1.499996900558472 47.66601943969727 2.463963508605957 52.16086196899414 4.365118980407715 C 56.50312042236328 6.201741218566895 60.4031867980957 8.831341743469238 63.75271987915039 12.18087482452393 C 67.10224914550781 15.53040790557861 69.73184967041016 19.43047523498535 71.56847381591797 23.77274131774902 C 73.46962738037109 28.26757431030273 74.43359375 33.04315185546875 74.43359375 37.966796875 C 74.43359375 42.89044189453125 73.46962738037109 47.66601943969727 71.56847381591797 52.16086196899414 C 69.73184967041016 56.50313186645508 67.10224914550781 60.4031867980957 63.75271987915039 63.75271987915039 C 60.4031867980957 67.10224914550781 56.50313186645508 69.73184967041016 52.16086196899414 71.56847381591797 C 47.66601943969727 73.46962738037109 42.89044189453125 74.43359375 37.966796875 74.43359375 Z" stroke="none"/>
                                    <path d="M 37.966796875 3 C 33.2449836730957 3 28.66600799560547 3.924095153808594 24.35705947875977 5.746635437011719 C 20.19359588623047 7.507637023925781 16.45379638671875 10.02928161621094 13.24153518676758 13.24153518676758 C 10.02927398681641 16.45379638671875 7.507621765136719 20.19359588623047 5.746635437011719 24.35705947875977 C 3.924095153808594 28.66600799560547 3 33.2449836730957 3 37.966796875 C 3 42.6886100769043 3.924095153808594 47.26758575439453 5.746635437011719 51.57653427124023 C 7.507621765136719 55.73999786376953 10.02927398681641 59.47979736328125 13.24153518676758 62.69205856323242 C 16.45379638671875 65.90431976318359 20.19359588623047 68.42597198486328 24.35705947875977 70.18695831298828 C 28.66600799560547 72.00949859619141 33.2449836730957 72.93359375 37.966796875 72.93359375 C 42.6886100769043 72.93359375 47.26758575439453 72.00949859619141 51.57653427124023 70.18695831298828 C 55.73999786376953 68.42597198486328 59.47979736328125 65.90431976318359 62.69205856323242 62.69205856323242 C 65.90431976318359 59.47979736328125 68.42597198486328 55.73999786376953 70.18695831298828 51.57653427124023 C 72.00949859619141 47.26758575439453 72.93359375 42.6886100769043 72.93359375 37.966796875 C 72.93359375 33.2449836730957 72.00949859619141 28.66600799560547 70.18695831298828 24.35705947875977 C 68.42597198486328 20.19359588623047 65.90431976318359 16.45379638671875 62.69205856323242 13.24153518676758 C 59.47979736328125 10.02928161621094 55.73999786376953 7.507637023925781 51.57653427124023 5.746635437011719 C 47.26758575439453 3.924095153808594 42.6886100769043 3 37.966796875 3 M 37.966796875 0 C 58.93528366088867 0 75.93359375 16.99832153320312 75.93359375 37.966796875 C 75.93359375 58.93528366088867 58.93528366088867 75.93359375 37.966796875 75.93359375 C 16.99831008911133 75.93359375 0 58.93528366088867 0 37.966796875 C 0 16.99832153320312 16.99831008911133 0 37.966796875 0 Z" stroke="none" fill="#847625"/>
                                  </g>
                                </g>
                              </g>
                            </g>
                          </g>
                        </g>
                      </g>
                    </g>
                  </g>
                </g>
              </g>
            </g>
          </g>
        </g>
      </g>
    </g>
    <g id="documento_1_" data-name="documento (1)" transform="translate(530.301 7360.117)">
      <path id="Trazado_1090406" data-name="Trazado 1090406" d="M6,2H35.483V43.276H6Z" transform="translate(-1.315 -0.263)" fill="#8892a0"/>
      <path id="Trazado_1090407" data-name="Trazado 1090407" d="M46,46h2.948V57.056H46Z" transform="translate(-11.832 -11.832)" fill="#c18e59"/>
      <path id="Trazado_1090408" data-name="Trazado 1090408" d="M46,45h2.948v3.685H46Z" transform="translate(-11.832 -11.569)" fill="#976947"/>
      <path id="Trazado_1090409" data-name="Trazado 1090409" d="M2,47.276H31.483V11.9h-5.9V6H2Z" transform="translate(-0.263 -1.315)" fill="#b8cbd9"/>
      <path id="Trazado_1090410" data-name="Trazado 1090410" d="M2,39.351c11.775-2.561,20.638-13.714,20.638-27.086A29.6,29.6,0,0,0,21.964,6H2Z" transform="translate(-0.263 -1.315)" fill="#e8eff4"/>
      <path id="Trazado_1090411" data-name="Trazado 1090411" d="M39.9,11.9,34,6v5.9Z" transform="translate(-8.676 -1.315)" fill="#e8eff4"/>
      <circle id="Elipse_12020" data-name="Elipse 12020" cx="10" cy="10" r="10" transform="translate(25.699 13.732)" fill="#a1cdfb"/>
      <circle id="Elipse_12021" data-name="Elipse 12021" cx="7" cy="7" r="7" transform="translate(28.699 16.732)" fill="#ebf7fe"/>
      <circle id="Elipse_12022" data-name="Elipse 12022" cx="6" cy="6" r="6" transform="translate(4.699 16.732)" fill="#c66b60"/>
      <path id="Trazado_1090412" data-name="Trazado 1090412" d="M16.319,26.054a6.227,6.227,0,0,0-.583-2.627,5.892,5.892,0,0,0-8.309,8.309,6.255,6.255,0,0,0,8.892-5.682Z" transform="translate(-1.315 -5.521)" fill="#e47c6e"/>
      <circle id="Elipse_12023" data-name="Elipse 12023" cx="6" cy="6" r="6" transform="translate(4.699 30.732)" fill="#669e4f"/>
      <path id="Trazado_1090413" data-name="Trazado 1090413" d="M16.319,46.054a6.227,6.227,0,0,0-.583-2.627,5.892,5.892,0,0,0-8.309,8.309,6.255,6.255,0,0,0,8.892-5.682Z" transform="translate(-1.315 -10.78)" fill="#78b75b"/>
      <path id="Trazado_1090414" data-name="Trazado 1090414" d="M35.957,13.53H34.483V2.474H6.474V4.685H5V1.737A.737.737,0,0,1,5.737,1H35.22a.737.737,0,0,1,.737.737Z" transform="translate(-1.052)"/>
      <path id="Trazado_1090415" data-name="Trazado 1090415" d="M31.22,47.75H1.737A.737.737,0,0,1,1,47.013V5.737A.737.737,0,0,1,1.737,5H25.324a.737.737,0,0,1,.737.737V10.9h5.16a.737.737,0,0,1,.737.737v3.685H30.483V12.371h-5.16a.737.737,0,0,1-.737-.737V6.474H2.474v39.8H30.483V34.483h1.474v12.53A.737.737,0,0,1,31.22,47.75Z" transform="translate(0 -1.052)"/>
      <path id="Trazado_1090416" data-name="Trazado 1090416" d="M0,0H1.474V8.339H0Z" transform="translate(24.799 5.209) rotate(-45)"/>
      <path id="Trazado_1090417" data-name="Trazado 1090417" d="M11.634,54.267a6.634,6.634,0,1,1,6.634-6.634A6.642,6.642,0,0,1,11.634,54.267Zm0-11.793a5.16,5.16,0,1,0,5.16,5.16A5.165,5.165,0,0,0,11.634,42.474Z" transform="translate(-1.052 -10.517)"/>
      <path id="Trazado_1090418" data-name="Trazado 1090418" d="M13.025,52.541a.738.738,0,0,1-.521-.216l-2.211-2.211,1.042-1.042,1.4,1.4,1.81-4.825,1.381.517-2.211,5.9a.739.739,0,0,1-.534.461.7.7,0,0,1-.156.017Z" transform="translate(-2.443 -11.739)"/>
      <path id="Trazado_1090419" data-name="Trazado 1090419" d="M11.634,34.267a6.634,6.634,0,1,1,6.634-6.634A6.642,6.642,0,0,1,11.634,34.267Zm0-11.793a5.16,5.16,0,1,0,5.16,5.16A5.165,5.165,0,0,0,11.634,22.474Z" transform="translate(-1.052 -5.258)"/>
      <path id="Trazado_1090420" data-name="Trazado 1090420" d="M0,0H1.474V6.254H0Z" transform="translate(7.846 20.684) rotate(-45)"/>
      <path id="Trazado_1090421" data-name="Trazado 1090421" d="M0,0H6.254V1.474H0Z" transform="translate(7.846 24.064) rotate(-45)"/>
      <path id="Trazado_1090422" data-name="Trazado 1090422" d="M44.056,39.112A11.056,11.056,0,1,1,55.112,28.056,11.069,11.069,0,0,1,44.056,39.112Zm0-20.638a9.582,9.582,0,1,0,9.582,9.582A9.593,9.593,0,0,0,44.056,18.474Z" transform="translate(-8.414 -4.207)"/>
      <path id="Trazado_1090423" data-name="Trazado 1090423" d="M45,46h1.474V58.53H45Z" transform="translate(-11.569 -11.832)"/>
      <path id="Trazado_1090424" data-name="Trazado 1090424" d="M49,46h1.474V58.53H49Z" transform="translate(-12.62 -11.832)"/>
      <path id="Trazado_1090425" data-name="Trazado 1090425" d="M38.474,29.108H37A8.117,8.117,0,0,1,45.108,21v1.474A6.642,6.642,0,0,0,38.474,29.108Z" transform="translate(-9.465 -5.258)"/>
      <path id="Trazado_1090426" data-name="Trazado 1090426" d="M48,40.108V38.634A6.642,6.642,0,0,0,54.634,32h1.474A8.117,8.117,0,0,1,48,40.108Z" transform="translate(-12.357 -8.151)"/>
      <path id="Trazado_1090427" data-name="Trazado 1090427" d="M46,49h2.948v1.474H46Z" transform="translate(-11.832 -12.62)"/>
      <path id="Trazado_1090428" data-name="Trazado 1090428" d="M25,57H35.319v1.474H25Z" transform="translate(-6.31 -14.724)"/>
      <path id="Trazado_1090429" data-name="Trazado 1090429" d="M25,53H35.319v1.474H25Z" transform="translate(-6.31 -13.672)"/>
      <path id="Trazado_1090430" data-name="Trazado 1090430" d="M25,37h7.371v1.474H25Z" transform="translate(-6.31 -9.465)"/>
      <path id="Trazado_1090431" data-name="Trazado 1090431" d="M25,33h6.634v1.474H25Z" transform="translate(-6.31 -8.414)"/>
    </g>
  </g>
</svg>
