<svg xmlns="http://www.w3.org/2000/svg" xmlns:xlink="http://www.w3.org/1999/xlink" width="93.934" height="93.934" viewBox="0 0 93.934 93.934">
  <defs>
    <filter id="Trazado_982547" x="0" y="0" width="93.934" height="93.934" filterUnits="userSpaceOnUse">
      <feOffset dy="3" input="SourceAlpha"/>
      <feGaussianBlur stdDeviation="3" result="blur"/>
      <feFlood flood-opacity="0.161"/>
      <feComposite operator="in" in2="blur"/>
      <feComposite in="SourceGraphic"/>
    </filter>
  </defs>
  <g id="Grupo_1219392" data-name="Grupo 1219392" transform="translate(-819.066 -7340)">
    <g id="Grupo_1219280" data-name="Grupo 1219280" transform="translate(627.771 3618)">
      <g id="Grupo_1214594" data-name="Grupo 1214594" transform="translate(0 -1406)">
        <g id="Grupo_1214432" data-name="Grupo 1214432" transform="translate(-0.771 -2738.674)">
          <g id="Grupo_1183196" data-name="Grupo 1183196" transform="translate(1 1016.674)">
            <g id="Grupo_1179610" data-name="Grupo 1179610" transform="translate(8 4723.467)">
              <g id="Grupo_1175227" data-name="Grupo 1175227" transform="translate(-5.967 140.533)">
                <g id="Grupo_1167337" data-name="Grupo 1167337" transform="translate(198.033 1992)">
                  <g id="Grupo_1166720" data-name="Grupo 1166720">
                    <g id="Grupo_1164305" data-name="Grupo 1164305">
                      <g id="Grupo_1163948" data-name="Grupo 1163948">
                        <g id="Grupo_1158168" data-name="Grupo 1158168">
                          <g id="Grupo_1152576" data-name="Grupo 1152576">
                            <g id="Grupo_1148633" data-name="Grupo 1148633">
                              <g id="Grupo_1148525" data-name="Grupo 1148525">
                                <g transform="matrix(1, 0, 0, 1, -9, -6)" filter="url(#Trazado_982547)">
                                  <g id="Trazado_982547-2" data-name="Trazado 982547" transform="translate(9 6)" fill="#f7f4ed">
                                    <path d="M 37.966796875 74.43359375 C 33.04315185546875 74.43359375 28.26757431030273 73.46962738037109 23.77274131774902 71.56847381591797 C 19.43047523498535 69.73184967041016 15.53040790557861 67.10224914550781 12.18087482452393 63.75271987915039 C 8.831341743469238 60.4031867980957 6.201741218566895 56.50312042236328 4.365118980407715 52.16086196899414 C 2.463963508605957 47.66601943969727 1.499996900558472 42.89044189453125 1.499996900558472 37.966796875 C 1.499996900558472 33.04315185546875 2.463963508605957 28.26757431030273 4.365118980407715 23.77274131774902 C 6.201741218566895 19.43047523498535 8.831341743469238 15.53040790557861 12.18087482452393 12.18087482452393 C 15.53040790557861 8.831341743469238 19.43047523498535 6.201741218566895 23.77274131774902 4.365118980407715 C 28.26757431030273 2.463963508605957 33.04315185546875 1.499996900558472 37.966796875 1.499996900558472 C 42.89044189453125 1.499996900558472 47.66601943969727 2.463963508605957 52.16086196899414 4.365118980407715 C 56.50312042236328 6.201741218566895 60.4031867980957 8.831341743469238 63.75271987915039 12.18087482452393 C 67.10224914550781 15.53040790557861 69.73184967041016 19.43047523498535 71.56847381591797 23.77274131774902 C 73.46962738037109 28.26757431030273 74.43359375 33.04315185546875 74.43359375 37.966796875 C 74.43359375 42.89044189453125 73.46962738037109 47.66601943969727 71.56847381591797 52.16086196899414 C 69.73184967041016 56.50313186645508 67.10224914550781 60.4031867980957 63.75271987915039 63.75271987915039 C 60.4031867980957 67.10224914550781 56.50313186645508 69.73184967041016 52.16086196899414 71.56847381591797 C 47.66601943969727 73.46962738037109 42.89044189453125 74.43359375 37.966796875 74.43359375 Z" stroke="none"/>
                                    <path d="M 37.966796875 3 C 33.2449836730957 3 28.66600799560547 3.924095153808594 24.35705947875977 5.746635437011719 C 20.19359588623047 7.507637023925781 16.45379638671875 10.02928161621094 13.24153518676758 13.24153518676758 C 10.02927398681641 16.45379638671875 7.507621765136719 20.19359588623047 5.746635437011719 24.35705947875977 C 3.924095153808594 28.66600799560547 3 33.2449836730957 3 37.966796875 C 3 42.6886100769043 3.924095153808594 47.26758575439453 5.746635437011719 51.57653427124023 C 7.507621765136719 55.73999786376953 10.02927398681641 59.47979736328125 13.24153518676758 62.69205856323242 C 16.45379638671875 65.90431976318359 20.19359588623047 68.42597198486328 24.35705947875977 70.18695831298828 C 28.66600799560547 72.00949859619141 33.2449836730957 72.93359375 37.966796875 72.93359375 C 42.6886100769043 72.93359375 47.26758575439453 72.00949859619141 51.57653427124023 70.18695831298828 C 55.73999786376953 68.42597198486328 59.47979736328125 65.90431976318359 62.69205856323242 62.69205856323242 C 65.90431976318359 59.47979736328125 68.42597198486328 55.73999786376953 70.18695831298828 51.57653427124023 C 72.00949859619141 47.26758575439453 72.93359375 42.6886100769043 72.93359375 37.966796875 C 72.93359375 33.2449836730957 72.00949859619141 28.66600799560547 70.18695831298828 24.35705947875977 C 68.42597198486328 20.19359588623047 65.90431976318359 16.45379638671875 62.69205856323242 13.24153518676758 C 59.47979736328125 10.02928161621094 55.73999786376953 7.507637023925781 51.57653427124023 5.746635437011719 C 47.26758575439453 3.924095153808594 42.6886100769043 3 37.966796875 3 M 37.966796875 0 C 58.93528366088867 0 75.93359375 16.99832153320312 75.93359375 37.966796875 C 75.93359375 58.93528366088867 58.93528366088867 75.93359375 37.966796875 75.93359375 C 16.99831008911133 75.93359375 0 58.93528366088867 0 37.966796875 C 0 16.99832153320312 16.99831008911133 0 37.966796875 0 Z" stroke="none" fill="#847625"/>
                                  </g>
                                </g>
                              </g>
                            </g>
                          </g>
                        </g>
                      </g>
                    </g>
                  </g>
                </g>
              </g>
            </g>
          </g>
        </g>
      </g>
    </g>
    <g id="debate" transform="translate(836.004 7361.792)">
      <g id="Grupo_1219390" data-name="Grupo 1219390" transform="translate(3.932 3.932)">
        <path id="Trazado_1090432" data-name="Trazado 1090432" d="M27.369,55.948v3.728H5V55.948L20.845,54Z" transform="translate(-4.068 -7.398)" fill="#c16544"/>
        <path id="Trazado_1090433" data-name="Trazado 1090433" d="M25.641,55.812H7L8.556,52H24.084Z" transform="translate(-4.204 -7.262)" fill="#fb9a28"/>
        <path id="Trazado_1090434" data-name="Trazado 1090434" d="M23.912,31.979l-.27,5.546-.625,13.048H9.895L9.27,37.524,9,31.979A.936.936,0,0,1,9.941,31h13.03a.936.936,0,0,1,.941.979Z" transform="translate(-4.34 -5.835)" fill="#c16544"/>
        <path id="Trazado_1090435" data-name="Trazado 1090435" d="M28.233,26,27.3,37.184h-4l.27-5.546a.936.936,0,0,0-.941-.979H9.6a.936.936,0,0,0-.941.979l.27,5.546h-4L4,26Z" transform="translate(-4 -5.495)" fill="#fb9a28"/>
        <path id="Trazado_1090436" data-name="Trazado 1090436" d="M14.388,25.592H6V24.66A4.662,4.662,0,0,1,10.66,20h.932Z" transform="translate(-4.136 -5.087)" fill="#50b8ff"/>
        <path id="Trazado_1090437" data-name="Trazado 1090437" d="M23.388,24.66v.932H15L17.8,20h.932A4.662,4.662,0,0,1,23.388,24.66Z" transform="translate(-4.748 -5.087)" fill="#50b8ff"/>
        <path id="Trazado_1090438" data-name="Trazado 1090438" d="M17.592,19.788,14.8,25.38,12,19.788l.969-2.908a3.568,3.568,0,0,0,.895.112h1.864a3.568,3.568,0,0,0,.895-.112Z" transform="translate(-4.544 -4.875)" fill="#e3e8ec"/>
        <path id="Trazado_1090439" data-name="Trazado 1090439" d="M20.184,8.66v.932h-3.43a2.8,2.8,0,0,1-2.8-2.8A1.864,1.864,0,0,1,12.094,8.66H9A4.662,4.662,0,0,1,13.66,4h1.864A4.662,4.662,0,0,1,20.184,8.66Z" transform="translate(-4.34 -4)" fill="#f7cc63"/>
        <path id="Trazado_1090440" data-name="Trazado 1090440" d="M19.32,9.8v2.8a3.719,3.719,0,0,1-2.833,3.616,3.568,3.568,0,0,1-.895.112H13.728a3.568,3.568,0,0,1-.895-.112A3.719,3.719,0,0,1,10,12.592V8.864h2.162A1.864,1.864,0,0,0,14.026,7a2.8,2.8,0,0,0,2.8,2.8Z" transform="translate(-4.408 -4.204)" fill="#efcdb1"/>
        <path id="Trazado_1090441" data-name="Trazado 1090441" d="M57.369,55.948v3.728H35V55.948L41.524,54Z" transform="translate(-6.107 -7.398)" fill="#c16544"/>
        <path id="Trazado_1090442" data-name="Trazado 1090442" d="M27.369,56.09v3.728H5V57.87H24.573a.932.932,0,0,0,.932-.932V56.09Z" transform="translate(-4.068 -7.54)" fill="#af5337"/>
        <path id="Trazado_1090443" data-name="Trazado 1090443" d="M57.369,56.09v3.728H35V57.87H54.573a.932.932,0,0,0,.932-.932V56.09Z" transform="translate(-6.107 -7.54)" fill="#af5337"/>
        <path id="Trazado_1090444" data-name="Trazado 1090444" d="M55.641,55.812H37L38.556,52H54.084Z" transform="translate(-6.243 -7.262)" fill="#fb9a28"/>
        <path id="Trazado_1090445" data-name="Trazado 1090445" d="M25.641,55.812H7l.764-1.864h13.7a.932.932,0,0,0,.863-1.283L22.052,52h2.032Z" transform="translate(-4.204 -7.262)" fill="#ed8a26"/>
        <path id="Trazado_1090446" data-name="Trazado 1090446" d="M55.641,55.812H37l.764-1.864h13.7a.932.932,0,0,0,.863-1.283L52.052,52h2.032Z" transform="translate(-6.243 -7.262)" fill="#ed8a26"/>
        <path id="Trazado_1090447" data-name="Trazado 1090447" d="M53.912,31.979l-.27,5.546-.625,13.048H39.895L39.27,37.524,39,31.979A.936.936,0,0,1,39.941,31h13.03a.936.936,0,0,1,.941.979Z" transform="translate(-6.379 -5.835)" fill="#c16544"/>
        <path id="Trazado_1090448" data-name="Trazado 1090448" d="M23.971,31.979l-.27,5.546-.625,13.048H9.953L9.86,48.709H20.324a.932.932,0,0,0,.931-.887l.582-12.161L22.06,31h.969a.936.936,0,0,1,.941.979Z" transform="translate(-4.398 -5.835)" fill="#af5337"/>
        <path id="Trazado_1090449" data-name="Trazado 1090449" d="M53.971,31.979l-.27,5.546-.625,13.048H39.953l-.093-1.864H50.324a.932.932,0,0,0,.931-.887l.582-12.161L52.06,31h.969a.936.936,0,0,1,.941.979Z" transform="translate(-6.437 -5.835)" fill="#af5337"/>
        <path id="Trazado_1090450" data-name="Trazado 1090450" d="M58.233,26,57.3,37.184h-4l.27-5.546a.936.936,0,0,0-.941-.979H39.6a.936.936,0,0,0-.941.979l.27,5.546h-4L34,26Z" transform="translate(-6.039 -5.495)" fill="#fb9a28"/>
        <path id="Trazado_1090451" data-name="Trazado 1090451" d="M48.388,25.592H40V24.66A4.662,4.662,0,0,1,44.66,20h.932Z" transform="translate(-6.447 -5.087)" fill="#fb4a59"/>
        <path id="Trazado_1090452" data-name="Trazado 1090452" d="M57.388,24.66v.932H49L51.8,20h.932A4.662,4.662,0,0,1,57.388,24.66Z" transform="translate(-7.059 -5.087)" fill="#fb4a59"/>
        <path id="Trazado_1090453" data-name="Trazado 1090453" d="M48.664,25.592H46.8l-2.75-5.508A4.673,4.673,0,0,1,44.935,20h.932Z" transform="translate(-6.722 -5.087)" fill="#ea3b50"/>
        <path id="Trazado_1090454" data-name="Trazado 1090454" d="M53.614,20.084l-2.75,5.508H49L51.8,20h.932A4.673,4.673,0,0,1,53.614,20.084Z" transform="translate(-7.059 -5.087)" fill="#ea3b50"/>
        <path id="Trazado_1090455" data-name="Trazado 1090455" d="M14.714,25.592H12.849L10.1,20.084A4.673,4.673,0,0,1,10.985,20h.932Z" transform="translate(-4.415 -5.087)" fill="#35abed"/>
        <path id="Trazado_1090456" data-name="Trazado 1090456" d="M19.664,20.084l-2.75,5.508H15.05L17.846,20h.932A4.673,4.673,0,0,1,19.664,20.084Z" transform="translate(-4.751 -5.087)" fill="#35abed"/>
        <path id="Trazado_1090457" data-name="Trazado 1090457" d="M51.592,19.788,48.8,25.38,46,19.788l.969-2.908a3.568,3.568,0,0,0,.895.112h1.864a3.568,3.568,0,0,0,.895-.112Z" transform="translate(-6.855 -4.875)" fill="#e3e8ec"/>
        <path id="Trazado_1090458" data-name="Trazado 1090458" d="M53.32,9.333V12.66a3.713,3.713,0,0,1-1.268,2.8,3.779,3.779,0,0,1-1.566.82,3.568,3.568,0,0,1-.895.112H47.728a3.568,3.568,0,0,1-.895-.112,3.779,3.779,0,0,1-1.566-.82A3.713,3.713,0,0,1,44,12.66V9.333L48.66,8Z" transform="translate(-6.719 -4.272)" fill="#efcdb1"/>
        <path id="Trazado_1090459" data-name="Trazado 1090459" d="M29.728,17.864v1.864a1.864,1.864,0,0,1-3.728,0V17.864A1.87,1.87,0,0,1,27.864,16a1.878,1.878,0,0,1,1.864,1.864Z" transform="translate(-5.495 -4.816)" fill="#c16544"/>
        <path id="Trazado_1090460" data-name="Trazado 1090460" d="M37.728,17.864v1.864a1.864,1.864,0,0,1-3.728,0V17.864A1.87,1.87,0,0,1,35.864,16a1.878,1.878,0,0,1,1.864,1.864Z" transform="translate(-6.039 -4.816)" fill="#c16544"/>
        <path id="Trazado_1090461" data-name="Trazado 1090461" d="M54.184,8.66v.662l-.932-.261-4.66-1.333-4.66,1.333L43,9.322V8.66A4.662,4.662,0,0,1,47.66,4h1.864A4.662,4.662,0,0,1,54.184,8.66Z" transform="translate(-6.651 -4)" fill="#757483"/>
        <circle id="Elipse_12024" data-name="Elipse 12024" cx="3.728" cy="3.728" r="3.728" transform="translate(8.388 30.757)" fill="#fb9a28"/>
        <circle id="Elipse_12025" data-name="Elipse 12025" cx="3.728" cy="3.728" r="3.728" transform="translate(36.349 30.757)" fill="#fb9a28"/>
        <g id="Grupo_1219389" data-name="Grupo 1219389" transform="translate(8.882 31.251)">
          <path id="Trazado_1090462" data-name="Trazado 1090462" d="M20.492,40.764A3.721,3.721,0,0,1,13.53,42.6a3.633,3.633,0,0,0,1.836.494,3.727,3.727,0,0,0,3.728-3.728A3.633,3.633,0,0,0,18.6,37.53,3.708,3.708,0,0,1,20.492,40.764Z" transform="translate(-13.53 -37.53)" fill="#ed8a26"/>
          <path id="Trazado_1090463" data-name="Trazado 1090463" d="M50.492,40.764A3.721,3.721,0,0,1,43.53,42.6a3.633,3.633,0,0,0,1.836.494,3.727,3.727,0,0,0,3.728-3.728A3.633,3.633,0,0,0,48.6,37.53,3.708,3.708,0,0,1,50.492,40.764Z" transform="translate(-15.569 -37.53)" fill="#ed8a26"/>
        </g>
      </g>
      <g id="Grupo_1219391" data-name="Grupo 1219391" transform="translate(2.997 3)">
        <path id="Trazado_1090464" data-name="Trazado 1090464" d="M52.218,37.448a.935.935,0,0,0,.895.969.922.922,0,0,0,.969-.895l.047-.969h3.1a.941.941,0,0,0,.932-.858L59.1,24.511a.946.946,0,0,0-.932-1.007h-.932a5.6,5.6,0,0,0-5.592-5.592h-.261L50.9,16.477a4.753,4.753,0,0,0,1.016-.662,4.663,4.663,0,0,0,1.584-3.5V10.186a.947.947,0,0,0,.932-.932V8.592A5.6,5.6,0,0,0,48.844,3H46.98a5.6,5.6,0,0,0-5.592,5.592v.662a.95.95,0,0,0,.932.913V12.32a4.7,4.7,0,0,0,2.6,4.157l-.475,1.435h-.261A5.6,5.6,0,0,0,38.592,23.5H36.728V21.473a2.806,2.806,0,0,0,1.864-2.628V16.981a2.8,2.8,0,0,0-5.592,0v1.864a2.806,2.806,0,0,0,1.864,2.628V23.5h-.932A.95.95,0,0,0,33,24.511l.308,3.728a.935.935,0,1,0,1.864-.149l-.224-2.722h22.2l-.774,9.32H54.213l.224-4.567a1.9,1.9,0,0,0-1.873-1.957H39.534a1.9,1.9,0,0,0-1.873,1.957l.224,4.567H35.721l-.233-2.871a.956.956,0,0,0-1.007-.857.944.944,0,0,0-.858,1.007l.308,3.728a.941.941,0,0,0,.932.858h3.1l.541,11.184h-.224a.947.947,0,0,0-.867.578L36.1,51.55h-1.24a.935.935,0,0,0-.932.932V56.21a.935.935,0,0,0,.932.932H57.233a.935.935,0,0,0,.932-.932V52.482a.935.935,0,0,0-.932-.932h-1.24l-1.314-3.234a.947.947,0,0,0-.867-.578h-.224L53.9,41.26a.933.933,0,0,0-1.864-.093l-.308,6.571H40.372l-.839-17.709H52.573ZM35.8,19.777a.935.935,0,0,1-.932-.932V16.98a.932.932,0,0,1,1.864,0v1.864A.935.935,0,0,1,35.8,19.777ZM43.3,8.005A3.73,3.73,0,0,1,46.98,4.864h1.864a3.73,3.73,0,0,1,3.682,3.141l-4.362-1.24a.924.924,0,0,0-.5,0Zm.885,4.315V9.692l3.728-1.063L51.64,9.692V12.32a2.833,2.833,0,0,1-2.8,2.8H46.98A2.834,2.834,0,0,1,44.184,12.32ZM40.456,23.5a3.727,3.727,0,0,1,3.728-3.728h.354L46.4,23.5Zm5.667-4.735.606-1.808c.084,0,.168.019.252.019h1.864c.084,0,.168-.019.252-.019L49.7,18.77l-1.789,3.579Zm3.3,4.735,1.864-3.728h.354A3.727,3.727,0,0,1,55.369,23.5Zm3.765,26.1.792,1.948H43.252a.932.932,0,0,0,0,1.864H56.3v1.864H35.8V53.414h3.728a.932.932,0,0,0,0-1.864H38.117l.792-1.948Z" transform="translate(-5.036 -3)" fill="#231f20"/>
        <path id="Trazado_1090465" data-name="Trazado 1090465" d="M29.1,18.845V16.98a2.8,2.8,0,1,0-5.592,0v1.864a2.806,2.806,0,0,0,1.864,2.628V23.5H23.5a5.6,5.6,0,0,0-5.592-5.592h-.261l-.475-1.435a4.641,4.641,0,0,0,2.6-4.157V10.456a.935.935,0,0,0,.932-.932V8.592A5.6,5.6,0,0,0,15.116,3H13.252A5.6,5.6,0,0,0,7.66,8.592a.935.935,0,0,0,.932.932v2.8a4.641,4.641,0,0,0,2.6,4.157l-.475,1.435h-.261A5.6,5.6,0,0,0,4.864,23.5H3.932A.933.933,0,0,0,3,24.511L3.932,35.7a.941.941,0,0,0,.932.858h3.1l.047.969a.933.933,0,1,0,1.864-.075l-.345-7.419H22.573l-.848,17.709H10.372l-.308-6.571A.933.933,0,1,0,8.2,41.26l.308,6.478H8.284a.947.947,0,0,0-.867.578L6.1,51.55H4.864a.935.935,0,0,0-.932.932V56.21a.935.935,0,0,0,.932.932H27.233a.935.935,0,0,0,.932-.932V52.482a.935.935,0,0,0-.932-.932h-1.24l-1.314-3.234a.947.947,0,0,0-.867-.578h-.224l.541-11.184h3.1a.941.941,0,0,0,.932-.858l.308-3.728a.935.935,0,0,0-1.864-.149l-.233,2.871H24.213l.224-4.567a1.908,1.908,0,0,0-1.873-1.957H9.533A1.914,1.914,0,0,0,7.66,30.122l.224,4.567H5.721l-.774-9.32h22.2l-.224,2.722a.935.935,0,1,0,1.864.149l.308-3.728a.943.943,0,0,0-.932-1.007h-.932V21.473A2.806,2.806,0,0,0,29.1,18.845ZM23.98,51.55H22.572a.932.932,0,0,0,0,1.864H26.3v1.864H5.8V53.414H18.844a.932.932,0,0,0,0-1.864H8.117L8.909,49.6H23.188ZM9.645,7.66a3.731,3.731,0,0,1,3.607-2.8h1.864a3.727,3.727,0,0,1,3.728,3.728h-2.5a1.878,1.878,0,0,1-1.864-1.864.932.932,0,0,0-1.864,0,.935.935,0,0,1-.932.932Zm.811,4.66v-2.8h1.23a2.772,2.772,0,0,0,1.678-.559,4.6,4.6,0,0,0,.345.4,3.788,3.788,0,0,0,2.638,1.091h1.566V12.32a2.8,2.8,0,0,1-2.8,2.8H13.252a2.8,2.8,0,0,1-2.8-2.8ZM6.728,23.5a3.727,3.727,0,0,1,3.728-3.728h.354L12.674,23.5Zm5.667-4.735L13,16.952a2.307,2.307,0,0,0,.252.028h1.864a2.307,2.307,0,0,0,.252-.028l.606,1.817-1.789,3.579Zm3.3,4.735,1.864-3.728h.354A3.727,3.727,0,0,1,21.64,23.5ZM26.3,19.777a.935.935,0,0,1-.932-.932V16.98a.932.932,0,1,1,1.864,0v1.864A.935.935,0,0,1,26.3,19.777Z" transform="translate(-2.997 -3)" fill="#231f20"/>
        <path id="Trazado_1090466" data-name="Trazado 1090466" d="M16.66,36a4.66,4.66,0,1,0,4.66,4.66A4.662,4.662,0,0,0,16.66,36Zm0,7.456a2.8,2.8,0,1,1,2.8-2.8A2.8,2.8,0,0,1,16.66,43.456Z" transform="translate(-3.609 -5.243)" fill="#231f20"/>
        <path id="Trazado_1090467" data-name="Trazado 1090467" d="M46.66,36a4.66,4.66,0,1,0,4.66,4.66A4.662,4.662,0,0,0,46.66,36Zm0,7.456a2.8,2.8,0,1,1,2.8-2.8A2.8,2.8,0,0,1,46.66,43.456Z" transform="translate(-5.648 -5.243)" fill="#231f20"/>
      </g>
    </g>
  </g>
</svg>
