<svg xmlns="http://www.w3.org/2000/svg" xmlns:xlink="http://www.w3.org/1999/xlink" width="108" height="108" viewBox="0 0 108 108">
  <defs>
    <filter id="Trazado_904820" x="0" y="0" width="108" height="108" filterUnits="userSpaceOnUse">
      <feOffset dy="3" input="SourceAlpha"/>
      <feGaussianBlur stdDeviation="3" result="blur"/>
      <feFlood flood-opacity="0.161"/>
      <feComposite operator="in" in2="blur"/>
      <feComposite in="SourceGraphic"/>
    </filter>
  </defs>
  <g id="Grupo_1219383" data-name="Grupo 1219383" transform="translate(-166 -10341)">
    <g id="Grupo_1219296" data-name="Grupo 1219296" transform="translate(623.999 8930.512)">
      <g id="Grupo_1218002" data-name="Grupo 1218002" transform="translate(0 1.488)">
        <g id="Grupo_1211578" data-name="Grupo 1211578" transform="translate(0 0)">
          <g id="Grupo_1207774" data-name="Grupo 1207774" transform="translate(0 0)">
            <g id="Grupo_1206630" data-name="Grupo 1206630" transform="translate(0 0)">
              <g id="Grupo_1185091" data-name="Grupo 1185091" transform="translate(0 0)">
                <g id="Grupo_1179560" data-name="Grupo 1179560">
                  <g id="Grupo_1173787" data-name="Grupo 1173787">
                    <g id="Grupo_1171910" data-name="Grupo 1171910">
                      <g id="Grupo_1167341" data-name="Grupo 1167341">
                        <g id="Grupo_1166792" data-name="Grupo 1166792">
                          <g transform="matrix(1, 0, 0, 1, -458, 1409)" filter="url(#Trazado_904820)">
                            <g id="Trazado_904820-2" data-name="Trazado 904820" transform="translate(9 6)" fill="#e5f0f6">
                              <path d="M 44.99999618530273 88.50019836425781 C 39.12687301635742 88.50019836425781 33.43022155761719 87.35027313232422 28.06829643249512 85.08235931396484 C 22.88852119445801 82.89149475097656 18.23629570007324 79.75476837158203 14.24085903167725 75.75930786132812 C 10.24540901184082 71.76385498046875 7.108683586120605 67.11161804199219 4.917821407318115 61.93183135986328 C 2.649921178817749 56.56989669799805 1.499996185302734 50.87323379516602 1.499996185302734 45.00009536743164 C 1.499996185302734 39.12695693969727 2.649921178817749 33.43029403686523 4.917821407318115 28.06835746765137 C 7.108683586120605 22.88857078552246 10.24540901184082 18.23633193969727 14.24085903167725 14.24088287353516 C 18.23629570007324 10.24542045593262 22.88852119445801 7.108695507049561 28.06829643249512 4.917832851409912 C 33.43022155761719 2.649920463562012 39.12687301635742 1.499995350837708 44.99999618530273 1.499995350837708 C 50.87311935424805 1.499995350837708 56.56977081298828 2.649920463562012 61.93169784545898 4.917832851409912 C 67.11147308349609 7.108695507049561 71.76369476318359 10.24542045593262 75.75913238525391 14.24088287353516 C 79.75458526611328 18.23633193969727 82.89131164550781 22.88857078552246 85.08216857910156 28.06835746765137 C 87.35007476806641 33.43029403686523 88.5 39.12695693969727 88.5 45.00009536743164 C 88.5 50.87323379516602 87.35007476806641 56.56989669799805 85.08216857910156 61.93183135986328 C 82.89131164550781 67.11161804199219 79.75458526611328 71.76385498046875 75.75913238525391 75.75930786132812 C 71.76369476318359 79.75476837158203 67.11147308349609 82.89149475097656 61.93169784545898 85.08235931396484 C 56.56977081298828 87.35027313232422 50.87311935424805 88.50019836425781 44.99999618530273 88.50019836425781 Z" stroke="none"/>
                              <path d="M 44.99999618530273 2.999992370605469 C 39.32870864868164 2.999992370605469 33.82866668701172 4.110054016113281 28.65262603759766 6.299339294433594 C 23.65165710449219 8.414581298828125 19.15969848632812 11.44335174560547 15.301513671875 15.30153656005859 C 11.44333648681641 19.15972137451172 8.414566040039062 23.65169525146484 6.299339294433594 28.65267944335938 C 4.110054016113281 33.82873916625977 2.999992370605469 39.32879638671875 2.999992370605469 45.00009536743164 C 2.999992370605469 50.67139434814453 4.110054016113281 56.17145156860352 6.299339294433594 61.34751129150391 C 8.414566040039062 66.34849548339844 11.44333648681641 70.84046936035156 15.301513671875 74.69865417480469 C 19.15969848632812 78.55683898925781 23.65165710449219 81.58560943603516 28.65262603759766 83.70085144042969 C 33.82866668701172 85.89013671875 39.32870864868164 87.00019836425781 44.99999618530273 87.00019836425781 C 50.67128372192383 87.00019836425781 56.17132568359375 85.89013671875 61.34736633300781 83.70085144042969 C 66.34834289550781 81.58560943603516 70.84029388427734 78.55683898925781 74.69847869873047 74.69865417480469 C 78.55665588378906 70.84046936035156 81.58542633056641 66.34849548339844 83.70065307617188 61.34751129150391 C 85.88993835449219 56.17145156860352 87 50.67139434814453 87 45.00009536743164 C 87 39.32879638671875 85.88993835449219 33.82873916625977 83.70065307617188 28.65267944335938 C 81.58542633056641 23.65169525146484 78.55665588378906 19.15972137451172 74.69847869873047 15.30153656005859 C 70.84029388427734 11.44335174560547 66.34834289550781 8.414581298828125 61.34736633300781 6.299339294433594 C 56.17132568359375 4.110054016113281 50.67128372192383 2.999992370605469 44.99999618530273 2.999992370605469 M 44.99999618530273 -7.62939453125e-06 C 69.85281372070312 -7.62939453125e-06 90 20.14723968505859 90 45.00009536743164 C 90 69.85295104980469 69.85281372070312 90.00019836425781 44.99999618530273 90.00019836425781 C 20.14717864990234 90.00019836425781 -7.62939453125e-06 69.85295104980469 -7.62939453125e-06 45.00009536743164 C -7.62939453125e-06 20.14723968505859 20.14717864990234 -7.62939453125e-06 44.99999618530273 -7.62939453125e-06 Z" stroke="none" fill="#1172b3"/>
                            </g>
                          </g>
                        </g>
                      </g>
                    </g>
                  </g>
                </g>
              </g>
            </g>
          </g>
        </g>
      </g>
    </g>
    <g id="layer1" transform="translate(186.359 10075.789)">
      <path id="path31361" d="M14.649,323.176l10.415-33.85H4.233Z" transform="translate(14.525 34.23)" fill="#c8d4d9"/>
      <path id="path27164" d="M17.761,280.86A14.321,14.321,0,0,0,3.44,295.181a26.185,26.185,0,0,0,.923,6.509h26.8a26.178,26.178,0,0,0,.923-6.509A14.321,14.321,0,0,0,17.761,280.86Z" transform="translate(11.413 1.035)" fill="#33658a"/>
      <path id="path27166" d="M11.8,291.444l3.906,23.434M11.8,291.444H9.2L5.292,314.878H15.707" transform="translate(18.674 42.531)" fill="#ff6b6b"/>
      <path id="path27168" d="M5.027,295.286v-7.812H18.046v7.812l-6.51,5.207Z" transform="translate(17.637 26.968)" fill="#fdce97"/>
      <path id="path27170" d="M8.16,296.631h2.6l2.6-3.906-3.906-2.6-3.906,2.6Z" transform="translate(19.711 37.344)" fill="#e86262"/>
      <path id="path27172" d="M4.233,291.4l1.3,10.415,9.113-6.51L6.837,288.8Z" transform="translate(14.525 32.156)" fill="#dbe9ee"/>
      <path id="path27174" d="M.794,323.176V304.95a15.589,15.589,0,0,1,15.623-15.623h1.3l10.415,33.85Z" transform="translate(1.04 34.23)" fill="#33658a"/>
      <path id="path27180" d="M16.765,291.4l-1.3,10.415-9.113-6.51,7.811-6.51Z" transform="translate(22.823 32.156)" fill="#dbe9ee"/>
      <path id="path27182" d="M33.69,323.176V304.95a15.589,15.589,0,0,0-15.623-15.623h-1.3L6.35,323.176Z" transform="translate(22.823 34.23)" fill="#33658a"/>
      <path id="path27190" d="M6.137,285.089a2.8,2.8,0,0,0-2.962,2.634c0,2.6,2.983,5.147,5.548,5.208a10.464,10.464,0,0,1-.341-2.6v-3.906a2.648,2.648,0,0,0-2.245-1.332Z" transform="translate(10.376 17.61)" fill="#fdce97"/>
      <path id="path27192" d="M25.064,291.318v5.208a10.415,10.415,0,1,1-20.83,0v-5.208a2.6,2.6,0,0,1,2.6-2.6h5.208a5.2,5.2,0,0,0,5.208-5.208,5.2,5.2,0,0,0,5.208,5.208A2.6,2.6,0,0,1,25.064,291.318Z" transform="translate(14.525 11.411)" fill="#fdd5a6"/>
      <path id="path27196" d="M15,299.3c-5.208,0-5.208-5.208-5.208-5.208H20.2S20.2,299.3,15,299.3Z" transform="translate(36.309 52.903)" fill="#ffbc42"/>
      <path id="path27202" d="M19.23,299.3c5.208,0,5.208-5.208,5.208-5.208H14.023S14.023,299.3,19.23,299.3Z" transform="translate(52.906 52.903)" fill="#ffbc42"/>
      <path id="path31350" d="M10.983,285.089a2.8,2.8,0,0,1,2.962,2.634c0,2.6-2.983,5.147-5.548,5.208a10.459,10.459,0,0,0,.341-2.6v-3.906a2.648,2.648,0,0,1,2.245-1.332Z" transform="translate(30.851 17.61)" fill="#fdce97"/>
      <path id="path31352" d="M9.42,289.327h-1.3a15.743,15.743,0,0,0-4.169.558L2.91,295.837l3.906,3.906-1.3,5.208,14.321,18.227Z" transform="translate(9.338 34.231)" fill="#2f5c7e"/>
      <path id="path31359" d="M16.765,289.327h1.3a15.743,15.743,0,0,1,4.169.558l1.039,5.952-3.906,3.906,1.3,5.208L6.35,323.177Z" transform="translate(22.823 34.231)" fill="#2f5c7e"/>
      <path id="path3778-8" d="M29.176,280.6a15.649,15.649,0,0,0-15.625,15.628c0,.5.025.991.056,1.49a1.3,1.3,0,1,0,2.6-.165c-.03-.46-.049-.9-.049-1.325a13.017,13.017,0,1,1,26.033,0,23.7,23.7,0,0,1-.633,5.187,4.3,4.3,0,0,0-.842.168,3.911,3.911,0,0,0-3.733-2.762,3.86,3.86,0,0,1-3.9-3.9,1.3,1.3,0,1,0-2.6,0,3.863,3.863,0,0,1-3.9,3.9h-5.21a3.926,3.926,0,0,0-3.723,2.792,4.2,4.2,0,0,0-2.311-.071,4.073,4.073,0,0,0-3.074,3.771,6.349,6.349,0,0,0,5.856,6.494,11.671,11.671,0,0,0,3.252,4.847v3h-.01a1.3,1.3,0,0,0-.913.384l-2.606,2.607a1.3,1.3,0,0,0-.325,1.3l8.358,27.152-9.6-12.213,1.147-4.59a1.3,1.3,0,0,0-.343-1.236l-3.392-3.392,1.254-5.348a1.3,1.3,0,0,0-1.266-1.6,1.34,1.34,0,0,0-.313.039A16.905,16.905,0,0,0,.529,339.182v18.227a1.3,1.3,0,0,0,1.3,1.3H50a1.3,1.3,0,1,0,0-2.6H31.851l12.666-16.121a1.3,1.3,0,0,0,.239-1.119l-1.124-4.493,3.384-3.384a1.3,1.3,0,0,0,.356-1.175l-.737-3.735a14.105,14.105,0,0,1,5.668,4.43,1.3,1.3,0,0,0,2.075-1.577,16.191,16.191,0,0,0-9.151-6.047,1.3,1.3,0,0,0-1.589,1.52l1.048,5.236-3.412,3.412a1.3,1.3,0,0,0-.343,1.236l1.147,4.59-9.6,12.218,8.358-27.157a1.306,1.306,0,0,0-.328-1.3l-2.6-2.606a1.3,1.3,0,0,0-.923-.381v-3a11.631,11.631,0,0,0,3.255-4.842,6.307,6.307,0,0,0,5.866-6.5,3.985,3.985,0,0,0-2.019-3.321,26.3,26.3,0,0,0,.712-5.765A15.643,15.643,0,0,0,29.176,280.6Zm2.6,18.229a6.442,6.442,0,0,0,5.2,2.6,1.282,1.282,0,0,1,1.307,1.31v5.208a9.116,9.116,0,0,1-18.232,0v-5.208a1.282,1.282,0,0,1,1.307-1.31h5.21a6.444,6.444,0,0,0,5.205-2.6Zm-14.326,5.642v3.471c0,.373.02.742.056,1.106a3.629,3.629,0,0,1-2.639-3.692,1.517,1.517,0,0,1,2.583-.885Zm26.036.9a3.711,3.711,0,0,1-2.652,3.685c.034-.365.056-.734.056-1.109v-3.466a1.519,1.519,0,0,1,2.6.89Zm-9.1,13.062v3l-5.21,4.343-5.208-4.34v-3a11.671,11.671,0,0,0,10.418,0ZM21.441,322.72l5.6,4.666-4.712,3.364-2.1-6.83Zm15.463,0,1.21,1.2-2.1,6.827L31.3,327.383Zm-25.036,3.265-.885,3.786a1.306,1.306,0,0,0,.346,1.218l3.384,3.385-1.124,4.493a1.3,1.3,0,0,0,.239,1.119l12.666,16.121H12.254V347a1.3,1.3,0,1,0-2.606,0v9.111H3.136V339.182a14.485,14.485,0,0,1,8.732-13.2Zm58.36,10.377-4.491,10.105a1.293,1.293,0,0,0-.1.529,7.69,7.69,0,0,0,.786,3.181,6.58,6.58,0,0,0,11.435,0A7.7,7.7,0,0,0,78.641,347a1.323,1.323,0,0,0-.1-.529l-4.493-10.113a6.668,6.668,0,0,0,2.917-1.46,1.3,1.3,0,0,0-1.833-1.846,5.15,5.15,0,0,1-2.993.923c-3.287-.049-4.722-2.255-9.111-2.543v-2.665a1.3,1.3,0,0,0-1.284-1.317v0c-.01,0-.015-.005-.02-.005a1.3,1.3,0,0,0-1.284,1.317v2.665c-4.389.288-5.823,2.5-9.111,2.543a5.149,5.149,0,0,1-2.993-.923,1.3,1.3,0,0,0-1.833,1.846,6.669,6.669,0,0,0,2.917,1.46l-4.493,10.113a1.3,1.3,0,0,0-.1.529,7.67,7.67,0,0,0,.788,3.181,5.975,5.975,0,0,0,5.716,3.323,5.98,5.98,0,0,0,5.719-3.323,7.674,7.674,0,0,0,.786-3.181,1.323,1.323,0,0,0-.1-.529l-4.491-10.105c2.662-.423,4.226-2.384,8.488-2.385,4.278.005,5.841,1.972,8.508,2.4Zm-41.053-7.3,2.039,1.457-1.432,2.154h-1.21l-1.437-2.154Zm-4.157,2.97,1.488,2.233-1.088,6.512-2.276-7.4Zm8.32,0,1.869,1.335-2.276,7.394-1.083-6.494Zm-4.363,3.242h.4l1.841,11.056-2.047,6.647-2.039-6.632Zm32.761,1.266a1.249,1.249,0,0,0-1.3,1.3V356.1H55.161a1.3,1.3,0,0,0,.061,2.6h6.5v.01h6.517a1.3,1.3,0,0,0,.061-2.6H63.023V337.859a1.245,1.245,0,0,0-1.284-1.3v-.015ZM51.321,338.47l3.2,7.206h-6.4Zm20.815.01,3.2,7.206h-6.4Zm-24.487,9.8H55a3.433,3.433,0,0,1-3.672,2.6,3.437,3.437,0,0,1-3.674-2.6Zm20.813.01h7.346a3.893,3.893,0,0,1-7.346,0Z"/>
    </g>
  </g>
</svg>
