<svg xmlns="http://www.w3.org/2000/svg" xmlns:xlink="http://www.w3.org/1999/xlink" width="1030" height="364.771" viewBox="0 0 1030 364.771">
  <defs>
    <clipPath id="clip-path">
      <rect id="Rectángulo_420567" data-name="Rectángulo 420567" width="252" height="331" transform="translate(591 1905)" fill="#fff" stroke="#707070" stroke-width="1" opacity="0.53"/>
    </clipPath>
  </defs>
  <g id="Grupo_1219593" data-name="Grupo 1219593" transform="translate(-285 -1871.229)">
    <g id="Grupo_1219567" data-name="Grupo 1219567" transform="translate(-2591.001 -262.042)">
      <path id="Trazado_1092052" data-name="Trazado 1092052" d="M234.656,96.131,154.291,176.5a14.649,14.649,0,0,0-4.29,10.36V412.712H333.126V186.856a14.658,14.658,0,0,0-4.29-10.36L248.471,96.131A9.77,9.77,0,0,0,234.656,96.131Z" transform="translate(3067.833 2040)" fill="#ba9c5a"/>
      <path id="Trazado_1092054" data-name="Trazado 1092054" d="M164.656,120.638,84.291,201A14.649,14.649,0,0,0,80,211.363V377.381H263.125V211.363a14.658,14.658,0,0,0-4.29-10.36l-80.365-80.365A9.77,9.77,0,0,0,164.656,120.638Z" transform="translate(2966.916 2075.331)" fill="#847625"/>
      <path id="Trazado_1092055" data-name="Trazado 1092055" d="M94.656,144.519,14.291,224.884A14.649,14.649,0,0,0,10,235.244V342.955H193.126V235.242a14.658,14.658,0,0,0-4.29-10.36l-80.365-80.365A9.768,9.768,0,0,0,94.656,144.519Z" transform="translate(2866 2109.756)" fill="#f2d944"/>
      <g id="Grupo_1219555" data-name="Grupo 1219555" transform="translate(2942.49 2426.439)">
        <circle id="Elipse_12054" data-name="Elipse 12054" cx="22.873" cy="22.873" r="22.873" transform="translate(2.197 2.198)" fill="#f2d944"/>
        <path id="Trazado_1092075" data-name="Trazado 1092075" d="M62.3,217.735a20.676,20.676,0,1,1-20.676,20.676A20.675,20.675,0,0,1,62.3,217.735m0-4.395a25.071,25.071,0,1,0,25.071,25.071A25.1,25.1,0,0,0,62.3,213.34Z" transform="translate(-37.232 -213.34)" fill="#fff"/>
      </g>
      <g id="Grupo_1219556" data-name="Grupo 1219556" transform="translate(3114.507 2421.63)">
        <circle id="Elipse_12055" data-name="Elipse 12055" cx="22.873" cy="22.873" r="22.873" transform="translate(0 17.507) rotate(-22.5)" fill="#847625"/>
        <path id="Trazado_1092076" data-name="Trazado 1092076" d="M134.72,217.735a20.676,20.676,0,1,1-20.676,20.676,20.675,20.675,0,0,1,20.676-20.676m0-4.395a25.071,25.071,0,1,0,25.071,25.071A25.1,25.1,0,0,0,134.72,213.34Z" transform="translate(-104.848 -208.531)" fill="#fff"/>
      </g>
      <g id="Grupo_1219560" data-name="Grupo 1219560" transform="translate(2963.747 2443.189)">
        <path id="Trazado_1092080" data-name="Trazado 1092080" d="M49.8,223.657h-.051l-3.174,1.509-.64-2.918,4.4-2.049h3.225v16.645H49.8Z" transform="translate(-45.938 -220.2)" fill="#fff"/>
      </g>
      <g id="Grupo_1219561" data-name="Grupo 1219561" transform="translate(3138.477 2443.05)">
        <path id="Trazado_1092081" data-name="Trazado 1092081" d="M117.5,237.066V234.71l2.151-1.946c3.636-3.252,5.4-5.123,5.455-7.066,0-1.358-.82-2.432-2.74-2.432a6.034,6.034,0,0,0-3.56,1.384l-1.1-2.791a9.217,9.217,0,0,1,5.455-1.716c3.763,0,5.838,2.2,5.838,5.225,0,2.791-2.022,5.018-4.429,7.169l-1.536,1.279v.051h6.273v3.2H117.5Z" transform="translate(-117.5 -220.143)" fill="#fff"/>
      </g>
      <path id="Trazado_1092085" data-name="Trazado 1092085" d="M234.656,95.6l-80.365,65.311a10.9,10.9,0,0,0-4.29,8.419V352.874H333.126V169.325a10.91,10.91,0,0,0-4.29-8.419L248.471,95.6A11.425,11.425,0,0,0,234.656,95.6Z" transform="translate(3233.485 2099.838)" fill="#56678d"/>
      <g id="Grupo_1219565" data-name="Grupo 1219565" transform="translate(3449.974 2426.439)">
        <circle id="Elipse_12056" data-name="Elipse 12056" cx="22.873" cy="22.873" r="22.873" transform="translate(2.198 2.198)" fill="#56678d"/>
        <path id="Trazado_1092077" data-name="Trazado 1092077" d="M202.3,217.735a20.676,20.676,0,1,1-20.676,20.676A20.675,20.675,0,0,1,202.3,217.735m0-4.395a25.071,25.071,0,1,0,25.071,25.071A25.1,25.1,0,0,0,202.3,213.34Z" transform="translate(-177.232 -213.34)" fill="#fff"/>
      </g>
      <g id="Grupo_1219566" data-name="Grupo 1219566" transform="translate(3469.168 2442.908)">
        <path id="Trazado_1092082" data-name="Trazado 1092082" d="M185.887,233.194a9.16,9.16,0,0,0,3.865,1.026c2.024,0,3.047-.974,3.047-2.227,0-1.638-1.638-2.381-3.355-2.381h-1.587v-2.793h1.511c1.306-.024,2.971-.513,2.971-1.919,0-1-.82-1.741-2.459-1.741a7.586,7.586,0,0,0-3.482,1l-.794-2.818a10.437,10.437,0,0,1,5.147-1.255c3.56,0,5.53,1.87,5.53,4.148a3.99,3.99,0,0,1-3.047,3.868v.051a4.136,4.136,0,0,1,3.611,4.046c0,2.945-2.586,5.1-6.812,5.1a9.847,9.847,0,0,1-4.942-1.177Z" transform="translate(-185.093 -220.085)" fill="#fff"/>
      </g>
      <path id="Trazado_1092053" data-name="Trazado 1092053" d="M304.656,120l-80.365,62.315a10.253,10.253,0,0,0-4.29,8.033V319.076H403.126V190.344a10.258,10.258,0,0,0-4.29-8.033L318.471,120A11.865,11.865,0,0,0,304.656,120Z" transform="translate(3331.959 2133.635)" fill="#083e61"/>
      <path id="Trazado_1092056" data-name="Trazado 1092056" d="M374.656,144.061l-80.365,67.495a11.4,11.4,0,0,0-4.29,8.7v90.462H473.126V220.254a11.405,11.405,0,0,0-4.29-8.7l-80.365-67.495A11.129,11.129,0,0,0,374.656,144.061Z" transform="translate(3432.875 2141.993)" fill="#1172b3"/>
      <g id="Grupo_1219558" data-name="Grupo 1219558" transform="translate(3618.449 2426.439)">
        <circle id="Elipse_12057" data-name="Elipse 12057" cx="22.873" cy="22.873" r="22.873" transform="translate(2.198 2.198)" fill="#2f384d"/>
        <path id="Trazado_1092078" data-name="Trazado 1092078" d="M272.3,217.735a20.676,20.676,0,1,1-20.676,20.676A20.675,20.675,0,0,1,272.3,217.735m0-4.395a25.071,25.071,0,1,0,25.071,25.071A25.1,25.1,0,0,0,272.3,213.34Z" transform="translate(-247.232 -213.34)" fill="#fff"/>
      </g>
      <g id="Grupo_1219559" data-name="Grupo 1219559" transform="translate(3789.365 2426.439)">
        <circle id="Elipse_12058" data-name="Elipse 12058" cx="22.873" cy="22.873" r="22.873" transform="translate(2.197 2.198)" fill="#1172b3"/>
        <path id="Trazado_1092079" data-name="Trazado 1092079" d="M342.3,217.735a20.676,20.676,0,1,1-20.676,20.676A20.675,20.675,0,0,1,342.3,217.735m0-4.395a25.071,25.071,0,1,0,25.071,25.071A25.1,25.1,0,0,0,342.3,213.34Z" transform="translate(-317.232 -213.34)" fill="#fff"/>
      </g>
      <g id="Grupo_1219563" data-name="Grupo 1219563" transform="translate(3636.991 2443.189)">
        <path id="Trazado_1092083" data-name="Trazado 1092083" d="M262.2,236.845v-3.97h-7.374V230.34l6.3-10.14h4.764v9.757h2v2.918h-2v3.97H262.2Zm0-6.888V226.27c0-1,.051-2.022.127-3.1h-.1c-.537,1.074-.974,2.049-1.538,3.1l-2.227,3.636v.051Z" transform="translate(-254.826 -220.2)" fill="#fff"/>
      </g>
      <g id="Grupo_1219564" data-name="Grupo 1219564" transform="translate(3808.547 2443.048)">
        <path id="Trazado_1092084" data-name="Trazado 1092084" d="M336.2,223.343h-6.453l-.359,2.561a7.2,7.2,0,0,1,1.074-.051,7.623,7.623,0,0,1,4.38,1.2,4.736,4.736,0,0,1,2.024,4.173c0,3.1-2.664,5.838-7.144,5.838a10.575,10.575,0,0,1-4.634-.947l.691-2.92a9.555,9.555,0,0,0,3.765.82c1.611,0,3.328-.769,3.328-2.534,0-1.714-1.355-2.766-4.686-2.766a14.341,14.341,0,0,0-2.254.154l1.1-8.731H336.2v3.2Z" transform="translate(-325.088 -220.142)" fill="#fff"/>
      </g>
    </g>
    <path id="Trazado_1092326" data-name="Trazado 1092326" d="M14.113,19V6.4h4.465q6.715,0,6.715,6.144a6.212,6.212,0,0,1-1.833,4.7A6.757,6.757,0,0,1,18.578,19ZM16.952,8.708V16.7h1.406a3.8,3.8,0,0,0,2.9-1.107,4.2,4.2,0,0,0,1.05-3.015,3.812,3.812,0,0,0-1.042-2.834,3.971,3.971,0,0,0-2.922-1.033ZM35.2,15.291H29.329q.141,1.96,2.47,1.96a4.822,4.822,0,0,0,2.61-.7v2a6.858,6.858,0,0,1-3.243.668,4.565,4.565,0,0,1-3.384-1.208,4.566,4.566,0,0,1-1.2-3.371,4.816,4.816,0,0,1,1.3-3.551,4.334,4.334,0,0,1,3.2-1.31,3.933,3.933,0,0,1,3.045,1.169A4.5,4.5,0,0,1,35.2,14.122Zm-2.575-1.705q0-1.934-1.564-1.934a1.494,1.494,0,0,0-1.156.554,2.513,2.513,0,0,0-.593,1.38ZM42.725,7.8A2.806,2.806,0,0,0,41.7,7.592q-1.336,0-1.336,1.45V10h2.057v2.048H40.361V19H37.592V12.048H36.081V10h1.512V8.884a3.24,3.24,0,0,1,1-2.479,3.821,3.821,0,0,1,2.725-.94,4.785,4.785,0,0,1,1.406.176Zm2.436.773a1.622,1.622,0,0,1-1.151-.417,1.345,1.345,0,0,1-.448-1.024,1.3,1.3,0,0,1,.448-1.02,1.88,1.88,0,0,1,2.307,0,1.3,1.3,0,0,1,.444,1.02,1.34,1.34,0,0,1-.444,1.037A1.65,1.65,0,0,1,45.162,8.576ZM46.533,19H43.755V10h2.777Zm11.032,0H54.8V14q0-2.092-1.494-2.092a1.483,1.483,0,0,0-1.187.554,2.109,2.109,0,0,0-.466,1.406V19H48.872V10H51.65v1.424h.035A3.183,3.183,0,0,1,54.577,9.78q2.988,0,2.988,3.709ZM61.17,8.576a1.622,1.622,0,0,1-1.151-.417,1.345,1.345,0,0,1-.448-1.024,1.3,1.3,0,0,1,.448-1.02,1.88,1.88,0,0,1,2.307,0,1.3,1.3,0,0,1,.444,1.02,1.34,1.34,0,0,1-.444,1.037A1.65,1.65,0,0,1,61.17,8.576ZM62.541,19H59.764V10h2.777Zm9.16-.325a5.492,5.492,0,0,1-2.716.545,4.593,4.593,0,0,1-3.357-1.257,4.341,4.341,0,0,1-1.283-3.243A4.782,4.782,0,0,1,65.72,11.1,5.083,5.083,0,0,1,69.4,9.78a4.72,4.72,0,0,1,2.3.422v2.355a3.166,3.166,0,0,0-1.942-.65,2.559,2.559,0,0,0-1.894.7,2.607,2.607,0,0,0-.7,1.929,2.565,2.565,0,0,0,.668,1.876,2.455,2.455,0,0,0,1.837.681,3.666,3.666,0,0,0,2.03-.65Zm3.227-10.1a1.622,1.622,0,0,1-1.151-.417,1.345,1.345,0,0,1-.448-1.024,1.3,1.3,0,0,1,.448-1.02,1.88,1.88,0,0,1,2.307,0,1.3,1.3,0,0,1,.444,1.02,1.34,1.34,0,0,1-.444,1.037A1.65,1.65,0,0,1,74.929,8.576ZM76.3,19H73.522V10H76.3Zm6.629.22a4.838,4.838,0,0,1-3.538-1.261A4.573,4.573,0,0,1,78.1,14.535a4.573,4.573,0,0,1,1.336-3.494A5.048,5.048,0,0,1,83.052,9.78a4.78,4.78,0,0,1,3.516,1.261,4.483,4.483,0,0,1,1.274,3.335,4.759,4.759,0,0,1-1.314,3.542A4.892,4.892,0,0,1,82.928,19.22ZM83,11.907a1.852,1.852,0,0,0-1.529.677,2.984,2.984,0,0,0-.545,1.916q0,2.593,2.092,2.593,2,0,2-2.663Q85.011,11.907,83,11.907Zm2.979-6.17L83.227,8.576h-2l2.285-2.839ZM98.329,19H95.56V14q0-2.092-1.494-2.092a1.483,1.483,0,0,0-1.187.554,2.109,2.109,0,0,0-.466,1.406V19H89.636V10h2.777v1.424h.035A3.183,3.183,0,0,1,95.34,9.78q2.988,0,2.988,3.709ZM114.3,19h-2.777V17.761h-.035A3.114,3.114,0,0,1,108.7,19.22a3.412,3.412,0,0,1-2.716-1.191,4.93,4.93,0,0,1-1.028-3.327,5.366,5.366,0,0,1,1.134-3.577,3.7,3.7,0,0,1,2.971-1.345,2.527,2.527,0,0,1,2.426,1.248h.035V5.676H114.3Zm-2.725-4.377v-.677a2.13,2.13,0,0,0-.51-1.459,1.8,1.8,0,0,0-2.769.145,3.367,3.367,0,0,0-.519,1.991,2.914,2.914,0,0,0,.5,1.828,1.779,1.779,0,0,0,2.764-.035A2.821,2.821,0,0,0,111.577,14.623Zm13.15.668h-5.871q.141,1.96,2.47,1.96a4.822,4.822,0,0,0,2.61-.7v2a6.858,6.858,0,0,1-3.243.668,4.565,4.565,0,0,1-3.384-1.208,4.566,4.566,0,0,1-1.2-3.371,4.816,4.816,0,0,1,1.3-3.551,4.334,4.334,0,0,1,3.2-1.31,3.933,3.933,0,0,1,3.045,1.169,4.5,4.5,0,0,1,1.077,3.173Zm-2.575-1.705q0-1.934-1.564-1.934a1.494,1.494,0,0,0-1.156.554,2.513,2.513,0,0,0-.593,1.38ZM129.159,19h-2.777V5.676h2.777ZM34.751,44.954h-.035V50.14H31.939V37h2.777v1.354h.035a3.534,3.534,0,0,1,5.594-.374,5.108,5.108,0,0,1,.954,3.265,5.537,5.537,0,0,1-1.112,3.612A3.625,3.625,0,0,1,37.23,46.22,2.8,2.8,0,0,1,34.751,44.954Zm-.079-3.691v.721a2.291,2.291,0,0,0,.492,1.521,1.6,1.6,0,0,0,1.292.589,1.7,1.7,0,0,0,1.472-.734,3.543,3.543,0,0,0,.523-2.079q0-2.373-1.846-2.373a1.733,1.733,0,0,0-1.393.646A2.576,2.576,0,0,0,34.672,41.263Zm14.3-1.758a2.409,2.409,0,0,0-1.169-.272,1.684,1.684,0,0,0-1.415.664,2.9,2.9,0,0,0-.51,1.806V46H43.1V37H45.88v1.67h.035a2.4,2.4,0,0,1,2.373-1.828,1.788,1.788,0,0,1,.686.105Zm5.513,6.715a4.838,4.838,0,0,1-3.538-1.261,4.573,4.573,0,0,1-1.288-3.423A4.573,4.573,0,0,1,51,38.042a5.048,5.048,0,0,1,3.612-1.261,4.78,4.78,0,0,1,3.516,1.261A4.483,4.483,0,0,1,59.4,41.377a4.759,4.759,0,0,1-1.314,3.542A4.892,4.892,0,0,1,54.486,46.22Zm.07-7.312a1.852,1.852,0,0,0-1.529.677,2.984,2.984,0,0,0-.545,1.916q0,2.593,2.092,2.593,2,0,2-2.663Q56.569,38.907,54.556,38.907Zm9.459,6.047H63.98V46H61.2V32.676H63.98v5.678h.035a3.3,3.3,0,0,1,2.927-1.573,3.211,3.211,0,0,1,2.681,1.2,5.155,5.155,0,0,1,.94,3.27,5.582,5.582,0,0,1-1.1,3.612,3.579,3.579,0,0,1-2.936,1.362A2.836,2.836,0,0,1,64.015,44.954Zm-.079-3.8v.923a2.107,2.107,0,0,0,.5,1.441,1.63,1.63,0,0,0,1.283.571,1.7,1.7,0,0,0,1.472-.734,3.544,3.544,0,0,0,.523-2.079,2.819,2.819,0,0,0-.479-1.745,1.616,1.616,0,0,0-1.367-.628,1.766,1.766,0,0,0-1.384.624A2.37,2.37,0,0,0,63.936,41.157ZM75.144,46H72.367V32.676h2.777ZM85.57,42.291H79.7q.141,1.96,2.47,1.96a4.822,4.822,0,0,0,2.61-.7v2a6.858,6.858,0,0,1-3.243.668,4.189,4.189,0,0,1-4.588-4.579,4.816,4.816,0,0,1,1.3-3.551,4.334,4.334,0,0,1,3.2-1.31,3.933,3.933,0,0,1,3.045,1.169,4.5,4.5,0,0,1,1.077,3.173Zm-2.575-1.705q0-1.934-1.564-1.934a1.494,1.494,0,0,0-1.156.554,2.513,2.513,0,0,0-.593,1.38ZM101.515,46H98.746V40.867q0-1.96-1.441-1.96a1.324,1.324,0,0,0-1.116.589,2.42,2.42,0,0,0-.431,1.468V46H92.981V40.814q0-1.907-1.415-1.907a1.356,1.356,0,0,0-1.138.563A2.475,2.475,0,0,0,90,41v5H87.224V37H90v1.406h.035a3.41,3.41,0,0,1,2.909-1.626,2.592,2.592,0,0,1,2.61,1.679,3.329,3.329,0,0,1,3.023-1.679q2.936,0,2.936,3.621Zm9.687,0h-2.628V44.708h-.035a2.933,2.933,0,0,1-2.681,1.512,2.8,2.8,0,0,1-2.061-.743,2.661,2.661,0,0,1-.751-1.982q0-2.619,3.1-3.023l2.443-.325q0-1.477-1.6-1.477a5.46,5.46,0,0,0-3.059.958V37.536a6.881,6.881,0,0,1,1.586-.527,8.339,8.339,0,0,1,1.833-.229q3.85,0,3.85,3.841Zm-2.61-3.656v-.606l-1.635.211q-1.354.176-1.354,1.222a1.01,1.01,0,0,0,.33.778,1.266,1.266,0,0,0,.892.3,1.644,1.644,0,0,0,1.274-.541A1.952,1.952,0,0,0,108.592,42.344Z" transform="translate(305 2106.232)" fill="#212429"/>
    <path id="Trazado_1092327" data-name="Trazado 1092327" d="M13.422,19H5.864V6.4h7.269V8.708H8.7v2.8h4.122v2.3H8.7V16.7h4.72Zm1.162-.237v-2.25a5.913,5.913,0,0,0,1.367.615,4.531,4.531,0,0,0,1.288.2,2.762,2.762,0,0,0,1.165-.2.653.653,0,0,0,.426-.615.569.569,0,0,0-.193-.439,1.8,1.8,0,0,0-.5-.308,5.635,5.635,0,0,0-.664-.237q-.36-.105-.694-.237a6.652,6.652,0,0,1-.945-.435,2.731,2.731,0,0,1-.686-.541,2.125,2.125,0,0,1-.422-.712,2.841,2.841,0,0,1-.145-.958,2.466,2.466,0,0,1,.33-1.3,2.692,2.692,0,0,1,.879-.892,4.016,4.016,0,0,1,1.257-.51,6.553,6.553,0,0,1,1.472-.163,8.168,8.168,0,0,1,1.213.092,9.053,9.053,0,0,1,1.213.268v2.145a4.383,4.383,0,0,0-1.129-.461,4.764,4.764,0,0,0-1.182-.154,2.619,2.619,0,0,0-.514.048,1.693,1.693,0,0,0-.426.141.783.783,0,0,0-.29.237.546.546,0,0,0-.105.33.609.609,0,0,0,.158.422,1.374,1.374,0,0,0,.413.3,4.078,4.078,0,0,0,.567.229q.312.1.62.207a8.056,8.056,0,0,1,1,.422,3.2,3.2,0,0,1,.769.536,2.105,2.105,0,0,1,.492.721,2.884,2.884,0,0,1-.176,2.351,2.78,2.78,0,0,1-.923.923,4.185,4.185,0,0,1-1.327.519,7.357,7.357,0,0,1-1.56.163A8.042,8.042,0,0,1,14.584,18.763Zm13.95.132a4.105,4.105,0,0,1-1.854.325q-2.936,0-2.936-3.05V12.048H22.285V10h1.459V8.058l2.769-.791V10h2.021v2.048H26.513v3.639q0,1.406,1.116,1.406a1.882,1.882,0,0,0,.905-.255ZM37.589,19H34.961V17.708h-.035a2.933,2.933,0,0,1-2.681,1.512,2.8,2.8,0,0,1-2.061-.743,2.661,2.661,0,0,1-.751-1.982q0-2.619,3.1-3.023l2.443-.325q0-1.477-1.6-1.477a5.46,5.46,0,0,0-3.059.958V10.536a6.881,6.881,0,0,1,1.586-.527,8.339,8.339,0,0,1,1.833-.229q3.85,0,3.85,3.841Zm-2.61-3.656v-.606l-1.635.211q-1.354.176-1.354,1.222a1.01,1.01,0,0,0,.33.778,1.266,1.266,0,0,0,.892.3,1.644,1.644,0,0,0,1.274-.541A1.952,1.952,0,0,0,34.979,15.344Zm7.622,2.61h-.035V19H39.788V5.676h2.777v5.678H42.6A3.3,3.3,0,0,1,45.527,9.78a3.211,3.211,0,0,1,2.681,1.2,5.155,5.155,0,0,1,.94,3.27,5.582,5.582,0,0,1-1.1,3.612,3.579,3.579,0,0,1-2.936,1.362A2.836,2.836,0,0,1,42.6,17.954Zm-.079-3.8v.923a2.107,2.107,0,0,0,.5,1.441,1.63,1.63,0,0,0,1.283.571,1.7,1.7,0,0,0,1.472-.734A3.543,3.543,0,0,0,46.3,14.28a2.819,2.819,0,0,0-.479-1.745,1.616,1.616,0,0,0-1.367-.628,1.766,1.766,0,0,0-1.384.624A2.37,2.37,0,0,0,42.521,14.157ZM53.729,19H50.952V5.676h2.777Zm10.426-3.709H58.284q.141,1.96,2.47,1.96a4.822,4.822,0,0,0,2.61-.7v2a6.858,6.858,0,0,1-3.243.668,4.565,4.565,0,0,1-3.384-1.208,4.566,4.566,0,0,1-1.2-3.371,4.816,4.816,0,0,1,1.3-3.551,4.334,4.334,0,0,1,3.2-1.31,3.933,3.933,0,0,1,3.045,1.169,4.5,4.5,0,0,1,1.077,3.173ZM61.58,13.586q0-1.934-1.564-1.934a1.494,1.494,0,0,0-1.156.554,2.513,2.513,0,0,0-.593,1.38Zm11.05,5.089a5.492,5.492,0,0,1-2.716.545,4.593,4.593,0,0,1-3.357-1.257,4.341,4.341,0,0,1-1.283-3.243A4.782,4.782,0,0,1,66.648,11.1,5.083,5.083,0,0,1,70.327,9.78a4.72,4.72,0,0,1,2.3.422v2.355a3.166,3.166,0,0,0-1.942-.65,2.559,2.559,0,0,0-1.894.7,2.607,2.607,0,0,0-.7,1.929,2.565,2.565,0,0,0,.668,1.876,2.455,2.455,0,0,0,1.837.681,3.666,3.666,0,0,0,2.03-.65Zm3.227-10.1a1.622,1.622,0,0,1-1.151-.417,1.345,1.345,0,0,1-.448-1.024,1.3,1.3,0,0,1,.448-1.02,1.88,1.88,0,0,1,2.307,0,1.3,1.3,0,0,1,.444,1.02,1.34,1.34,0,0,1-.444,1.037A1.65,1.65,0,0,1,75.857,8.576ZM77.228,19H74.451V10h2.777Zm16.631,0H91.09V13.867q0-1.96-1.441-1.96a1.324,1.324,0,0,0-1.116.589,2.42,2.42,0,0,0-.431,1.468V19H85.324V13.814q0-1.907-1.415-1.907a1.356,1.356,0,0,0-1.138.563A2.475,2.475,0,0,0,82.345,14v5H79.568V10h2.777v1.406h.035A3.41,3.41,0,0,1,85.289,9.78a2.592,2.592,0,0,1,2.61,1.679A3.329,3.329,0,0,1,90.923,9.78q2.936,0,2.936,3.621ZM97.464,8.576a1.622,1.622,0,0,1-1.151-.417,1.345,1.345,0,0,1-.448-1.024,1.3,1.3,0,0,1,.448-1.02,1.88,1.88,0,0,1,2.307,0,1.3,1.3,0,0,1,.444,1.02,1.34,1.34,0,0,1-.444,1.037A1.65,1.65,0,0,1,97.464,8.576ZM98.835,19H96.058V10h2.777Zm10.426-3.709H103.39q.141,1.96,2.47,1.96a4.822,4.822,0,0,0,2.61-.7v2a6.858,6.858,0,0,1-3.243.668,4.565,4.565,0,0,1-3.384-1.208,4.566,4.566,0,0,1-1.2-3.371,4.816,4.816,0,0,1,1.3-3.551,4.334,4.334,0,0,1,3.2-1.31,3.933,3.933,0,0,1,3.045,1.169,4.5,4.5,0,0,1,1.077,3.173Zm-2.575-1.705q0-1.934-1.564-1.934a1.494,1.494,0,0,0-1.156.554,2.513,2.513,0,0,0-.593,1.38ZM119.607,19h-2.769V14q0-2.092-1.494-2.092a1.483,1.483,0,0,0-1.187.554,2.109,2.109,0,0,0-.466,1.406V19h-2.777V10h2.777v1.424h.035a3.183,3.183,0,0,1,2.892-1.644q2.988,0,2.988,3.709Zm7.639-.105a4.105,4.105,0,0,1-1.854.325q-2.936,0-2.936-3.05V12.048H121V10h1.459V8.058l2.769-.791V10h2.021v2.048h-2.021v3.639q0,1.406,1.116,1.406a1.882,1.882,0,0,0,.905-.255Zm5.785.325a4.838,4.838,0,0,1-3.538-1.261,4.573,4.573,0,0,1-1.288-3.423,4.573,4.573,0,0,1,1.336-3.494,5.048,5.048,0,0,1,3.612-1.261,4.78,4.78,0,0,1,3.516,1.261,4.483,4.483,0,0,1,1.274,3.335,4.759,4.759,0,0,1-1.314,3.542A4.892,4.892,0,0,1,133.032,19.22Zm.07-7.312a1.852,1.852,0,0,0-1.529.677,2.984,2.984,0,0,0-.545,1.916q0,2.593,2.092,2.593,2,0,2-2.663Q135.115,11.907,133.1,11.907ZM29.72,46H26.943V44.761h-.035a3.114,3.114,0,0,1-2.786,1.459,3.412,3.412,0,0,1-2.716-1.191A4.93,4.93,0,0,1,20.377,41.7a5.366,5.366,0,0,1,1.134-3.577,3.7,3.7,0,0,1,2.971-1.345,2.527,2.527,0,0,1,2.426,1.248h.035V32.676H29.72ZM27,41.623v-.677a2.13,2.13,0,0,0-.51-1.459,1.8,1.8,0,0,0-2.769.145,3.367,3.367,0,0,0-.519,1.991,2.914,2.914,0,0,0,.5,1.828,1.779,1.779,0,0,0,2.764-.035A2.821,2.821,0,0,0,27,41.623Zm13.15.668H34.275q.141,1.96,2.47,1.96a4.822,4.822,0,0,0,2.61-.7v2a6.858,6.858,0,0,1-3.243.668,4.189,4.189,0,0,1-4.588-4.579,4.816,4.816,0,0,1,1.3-3.551,4.334,4.334,0,0,1,3.2-1.31,3.933,3.933,0,0,1,3.045,1.169,4.5,4.5,0,0,1,1.077,3.173Zm-2.575-1.705q0-1.934-1.564-1.934a1.494,1.494,0,0,0-1.156.554,2.513,2.513,0,0,0-.593,1.38ZM51.057,46.22a4.838,4.838,0,0,1-3.538-1.261,4.573,4.573,0,0,1-1.288-3.423,4.573,4.573,0,0,1,1.336-3.494A5.048,5.048,0,0,1,51.18,36.78,4.78,4.78,0,0,1,54.7,38.042a4.483,4.483,0,0,1,1.274,3.335,4.759,4.759,0,0,1-1.314,3.542A4.892,4.892,0,0,1,51.057,46.22Zm.07-7.312a1.852,1.852,0,0,0-1.529.677,2.984,2.984,0,0,0-.545,1.916q0,2.593,2.092,2.593,2,0,2-2.663Q53.14,38.907,51.127,38.907Zm9.459,6.047h-.035V46H57.773V32.676h2.777v5.678h.035a3.3,3.3,0,0,1,2.927-1.573,3.211,3.211,0,0,1,2.681,1.2,5.155,5.155,0,0,1,.94,3.27,5.582,5.582,0,0,1-1.1,3.612A3.579,3.579,0,0,1,63.1,46.22,2.836,2.836,0,0,1,60.586,44.954Zm-.079-3.8v.923a2.107,2.107,0,0,0,.5,1.441,1.63,1.63,0,0,0,1.283.571,1.7,1.7,0,0,0,1.472-.734,3.543,3.543,0,0,0,.523-2.079,2.819,2.819,0,0,0-.479-1.745,1.616,1.616,0,0,0-1.367-.628,1.766,1.766,0,0,0-1.384.624A2.37,2.37,0,0,0,60.507,41.157Zm9.837-5.581a1.622,1.622,0,0,1-1.151-.417,1.345,1.345,0,0,1-.448-1.024,1.3,1.3,0,0,1,.448-1.02,1.88,1.88,0,0,1,2.307,0,1.3,1.3,0,0,1,.444,1.02,1.34,1.34,0,0,1-.444,1.037A1.65,1.65,0,0,1,70.343,35.576Zm1.371,10.266a4.892,4.892,0,0,1-.976,3.19,3.421,3.421,0,0,1-2.812,1.2,3.889,3.889,0,0,1-1.327-.264v-2.18a2.163,2.163,0,0,0,1.028.325q1.31,0,1.31-2.057V37h2.777ZM82.14,42.291H76.269q.141,1.96,2.47,1.96a4.822,4.822,0,0,0,2.61-.7v2a6.858,6.858,0,0,1-3.243.668,4.189,4.189,0,0,1-4.588-4.579,4.816,4.816,0,0,1,1.3-3.551,4.334,4.334,0,0,1,3.2-1.31,3.933,3.933,0,0,1,3.045,1.169,4.5,4.5,0,0,1,1.077,3.173Zm-2.575-1.705q0-1.934-1.564-1.934a1.494,1.494,0,0,0-1.156.554,2.513,2.513,0,0,0-.593,1.38Zm9.67,5.309a4.105,4.105,0,0,1-1.854.325q-2.936,0-2.936-3.05V39.048H82.986V37h1.459V35.058l2.769-.791V37h2.021v2.048H87.213v3.639q0,1.406,1.116,1.406a1.882,1.882,0,0,0,.905-.255Zm2.973-10.318a1.622,1.622,0,0,1-1.151-.417,1.345,1.345,0,0,1-.448-1.024,1.3,1.3,0,0,1,.448-1.02,1.88,1.88,0,0,1,2.307,0,1.3,1.3,0,0,1,.444,1.02,1.34,1.34,0,0,1-.444,1.037A1.65,1.65,0,0,1,92.207,35.576ZM93.578,46H90.8V37h2.777Zm10.909-9-3.349,9H97.975l-3.19-9h2.971l1.564,5.546a8.1,8.1,0,0,1,.308,1.6h.035a9.078,9.078,0,0,1,.325-1.547l1.6-5.6Zm5.3,9.22a4.838,4.838,0,0,1-3.538-1.261,4.573,4.573,0,0,1-1.288-3.423,4.573,4.573,0,0,1,1.336-3.494,5.048,5.048,0,0,1,3.612-1.261,4.78,4.78,0,0,1,3.516,1.261,4.483,4.483,0,0,1,1.274,3.335,4.759,4.759,0,0,1-1.314,3.542A4.892,4.892,0,0,1,109.789,46.22Zm.07-7.312a1.852,1.852,0,0,0-1.529.677,2.984,2.984,0,0,0-.545,1.916q0,2.593,2.092,2.593,2,0,2-2.663Q111.872,38.907,109.859,38.907Zm6.057,6.855v-2.25a5.913,5.913,0,0,0,1.367.615,4.531,4.531,0,0,0,1.288.2,2.762,2.762,0,0,0,1.165-.2.653.653,0,0,0,.426-.615.569.569,0,0,0-.193-.439,1.8,1.8,0,0,0-.5-.308,5.635,5.635,0,0,0-.664-.237q-.36-.105-.694-.237a6.653,6.653,0,0,1-.945-.435,2.731,2.731,0,0,1-.686-.541,2.125,2.125,0,0,1-.422-.712,2.841,2.841,0,0,1-.145-.958,2.466,2.466,0,0,1,.33-1.3,2.692,2.692,0,0,1,.879-.892,4.016,4.016,0,0,1,1.257-.51,6.553,6.553,0,0,1,1.472-.163,8.168,8.168,0,0,1,1.213.092,9.053,9.053,0,0,1,1.213.268v2.145a4.383,4.383,0,0,0-1.129-.461,4.764,4.764,0,0,0-1.182-.154,2.619,2.619,0,0,0-.514.048,1.693,1.693,0,0,0-.426.141.783.783,0,0,0-.29.237.546.546,0,0,0-.105.33.609.609,0,0,0,.158.422,1.374,1.374,0,0,0,.413.3,4.078,4.078,0,0,0,.567.229q.312.1.62.207a8.056,8.056,0,0,1,1,.422,3.2,3.2,0,0,1,.769.536,2.105,2.105,0,0,1,.492.721,2.884,2.884,0,0,1-.176,2.351,2.78,2.78,0,0,1-.923.923,4.185,4.185,0,0,1-1.327.519,7.357,7.357,0,0,1-1.56.163A8.042,8.042,0,0,1,115.917,45.763Z" transform="translate(476 2106.232)" fill="#212429"/>
    <path id="Trazado_1092328" data-name="Trazado 1092328" d="M31.041,19V6.4h4.465q6.715,0,6.715,6.144a6.212,6.212,0,0,1-1.833,4.7A6.757,6.757,0,0,1,35.506,19ZM33.88,8.708V16.7h1.406a3.8,3.8,0,0,0,2.9-1.107,4.2,4.2,0,0,0,1.05-3.015,3.812,3.812,0,0,0-1.042-2.834,3.971,3.971,0,0,0-2.922-1.033Zm11.568-.132A1.622,1.622,0,0,1,44.3,8.159a1.345,1.345,0,0,1-.448-1.024,1.3,1.3,0,0,1,.448-1.02,1.88,1.88,0,0,1,2.307,0,1.3,1.3,0,0,1,.444,1.02A1.34,1.34,0,0,1,46.6,8.172,1.65,1.65,0,0,1,45.448,8.576ZM46.819,19H44.042V10h2.777Zm1.751-.237v-2.25a5.913,5.913,0,0,0,1.367.615,4.531,4.531,0,0,0,1.288.2,2.762,2.762,0,0,0,1.165-.2.653.653,0,0,0,.426-.615.569.569,0,0,0-.193-.439,1.8,1.8,0,0,0-.5-.308,5.635,5.635,0,0,0-.664-.237q-.36-.105-.694-.237a6.653,6.653,0,0,1-.945-.435,2.731,2.731,0,0,1-.686-.541,2.125,2.125,0,0,1-.422-.712,2.841,2.841,0,0,1-.145-.958,2.466,2.466,0,0,1,.33-1.3,2.692,2.692,0,0,1,.879-.892,4.016,4.016,0,0,1,1.257-.51,6.553,6.553,0,0,1,1.472-.163,8.168,8.168,0,0,1,1.213.092,9.053,9.053,0,0,1,1.213.268v2.145a4.383,4.383,0,0,0-1.129-.461,4.764,4.764,0,0,0-1.182-.154,2.619,2.619,0,0,0-.514.048,1.693,1.693,0,0,0-.426.141.783.783,0,0,0-.29.237.546.546,0,0,0-.105.33.609.609,0,0,0,.158.422,1.374,1.374,0,0,0,.413.3,4.078,4.078,0,0,0,.567.229q.312.1.62.207a8.056,8.056,0,0,1,1,.422,3.2,3.2,0,0,1,.769.536,2.105,2.105,0,0,1,.492.721,2.884,2.884,0,0,1-.176,2.351,2.78,2.78,0,0,1-.923.923,4.185,4.185,0,0,1-1.327.519,7.357,7.357,0,0,1-1.56.163A8.042,8.042,0,0,1,48.57,18.763Zm16.6-3.472H59.295q.141,1.96,2.47,1.96a4.822,4.822,0,0,0,2.61-.7v2a6.858,6.858,0,0,1-3.243.668,4.565,4.565,0,0,1-3.384-1.208,4.566,4.566,0,0,1-1.2-3.371,4.816,4.816,0,0,1,1.3-3.551,4.334,4.334,0,0,1,3.2-1.31,3.933,3.933,0,0,1,3.045,1.169,4.5,4.5,0,0,1,1.077,3.173ZM62.59,13.586q0-1.934-1.564-1.934a1.494,1.494,0,0,0-1.156.554,2.513,2.513,0,0,0-.593,1.38ZM75.512,19H72.744V14q0-2.092-1.494-2.092a1.483,1.483,0,0,0-1.187.554,2.109,2.109,0,0,0-.466,1.406V19H66.82V10H69.6v1.424h.035A3.183,3.183,0,0,1,72.524,9.78q2.988,0,2.988,3.709ZM74.282,5.843a3.2,3.2,0,0,1-.488,1.9,1.558,1.558,0,0,1-1.332.672,3.144,3.144,0,0,1-1.477-.378A2.959,2.959,0,0,0,69.9,7.627q-.7,0-.7.949H67.962a3.225,3.225,0,0,1,.483-1.9A1.568,1.568,0,0,1,69.8,6a3.008,3.008,0,0,1,1.477.431,2.476,2.476,0,0,0,1.055.387q.686,0,.686-.976ZM82,19.22a4.838,4.838,0,0,1-3.538-1.261,4.573,4.573,0,0,1-1.288-3.423,4.573,4.573,0,0,1,1.336-3.494A5.048,5.048,0,0,1,82.123,9.78a4.78,4.78,0,0,1,3.516,1.261,4.483,4.483,0,0,1,1.274,3.335A4.759,4.759,0,0,1,85.6,17.919,4.892,4.892,0,0,1,82,19.22Zm.07-7.312a1.852,1.852,0,0,0-1.529.677A2.984,2.984,0,0,0,80,14.5q0,2.593,2.092,2.593,2,0,2-2.663Q84.083,11.907,82.071,11.907ZM102.491,19H99.714V17.761h-.035a3.114,3.114,0,0,1-2.786,1.459,3.412,3.412,0,0,1-2.716-1.191A4.93,4.93,0,0,1,93.148,14.7a5.366,5.366,0,0,1,1.134-3.577A3.7,3.7,0,0,1,97.253,9.78a2.527,2.527,0,0,1,2.426,1.248h.035V5.676h2.777Zm-2.725-4.377v-.677a2.13,2.13,0,0,0-.51-1.459,1.8,1.8,0,0,0-2.769.145,3.367,3.367,0,0,0-.519,1.991,2.914,2.914,0,0,0,.5,1.828,1.779,1.779,0,0,0,2.764-.035A2.821,2.821,0,0,0,99.767,14.623Zm13.15.668h-5.871q.141,1.96,2.47,1.96a4.822,4.822,0,0,0,2.61-.7v2a6.858,6.858,0,0,1-3.243.668,4.565,4.565,0,0,1-3.384-1.208,4.566,4.566,0,0,1-1.2-3.371,4.816,4.816,0,0,1,1.3-3.551,4.334,4.334,0,0,1,3.2-1.31,3.933,3.933,0,0,1,3.045,1.169,4.5,4.5,0,0,1,1.077,3.173Zm-2.575-1.705q0-1.934-1.564-1.934a1.494,1.494,0,0,0-1.156.554,2.513,2.513,0,0,0-.593,1.38ZM30.911,46H28.283V44.708h-.035a2.933,2.933,0,0,1-2.681,1.512,2.8,2.8,0,0,1-2.061-.743,2.661,2.661,0,0,1-.751-1.982q0-2.619,3.1-3.023l2.443-.325q0-1.477-1.6-1.477a5.46,5.46,0,0,0-3.059.958V37.536a6.881,6.881,0,0,1,1.586-.527,8.339,8.339,0,0,1,1.833-.229q3.85,0,3.85,3.841ZM28.3,42.344v-.606l-1.635.211q-1.354.176-1.354,1.222a1.01,1.01,0,0,0,.33.778,1.266,1.266,0,0,0,.892.3,1.644,1.644,0,0,0,1.274-.541A1.952,1.952,0,0,0,28.3,42.344ZM35.887,46H33.11V32.676h2.777Zm7.78-.105a4.105,4.105,0,0,1-1.854.325q-2.936,0-2.936-3.05V39.048H37.419V37h1.459V35.058l2.769-.791V37h2.021v2.048H41.646v3.639q0,1.406,1.116,1.406a1.882,1.882,0,0,0,.905-.255Zm9.582-3.6H47.378q.141,1.96,2.47,1.96a4.822,4.822,0,0,0,2.61-.7v2a6.858,6.858,0,0,1-3.243.668,4.189,4.189,0,0,1-4.588-4.579,4.816,4.816,0,0,1,1.3-3.551,4.334,4.334,0,0,1,3.2-1.31,3.933,3.933,0,0,1,3.045,1.169,4.5,4.5,0,0,1,1.077,3.173Zm-2.575-1.705q0-1.934-1.564-1.934a1.494,1.494,0,0,0-1.156.554,2.513,2.513,0,0,0-.593,1.38Zm10.1-1.081a2.409,2.409,0,0,0-1.169-.272,1.684,1.684,0,0,0-1.415.664,2.9,2.9,0,0,0-.51,1.806V46H54.9V37h2.777v1.67h.035a2.4,2.4,0,0,1,2.373-1.828,1.788,1.788,0,0,1,.686.105ZM70.814,46H68.045V41q0-2.092-1.494-2.092a1.483,1.483,0,0,0-1.187.554,2.109,2.109,0,0,0-.466,1.406V46H62.121V37H64.9v1.424h.035a3.183,3.183,0,0,1,2.892-1.644q2.988,0,2.988,3.709ZM80.5,46H77.873V44.708h-.035a2.933,2.933,0,0,1-2.681,1.512,2.8,2.8,0,0,1-2.061-.743,2.661,2.661,0,0,1-.751-1.982q0-2.619,3.1-3.023l2.443-.325q0-1.477-1.6-1.477a5.46,5.46,0,0,0-3.059.958V37.536a6.881,6.881,0,0,1,1.586-.527,8.339,8.339,0,0,1,1.833-.229q3.85,0,3.85,3.841Zm-2.61-3.656v-.606l-1.635.211Q74.9,42.124,74.9,43.17a1.01,1.01,0,0,0,.33.778,1.266,1.266,0,0,0,.892.3A1.644,1.644,0,0,0,77.4,43.71,1.952,1.952,0,0,0,77.891,42.344Zm10.25,3.551a4.105,4.105,0,0,1-1.854.325q-2.936,0-2.936-3.05V39.048H81.891V37H83.35V35.058l2.769-.791V37H88.14v2.048H86.119v3.639q0,1.406,1.116,1.406a1.882,1.882,0,0,0,.905-.255Zm2.973-10.318a1.622,1.622,0,0,1-1.151-.417,1.345,1.345,0,0,1-.448-1.024,1.3,1.3,0,0,1,.448-1.02,1.88,1.88,0,0,1,2.307,0,1.3,1.3,0,0,1,.444,1.02,1.34,1.34,0,0,1-.444,1.037A1.65,1.65,0,0,1,91.113,35.576ZM92.484,46H89.707V37h2.777Zm10.909-9-3.349,9H96.88l-3.19-9h2.971l1.564,5.546a8.1,8.1,0,0,1,.308,1.6h.035a9.078,9.078,0,0,1,.325-1.547l1.6-5.6Zm8.4,9h-2.628V44.708h-.035a2.933,2.933,0,0,1-2.681,1.512,2.8,2.8,0,0,1-2.061-.743,2.661,2.661,0,0,1-.751-1.982q0-2.619,3.1-3.023l2.443-.325q0-1.477-1.6-1.477a5.46,5.46,0,0,0-3.059.958V37.536a6.881,6.881,0,0,1,1.586-.527,8.339,8.339,0,0,1,1.833-.229q3.85,0,3.85,3.841Zm-2.61-3.656v-.606l-1.635.211q-1.354.176-1.354,1.222a1.01,1.01,0,0,0,.33.778,1.266,1.266,0,0,0,.892.3,1.644,1.644,0,0,0,1.274-.541A1.952,1.952,0,0,0,109.187,42.344Zm4.221,3.419v-2.25a5.913,5.913,0,0,0,1.367.615,4.531,4.531,0,0,0,1.288.2,2.762,2.762,0,0,0,1.165-.2.653.653,0,0,0,.426-.615.569.569,0,0,0-.193-.439,1.8,1.8,0,0,0-.5-.308,5.635,5.635,0,0,0-.664-.237q-.36-.105-.694-.237a6.653,6.653,0,0,1-.945-.435,2.731,2.731,0,0,1-.686-.541,2.125,2.125,0,0,1-.422-.712,2.841,2.841,0,0,1-.145-.958,2.466,2.466,0,0,1,.33-1.3,2.692,2.692,0,0,1,.879-.892,4.016,4.016,0,0,1,1.257-.51,6.553,6.553,0,0,1,1.472-.163,8.168,8.168,0,0,1,1.213.092,9.053,9.053,0,0,1,1.213.268v2.145a4.383,4.383,0,0,0-1.129-.461,4.764,4.764,0,0,0-1.182-.154,2.619,2.619,0,0,0-.514.048,1.693,1.693,0,0,0-.426.141.783.783,0,0,0-.29.237.546.546,0,0,0-.105.33.609.609,0,0,0,.158.422,1.374,1.374,0,0,0,.413.3,4.078,4.078,0,0,0,.567.229q.312.1.62.207a8.056,8.056,0,0,1,1,.422,3.2,3.2,0,0,1,.769.536,2.105,2.105,0,0,1,.492.721,2.884,2.884,0,0,1-.176,2.351,2.78,2.78,0,0,1-.923.923,4.185,4.185,0,0,1-1.327.519,7.357,7.357,0,0,1-1.56.163A8.042,8.042,0,0,1,113.407,45.763Z" transform="translate(808.5 2106.232)" fill="#fff"/>
    <path id="Trazado_1092329" data-name="Trazado 1092329" d="M23.356,19H15.8V6.4h7.269V8.708h-4.43v2.8h4.122v2.3H18.636V16.7h4.72Zm10.32-9-3.349,9H27.163l-3.19-9h2.971l1.564,5.546a8.1,8.1,0,0,1,.308,1.6h.035a9.078,9.078,0,0,1,.325-1.547l1.6-5.6Zm8.4,9H39.452V17.708h-.035a2.933,2.933,0,0,1-2.681,1.512,2.8,2.8,0,0,1-2.061-.743,2.661,2.661,0,0,1-.751-1.982q0-2.619,3.1-3.023l2.443-.325q0-1.477-1.6-1.477a5.46,5.46,0,0,0-3.059.958V10.536a6.881,6.881,0,0,1,1.586-.527,8.339,8.339,0,0,1,1.833-.229q3.85,0,3.85,3.841Zm-2.61-3.656v-.606l-1.635.211q-1.354.176-1.354,1.222a1.01,1.01,0,0,0,.33.778,1.266,1.266,0,0,0,.892.3,1.644,1.644,0,0,0,1.274-.541A1.952,1.952,0,0,0,39.47,15.344ZM47.057,19H44.279V5.676h2.777Zm10.891,0H55.18V17.629h-.044a3.141,3.141,0,0,1-2.751,1.591q-3.129,0-3.129-3.788V10h2.769v5.186q0,1.907,1.512,1.907a1.5,1.5,0,0,0,1.2-.523,2.109,2.109,0,0,0,.448-1.419V10h2.769Zm9.828,0H65.148V17.708h-.035a2.933,2.933,0,0,1-2.681,1.512,2.8,2.8,0,0,1-2.061-.743A2.661,2.661,0,0,1,59.62,16.5q0-2.619,3.1-3.023l2.443-.325q0-1.477-1.6-1.477a5.46,5.46,0,0,0-3.059.958V10.536a6.881,6.881,0,0,1,1.586-.527,8.339,8.339,0,0,1,1.833-.229q3.85,0,3.85,3.841Zm-2.61-3.656v-.606l-1.635.211q-1.354.176-1.354,1.222a1.01,1.01,0,0,0,.33.778,1.266,1.266,0,0,0,.892.3,1.644,1.644,0,0,0,1.274-.541A1.952,1.952,0,0,0,65.166,15.344ZM76.8,18.675a5.492,5.492,0,0,1-2.716.545,4.593,4.593,0,0,1-3.357-1.257,4.341,4.341,0,0,1-1.283-3.243A4.782,4.782,0,0,1,70.814,11.1,5.083,5.083,0,0,1,74.493,9.78a4.72,4.72,0,0,1,2.3.422v2.355a3.166,3.166,0,0,0-1.942-.65,2.559,2.559,0,0,0-1.894.7,2.607,2.607,0,0,0-.7,1.929,2.565,2.565,0,0,0,.668,1.876,2.455,2.455,0,0,0,1.837.681,3.666,3.666,0,0,0,2.03-.65Zm3.227-10.1a1.622,1.622,0,0,1-1.151-.417,1.345,1.345,0,0,1-.448-1.024,1.3,1.3,0,0,1,.448-1.02,1.88,1.88,0,0,1,2.307,0,1.3,1.3,0,0,1,.444,1.02,1.34,1.34,0,0,1-.444,1.037A1.65,1.65,0,0,1,80.023,8.576ZM81.394,19H78.617V10h2.777Zm6.629.22a4.838,4.838,0,0,1-3.538-1.261A4.573,4.573,0,0,1,83.2,14.535a4.573,4.573,0,0,1,1.336-3.494A5.048,5.048,0,0,1,88.146,9.78a4.78,4.78,0,0,1,3.516,1.261,4.483,4.483,0,0,1,1.274,3.335,4.759,4.759,0,0,1-1.314,3.542A4.892,4.892,0,0,1,88.023,19.22Zm.07-7.312a1.852,1.852,0,0,0-1.529.677,2.984,2.984,0,0,0-.545,1.916q0,2.593,2.092,2.593,2,0,2-2.663Q90.106,11.907,88.093,11.907Zm2.979-6.17L88.321,8.576h-2L88.6,5.737ZM103.423,19h-2.769V14q0-2.092-1.494-2.092a1.483,1.483,0,0,0-1.187.554,2.109,2.109,0,0,0-.466,1.406V19H94.73V10h2.777v1.424h.035a3.183,3.183,0,0,1,2.892-1.644q2.988,0,2.988,3.709Zm15.235-6.68a2.775,2.775,0,0,1-.294,1.274,2.551,2.551,0,0,1-.984,1,5.86,5.86,0,0,1-1.833.664,15.212,15.212,0,0,1-2.848.268.3.3,0,0,0-.018.092V15.7a1.766,1.766,0,0,0,.088.545,1.244,1.244,0,0,0,.3.492,1.579,1.579,0,0,0,.567.356,2.451,2.451,0,0,0,.879.136,4.587,4.587,0,0,0,.69-.057,6.228,6.228,0,0,0,.76-.167,7.691,7.691,0,0,0,.769-.264,5.872,5.872,0,0,0,.708-.338l-.431,2.074a5.828,5.828,0,0,1-.624.272,7.516,7.516,0,0,1-.76.237,7.394,7.394,0,0,1-.87.167,7.142,7.142,0,0,1-.945.062,4.607,4.607,0,0,1-1.749-.3,3.337,3.337,0,0,1-1.2-.8,3.132,3.132,0,0,1-.69-1.182,4.64,4.64,0,0,1-.22-1.441,6.276,6.276,0,0,1,.382-2.188,5.536,5.536,0,0,1,1.09-1.819,5.187,5.187,0,0,1,3.933-1.705,4.751,4.751,0,0,1,1.512.211,2.882,2.882,0,0,1,1.02.567,2.192,2.192,0,0,1,.58.813A2.512,2.512,0,0,1,118.658,12.32Zm-2.646.035a.693.693,0,0,0-.242-.541.99.99,0,0,0-.681-.215,1.729,1.729,0,0,0-.743.167,2.3,2.3,0,0,0-.65.461,2.8,2.8,0,0,0-.505.7,3.637,3.637,0,0,0-.316.883,5.5,5.5,0,0,0,2.36-.36A1.188,1.188,0,0,0,116.012,12.355Zm9.626,2.127,2,4.518h-3.085l-.809-2.355q-.07-.2-.132-.435t-.114-.453h-.044q-.132.22-.264.448a3.233,3.233,0,0,1-.272.4L121.138,19h-3.27l4.008-4.553L119.952,10h3.094l.738,2.373a3.671,3.671,0,0,1,.149.5q.062.268.088.444h.035q.105-.193.281-.453t.316-.453L126.412,10h3.155ZM61.9,43.029q-.062.272-.119.659t-.105.8q-.048.417-.079.817t-.031.69H58.753q0-.132.013-.338t.031-.422q.018-.215.04-.422t.04-.347h-.035q-.255.343-.527.659a3.527,3.527,0,0,1-.606.558,2.93,2.93,0,0,1-.743.387,2.821,2.821,0,0,1-.945.145,2.77,2.77,0,0,1-1.173-.237,2.323,2.323,0,0,1-.866-.686,3.157,3.157,0,0,1-.536-1.094,5.33,5.33,0,0,1-.185-1.463,6.89,6.89,0,0,1,.092-1.015,6.66,6.66,0,0,1,.334-1.266,6.372,6.372,0,0,1,.672-1.318,4.988,4.988,0,0,1,1.1-1.182,5.472,5.472,0,0,1,1.626-.853,6.97,6.97,0,0,1,2.246-.325q.5,0,1.006.04t.993.105q.488.066.945.154t.853.176Zm-1.89-4.21a3.645,3.645,0,0,0-.448-.066q-.246-.022-.466-.022a2.609,2.609,0,0,0-1.063.2,2.729,2.729,0,0,0-.8.527,3.1,3.1,0,0,0-.567.738,4.669,4.669,0,0,0-.365.839,5.052,5.052,0,0,0-.193.831,5.163,5.163,0,0,0-.057.712,2.6,2.6,0,0,0,.066.6,1.4,1.4,0,0,0,.207.479,1.022,1.022,0,0,0,.347.316.973.973,0,0,0,.479.114,1.459,1.459,0,0,0,.892-.29,2.838,2.838,0,0,0,.686-.743,4.7,4.7,0,0,0,.492-1.02,9.968,9.968,0,0,0,.321-1.121Zm13.5.325a3.1,3.1,0,0,1-.026.352q-.026.22-.066.457t-.083.461q-.044.224-.079.382l-1.1,5.2H69.372l1.081-5.133q.053-.281.105-.58a2.85,2.85,0,0,0,.053-.457,1,1,0,0,0-.215-.672.805.805,0,0,0-.646-.25,1.513,1.513,0,0,0-.751.224,3.126,3.126,0,0,0-.734.593,4.123,4.123,0,0,0-.6.848,3.619,3.619,0,0,0-.365.98L66.366,46h-2.83l1.336-6.17q.079-.4.158-.813t.141-.782q.062-.374.11-.694T65.356,37H68.1q-.026.246-.057.514t-.062.514q-.031.246-.057.435t-.044.268h.035a5.835,5.835,0,0,1,.694-.76,5.165,5.165,0,0,1,.822-.62,4.391,4.391,0,0,1,.9-.417,2.956,2.956,0,0,1,.932-.154,2.168,2.168,0,0,1,1.683.62A2.491,2.491,0,0,1,73.512,39.145Zm7.473-.1h-2.1l-.721,3.366q-.018.114-.044.246t-.048.264q-.022.132-.04.25a1.394,1.394,0,0,0-.018.2.685.685,0,0,0,.176.519.827.827,0,0,0,.58.167,1.738,1.738,0,0,0,.268-.026q.163-.026.334-.07t.33-.092q.158-.048.255-.083l-.431,2.057a3.839,3.839,0,0,1-.387.123q-.229.062-.5.114t-.567.088a4.854,4.854,0,0,1-.576.035,3.148,3.148,0,0,1-1.116-.171,1.786,1.786,0,0,1-.716-.475,1.742,1.742,0,0,1-.378-.708,3.343,3.343,0,0,1-.11-.879q0-.141.018-.325t.048-.378q.031-.193.07-.391t.075-.365l.721-3.463H74.718L75.21,37h1.327l.457-2.109,2.927-.721L79.332,37h2.136Zm9.169.272a2.775,2.775,0,0,1-.294,1.274,2.551,2.551,0,0,1-.984,1,5.86,5.86,0,0,1-1.833.664,15.212,15.212,0,0,1-2.848.268.3.3,0,0,0-.018.092V42.7a1.766,1.766,0,0,0,.088.545,1.244,1.244,0,0,0,.3.492,1.579,1.579,0,0,0,.567.356,2.451,2.451,0,0,0,.879.136,4.587,4.587,0,0,0,.69-.057,6.228,6.228,0,0,0,.76-.167,7.691,7.691,0,0,0,.769-.264,5.872,5.872,0,0,0,.708-.338l-.431,2.074a5.828,5.828,0,0,1-.624.272,7.516,7.516,0,0,1-.76.237,7.394,7.394,0,0,1-.87.167,7.142,7.142,0,0,1-.945.062,4.607,4.607,0,0,1-1.749-.3,3.337,3.337,0,0,1-1.2-.8,3.132,3.132,0,0,1-.69-1.182,4.64,4.64,0,0,1-.22-1.441,6.276,6.276,0,0,1,.382-2.188,5.536,5.536,0,0,1,1.09-1.819,5.187,5.187,0,0,1,3.933-1.705,4.751,4.751,0,0,1,1.512.211,2.882,2.882,0,0,1,1.02.567,2.192,2.192,0,0,1,.58.813A2.512,2.512,0,0,1,90.153,39.32Zm-2.646.035a.693.693,0,0,0-.242-.541.99.99,0,0,0-.681-.215,1.729,1.729,0,0,0-.743.167,2.3,2.3,0,0,0-.65.461,2.8,2.8,0,0,0-.505.7,3.637,3.637,0,0,0-.316.883,5.5,5.5,0,0,0,2.36-.36A1.188,1.188,0,0,0,87.508,39.355Z" transform="translate(972 2106.232)" fill="#fff"/>
    <path id="Trazado_1092330" data-name="Trazado 1092330" d="M32.874,18.517V15.7a5.4,5.4,0,0,0,1.661.962,5.34,5.34,0,0,0,1.811.321,4.015,4.015,0,0,0,.936-.1,2.193,2.193,0,0,0,.668-.268,1.169,1.169,0,0,0,.4-.4,1.009,1.009,0,0,0,.132-.505,1.092,1.092,0,0,0-.211-.659,2.27,2.27,0,0,0-.576-.536,6.015,6.015,0,0,0-.866-.475q-.5-.229-1.081-.466a5.517,5.517,0,0,1-2.2-1.5,3.281,3.281,0,0,1-.725-2.145,3.416,3.416,0,0,1,.4-1.692,3.359,3.359,0,0,1,1.077-1.165A4.828,4.828,0,0,1,35.871,6.4a8.106,8.106,0,0,1,1.9-.215,11.418,11.418,0,0,1,1.745.119,6.861,6.861,0,0,1,1.4.365V9.3a4.239,4.239,0,0,0-.69-.387,5.466,5.466,0,0,0-.769-.277,5.866,5.866,0,0,0-.787-.163,5.567,5.567,0,0,0-.743-.053,3.873,3.873,0,0,0-.879.092,2.254,2.254,0,0,0-.668.259,1.29,1.29,0,0,0-.422.4.948.948,0,0,0-.149.523,1,1,0,0,0,.167.567,1.916,1.916,0,0,0,.475.475,5.037,5.037,0,0,0,.747.439q.439.215.993.444a11.067,11.067,0,0,1,1.358.672,4.827,4.827,0,0,1,1.033.8,3.133,3.133,0,0,1,.659,1.024,3.618,3.618,0,0,1,.229,1.34,3.59,3.59,0,0,1-.4,1.771,3.247,3.247,0,0,1-1.085,1.16,4.707,4.707,0,0,1-1.6.637,9.219,9.219,0,0,1-1.92.193,10.678,10.678,0,0,1-1.973-.176A5.956,5.956,0,0,1,32.874,18.517Zm18.485-3.226H45.488q.141,1.96,2.47,1.96a4.822,4.822,0,0,0,2.61-.7v2a6.858,6.858,0,0,1-3.243.668,4.565,4.565,0,0,1-3.384-1.208,4.566,4.566,0,0,1-1.2-3.371,4.816,4.816,0,0,1,1.3-3.551,4.334,4.334,0,0,1,3.2-1.31,3.933,3.933,0,0,1,3.045,1.169,4.5,4.5,0,0,1,1.077,3.173Zm-2.575-1.705q0-1.934-1.564-1.934a1.494,1.494,0,0,0-1.156.554,2.513,2.513,0,0,0-.593,1.38ZM55.79,19H53.013V5.676H55.79Zm10.426-3.709H60.345q.141,1.96,2.47,1.96a4.822,4.822,0,0,0,2.61-.7v2a6.858,6.858,0,0,1-3.243.668A4.565,4.565,0,0,1,58.8,18.011a4.566,4.566,0,0,1-1.2-3.371,4.816,4.816,0,0,1,1.3-3.551,4.334,4.334,0,0,1,3.2-1.31,3.933,3.933,0,0,1,3.045,1.169,4.5,4.5,0,0,1,1.077,3.173Zm-2.575-1.705q0-1.934-1.564-1.934a1.494,1.494,0,0,0-1.156.554,2.513,2.513,0,0,0-.593,1.38Zm11.05,5.089a5.492,5.492,0,0,1-2.716.545,4.593,4.593,0,0,1-3.357-1.257,4.341,4.341,0,0,1-1.283-3.243A4.782,4.782,0,0,1,68.709,11.1,5.083,5.083,0,0,1,72.388,9.78a4.72,4.72,0,0,1,2.3.422v2.355a3.166,3.166,0,0,0-1.942-.65,2.559,2.559,0,0,0-1.894.7,2.607,2.607,0,0,0-.7,1.929,2.565,2.565,0,0,0,.668,1.876,2.455,2.455,0,0,0,1.837.681,3.666,3.666,0,0,0,2.03-.65Zm8.641,0a5.492,5.492,0,0,1-2.716.545,4.593,4.593,0,0,1-3.357-1.257,4.341,4.341,0,0,1-1.283-3.243A4.782,4.782,0,0,1,77.351,11.1,5.083,5.083,0,0,1,81.029,9.78a4.72,4.72,0,0,1,2.3.422v2.355a3.166,3.166,0,0,0-1.942-.65,2.559,2.559,0,0,0-1.894.7,2.607,2.607,0,0,0-.7,1.929,2.565,2.565,0,0,0,.668,1.876,2.455,2.455,0,0,0,1.837.681,3.666,3.666,0,0,0,2.03-.65Zm3.227-10.1a1.622,1.622,0,0,1-1.151-.417,1.345,1.345,0,0,1-.448-1.024,1.3,1.3,0,0,1,.448-1.02,1.88,1.88,0,0,1,2.307,0,1.3,1.3,0,0,1,.444,1.02,1.34,1.34,0,0,1-.444,1.037A1.65,1.65,0,0,1,86.559,8.576ZM87.93,19H85.153V10H87.93Zm6.629.22a4.838,4.838,0,0,1-3.538-1.261,4.573,4.573,0,0,1-1.288-3.423,4.573,4.573,0,0,1,1.336-3.494A5.048,5.048,0,0,1,94.682,9.78,4.78,4.78,0,0,1,98.2,11.042a4.483,4.483,0,0,1,1.274,3.335,4.759,4.759,0,0,1-1.314,3.542A4.892,4.892,0,0,1,94.559,19.22Zm.07-7.312a1.852,1.852,0,0,0-1.529.677,2.984,2.984,0,0,0-.545,1.916q0,2.593,2.092,2.593,2,0,2-2.663Q96.642,11.907,94.629,11.907Zm2.979-6.17L94.858,8.576h-2l2.285-2.839ZM109.959,19h-2.769V14q0-2.092-1.494-2.092a1.483,1.483,0,0,0-1.187.554,2.109,2.109,0,0,0-.466,1.406V19h-2.777V10h2.777v1.424h.035a3.183,3.183,0,0,1,2.892-1.644q2.988,0,2.988,3.709Z" transform="translate(1150 2133.232)" fill="#fff"/>
    <g id="Enmascarar_grupo_1098941" data-name="Enmascarar grupo 1098941" clip-path="url(#clip-path)">
      <g id="Grupo_1219568" data-name="Grupo 1219568" transform="translate(-5930.9 136.002)">
        <path id="Trazado_1092194" data-name="Trazado 1092194" d="M1169.185,538.451c-5.625-1.872-9.435,1.434-13.274,4.656-3.071.63-3.583,2.674-3.56,5.515.051,6.295,1.06,12.549.687,18.854a16.634,16.634,0,0,1-.37,4.229c-3.322,3.2-3.157,7.448-3.38,11.55-.11,2.022.015,4.056.005,6.084-.014,2.792.159,5.466,2.453,7.512a2.579,2.579,0,0,1,.732,1.953c.248,3.531-.023,7.165,3.743,9.417,1.771,1.059,1.289,2.987.786,4.748-1.1,3.865-.862,4.321,2.987,5.438a21,21,0,0,1,7.048,3.631,9.214,9.214,0,0,1,3.8,7.371c.034,1.229-.018,2.456-.02,3.683-.061,32.447-.091,64.9.181,97.34.064,7.666-.494,15.315-.152,22.979.246,5.513.094,11.028.458,16.557.42,6.374-.1,12.8-.142,19.211-3.272,1.3-6.734,1.329-10.171,1.428-2.337.068-4.68.091-7.015-.053a15.839,15.839,0,0,0-10.642,0c-7.359.567-14.672-.485-22.011-.562a5.036,5.036,0,0,1-2.607-.779c-3.426-1.6-7.241-1.261-10.757-1.375a91.267,91.267,0,0,1-15.209-2.208c-7.973-1.611-8.22-1.826-7.633-9.938,1.108-15.3,2.578-30.579,3.906-45.865,1.125-12.943,2.206-25.89,3.411-38.826,1.935-20.777,3.956-41.546,5.941-62.318.515-5.391,1.035-10.782,1.632-17a28.5,28.5,0,0,1-9.861,5.661,32.4,32.4,0,0,1-19.65.133c-6.492-2.027-13.148-3.93-18.106-9.1.628-1.737,2.274-1.883,3.7-2.31a8.649,8.649,0,0,0,4.64-3.612c4.247-5.818,4.309-12.634,4.9-19.254a59.275,59.275,0,0,0-1.346-18.814c-1-8.394-2.356-16.707-5.126-24.74-.369-1.071-1.605-2.345.042-3.468,6.214,1.628,10.994,5.714,15.924,9.472,1.686,1.285,2.02,1.685,2.708-.805,4.04-14.635,7.907-29.326,13.174-43.6,1.2-3.253,2.837-5.66,6.394-6.737,3-.908,5.8-2.477,8.714-3.685,1.494-.619,1.927-1.529,1.153-2.97.824-.341,1.638.309,2.458.011.518-.162,1.028-.349,1.559-.471,3.815-1.587,7.961-2.209,11.671-4.117a12.555,12.555,0,0,1,5.887-1.047c2.942,4.528,5.409,9.34,8.27,13.919.816,1.306.226,2.563-.36,3.777-1.466,3.033-3.121,5.975-4.454,9.07-1.21,2.809-1.1,3.019,1.756,3.784a62.907,62.907,0,0,0,6.5,1.758c3.669.571,5.781,2.706,6.832,6.155a12.378,12.378,0,0,0,1.341,3.544c1.027-2.243,1.314-4.666,2.851-6.517a9.608,9.608,0,0,1,2.45-2.117c4.387-1.4,8.68-3.169,13.355-3.508a2.624,2.624,0,0,1,.875.586c1.619,2.161,1.792,4.751,1.874,7.258.17,5.185.1,10.377.128,15.566C1170.265,536.589,1170.473,537.812,1169.185,538.451Z" transform="translate(5508.872 1379.359)" fill="#252931"/>
        <path id="Trazado_1092196" data-name="Trazado 1092196" d="M1367.577,676.422c.706-8.524-.669-17.006-.523-25.52.075-4.418.157-4.531,4.474-3.651,4.707,2.369,9.987,2.436,14.973,3.688,9.871,2.479,19.8,4.726,29.712,7.045a3.611,3.611,0,0,1,2.517,1.543c3.233,1.816,6.468,1.136,9.686-.024.86-.311,1.655-.793,2.546-1.045.834-.236,1.826-1.354,2.461-.479.82,1.13-.411,2.02-1.17,2.795-2.562,2.615-6.985,3.612-11.509,2.668,3.5,1.524,6.745.292,9.815-1.376,1.993-1.082,3.5-2.467,2.986-5.364-.273-1.545-.557-3.7,1.124-5.1l.023.026c.156-.152.452-.326.514-.243,2.2,2.945,4.109.723,6.189-.241,7.872-3.647,15.077-8.607,23.2-11.75a4.409,4.409,0,0,0,.546-.279c1.193-.663,2.307-2.248,3.791-1.119,1.57,1.194.957,3.057.44,4.562-1.925,5.6-3.484,11.311-5.2,16.972-1.592,5.255-3.234,10.5-4.837,16.242a12.9,12.9,0,0,0,2.552-6.96c.583-4.63,2.378-9.016,3.7-13.5,1.448-4.914,3.439-9.669,4.381-14.728.438-2.357,2.005-4.016,3.491-5.667,1.016-1.129,1.736-.923,1.2.784-3.495,11.949-7.167,23.851-10.4,35.872-1.283,4.776-3.374,8.328-8.2,9.99a34.091,34.091,0,0,0-4.1,2.038,6.991,6.991,0,0,1-3.131,2.728c-3.1,1.5-6.326,2.909-8.427,5.885a2.355,2.355,0,0,1-2.428.946,5.419,5.419,0,0,0-3,.363c-9.725,4.308-19.905,3.58-30.086,2.684-2.267-.2-4.765.563-6.7-1.335-1.483-1.717-1.776-4.036-3.023-5.915a35.669,35.669,0,0,0-5.371-5.757c-.508-.49-1.109-1-1.882-.627-.859.418-.886,1.287-.915,2.1-.078,2.2,1.424,4,1.6,6.142-.15,1.781-1.343,2.137-2.8,1.941-1-.135-2-.318-3-.461-3.312-2.21-6.945-4.022-9.344-7.395a27.163,27.163,0,0,0,.294-8.54c-.627-7.33-.962-14.669-1.118-22.019-.064-3.025.534-3.46,3.415-2.73,10.375,2.629,20.7,5.478,31.274,7.253,4,.671,4.9,1.66,4.588,5.129-.689,7.655-.481,15.372-1.587,22.994,1.075-7.515.906-15.122,1.6-22.668.362-3.953-1.783-6.267-5.957-6.243-5.31.032-10.344-1.33-15.263-2.887-4.833-1.53-9.854-2.272-14.626-4.045-3.266-1.213-3.558-.643-3.525,2.837.089,9.3,1.183,18.546,1.248,27.842.009,1.25.138,2.534-1.5,2.925C1368.269,683.968,1366.585,680.977,1367.577,676.422Z" transform="translate(5293.257 1275.215)" fill="#141821"/>
        <path id="Trazado_1092197" data-name="Trazado 1092197" d="M1226.162,295.691c-1.145,1.5-1.62-.4-2.452-.484-2.7-5.812-1.144-11.165,1.862-16.3a38.026,38.026,0,0,1,3.519-5.015,13.773,13.773,0,0,0,2.767-13.263c-3.455-11.369-1.755-21.932,3.726-32.233,2.057-3.865,3.318-8.15,5.336-12.04,5.019-9.673,12.932-14.987,24.015-15.247,1.781-.042,3.766.009,5.063.906,4.349,3.007,9.3,4.61,13.987,6.846,3.148,1.5,4.8,4.693,5.973,7.9,2.169,5.95,4.518,11.8,7.249,17.53,3.5,7.33,3.626,15.05,1.273,22.728-2.242,7.314-.626,13.533,4.055,19.446,4.73,5.975,6.579,12.647,2.87,19.972-1.082.642-1.49-.077-1.844-.908-.364-1.544.284-3.013.377-4.53.359-5.853-2.427-10.589-5.314-15.308a36.058,36.058,0,0,1,4.923,13.12,8.613,8.613,0,0,1-.9,5.915c-1.326,1.528-2.783.726-4.2.2-4.393-1.622-8.809-3.174-13.329-4.411a15.945,15.945,0,0,1-10.434-8.8,8.1,8.1,0,0,1-.845-2.835c-.193-2.846-1.09-5.649-.529-8.54a4.951,4.951,0,0,1,2.07-2.954,19.606,19.606,0,0,0,7.139-10.115c.741-2.193,1.8-3.489,4.5-3.728,3.979-.352,6.875-6.573,5.134-10.2a3.323,3.323,0,0,0-4.041-1.98c-1.833.4-3.36-.016-4.251-1.614-1.886-3.383-4.878-3.65-8.2-3.244a23.235,23.235,0,0,1-3.041.406c-1.032-.011-2.189-.011-2.537-1.241-.393-1.39.684-2.012,1.692-2.561a7.891,7.891,0,0,1,4.786-.749c1.869.218,2.472-.308,1.774-2.178a31.266,31.266,0,0,1-1.272-6.313,6.242,6.242,0,0,0-3.969-5.038,18.065,18.065,0,0,0-8.63-1.815c-6.99.428-9.57,2.84-10.831,9.748a27.429,27.429,0,0,1-1.349,5.645c2.309-.037,4.284-.326,6.055.632,1,.54,2.163,1.095,1.862,2.477-.324,1.49-1.657,1.409-2.749,1.182-4.556-.949-8.306-.063-10.785,4.262-.868,1.514-2.333,1.33-3.825,1.067-3.886-.687-5.947,1.524-5.145,5.435.824,4.019,2.732,5.746,6.884,6.019,1.268.083,2.287.438,2.644,1.66,1.6,5.505,4.927,9.819,9.159,13.535a2.31,2.31,0,0,1,.534,1.1,33.119,33.119,0,0,1,.026,8.253,14.1,14.1,0,0,1-1.27,3.712c-1.887,2.915-3.943,5.668-7.249,7.148-1,.448-1.927,1.184-3.14.838-4.306,1.41-8.557,3.054-12.949,4.108-1.65.4-2.806,2.68-4.88,1.361-2.083-2.326-1.67-5.1-1.285-7.8.507-3.556,2.235-6.686,3.624-9.54-2.652,5.024-5.472,10.368-3.224,16.73C1226.706,294.964,1226.423,295.365,1226.162,295.691Z" transform="translate(5392.429 1572.011)" fill="#171a24"/>
        <path id="Trazado_1092198" data-name="Trazado 1092198" d="M1447.874,1112.366a72.943,72.943,0,0,0-11.615,1.331,5.953,5.953,0,0,1-6.269.048,5.067,5.067,0,0,1-.377-2.7c.089-7.782.216-15.571,0-23.347-.64-23.231-.163-46.475-.719-69.7-.453-18.943-.116-37.875-.358-56.81-.024-1.869-.614-4.287,1.738-5.09,2.281-.779,4.138.773,5.613,2.376,1.872,2.033,3.922,3.927,5.631,6.075,2.681,3.37,3.57,7.514,4.186,11.689a77.563,77.563,0,0,1,.517,10.066c.3,18.416.55,36.837.96,55.247.353,15.866.158,31.73.56,47.587.171,6.734.169,13.474.477,20.205A5.777,5.777,0,0,1,1447.874,1112.366Z" transform="translate(5251.173 1054.782)" fill="#252931"/>
        <path id="Trazado_1092199" data-name="Trazado 1092199" d="M1465.186,801.585c.726.514,1.273,1.185,2.352,1.226,8.648.331,17.287,1.311,25.942,0,2.463-.374,4.579-1.7,6.961-2.236,1.6-.359,3.055-1.814,4.91-.561.691.467,1.029-.357,1.33-.868,2.1-3.565,5.9-4.717,9.314-6.282,1.051-.481,1.644-1.516,2.775-1.731,1.159,27.478-11.446,50.263-24.832,72.775-2.234,3.758-5.759,6.27-8.985,9.063-4.712-.139-6.461-3.968-8.406-7.176-5.616-9.263-8.75-19.544-11.572-29.916-.312-1.147-.931-2.9.336-3.33,1.583-.534,1.931,1.4,2.385,2.53,3.717,9.233,8.958,17.605,14.418,25.967,1.567-3.978-2.642-24.616-7.969-39.447a50.011,50.011,0,0,0-6.5-15.376C1466.7,804.743,1463.553,804.425,1465.186,801.585Z" transform="translate(5226.443 1167.689)" fill="#252931"/>
        <path id="Trazado_1092200" data-name="Trazado 1092200" d="M1498.732,1045.248c1.1,6.254,1.289,12.6,1.817,18.905q2.408,28.728,4.613,57.474c.9,11.517,1.718,23.041,2.616,34.558a3.53,3.53,0,0,1-2.743,4.114,91.881,91.881,0,0,1-16.749,3.479,3.523,3.523,0,0,1-.927-2.837c.274-5.948-.778-11.849-.644-17.783.292-13-.4-26-.812-38.973-.486-15.44-.687-30.884-1.2-46.318-.248-7.443-.186-14.9-.733-22.339a7.067,7.067,0,0,1-.071-1.831c.182-.993.1-2.183,1.3-2.56,1.166-.366,1.878.539,2.577,1.279C1491.644,1036.51,1494.923,1041.106,1498.732,1045.248Z" transform="translate(5213.211 1003.281)" fill="#252931"/>
        <path id="Trazado_1092201" data-name="Trazado 1092201" d="M1418.691,922.268c-4.074-.652-4.74-4.774-7.122-7.143-1.756-1.747-3.9-3.273-4.927-5.716-.206-.488-.7-1.131-1.437-.771-.641.311-.641,1-.624,1.614.185,6.914.305,13.852.773,20.73.431,6.338.35,12.647.411,18.965.16,16.531,1.265,33.03,1.462,49.567.1,8.044-.105,16.137.5,24.167.43,5.713.51,11.408.521,17.118-.8.5-1.631.12-2.45.088-.25-.735-1-1.185-.81-2.2.918-5.043.179-10.195-.049-15.177-.672-14.636.367-29.279-.49-43.868-.715-12.179-.143-24.336-.506-36.5-.313-10.473-1.073-20.947-.967-31.414.058-5.719-1.25-10.976-2.762-16.315-.562-1.986-2.561-2.535-3.781-3.855-1.919-2.077-3.215-4.805-6.142-6.017-2.367-.98-2.975-.27-2.937,1.954.034,1.946,0,3.892,0,5.838,0,14.544-.456,29.107.112,43.629.812,20.773-.178,41.555.653,62.3.521,13,.138,25.974.456,38.954a6.511,6.511,0,0,1-.608,3.88.881.881,0,0,1-1.235.019c-.609-3.575-1.6-7.058-.88-10.817a26.154,26.154,0,0,0,.206-7.937c-1.111-9.176-.634-18.379-.444-27.548.222-10.7-.228-21.379-.16-32.07.169-26.491-.146-52.986.192-79.473.086-6.713-4.478-10.167-9.92-11.68-5.351-1.488-6.244-2.519-3.811-7.54.872-1.8.387-2.616-.947-3.516-3.719-2.508-4.6-5.065-3.446-9.941a6.262,6.262,0,0,1,3.719,1.215c5.248,3.4,11.217,4.137,17.215,4.582,3.047.226,6.065.61,9.092.962,2.334.987,4.84,1.455,7.2,2.354,1.106.421,2.412.586,2.876,1.963,2.319,3.3,3.214,7.215,4.195,10.97a186.114,186.114,0,0,1,4.892,25.426c.2,1.7,1.141,4.364-.655,4.989-1.492.519-2.137-2.209-3.055-3.6a154.935,154.935,0,0,1-10.253-17.606c-1.367-2.819-2.523-5.741-4-8.543-.08,3.883,1.43,7.453,2.548,10.979a113.96,113.96,0,0,0,8.162,20c1.374,2.537,3.638,4.354,4.751,7.053.621,1.506,3.3,0,3.929,2.057A31.967,31.967,0,0,0,1418.691,922.268Z" transform="translate(5293.252 1126.261)" fill="#161a22"/>
        <path id="Trazado_1092202" data-name="Trazado 1092202" d="M1188.645,1777.971c.461.874.8.727,2.469.676a78.069,78.069,0,0,1,11.967.12c5.076.633,10.17.447,15.247.979,9.3.974,18.666,1.37,27.872,3.152,1.626.315,4.14.367,4.084,2.41-.051,1.862-2.643,2.055-4.165,2.339a137.9,137.9,0,0,1-14.2,1.949c-11.672.945-23.349,1.955-35.045,2.426-13.177.531-26.367.935-39.568.74-10.91-.161-21.844.362-32.732-.154-12.714-.6-25.445-.941-38.145-2.165-8.3-.8-16.62-1.418-24.872-2.666-1.994-.3-5.072-.671-5.2-2.388-.156-2.082,2.956-1.872,4.685-2.233a168.323,168.323,0,0,1,20.848-2.743c9.955-.807,19.9-1.675,29.893-1.952,1-.027,1.988-.368,2.963.115,1.346,1.2.93,2.831.97,4.3.061,2.232.974,3.392,3.31,3.415,5.119.051,10.2-.074,14.922-2.411,1.374-.68,2.459-.624,3.445.713.891,1.207,2.171.861,3.361.491s1.382-1.38,1.422-2.441c.077-2.029-.078-4.1,1.009-5.959.679-1.325,1.565-2.5,3.162-2.574,4.154-.194,8.322-.613,12.451.3,1.808,1.208,1.7,3.12,1.785,4.952.048,1.022-.01,2.047.038,3.07.054,1.143.124,2.3,1.415,2.813a2.545,2.545,0,0,0,3.1-.612c1.33-1.633,2.733-1.353,4.358-.566,4.87,2.359,10.1,2.323,15.335,2.169,2.142-.063,2.636-1.515,2.823-3.316C1187.83,1781.248,1187.2,1779.4,1188.645,1777.971Z" transform="translate(5506.157 494.281)" fill="#e2ded1"/>
        <path id="Trazado_1092204" data-name="Trazado 1092204" d="M1396.742,1481.548c.08,5.011-.837,9.937-1.32,14.9-.87,8.922-1.908,17.828-2.885,26.739-.344,3.137-.762,6.265-1.067,9.405-.544,5.6-.621,11.165,1.615,16.5.531,4.492,2.57,8.515,3.979,12.733.742,2.221,1.642,4.389,2.162,6.685.091,1.569-.916,2.171-2.219,2.44-9.548,1.964-14.549-.69-16.857-8.225-2.177-7.1-5.177-14-5.94-21.505.47-10-.51-19.946-.934-29.912-.3-7.022-.707-14.034-1.322-21.035a5.784,5.784,0,0,1,.282-2.407c1.027-1.7,1.724-.68,1.836.424.291,2.884,1.756,2.64,3.793,1.807,5.583-2.283,11.224-4.425,16.1-8.116C1394.75,1481.381,1395.672,1480.736,1396.742,1481.548Z" transform="translate(5289.908 694.842)" fill="#dd8e82"/>
        <path id="Trazado_1092205" data-name="Trazado 1092205" d="M1265.97,1545.434c2.916-6.636,1.516-13.46.816-20.231-1.29-12.47-2.684-24.929-4.024-37.393-.4-3.748-.772-7.5-1.156-11.249,2.365.354,3.737,2.344,5.609,3.5a113.5,113.5,0,0,0,16.511,8.084c1.057.437,2.11.846,2.477,2.1a92.4,92.4,0,0,1-.4,12.847c-.849,11.638-1.175,23.278-1.185,34.933-1.2,7.806-4.046,15.161-6.545,22.584-2.3,6.831-9.8,9.736-16.572,7.036-2.331-.929-1.928-2.6-1.278-4.293,1.9-4.944,3.614-9.953,5.266-14.982C1265.794,1547.429,1266.4,1546.507,1265.97,1545.434Z" transform="translate(5366.804 697.997)" fill="#dc8e82"/>
        <path id="Trazado_1092206" data-name="Trazado 1092206" d="M1047.013,710.973c2.423,7.2,2.241,14.647,1.448,22.005-.416,3.858-.189,7.9-1.936,11.6-2.241,4.745-4.344,9.538-10.567,10.1a4.4,4.4,0,0,0-1.366.666c-4.031-2.891-5.5-7.253-6.6-11.76-2.209-9.089-1.666-18.306-.958-27.5.4-5.2,1.065-10.382,1.611-15.572.508-4.6.674-4.7,4.572-2.039a147.319,147.319,0,0,1,12.354,9.951A3.2,3.2,0,0,1,1047.013,710.973Z" transform="translate(5526.67 1232.389)" fill="#141921"/>
        <path id="Trazado_1092207" data-name="Trazado 1092207" d="M1499.094,513.848c2.5.578,4.714,1.859,7.069,2.793a7.168,7.168,0,0,1,3.9,4.071c5,11.055,9.208,22.433,13.73,33.682.732,1.822.339,2.6-1.356,3.528-4.78,2.612-8.917,5.849-9.38,11.94-.075.983-.737,2.077-1.715.862-3.082-3.828-7.728-4.237-11.87-5.762.1-6.569,1.791-12.917,2.974-19.308,1.225-6.621,1.745-13.36,3.239-18.708-.561,3.532-1.861,8.125-3.081,12.733-.758,2.861-.572,5.921-1.881,8.656-.423.884-.582,2.195-1.958,1.914-1.265-.258-1.187-1.447-1.263-2.485a170.7,170.7,0,0,1,.082-29.047C1497.756,516.981,1497.85,515.243,1499.094,513.848Z" transform="translate(5204.253 1357.697)" fill="#252931"/>
        <path id="Trazado_1092208" data-name="Trazado 1092208" d="M1402.907,482.717c4.983,1.019,9.679,2.933,14.433,4.66.951.345,1.815,1.023,2.817.186a5.389,5.389,0,0,1,1.871.489c.076.8.427,1.343,1.315,1.364,1.32,1.664,3.555,1.736,5.134,2.95-1.655,4.761-1.767,9.817-2.81,14.7-.915,4.283-1.538,5.2-5.929,4.611-4.621-.622-9.133.49-13.684.092-1.536-.134-2.73.6-4.04,1.09l-.234-.121c-2.766-4.264-4.656-8.983-6.993-13.47a3.059,3.059,0,0,1,.044-2.957C1397.487,491.758,1399.939,487.084,1402.907,482.717Z" transform="translate(5274.492 1379.029)" fill="#252931"/>
        <path id="Trazado_1092209" data-name="Trazado 1092209" d="M1253.749,1680.1c1.1,1.3.132,2.587-.216,3.736-1.452,4.778-2.907,9.572-4.74,14.211-1.1,2.781-.275,3.6,2.368,3.874a19.869,19.869,0,0,0,7.587-.344,7.752,7.752,0,0,0,5.533-4.846,174.051,174.051,0,0,0,7.216-23.651c1.5.065,2,1.232,2.509,2.344a15.071,15.071,0,0,1,1.274,9.249c-1.546,7.873-2.352,15.885-4.46,23.65a9.96,9.96,0,0,0-.53,5.429c.386,2.917-1.251,3.267-3.465,3.623-2.3.37-3.553-.262-3.47-3.031-5.4,4.081-11.457,3.554-17.314,4.017-2.723.216-4.042-.944-4.092-3.628-.033-1.735-.046-3.47-.068-5.2A292.924,292.924,0,0,0,1253.749,1680.1Z" transform="translate(5379.025 563.334)" fill="#161a24"/>
        <path id="Trazado_1092210" data-name="Trazado 1092210" d="M1373.539,1673.66c1.89,6.422,3.71,12.865,5.693,19.258,1.332,4.295,3.109,8.288,8.235,9.35a22.47,22.47,0,0,0,9.11-.413c1.025-.2.855-.967.863-1.666-.287-.64-.487-1.353.124-1.839.467-.371.861.07,1.122.505l5.019,10.461c.494,9.362.136,9.76-9.242,9.141-4.376-.289-8.823-.488-12.423-3.589a4.659,4.659,0,0,1-6.762,2.417c-.91-.587-.506-1.464-.569-2.2-.25-2.941.159-5.925-.564-8.838-1.395-1.845-1.07-4.115-1.442-6.191-.883-4.934-1.549-9.907-2.32-14.862a17.865,17.865,0,0,1,1.091-9.037A3.453,3.453,0,0,1,1373.539,1673.66Z" transform="translate(5291.097 562.935)" fill="#161923"/>
        <path id="Trazado_1092211" data-name="Trazado 1092211" d="M1016.813,629.933a134.335,134.335,0,0,0-17.405-14.068l-.958,3.611c.343-2.5-.394-3.951-3.086-4.9a28.172,28.172,0,0,1-13.017-9.729,1.374,1.374,0,0,1,1.927-.957c2.008.966,4.344,1.017,6.216,2.308.891.97,1.236,2.277,2.019,3.316.418.556.844,1.233,1.656,1.065.882-.182.845-1.01.9-1.7.1-1.194-.053-2.4.153-3.592.852-2.313,1.907-1.384,2.866-.429-2.9-1.783-2.705-5.058-2.939-8.067a3.537,3.537,0,0,0-2.087-3.352,29.947,29.947,0,0,1-4.65-5.533c-2.184-3.025-1.194-6.267-.376-9.462a4.5,4.5,0,0,1,4.454,2.692,17.626,17.626,0,0,0,5.784,6.179,28.2,28.2,0,0,1,9.538,11.269c.733,1.508,1.52,3.062,3.391,3.515,1.207,5.272,3.42,10.29,4.071,15.7C1015.761,621.851,1017.319,625.763,1016.813,629.933Z" transform="translate(5556.87 1313.429)" fill="#dd8c7f"/>
        <path id="Trazado_1092212" data-name="Trazado 1092212" d="M1445.182,605.36a177.876,177.876,0,0,1-19.124-3.6c-1.35-.975-1.618-2.283-1.684-3.927-.283-7.013.1-14.087-1.513-21-.436-1.863.165-2.732,2.073-2.748,5.6-.047,11.2-.235,16.806-.009a2.872,2.872,0,0,1,3.05,3.116c.135,8.368,1.952,16.645,1.349,25.049C1446.06,603.352,1446.132,604.514,1445.182,605.36Z" transform="translate(5255.1 1316.501)" fill="#252931"/>
        <path id="Trazado_1092213" data-name="Trazado 1092213" d="M964.721,540.962c.067,1.315.178,2.629.188,3.945.007,1.057-.223,2.058-1.458,2.372a2.212,2.212,0,0,1-2.5-1.311,38.94,38.94,0,0,1-1.764-3.834,3.36,3.36,0,0,1-.587-2.141c1.431-2.6.6-4.445-1.906-5.739-.268-1.24,1.211-1.217,1.478-2.068.448-2.687-2.664-2.127-3.39-3.733,2.234-1.6,2.707-3.2.139-4.977a3.145,3.145,0,0,1-1.168-2.434c-.307-4.059-2.156-7.888-1.778-12.045-.74-3.174-1.486-6.346-2.213-9.522-.12-.523-.245-1.087-.9-.955-2.273.454-4.784.518-6.731,1.59-2.27,1.249-3.224.387-4.1-1.325a11.068,11.068,0,0,1-1.024-6.278c.266-2.6,1.494-3.256,3.93-2.042,1.324.66.851-.8,1.3-.916,4.411-1.176,8.782-2.6,13.207-3.527a5.213,5.213,0,0,0,2.774-1.18c1.169-.958,2.687-.551,3.707.855a10.25,10.25,0,0,1,1.482,8.2c-.219,1.214-1.308,2.6-2.577,2.007-1.638-.768-2.6.508-3.819.539-3.953.1-3.545,2.142-2.8,4.943,1.1,4.133,1.822,8.367,2.7,12.559.1.6.427,1.26.276,1.785-1.63,5.68,2.124,9.125,5.238,12.843,1.433.991,1.45,2.586,1.64,4.057C964.415,535.4,964.557,538.182,964.721,540.962Z" transform="translate(5588 1377.931)" fill="#181b24"/>
        <path id="Trazado_1092215" data-name="Trazado 1092215" d="M1396.28,1464.9c-4.143,2.1-7.9,4.872-12.236,6.688-2.622,1.1-5.337,1.969-7.911,3.179-2.16,1.016-3.293.549-3.107-2.046a2.81,2.81,0,0,0-.52-2.32,2.093,2.093,0,0,1-.918-1.815c.125-3.657-.979-7.345.273-10.971l17.757-.724,1.236-.019,6.21.121A33.653,33.653,0,0,1,1396.28,1464.9Z" transform="translate(5290.37 711.493)" fill="#ab5953"/>
        <path id="Trazado_1092216" data-name="Trazado 1092216" d="M1287.729,1476.048a79.818,79.818,0,0,1-22.136-11.119,11.926,11.926,0,0,1-1.648-1.748q-.411-2.994-.822-5.989c8.479-.625,16.918.857,25.392.483,1.392,1.676.929,3.69.955,5.586.047,3.468-.741,6.887-.687,10.365A2.658,2.658,0,0,1,1287.729,1476.048Z" transform="translate(5364.468 711.376)" fill="#ac5c56"/>
        <path id="Trazado_1092217" data-name="Trazado 1092217" d="M1442.3,563.769c.686-9.51-1.275-18.906-1.228-28.388.009-1.734-.912-2.313-2.515-2.3-5.421.026-10.843.053-16.263-.016-1.783-.023-1.912.561-1.567,2.189a83.549,83.549,0,0,1,1.607,22.123c-.09,1.582.551,1.892,1.555,2.354-.042.086-.062.219-.13.25a4.432,4.432,0,0,1-.582.19c-1.032-.16-2.171.419-3.1-.448-.321-8.653,1.456-17.432-1.553-25.924a2.49,2.49,0,0,1,2.895-1.962c5.449.275,10.9-.844,16.362.026,2.174.346,3.031-.722,3.335-2.872.678-4.8,1.635-9.564,2.435-14.349.149-.89.721-1.146,1.438-1.333a.257.257,0,0,1,.377.149,178.179,178.179,0,0,0-1.268,25.007c.027,3.257,1.266,6.442.488,9.726-.134.564-.053,1.091.566,1.2.7.118.713-.5.827-.995,1.01-4.425,2.014-8.851,3.065-13.266.94-3.95,2.288-7.811,2.514-11.915.039-.715.246-1.632,1.181-1.41.962.228.526,1.145.421,1.808-1.587,10.018-3.051,20.057-4.84,30.038-.634,3.535-1.726,6.983-1.75,10.622,0,.1-.535.2-.82.3A8.13,8.13,0,0,1,1442.3,563.769Z" transform="translate(5257.979 1358.092)" fill="#141820"/>
        <path id="Trazado_1092218" data-name="Trazado 1092218" d="M1621.94,626.715l-.382-.771a16.459,16.459,0,0,0-4.5,11.1c0,.449.5.678-.293,1.016-1.4.6-1.464,2-1.633,3.343-.393,3.125-1.883,5.924-2.764,8.892-1.041,3.509-2.481,6.972-2.293,10.8.125,2.565-1.82,4.458-2.723,6.7-.221.547-.957.4-1.39.265-1.024-.325-.244-.987-.109-1.436,1.638-5.441,3.336-10.864,4.978-16.3,1.735-5.75,3.427-11.513,5.136-17.27.374-1.258,1.052-2.8-.227-3.635-1.18-.772-1.773.99-2.718,1.439-2.079.989-4.3,1.538-6.367,2.712-6.982,3.974-14.158,7.6-21.2,11.479-1.47.809-2.2.284-2.477-.95-.167-.741-.017-1.4-1.01-1.458,9.3-5.644,19.1-10.375,28.655-15.563q4.56-2.477,9.089-5.012c.991-.557,2.166-1.392,3.082-.71.984.732.349,2.06-.023,3.113C1622.509,625.22,1622.22,625.966,1621.94,626.715Z" transform="translate(5145.975 1284.204)" fill="#24272d"/>
        <path id="Trazado_1092219" data-name="Trazado 1092219" d="M984.226,586.656c-.458,1.153-1.925.161-2.458,1.155-2.792,1.052-5.433,1.024-7.78-1.092.016-4.045-1.454-8.034.118-12.173.666-1.755-.748-3.946-.2-5.946.443-1.609-.115-3.832,2.5-4.279.687-.117.3-1.078.549-1.6.716,2.848,1.549,5.673,2.114,8.549.51,2.6.42,5.123,3.138,7.007,2.083,1.445,1.176,2.928-2.241,3.977a1.757,1.757,0,0,1-.676.565c-.793.47-2.435-.378-2.442,1.076-.007,1.663,1.739,1.281,2.8,1.627C981.142,586.011,982.91,585.413,984.226,586.656Z" transform="translate(5563.015 1324.208)" fill="#c58b81"/>
        <path id="Trazado_1092220" data-name="Trazado 1092220" d="M975.213,638.972c2.537.768,5.181.777,7.781,1.092,4.014,1.2,4.677,2.778,2.319,5.518-2.751,1.543-5.2-.543-7.809-.684-.462-.025-.908-.407-1.432-.373C974.089,642.937,976.114,640.728,975.213,638.972Z" transform="translate(5561.792 1271.955)" fill="#dd8c7f"/>
        <path id="Trazado_1092221" data-name="Trazado 1092221" d="M1546.4,689.454c-.2,2.07-.545,4.14-.559,6.211a4.253,4.253,0,0,1-1.693,3.712c-3.663,2.682-7.627,4.2-12.207,2.759-.79-.248-1.849-.473-1.849-2.242,5.735,1.96,10.985,1.7,15.432-3.951-4.176,1.366-7.615,3.207-11.55,2.78-1.31-.142-2.683,0-3.514-1.346a19.907,19.907,0,0,0,6.69.381c3.753-.53,6.578-2.133,7.545-6.1C1544.926,690.7,1545,689.553,1546.4,689.454Z" transform="translate(5181.529 1237.363)" fill="#393b41"/>
        <path id="Trazado_1092222" data-name="Trazado 1092222" d="M1609.48,627.1c2.062-1.184,3.915-2.8,6.043-3.352,4.046-1.04,7.462-3.207,11.049-5.107a6.209,6.209,0,0,1,1.112-.517c1.443-.425,2.882-1.256,4.377-.133.352.264.692.691.352,1a10.273,10.273,0,0,1-3.71,1.69c-5.632,2.033-11.177,4.305-16.76,6.473C1611.249,627.427,1610.566,628.181,1609.48,627.1Z" transform="translate(5127.126 1286.717)" fill="#e3e0d2"/>
        <path id="Trazado_1092223" data-name="Trazado 1092223" d="M1445.013,1714.823c-1.6-.665-1.014.717-1.245,1.333a127.266,127.266,0,0,1-5.746-17.231c-.174-.673-.486-1.372.2-1.964Q1441.614,1705.893,1445.013,1714.823Z" transform="translate(5244.771 546.967)" fill="#402b26"/>
        <path id="Trazado_1092224" data-name="Trazado 1092224" d="M978.046,656.171c2.5-.741,4.758.769,7.184.762a13.824,13.824,0,0,1,2.058.294q.038,1.264.076,2.528c-2.8.057-4.988-2.621-7.963-1.786Z" transform="translate(5559.817 1260.31)" fill="#944e4e"/>
        <path id="Trazado_1092226" data-name="Trazado 1092226" d="M1334.972,464.458c-.82,4.016-3.3,7.21-5.5,10.463-2.089,3.081-2.659,5.683-.466,9.065a33.576,33.576,0,0,1,4.84,10.492l-13.479,3.766c-1.794-3.283-2.072-6.99-2.781-10.546-1.337-6.705-1.809-13.535-2.53-20.257-.741,8.881-1.542,17.848-3.059,25.207.473-3.516,1.639-8.454,2.044-13.5.056-.7.22-1.67.988-1.72,1.078-.069,1.14,1.048,1.208,1.805a121.153,121.153,0,0,0,3.16,17.126,4.116,4.116,0,0,1-.865,3.718l-3.349,8.809c-1.418-2.069-1.459-4.348-2.2-6.366-.949-2.593-2.425-4.33-5.266-4.937-3.08-.658-6.069-1.747-9.153-2.382-1.809-.373-2.141-1.016-1.359-2.6,1.8-3.645,3.487-7.352,5.343-10.97a3.4,3.4,0,0,0-.107-3.816c-2.574-4.345-5.79-8.369-7.154-13.366a21.074,21.074,0,0,0,9.766-8.133c1.09-.579,1.687.3,2.4.818,5.986,4.362,9.051,4.38,14.878.108.871-.639,1.659-1.642,2.965-.921A16.922,16.922,0,0,0,1334.972,464.458Z" transform="translate(5342.426 1397.288)" fill="#fbfcfc"/>
        <path id="Trazado_1092227" data-name="Trazado 1092227" d="M1390.96,802.014c-7.532-.875-15.246-.482-22.494-3.321a49.84,49.84,0,0,1-7.672-4.162c-4.157-3.411-3.562-8.159-3.5-12.714.036-2.845.467-5.69.412-8.53-.048-2.486.856-4.1,3.148-4.975.6,3.087.374,6.631,4.377,7.807.64.346,1.475.352,1.89,1.088a57.114,57.114,0,0,1,8.583,6.287,11.442,11.442,0,0,0,2.722,1.245c2.415.822,3.042.237,2.87-2.532-.906-1.925-2.051-3.763-2.1-5.992a3.215,3.215,0,0,1,1.61-3.078c1.254-.715,1.757.542,2.516,1.111a23.076,23.076,0,0,1,8.33,11.7c-.636,2.627,2.414,2.626,3.082,4.324,1.435,3.727-.08,7.187-1.037,10.673C1393.321,802.3,1392.185,802.449,1390.96,802.014Z" transform="translate(5299.982 1183.324)" fill="#df8e80"/>
        <path id="Trazado_1092228" data-name="Trazado 1092228" d="M1352.846,516.147c.978-2.6-.31-5.019-.837-7.4a119.654,119.654,0,0,1-2.5-15.533c-1,7.348-1.8,13.877-4.144,20.114,1.445-10.984,2.6-21.971,3.347-33.8,2.19,3.389,1.837,6.593,2.141,9.521.768,7.387,1.539,14.756,3.483,21.943a11.585,11.585,0,0,1,.343,3.323Q1353.765,515.233,1352.846,516.147Z" transform="translate(5308.111 1381.213)" fill="#ceccc4"/>
        <path id="Trazado_1092230" data-name="Trazado 1092230" d="M1535.649,761.467a11.624,11.624,0,0,0-.762,4.787c-.209,5.248-2.032,7.632-7.185,8.6-2.706.509-5.4,1.053-8.049,1.761-1.422.38-1.521.054-1.786-1.34-.35-1.846.478-3.4.482-5.135.016-6.651.087-6.65,6.2-5.383C1527.657,765.4,1529.735,764.824,1535.649,761.467Z" transform="translate(5189.963 1188.016)" fill="#272a33"/>
        <path id="Trazado_1092231" data-name="Trazado 1092231" d="M1382.647,719.193a2.475,2.475,0,0,1-1.891-1.088c2.448-1.946,1.237-4.682,1.1-6.909-.383-6.3-1.063-12.584-1.071-18.907a21.281,21.281,0,0,0-.738-7.2c-.475-1.335.173-1.409,1.091-1.43a15.426,15.426,0,0,1,8.5,1.912c.7.416,1.495,1.042,2.211,1,6.02-.371,10.9,3.868,16.8,4.042,1.863.055,3.642.944,5.609.13,1.042-.431,2.156.346,3.151.832.444.217.837.956,1.175.907,4.848-.7,2.844,2.58,2.765,4.708a179.977,179.977,0,0,1-2.6,25.74c.409-7.913.659-15.838,1.3-23.733.3-3.686-.164-4.952-3.689-5.608q-16.5-3.07-32.654-7.577c-1.32-.368-1.725-.068-1.669,1.162.3,6.619.528,13.242.946,19.854C1383.235,711.1,1383.644,715.16,1382.647,719.193Z" transform="translate(5284.454 1241.339)" fill="#252931"/>
        <path id="Trazado_1092232" data-name="Trazado 1092232" d="M1421.516,812.462a2.289,2.289,0,0,1,.29,3.057c-.723,1.028-2.05.629-3.1.38a3.9,3.9,0,0,1-2.777-2.15c1.188.129,2.384.206,3.561.4C1420.865,814.377,1421.623,813.972,1421.516,812.462Z" transform="translate(5259.76 1153.071)" fill="#8d4545"/>
        <path id="Trazado_1092233" data-name="Trazado 1092233" d="M1287.549,302.076a23.853,23.853,0,0,1-9.494-13.184c-.441-1.428-.9-2.051-2.721-1.822-3.283.412-5.283-1.744-6.575-4.516-1.4-2.993-.964-6.5.809-8.392,1.348-1.435,2.843-.865,4.269-.368,1.907.665,3.2.431,4.175-1.588,2.252-4.672,6.37-4.407,10.577-3.7.848.142,2.077.824,2.434-.1.454-1.184-.9-1.617-1.8-2.049-2.176-1.034-4.391-.5-6.979.013,1.384-3.4,1.692-6.794,2.367-10.114.958-4.712,6.06-7.76,12.288-7.434a22.242,22.242,0,0,1,6.869,1.446c3.239,1.246,5.407,3.179,5.573,6.9a28.041,28.041,0,0,0,2.248,9.128c-2.892-.36-5.534-.877-8.106.06-.939.342-2.226.705-1.842,2,.35,1.185,1.594.482,2.4.455a36.131,36.131,0,0,0,3.625-.56c3.373-.459,6.275.123,7.959,3.539.682,1.382,1.49,2,3.363,1.367,2.972-1,5.166.679,5.741,3.792.984,5.317-2.5,9.849-8.053,10.3-.759.062-1.2.193-1.333.838-1.309,6.289-5.5,10.578-10.073,14.607-5.128,3.564-10.516,3.315-16.035,1.086A3.177,3.177,0,0,1,1287.549,302.076Z" transform="translate(5361.172 1539.326)" fill="#e08c80"/>
        <path id="Trazado_1092234" data-name="Trazado 1092234" d="M1329.957,418.083c4.968,2.548,10.052,3.425,15.393,1.155a13.305,13.305,0,0,1,2.324-.537q.271,4.595.541,9.189c-4.891,2.485-9.9,3.872-15.293,1.621-1.224-.511-2.5-.956-3.1-2.308Q1329.885,422.643,1329.957,418.083Z" transform="translate(5318.765 1423.32)" fill="#ad5350"/>
        <path id="Trazado_1092235" data-name="Trazado 1092235" d="M1327.41,447.059c5.2,2.647,10.452,4.166,15.87.6a2.008,2.008,0,0,1,2.527.092l.743,2.4c-1.3.238-2.007,1.326-2.944,2.069-5.42,4.3-9.731,3.678-15.655-.833-.546-.415-.834-1.167-1.644-1.24Q1326.861,448.6,1327.41,447.059Z" transform="translate(5321.169 1403.464)" fill="#de8d80"/>
        <path id="Trazado_1092237" data-name="Trazado 1092237" d="M1464.4,849.823c1.987.083,2.213-1.48,2.484-2.826a47.1,47.1,0,0,0,1.284-8.915c3.394,4.23,4.522,9.52,6.661,14.335.1.217-.315.661-.49,1Z" transform="translate(5226.543 1135.514)" fill="#b1625f"/>
        <path id="Trazado_1092238" data-name="Trazado 1092238" d="M1020.24,637.318c-1.752-3.242-.789-6.959-1.805-10.331-.2-.673-.333-1.369-.5-2.053,1.865.291,2.352,1.41,2.393,3.229.129,5.767.264,5.911,4.036,10.055-1.332-.027-1.863-.882-2.509-1.473C1020.92,635.884,1020.467,636.241,1020.24,637.318Z" transform="translate(5532.48 1281.575)" fill="#8c444b"/>
        <path id="Trazado_1092239" data-name="Trazado 1092239" d="M988.976,628.264c-2.036-.011-4.049-.313-6.062-.488-2.284-.2-2.825-1.121-2.529-3.07.35-2.3,1.8-.762,2.805-.785.509-.012,1.017-.04,1.525-.061C987.037,624.457,989.775,624.649,988.976,628.264Z" transform="translate(5558.265 1282.6)" fill="#dd8c7f"/>
        <path id="Trazado_1092240" data-name="Trazado 1092240" d="M983.535,608.292c-1.947.489-3.651-.388-5.372-.732-1.147-.229-1.649-1.4-1.545-2.663a2.412,2.412,0,0,1,1.784-2.206c1.032-.263,1.63.784,1.9,1.622C980.852,606.049,983.032,606.4,983.535,608.292Z" transform="translate(5560.805 1296.846)" fill="#dd8c7f"/>
        <path id="Trazado_1092241" data-name="Trazado 1092241" d="M1391.705,324.451l-4.606-2.056c-.706,1.137-.25,2.281-.437,3.338-.214,1.209-.568,2.151-2.035,2.205-1.448.054-2.549-.2-3.094-1.821-1.229-3.658,1.043-6.224,5.021-5.536C1388.586,320.933,1390.075,322.1,1391.705,324.451Z" transform="translate(5283.556 1490.209)" fill="#221918"/>
        <path id="Trazado_1092242" data-name="Trazado 1092242" d="M1309.64,322.333c-1.156-.319-1.412,1.132-2.545.61a7.9,7.9,0,0,1,3.964-2.662c1.982-.564,3.663-.056,4.562,1.978a4.353,4.353,0,0,1-1.146,5.034c-1.288,1.242-2.813.753-3.864-.8C1309.763,325.238,1309.967,323.754,1309.64,322.333Z" transform="translate(5334.335 1490.486)" fill="#341f29"/>
        <path id="Trazado_1092243" data-name="Trazado 1092243" d="M1342.34,381.6c3.453.758,6.579.515,9.763.564C1349.145,387,1345.207,386.847,1342.34,381.6Z" transform="translate(5310.185 1448.319)" fill="#f4e2d6"/>
        <path id="Trazado_1092244" data-name="Trazado 1092244" d="M1352.8,337.321c1.484,1.758.344,3.42.557,5.089.175,1.372-.927,3.021,1.248,3.873.826.324.2,1.014-.39,1.279-1.032.464-2.1.54-2.516-.74a6.137,6.137,0,0,1-.169-2.711C1351.871,341.835,1352.365,339.582,1352.8,337.321Z" transform="translate(5303.939 1478.662)" fill="#8e463b"/>
        <path id="Trazado_1092245" data-name="Trazado 1092245" d="M1429.368,344c.305,1.836-.732,2.873-2.4,3.227-1.438.305-1.329-.918-1.31-1.8.033-1.5-.105-3.23,1.924-3.58C1429.114,341.588,1429.494,342.626,1429.368,344Z" transform="translate(5253.098 1475.585)" fill="#b15656"/>
        <path id="Trazado_1092246" data-name="Trazado 1092246" d="M1279.222,340.083c1.589.123,3.566,2.956,3.221,4.615a1.187,1.187,0,0,1-.057.3.819.819,0,0,1-1.246.415,7.018,7.018,0,0,1-3.254-4.521C1277.73,340.136,1278.6,340.079,1279.222,340.083Z" transform="translate(5354.364 1476.769)" fill="#9e463e"/>
      </g>
    </g>
    <g id="politico" transform="translate(1200 2061.5)">
      <path id="Trazado_1092247" data-name="Trazado 1092247" d="M47.49,3.779H41.924a.8.8,0,1,0,0,1.6H47.49a.8.8,0,0,0,0-1.6ZM50.508,0H38.267a4,4,0,0,0-3.992,3.992V8.25a4,4,0,0,0,3.992,3.992h.44a.181.181,0,0,1,.181.181v1.321a1.224,1.224,0,0,0,2.126.827L43.1,12.3a.182.182,0,0,1,.133-.059h7.279A4,4,0,0,0,54.5,8.25V3.992A4,4,0,0,0,50.508,0Zm2.4,8.25a2.4,2.4,0,0,1-2.4,2.4H43.229a1.782,1.782,0,0,0-1.311.577l-1.434,1.564v-.364a1.78,1.78,0,0,0-1.778-1.777h-.44a2.4,2.4,0,0,1-2.4-2.4V3.992a2.4,2.4,0,0,1,2.4-2.4H50.508a2.4,2.4,0,0,1,2.4,2.4ZM42.183,39.291V28.9a3.436,3.436,0,0,0-1.015-2.447L39.98,25.268a2.4,2.4,0,0,0-.466-2.723l-2.352-2.352a2.4,2.4,0,1,0-3.387,3.387l2.352,2.352a2.391,2.391,0,0,0,2.724.466l1.189,1.188a1.85,1.85,0,0,1,.546,1.318v9.615a2.41,2.41,0,0,0-.341-.025h-1.9V33.835a8.892,8.892,0,0,0-7.129-8.679c-.155-.031-4.8-1.347-4.922-1.387a1.478,1.478,0,0,1-.952-.948,4.905,4.905,0,0,0,1.5-1.025l.714-.713a5.949,5.949,0,0,0,1.752-4.123h1.014A2.185,2.185,0,0,0,32.5,14.777V12.618a2.185,2.185,0,0,0-2.182-2.182H29.31V5.345A5.373,5.373,0,0,0,23.964,0H18.676A5.351,5.351,0,0,0,13.33,5.345v2.7a.8.8,0,1,0,1.6,0v-2.7A3.753,3.753,0,0,1,18.676,1.6h5.289a3.727,3.727,0,0,1,2.105.649,8.424,8.424,0,0,1-1.155,3.923,9.585,9.585,0,0,1-5.431,4.157c-3.029.937-4.724-.058-7.165.11a2.185,2.185,0,0,0-2.182,2.182v2.159a2.185,2.185,0,0,0,2.182,2.182h1.014a5.95,5.95,0,0,0,1.752,4.123l.713.713a4.9,4.9,0,0,0,1.5,1.024,1.477,1.477,0,0,1-1,.96L11.42,25.154a8.892,8.892,0,0,0-7.128,8.679v4.659h-1.9a2.385,2.385,0,0,0-.8.137V28.9a1.851,1.851,0,0,1,.546-1.318L3.332,26.4a2.391,2.391,0,0,0,2.724-.466l2.352-2.352a2.4,2.4,0,0,0-3.387-3.387L2.669,22.544A2.4,2.4,0,0,0,2.2,25.268L1.014,26.456A3.436,3.436,0,0,0,0,28.9V45.567a2.4,2.4,0,0,0,2.4,2.4h1.12V53.7a.8.8,0,1,0,1.6,0v-5.74h29.01a.8.8,0,0,0,0-1.6H2.395a.8.8,0,0,1-.8-.8V40.888a.8.8,0,0,1,.8-.8h37.85a.8.8,0,0,1,.8.8v4.679a.8.8,0,0,1-.8.8h-2.93a.8.8,0,0,0,0,1.6h.214V53.7a.8.8,0,1,0,1.6,0v-5.74h1.12a2.4,2.4,0,0,0,2.4-2.4V40.888a2.382,2.382,0,0,0-.475-1.43.8.8,0,0,0,.018-.167ZM38.385,24.8a.8.8,0,0,1-1.129,0L34.9,22.45a.8.8,0,0,1,1.129-1.129l2.352,2.352A.8.8,0,0,1,38.385,24.8ZM29.31,12.032h1.011a.586.586,0,0,1,.585.585v2.159a.586.586,0,0,1-.585.585H29.31ZM13.33,15.363H12.319a.586.586,0,0,1-.585-.585V12.618a.586.586,0,0,1,.585-.585H13.33ZM3.8,23.674,6.15,21.321A.8.8,0,0,1,7.279,22.45L4.927,24.8A.8.8,0,0,1,3.8,23.674ZM26.285,6.987a9.815,9.815,0,0,0,1.168-3.009,3.727,3.727,0,0,1,.26,1.368V10.4a3.8,3.8,0,0,1-2.681-1.748,9.7,9.7,0,0,0,1.254-1.662Zm-9.358,13.68-.713-.713a4.366,4.366,0,0,1-1.287-3.108V12.206a11.314,11.314,0,0,0,5.021-.353,11.344,11.344,0,0,0,3.9-2.1,5.41,5.41,0,0,0,3.862,2.249v4.839a4.366,4.366,0,0,1-1.287,3.108l-.714.713a3.368,3.368,0,0,1-2.342.97h-4.1a3.442,3.442,0,0,1-2.342-.97Zm7.6,3.816a8.182,8.182,0,0,1-6.413-.005,3.088,3.088,0,0,0,.727-1.264c.142.012.284.019.428.019h4.1c.143,0,.286-.007.427-.019A3.09,3.09,0,0,0,24.527,24.483Zm12.224,14.01h-4.4V36.909a.8.8,0,1,0-1.6,0v1.584H11.888V36.909a.8.8,0,1,0-1.6,0v1.584h-4.4V33.834A7.329,7.329,0,0,1,11.823,26.7L16.4,25.41a10.03,10.03,0,0,0,4.93,1.322q.191,0,.387-.008a9.879,9.879,0,0,0,4.521-1.311L30.816,26.7a7.33,7.33,0,0,1,5.935,7.134ZM47.49,6.972H41.924a.8.8,0,1,0,0,1.6H47.49a.8.8,0,0,0,0-1.6Z" fill="#fff"/>
    </g>
    <path id="riesgo" d="M42.312,54.581a3.99,3.99,0,0,0-3.047-.4L28.041,57.184a4.352,4.352,0,0,0-2.131-4.239L15.559,46.914a.916.916,0,0,0-.11-.054,6.325,6.325,0,0,0-5,0L7.036,48.264v-.3a1.6,1.6,0,0,0-1.6-1.6H2.59a1.6,1.6,0,0,0-1.6,1.6V63.373a1.6,1.6,0,0,0,1.6,1.6H5.437a1.6,1.6,0,0,0,1.6-1.6v-.5a5.433,5.433,0,0,1,4.907.2l6,3.18a6.928,6.928,0,0,0,3.266.859,6.411,6.411,0,0,0,1.664-.222l18.468-4.948a4.014,4.014,0,0,0,.967-7.357Zm-39.49,8.56V48.2H5.2V63.141Zm38.049-2.971L22.4,65.118a4.768,4.768,0,0,1-3.6-.486l-6-3.18a7.04,7.04,0,0,0-5.765-.521V50.245l4.11-1.7a4.489,4.489,0,0,1,3.546-.019l10.3,6a2.516,2.516,0,0,1-2.533,4.348l-5.53-3.222A.915.915,0,1,0,16,57.236l5.53,3.222A4.347,4.347,0,0,0,27.2,59.3l12.537-3.359a2.187,2.187,0,0,1,1.132,4.224ZM26.026,20.7a8.994,8.994,0,1,0,8.994,8.994A9,9,0,0,0,26.026,20.7Zm0,16.158a7.163,7.163,0,1,1,7.163-7.163,7.172,7.172,0,0,1-7.163,7.163Zm2.84-5.432a2.651,2.651,0,0,1-1.925,2.547v.319a.916.916,0,0,1-1.831,0v-.28a2.663,2.663,0,0,1-1.581-1.038A.915.915,0,1,1,25.013,31.9a.821.821,0,0,0,.662.342h.545a.816.816,0,1,0,0-1.631h-.387a2.647,2.647,0,0,1-.722-5.193V25.1a.916.916,0,1,1,1.831,0v.28a2.663,2.663,0,0,1,1.581,1.038.915.915,0,1,1-1.484,1.073.821.821,0,0,0-.662-.342h-.545a.816.816,0,1,0,0,1.631h.387A2.65,2.65,0,0,1,28.867,31.425ZM59.017,48.588,44.569,24.478a2.008,2.008,0,0,0-3.443,0,15.8,15.8,0,0,0-1.4-3l1.583-1.583a.915.915,0,0,0,0-1.295l-4.186-4.186a.916.916,0,0,0-1.295,0l-1.583,1.583a15.789,15.789,0,0,0-4.343-1.8V11.958a.916.916,0,0,0-.916-.916h-5.92a.916.916,0,0,0-.916.916v2.237a15.791,15.791,0,0,0-4.343,1.8l-1.583-1.583a.915.915,0,0,0-1.295,0L10.744,18.6a.916.916,0,0,0,0,1.295l1.583,1.583a15.79,15.79,0,0,0-1.8,4.343H8.29a.916.916,0,0,0-.916.916v5.919a.916.916,0,0,0,.916.916h2.237a15.794,15.794,0,0,0,1.8,4.343L10.744,39.5a.915.915,0,0,0,0,1.295l4.186,4.186a.916.916,0,0,0,1.295,0l1.583-1.583a15.788,15.788,0,0,0,4.343,1.8V47.43a.916.916,0,0,0,.916.916h3.757l-.145.242A2.357,2.357,0,0,0,28.7,52.159H56.994a2.357,2.357,0,0,0,2.024-3.571ZM23.982,46.515V44.46a.916.916,0,0,0-.737-.9,14,14,0,0,1-5.059-2.1.915.915,0,0,0-1.156.114l-1.454,1.454-2.891-2.891,1.454-1.454a.915.915,0,0,0,.114-1.156,14,14,0,0,1-2.1-5.059.915.915,0,0,0-.9-.736H9.205V27.65H11.26a.916.916,0,0,0,.9-.737,14,14,0,0,1,2.1-5.059A.915.915,0,0,0,14.14,20.7l-1.454-1.454,2.891-2.891,1.454,1.454a.915.915,0,0,0,1.156.114,14,14,0,0,1,5.059-2.1.916.916,0,0,0,.736-.9V12.873h4.089v2.055a.916.916,0,0,0,.737.9,14,14,0,0,1,5.059,2.1.915.915,0,0,0,1.156-.114l1.454-1.454,2.891,2.891L37.912,20.7a.915.915,0,0,0-.114,1.156,14,14,0,0,1,2.037,4.778L38.021,29.66a12,12,0,1,0-6.366,10.624l-3.734,6.231Zm2.044-6.657A10.164,10.164,0,1,1,36.19,29.694,10.175,10.175,0,0,1,26.026,39.858Zm31.429,10.2a.518.518,0,0,1-.461.267H28.7a.526.526,0,0,1-.453-.8L42.7,25.419a.177.177,0,0,1,.3,0l14.448,24.11A.518.518,0,0,1,57.455,50.062ZM42.848,44.874a2.458,2.458,0,1,0,2.458,2.458A2.461,2.461,0,0,0,42.848,44.874Zm0,3.085a.627.627,0,1,1,.627-.627A.628.628,0,0,1,42.848,47.96Zm0-18.634A2.709,2.709,0,0,0,40,32.059c0,.021,0,.042,0,.063l.734,10.659a2.117,2.117,0,0,0,4.228,0L45.7,32.122c0-.021,0-.042,0-.063A2.709,2.709,0,0,0,42.848,29.326Zm.285,13.357c0,.021,0,.042,0,.063,0,.211-.206.211-.283.211s-.283,0-.283-.211q0-.032,0-.063l-.733-10.65c.018-.832.851-.875,1.019-.875s1,.043,1.019.875Z" transform="translate(1024.827 2015.665)" fill="#fff"/>
    <g id="auditoria_1_" data-name="auditoria (1)" transform="translate(350.952 2035.516)">
      <g id="Grupo_1219591" data-name="Grupo 1219591" transform="translate(1 2.8)">
        <g id="Grupo_1219569" data-name="Grupo 1219569" transform="translate(0 3.907)">
          <path id="Trazado_1092248" data-name="Trazado 1092248" d="M38.487,59.277H4.814A3.772,3.772,0,0,1,1,55.463V10.814A3.772,3.772,0,0,1,4.814,7h7.349a.879.879,0,0,1,.93.93v3.814a.93.93,0,0,1-1.86,0V8.86H4.814A2.029,2.029,0,0,0,2.86,10.814V55.463a2.029,2.029,0,0,0,1.953,1.953H38.487a2.029,2.029,0,0,0,1.953-1.953V42.44a.93.93,0,0,1,1.86,0V55.463A3.772,3.772,0,0,1,38.487,59.277Z" transform="translate(-1 -7)"/>
        </g>
        <g id="Grupo_1219570" data-name="Grupo 1219570" transform="translate(29.208 3.907)">
          <path id="Trazado_1092249" data-name="Trazado 1092249" d="M43.562,21.232a.879.879,0,0,1-.93-.93V10.814A2.029,2.029,0,0,0,40.679,8.86H34.26v2.884a.93.93,0,1,1-1.86,0V7.93A.879.879,0,0,1,33.33,7h7.349a3.772,3.772,0,0,1,3.814,3.814V20.3A.879.879,0,0,1,43.562,21.232Z" transform="translate(-32.4 -7)"/>
        </g>
        <g id="Grupo_1219571" data-name="Grupo 1219571" transform="translate(3.907 7.814)">
          <path id="Trazado_1092250" data-name="Trazado 1092250" d="M36.92,55.663H7.06A1.866,1.866,0,0,1,5.2,53.8V13.06A1.866,1.866,0,0,1,7.06,11.2h5.4a.93.93,0,0,1,0,1.86H7.06V53.8H36.92V42.827a.93.93,0,0,1,1.86,0V53.8A1.866,1.866,0,0,1,36.92,55.663Z" transform="translate(-5.2 -11.2)"/>
        </g>
        <g id="Grupo_1219572" data-name="Grupo 1219572" transform="translate(29.208 7.721)">
          <path id="Trazado_1092251" data-name="Trazado 1092251" d="M39.749,21.425a.879.879,0,0,1-.93-.93V12.96H33.33a.93.93,0,0,1,0-1.86h5.488a1.866,1.866,0,0,1,1.86,1.86v7.535A.879.879,0,0,1,39.749,21.425Z" transform="translate(-32.4 -11.1)"/>
        </g>
        <g id="Grupo_1219573" data-name="Grupo 1219573" transform="translate(10.232)">
          <path id="Trazado_1092252" data-name="Trazado 1092252" d="M31.906,14.148H12.93a.879.879,0,0,1-.93-.93v-6.6A3.576,3.576,0,0,1,15.349,2.8H29.488a3.576,3.576,0,0,1,3.349,3.814v6.6A.879.879,0,0,1,31.906,14.148ZM13.86,12.288H30.976V6.614c0-1.023-.651-1.953-1.488-1.953H15.349c-.837,0-1.488.93-1.488,1.953Z" transform="translate(-12 -2.8)"/>
        </g>
        <g id="Grupo_1219586" data-name="Grupo 1219586" transform="translate(9.116 14.883)">
          <g id="Grupo_1219574" data-name="Grupo 1219574">
            <path id="Trazado_1092253" data-name="Trazado 1092253" d="M17.311,26.614H11.73a.879.879,0,0,1-.93-.93V19.73a.879.879,0,0,1,.93-.93h5.581a.879.879,0,0,1,.93.93v5.953A.879.879,0,0,1,17.311,26.614Zm-4.651-1.86h3.721V20.66H12.66Z" transform="translate(-10.8 -18.8)"/>
          </g>
          <g id="Grupo_1219575" data-name="Grupo 1219575" transform="translate(0 11.255)">
            <path id="Trazado_1092254" data-name="Trazado 1092254" d="M17.311,38.714H11.73a.879.879,0,0,1-.93-.93V31.83a.879.879,0,0,1,.93-.93h5.581a.879.879,0,0,1,.93.93v5.953A.879.879,0,0,1,17.311,38.714Zm-4.651-1.86h3.721V32.76H12.66Z" transform="translate(-10.8 -30.9)"/>
          </g>
          <g id="Grupo_1219576" data-name="Grupo 1219576" transform="translate(0 22.604)">
            <path id="Trazado_1092255" data-name="Trazado 1092255" d="M17.311,50.914H11.73a.879.879,0,0,1-.93-.93V44.03a.879.879,0,0,1,.93-.93h5.581a.879.879,0,0,1,.93.93v5.953A.879.879,0,0,1,17.311,50.914Zm-4.651-1.86h3.721V44.96H12.66Z" transform="translate(-10.8 -43.1)"/>
          </g>
          <g id="Grupo_1219579" data-name="Grupo 1219579" transform="translate(10.883 0.651)">
            <g id="Grupo_1219577" data-name="Grupo 1219577">
              <path id="Trazado_1092256" data-name="Trazado 1092256" d="M33.755,21.36H23.43a.93.93,0,1,1,0-1.86H33.755a.93.93,0,1,1,0,1.86Z" transform="translate(-22.5 -19.5)"/>
            </g>
            <g id="Grupo_1219578" data-name="Grupo 1219578" transform="translate(0 4.837)">
              <path id="Trazado_1092257" data-name="Trazado 1092257" d="M31.895,26.56H23.43a.93.93,0,1,1,0-1.86h8.465a.93.93,0,0,1,0,1.86Z" transform="translate(-22.5 -24.7)"/>
            </g>
          </g>
          <g id="Grupo_1219582" data-name="Grupo 1219582" transform="translate(10.883 11.813)">
            <g id="Grupo_1219580" data-name="Grupo 1219580">
              <path id="Trazado_1092258" data-name="Trazado 1092258" d="M29.569,33.36H23.43a.93.93,0,1,1,0-1.86h6.139a.93.93,0,1,1,0,1.86Z" transform="translate(-22.5 -31.5)"/>
            </g>
            <g id="Grupo_1219581" data-name="Grupo 1219581" transform="translate(0 4.837)">
              <path id="Trazado_1092259" data-name="Trazado 1092259" d="M30.314,38.56H23.43a.93.93,0,1,1,0-1.86h6.883a.93.93,0,1,1,0,1.86Z" transform="translate(-22.5 -36.7)"/>
            </g>
          </g>
          <g id="Grupo_1219585" data-name="Grupo 1219585" transform="translate(10.883 23.162)">
            <g id="Grupo_1219583" data-name="Grupo 1219583">
              <path id="Trazado_1092260" data-name="Trazado 1092260" d="M33.755,45.56H23.43a.93.93,0,1,1,0-1.86H33.755a.93.93,0,1,1,0,1.86Z" transform="translate(-22.5 -43.7)"/>
            </g>
            <g id="Grupo_1219584" data-name="Grupo 1219584" transform="translate(0 4.837)">
              <path id="Trazado_1092261" data-name="Trazado 1092261" d="M33.755,50.76H23.43a.93.93,0,1,1,0-1.86H33.755a.93.93,0,1,1,0,1.86Z" transform="translate(-22.5 -48.9)"/>
            </g>
          </g>
        </g>
        <g id="Grupo_1219590" data-name="Grupo 1219590" transform="translate(26.061 16.126)">
          <g id="Grupo_1219587" data-name="Grupo 1219587">
            <path id="Trazado_1092262" data-name="Trazado 1092262" d="M41.187,44.474a12.339,12.339,0,0,1-9.86-5.023,12.259,12.259,0,0,1,2.7-17.023,12.4,12.4,0,0,1,17.116,2.7,12.173,12.173,0,0,1-1.3,15.813.921.921,0,1,1-1.3-1.3,10.329,10.329,0,0,0,1.116-13.395A10.514,10.514,0,0,0,35.14,23.916a9.872,9.872,0,0,0-4.093,6.7,10.015,10.015,0,0,0,1.86,7.721A10.2,10.2,0,0,0,46.024,41.4a.958.958,0,1,1,.93,1.674,13.448,13.448,0,0,1-5.767,1.4Z" transform="translate(-29.017 -20.136)"/>
          </g>
          <g id="Grupo_1219588" data-name="Grupo 1219588" transform="translate(16.542 19.129)">
            <path id="Trazado_1092263" data-name="Trazado 1092263" d="M49.591,47.118a.846.846,0,0,1-.744-.372l-1.86-2.512a1,1,0,0,1-.186-.744,1.076,1.076,0,0,1,.465-.651c.093-.093.279-.186.372-.279a3.341,3.341,0,0,0,.93-.651c.186-.186.372-.279.558-.465a4.045,4.045,0,0,1,.651-.558,1,1,0,0,1,.744-.186.942.942,0,0,1,.651.372l1.86,2.512a.886.886,0,0,1,.186.651.942.942,0,0,1-.372.651l-2.7,1.953A.8.8,0,0,1,49.591,47.118Zm-.465-3.163.651.93,1.209-.837-.744-.93c-.186.186-.372.279-.465.372C49.591,43.677,49.312,43.77,49.125,43.956Z" transform="translate(-46.8 -40.7)"/>
          </g>
          <g id="Grupo_1219589" data-name="Grupo 1219589" transform="translate(17.1 20.92)">
            <path id="Trazado_1092264" data-name="Trazado 1092264" d="M59.679,61.485A4.233,4.233,0,0,1,56.423,59.9L47.586,47.811a.886.886,0,0,1-.186-.651.942.942,0,0,1,.372-.651l5.116-3.721a1,1,0,0,1,1.3.186l8.837,12.093a4.014,4.014,0,0,1-.837,5.581c-.093,0-.093.093-.186.093l-.093.093a3.9,3.9,0,0,1-2.232.651ZM49.632,47.439l8.279,11.348a2.2,2.2,0,0,0,2.977.465l.093-.093h.093a2.1,2.1,0,0,0,.372-2.977L53.26,44.834Z" transform="translate(-47.4 -42.626)"/>
          </g>
        </g>
      </g>
      <g id="Grupo_1219592" data-name="Grupo 1219592" transform="translate(31.138 22.892)">
        <path id="Trazado_1092265" data-name="Trazado 1092265" d="M34.33,33.516a.879.879,0,0,1-.93-.93A8.139,8.139,0,0,1,41.586,24.4a.93.93,0,0,1,0,1.86,6.393,6.393,0,0,0-6.325,6.325A.879.879,0,0,1,34.33,33.516Z" transform="translate(-33.4 -24.4)"/>
      </g>
    </g>
    <path id="objetivo_7_" data-name="objetivo (7)" d="M2.43,62.014H25.6a.908.908,0,0,0,0-1.817H23.367v-24.8a.112.112,0,0,1,.112-.112h8.6V60.2H29.841a.908.908,0,0,0,0,1.817H42.488a1.931,1.931,0,0,0,1.929-1.929V45.378a.908.908,0,0,0-1.817,0V60.085a.113.113,0,0,1-.113.113h-8.6V25.265A.113.113,0,0,1,34,25.152h8.484a.113.113,0,0,1,.113.113V41.139a.908.908,0,0,0,1.817,0V25.264a1.931,1.931,0,0,0-1.929-1.929h-1.66V14.568h2.506v2.816a1.765,1.765,0,0,0,1.758,1.758H56.014a1.376,1.376,0,0,0,1.112-2.184l-2.4-3.3,2.4-3.3a1.375,1.375,0,0,0-1.112-2.184H51.362V5.353a1.752,1.752,0,0,0-1.75-1.75H41.355a3.05,3.05,0,1,0-5.471,1.232v18.5H34a1.931,1.931,0,0,0-1.929,1.929v8.2h-8.6a1.931,1.931,0,0,0-1.929,1.929v8.2h-8.6a1.931,1.931,0,0,0-1.929,1.929v8.2H2.43A1.931,1.931,0,0,0,.5,55.654v4.431A1.931,1.931,0,0,0,2.43,62.014ZM49.988,14.526a1.752,1.752,0,0,0,1.374-1.708V9.994h3.785l-2.078,2.856a1.372,1.372,0,0,0,0,1.618l2.078,2.857H46.582ZM45.151,16.15V14.568h1.925ZM40.828,5.42h8.717v7.331H40.828ZM39.011,23.335H37.7V6.029a3.026,3.026,0,0,0,1.31,0ZM38.356,1.818a1.233,1.233,0,1,1-1.233,1.233,1.235,1.235,0,0,1,1.233-1.233ZM12.842,45.524a.112.112,0,0,1,.112-.113h8.6V60.2H12.842V45.524ZM2.317,55.654a.113.113,0,0,1,.113-.113h8.6V60.2H2.43a.113.113,0,0,1-.113-.113Zm0,0" transform="translate(518.554 2032.486)"/>
    <g id="plan-de-accion_1_" data-name="plan-de-accion (1)" transform="translate(851.889 2030.656)">
      <path id="Trazado_1092266" data-name="Trazado 1092266" d="M6.2,34.675A24.4,24.4,0,0,0,9.75,43.407a5.6,5.6,0,0,0,8.115,7.666,24.026,24.026,0,0,0,7.563,2.833,4.651,4.651,0,0,0,9.256,0,23.884,23.884,0,0,0,7.563-2.833,5.6,5.6,0,0,0,8.115-7.666,24.4,24.4,0,0,0,3.553-8.732,4.65,4.65,0,0,0,0-9.256,23.9,23.9,0,0,0-4.263-9.732L56.9,8.441a.935.935,0,0,0-.654-1.6H53.261V3.86a.923.923,0,0,0-.58-.86.937.937,0,0,0-1.019.206l-7.246,7.246a24.149,24.149,0,0,0-9.732-4.263,4.65,4.65,0,0,0-9.256-.009,23.884,23.884,0,0,0-7.563,2.833A5.6,5.6,0,0,0,9.75,16.678,24.4,24.4,0,0,0,6.2,25.41a4.65,4.65,0,0,0,0,9.256ZM16.8,49.521a3.835,3.835,0,0,1-5.292,0,3.7,3.7,0,0,1-1.094-2.646,3.743,3.743,0,0,1,1.094-2.646,3.7,3.7,0,0,1,2.646-1.094A3.743,3.743,0,0,1,16.8,44.229a3.7,3.7,0,0,1,1.094,2.646A3.743,3.743,0,0,1,16.8,49.521Zm13.248,6.7a2.8,2.8,0,1,1,2.8-2.8A2.813,2.813,0,0,1,30.047,56.224Zm18.539-6.7a3.835,3.835,0,0,1-5.292,0A3.7,3.7,0,0,1,42.2,46.875,3.743,3.743,0,0,1,43.3,44.229a3.7,3.7,0,0,1,2.646-1.094,3.743,3.743,0,0,1,2.646,1.094,3.7,3.7,0,0,1,1.094,2.646A3.743,3.743,0,0,1,48.587,49.521Zm7.638-19.474a2.8,2.8,0,1,1-2.8-2.8A2.813,2.813,0,0,1,56.225,30.047ZM45.417,12.087l5.955-5.955V7.786a.938.938,0,0,0,.935.935h1.655l-5.955,5.955h-2.59ZM30.047,3.869a2.8,2.8,0,1,1-2.8,2.8,2.813,2.813,0,0,1,2.8-2.8Zm-18.539,6.7a3.7,3.7,0,0,1,2.646-1.094A3.743,3.743,0,0,1,16.8,10.573a3.7,3.7,0,0,1,1.094,2.646A3.743,3.743,0,0,1,16.8,15.864a3.835,3.835,0,0,1-5.292,0,3.7,3.7,0,0,1-1.094-2.646,3.743,3.743,0,0,1,1.094-2.646Zm-.355,7.376a5.6,5.6,0,0,0,6.965-.776,5.6,5.6,0,0,0,.935-6.694,21.9,21.9,0,0,1,6.554-2.431,4.67,4.67,0,0,0,3.506,3.2v2.9h1.87v-2.9a4.674,4.674,0,0,0,3.506-3.188,22.08,22.08,0,0,1,9.059,4.086v3.076l-4.273,4.273a14.03,14.03,0,0,0-6.227-3.151l-.4,1.823a12.193,12.193,0,0,1,5.3,2.646l-2.655,2.655a8.519,8.519,0,1,0,1.318,1.328l2.665-2.665a12.092,12.092,0,0,1,2.646,5.3l1.823-.4A13.983,13.983,0,0,0,40.593,20.8l4.273-4.273h3.076a22.08,22.08,0,0,1,4.086,9.059,4.658,4.658,0,0,0-3.188,3.506h-2.9v1.87h2.9a4.67,4.67,0,0,0,3.2,3.506,22.342,22.342,0,0,1-3.095,7.648,5.6,5.6,0,0,0-6.965.776,5.6,5.6,0,0,0-.935,6.694,21.9,21.9,0,0,1-6.554,2.431,4.67,4.67,0,0,0-3.506-3.2v-2.9h-1.87v2.9a4.67,4.67,0,0,0-3.506,3.2,21.9,21.9,0,0,1-6.554-2.431,5.6,5.6,0,0,0,.711-2.73,5.618,5.618,0,0,0-5.609-5.609,5.618,5.618,0,0,0-3,.869,22.606,22.606,0,0,1-3.095-7.648,4.686,4.686,0,0,0,3.2-3.506h2.9v-1.87h-2.9a4.67,4.67,0,0,0-3.2-3.506,22.342,22.342,0,0,1,3.095-7.648ZM30.711,30.7l1.86-1.86a2.725,2.725,0,0,1,.28,1.206,2.826,2.826,0,1,1-1.6-2.524l-1.86,1.86Zm1.917-4.553a4.686,4.686,0,1,0,1.328,1.328l1.337-1.337A6.465,6.465,0,0,1,36.6,30.047a6.573,6.573,0,1,1-2.636-5.236ZM6.684,27.242a2.8,2.8,0,1,1-2.8,2.8,2.813,2.813,0,0,1,2.8-2.8Z" fill="#fff"/>
      <path id="Trazado_1092267" data-name="Trazado 1092267" d="M32.78,18.907l.168-1.86a10.6,10.6,0,0,0-2.038,0l.168,1.86A10.341,10.341,0,0,1,32.78,18.907Z" transform="translate(-1.882 -0.977)" fill="#fff"/>
      <path id="Trazado_1092268" data-name="Trazado 1092268" d="M28.437,19.173l-.4-1.823a14.065,14.065,0,0,0-10.7,10.7l1.823.4a12.193,12.193,0,0,1,9.274-9.274Z" transform="translate(-0.998 -1)" fill="#fff"/>
      <path id="Trazado_1092269" data-name="Trazado 1092269" d="M19.173,34.79l-1.823.4a14.038,14.038,0,0,0,10.7,10.7l.4-1.823a12.193,12.193,0,0,1-9.274-9.274Z" transform="translate(-0.999 -2.135)" fill="#fff"/>
      <path id="Trazado_1092270" data-name="Trazado 1092270" d="M18.9,32.81c-.019-.29-.028-.58-.028-.879s0-.589.028-.879l-1.87-.112c-.019.327-.028.654-.028.991s.009.664.028.991Z" transform="translate(-0.976 -1.884)" fill="#fff"/>
      <path id="Trazado_1092271" data-name="Trazado 1092271" d="M46.84,32.922c.019-.327.028-.654.028-.991s-.009-.664-.028-.991l-1.87.112c.019.29.028.58.028.879s0,.589-.028.879Z" transform="translate(-2.797 -1.884)" fill="#fff"/>
      <path id="Trazado_1092272" data-name="Trazado 1092272" d="M45.887,35.182l-1.823-.4a12.193,12.193,0,0,1-9.274,9.274l.4,1.823A14.065,14.065,0,0,0,45.887,35.182Z" transform="translate(-2.134 -2.134)" fill="#fff"/>
      <path id="Trazado_1092273" data-name="Trazado 1092273" d="M32.948,46.83l-.168-1.86a10.34,10.34,0,0,1-1.7,0l-.168,1.86c.337.028.673.037,1.019.037S32.612,46.859,32.948,46.83Z" transform="translate(-1.882 -2.797)" fill="#fff"/>
      <circle id="Elipse_12059" data-name="Elipse 12059" cx="0.935" cy="0.935" r="0.935" transform="translate(13.219 12.283)" fill="#fff"/>
      <circle id="Elipse_12060" data-name="Elipse 12060" cx="0.935" cy="0.935" r="0.935" transform="translate(45.006 45.94)" fill="#fff"/>
      <circle id="Elipse_12061" data-name="Elipse 12061" cx="0.935" cy="0.935" r="0.935" transform="translate(13.219 45.94)" fill="#fff"/>
    </g>
  </g>
</svg>
