<svg xmlns="http://www.w3.org/2000/svg" xmlns:xlink="http://www.w3.org/1999/xlink" width="93.934" height="93.934" viewBox="0 0 93.934 93.934">
  <defs>
    <filter id="Trazado_982547" x="0" y="0" width="93.934" height="93.934" filterUnits="userSpaceOnUse">
      <feOffset dy="3" input="SourceAlpha"/>
      <feGaussianBlur stdDeviation="3" result="blur"/>
      <feFlood flood-opacity="0.161"/>
      <feComposite operator="in" in2="blur"/>
      <feComposite in="SourceGraphic"/>
    </filter>
  </defs>
  <g id="Grupo_1219311" data-name="Grupo 1219311" transform="translate(-191 -1818)">
    <g id="Grupo_1218826" data-name="Grupo 1218826" transform="translate(-0.295 -1904)">
      <g id="Grupo_1214594" data-name="Grupo 1214594" transform="translate(0 -1406)">
        <g id="Grupo_1214432" data-name="Grupo 1214432" transform="translate(-0.771 -2738.674)">
          <g id="Grupo_1183196" data-name="Grupo 1183196" transform="translate(1 1016.674)">
            <g id="Grupo_1179610" data-name="Grupo 1179610" transform="translate(8 4723.467)">
              <g id="Grupo_1175227" data-name="Grupo 1175227" transform="translate(-5.967 140.533)">
                <g id="Grupo_1167337" data-name="Grupo 1167337" transform="translate(198.033 1992)">
                  <g id="Grupo_1166720" data-name="Grupo 1166720">
                    <g id="Grupo_1164305" data-name="Grupo 1164305">
                      <g id="Grupo_1163948" data-name="Grupo 1163948">
                        <g id="Grupo_1158168" data-name="Grupo 1158168">
                          <g id="Grupo_1152576" data-name="Grupo 1152576">
                            <g id="Grupo_1148633" data-name="Grupo 1148633">
                              <g id="Grupo_1148525" data-name="Grupo 1148525">
                                <g transform="matrix(1, 0, 0, 1, -9, -6)" filter="url(#Trazado_982547)">
                                  <g id="Trazado_982547-2" data-name="Trazado 982547" transform="translate(9 6)" fill="#f7f4ed">
                                    <path d="M 37.966796875 74.43359375 C 33.04315185546875 74.43359375 28.26757431030273 73.46962738037109 23.77274131774902 71.56847381591797 C 19.43047523498535 69.73184967041016 15.53040790557861 67.10224914550781 12.18087482452393 63.75271987915039 C 8.831341743469238 60.4031867980957 6.201741218566895 56.50312042236328 4.365118980407715 52.16086196899414 C 2.463963508605957 47.66601943969727 1.499996900558472 42.89044189453125 1.499996900558472 37.966796875 C 1.499996900558472 33.04315185546875 2.463963508605957 28.26757431030273 4.365118980407715 23.77274131774902 C 6.201741218566895 19.43047523498535 8.831341743469238 15.53040790557861 12.18087482452393 12.18087482452393 C 15.53040790557861 8.831341743469238 19.43047523498535 6.201741218566895 23.77274131774902 4.365118980407715 C 28.26757431030273 2.463963508605957 33.04315185546875 1.499996900558472 37.966796875 1.499996900558472 C 42.89044189453125 1.499996900558472 47.66601943969727 2.463963508605957 52.16086196899414 4.365118980407715 C 56.50312042236328 6.201741218566895 60.4031867980957 8.831341743469238 63.75271987915039 12.18087482452393 C 67.10224914550781 15.53040790557861 69.73184967041016 19.43047523498535 71.56847381591797 23.77274131774902 C 73.46962738037109 28.26757431030273 74.43359375 33.04315185546875 74.43359375 37.966796875 C 74.43359375 42.89044189453125 73.46962738037109 47.66601943969727 71.56847381591797 52.16086196899414 C 69.73184967041016 56.50313186645508 67.10224914550781 60.4031867980957 63.75271987915039 63.75271987915039 C 60.4031867980957 67.10224914550781 56.50313186645508 69.73184967041016 52.16086196899414 71.56847381591797 C 47.66601943969727 73.46962738037109 42.89044189453125 74.43359375 37.966796875 74.43359375 Z" stroke="none"/>
                                    <path d="M 37.966796875 3 C 33.2449836730957 3 28.66600799560547 3.924095153808594 24.35705947875977 5.746635437011719 C 20.19359588623047 7.507637023925781 16.45379638671875 10.02928161621094 13.24153518676758 13.24153518676758 C 10.02927398681641 16.45379638671875 7.507621765136719 20.19359588623047 5.746635437011719 24.35705947875977 C 3.924095153808594 28.66600799560547 3 33.2449836730957 3 37.966796875 C 3 42.6886100769043 3.924095153808594 47.26758575439453 5.746635437011719 51.57653427124023 C 7.507621765136719 55.73999786376953 10.02927398681641 59.47979736328125 13.24153518676758 62.69205856323242 C 16.45379638671875 65.90431976318359 20.19359588623047 68.42597198486328 24.35705947875977 70.18695831298828 C 28.66600799560547 72.00949859619141 33.2449836730957 72.93359375 37.966796875 72.93359375 C 42.6886100769043 72.93359375 47.26758575439453 72.00949859619141 51.57653427124023 70.18695831298828 C 55.73999786376953 68.42597198486328 59.47979736328125 65.90431976318359 62.69205856323242 62.69205856323242 C 65.90431976318359 59.47979736328125 68.42597198486328 55.73999786376953 70.18695831298828 51.57653427124023 C 72.00949859619141 47.26758575439453 72.93359375 42.6886100769043 72.93359375 37.966796875 C 72.93359375 33.2449836730957 72.00949859619141 28.66600799560547 70.18695831298828 24.35705947875977 C 68.42597198486328 20.19359588623047 65.90431976318359 16.45379638671875 62.69205856323242 13.24153518676758 C 59.47979736328125 10.02928161621094 55.73999786376953 7.507637023925781 51.57653427124023 5.746635437011719 C 47.26758575439453 3.924095153808594 42.6886100769043 3 37.966796875 3 M 37.966796875 0 C 58.93528366088867 0 75.93359375 16.99832153320312 75.93359375 37.966796875 C 75.93359375 58.93528366088867 58.93528366088867 75.93359375 37.966796875 75.93359375 C 16.99831008911133 75.93359375 0 58.93528366088867 0 37.966796875 C 0 16.99832153320312 16.99831008911133 0 37.966796875 0 Z" stroke="none" fill="#847625"/>
                                  </g>
                                </g>
                              </g>
                            </g>
                          </g>
                        </g>
                      </g>
                    </g>
                  </g>
                </g>
              </g>
            </g>
          </g>
        </g>
      </g>
    </g>
    <g id="checklist-arrow-direction-button-pointer" transform="translate(208 1832)">
      <circle id="Elipse_11996" data-name="Elipse 11996" cx="27.5" cy="27.5" r="27.5" transform="translate(3 3)" fill="#006df0"/>
      <path id="Trazado_1089664" data-name="Trazado 1089664" d="M30.4,3A27.4,27.4,0,0,0,11.026,49.778L49.778,11.026A27.316,27.316,0,0,0,30.4,3Z" transform="translate(-0.055 -0.055)" fill="#2488ff"/>
      <path id="Trazado_1089665" data-name="Trazado 1089665" d="M48.356,20.379a3.78,3.78,0,0,0-5.343,0l-14.7,14.7-5.345-5.345a3.78,3.78,0,0,0-5.345,5.345L25.64,43.1a3.78,3.78,0,0,0,5.342,0L48.36,25.724a3.78,3.78,0,0,0,0-5.342Z" transform="translate(-0.8 -0.952)" fill="#ffcd00"/>
      <g id="Grupo_1219310" data-name="Grupo 1219310" transform="translate(2 2)">
        <path id="Trazado_1089666" data-name="Trazado 1089666" d="M30.347,58.694A28.347,28.347,0,1,1,58.694,30.347,28.347,28.347,0,0,1,30.347,58.694Zm0-54.8A26.457,26.457,0,1,0,56.8,30.347,26.457,26.457,0,0,0,30.347,3.89Z" transform="translate(-2 -2)" fill="#231f20"/>
        <path id="Trazado_1089667" data-name="Trazado 1089667" d="M29.943,7.964a.946.946,0,1,1-.074-1.89C30.519,6.026,31.181,6,31.833,6a.945.945,0,0,1,0,1.89c-.6,0-1.214.024-1.815.072Z" transform="translate(-3.485 -2.22)" fill="#231f20"/>
        <path id="Trazado_1089668" data-name="Trazado 1089668" d="M6.945,31.552A.945.945,0,0,1,6,30.608,24.522,24.522,0,0,1,24.671,6.755a.946.946,0,0,1,.454,1.836A22.638,22.638,0,0,0,7.89,30.608a.945.945,0,0,1-.945.945Z" transform="translate(-2.22 -2.26)" fill="#231f20"/>
        <path id="Trazado_1089669" data-name="Trazado 1089669" d="M28.257,45.091a4.711,4.711,0,0,1-3.342-1.382L16.9,35.691a4.724,4.724,0,1,1,6.681-6.681l4.678,4.677L42.291,19.654a4.723,4.723,0,0,1,6.682,6.676L31.594,43.716a4.7,4.7,0,0,1-3.337,1.375ZM20.239,29.517a2.835,2.835,0,0,0-2,4.838l8.017,8.017a2.835,2.835,0,0,0,4.006,0L47.637,25a2.834,2.834,0,0,0-2-4.837,2.882,2.882,0,0,0-2,.83l-14.705,14.7a.945.945,0,0,1-1.336,0l-5.345-5.345a2.825,2.825,0,0,0-2-.829Z" transform="translate(-2.745 -2.897)" fill="#231f20"/>
      </g>
    </g>
  </g>
</svg>
