<svg xmlns="http://www.w3.org/2000/svg" xmlns:xlink="http://www.w3.org/1999/xlink" width="93.934" height="93.934" viewBox="0 0 93.934 93.934">
  <defs>
    <filter id="Trazado_982547" x="0" y="0" width="93.934" height="93.934" filterUnits="userSpaceOnUse">
      <feOffset dy="3" input="SourceAlpha"/>
      <feGaussianBlur stdDeviation="3" result="blur"/>
      <feFlood flood-opacity="0.161"/>
      <feComposite operator="in" in2="blur"/>
      <feComposite in="SourceGraphic"/>
    </filter>
  </defs>
  <g id="Grupo_1219313" data-name="Grupo 1219313" transform="translate(-611 -1818)">
    <g id="Grupo_1218827" data-name="Grupo 1218827" transform="translate(-0.066 -5419.035)">
      <g id="Grupo_1216284" data-name="Grupo 1216284" transform="translate(0 6194.186)">
        <g id="Grupo_1215982" data-name="Grupo 1215982" transform="translate(-0.229 -2679.151)">
          <g id="Grupo_1214640" data-name="Grupo 1214640" transform="translate(0 -1406)">
            <g id="Grupo_1214433" data-name="Grupo 1214433" transform="translate(-0.771 -2738.674)">
              <g id="Grupo_1183190" data-name="Grupo 1183190" transform="translate(1 1016.674)">
                <g id="Grupo_1179611" data-name="Grupo 1179611" transform="translate(428 4723.467)">
                  <g id="Grupo_1175227" data-name="Grupo 1175227" transform="translate(-5.967 140.533)">
                    <g id="Grupo_1167337" data-name="Grupo 1167337" transform="translate(198.033 1992)">
                      <g id="Grupo_1166720" data-name="Grupo 1166720">
                        <g id="Grupo_1164305" data-name="Grupo 1164305">
                          <g id="Grupo_1163948" data-name="Grupo 1163948">
                            <g id="Grupo_1158168" data-name="Grupo 1158168">
                              <g id="Grupo_1152576" data-name="Grupo 1152576">
                                <g id="Grupo_1148633" data-name="Grupo 1148633">
                                  <g id="Grupo_1148525" data-name="Grupo 1148525">
                                    <g transform="matrix(1, 0, 0, 1, -9, -6)" filter="url(#Trazado_982547)">
                                      <g id="Trazado_982547-2" data-name="Trazado 982547" transform="translate(9 6)" fill="#f7f4ed">
                                        <path d="M 37.966796875 74.43359375 C 33.04315185546875 74.43359375 28.26757431030273 73.46962738037109 23.77274131774902 71.56847381591797 C 19.43047523498535 69.73184967041016 15.53040790557861 67.10224914550781 12.18087482452393 63.75271987915039 C 8.831341743469238 60.4031867980957 6.201741218566895 56.50312042236328 4.365118980407715 52.16086196899414 C 2.463963508605957 47.66601943969727 1.499996900558472 42.89044189453125 1.499996900558472 37.966796875 C 1.499996900558472 33.04315185546875 2.463963508605957 28.26757431030273 4.365118980407715 23.77274131774902 C 6.201741218566895 19.43047523498535 8.831341743469238 15.53040790557861 12.18087482452393 12.18087482452393 C 15.53040790557861 8.831341743469238 19.43047523498535 6.201741218566895 23.77274131774902 4.365118980407715 C 28.26757431030273 2.463963508605957 33.04315185546875 1.499996900558472 37.966796875 1.499996900558472 C 42.89044189453125 1.499996900558472 47.66601943969727 2.463963508605957 52.16086196899414 4.365118980407715 C 56.50312042236328 6.201741218566895 60.4031867980957 8.831341743469238 63.75271987915039 12.18087482452393 C 67.10224914550781 15.53040790557861 69.73184967041016 19.43047523498535 71.56847381591797 23.77274131774902 C 73.46962738037109 28.26757431030273 74.43359375 33.04315185546875 74.43359375 37.966796875 C 74.43359375 42.89044189453125 73.46962738037109 47.66601943969727 71.56847381591797 52.16086196899414 C 69.73184967041016 56.50313186645508 67.10224914550781 60.4031867980957 63.75271987915039 63.75271987915039 C 60.4031867980957 67.10224914550781 56.50313186645508 69.73184967041016 52.16086196899414 71.56847381591797 C 47.66601943969727 73.46962738037109 42.89044189453125 74.43359375 37.966796875 74.43359375 Z" stroke="none"/>
                                        <path d="M 37.966796875 3 C 33.2449836730957 3 28.66600799560547 3.924095153808594 24.35705947875977 5.746635437011719 C 20.19359588623047 7.507637023925781 16.45379638671875 10.02928161621094 13.24153518676758 13.24153518676758 C 10.02927398681641 16.45379638671875 7.507621765136719 20.19359588623047 5.746635437011719 24.35705947875977 C 3.924095153808594 28.66600799560547 3 33.2449836730957 3 37.966796875 C 3 42.6886100769043 3.924095153808594 47.26758575439453 5.746635437011719 51.57653427124023 C 7.507621765136719 55.73999786376953 10.02927398681641 59.47979736328125 13.24153518676758 62.69205856323242 C 16.45379638671875 65.90431976318359 20.19359588623047 68.42597198486328 24.35705947875977 70.18695831298828 C 28.66600799560547 72.00949859619141 33.2449836730957 72.93359375 37.966796875 72.93359375 C 42.6886100769043 72.93359375 47.26758575439453 72.00949859619141 51.57653427124023 70.18695831298828 C 55.73999786376953 68.42597198486328 59.47979736328125 65.90431976318359 62.69205856323242 62.69205856323242 C 65.90431976318359 59.47979736328125 68.42597198486328 55.73999786376953 70.18695831298828 51.57653427124023 C 72.00949859619141 47.26758575439453 72.93359375 42.6886100769043 72.93359375 37.966796875 C 72.93359375 33.2449836730957 72.00949859619141 28.66600799560547 70.18695831298828 24.35705947875977 C 68.42597198486328 20.19359588623047 65.90431976318359 16.45379638671875 62.69205856323242 13.24153518676758 C 59.47979736328125 10.02928161621094 55.73999786376953 7.507637023925781 51.57653427124023 5.746635437011719 C 47.26758575439453 3.924095153808594 42.6886100769043 3 37.966796875 3 M 37.966796875 0 C 58.93528366088867 0 75.93359375 16.99832153320312 75.93359375 37.966796875 C 75.93359375 58.93528366088867 58.93528366088867 75.93359375 37.966796875 75.93359375 C 16.99831008911133 75.93359375 0 58.93528366088867 0 37.966796875 C 0 16.99832153320312 16.99831008911133 0 37.966796875 0 Z" stroke="none" fill="#847625"/>
                                      </g>
                                    </g>
                                  </g>
                                </g>
                              </g>
                            </g>
                          </g>
                        </g>
                      </g>
                    </g>
                  </g>
                </g>
              </g>
            </g>
          </g>
        </g>
      </g>
    </g>
    <g id="comentarios" transform="translate(635 1835.137)">
      <path id="Trazado_1089670" data-name="Trazado 1089670" d="M128.023,11.549H102.654a6.034,6.034,0,0,0-6.016,6.016v2.047h22.948a6.034,6.034,0,0,1,6.016,6.016v15h2.421a6.034,6.034,0,0,0,6.016-6.016V17.565a6.034,6.034,0,0,0-6.016-6.016Z" transform="translate(-87.779 -6.981)" fill="#6c7ed6"/>
      <path id="Trazado_1089671" data-name="Trazado 1089671" d="M123.757,96.5H98.389a5.965,5.965,0,0,0-1.751.262v.013h22.948A6.034,6.034,0,0,1,125.6,102.8v15h2.421a5.965,5.965,0,0,0,1.751-.262V102.52A6.034,6.034,0,0,0,123.757,96.5Z" transform="translate(-87.779 -84.148)" fill="#4f67d2"/>
      <path id="Trazado_1089672" data-name="Trazado 1089672" d="M38.994,96.5H13.625a6.034,6.034,0,0,0-6.016,6.016v17.046a6.034,6.034,0,0,0,6.016,6.016H28.851a1.015,1.015,0,0,1,.991,1.243,25.49,25.49,0,0,1-1.935,5.4.925.925,0,0,0,1.315,1.2,33.938,33.938,0,0,0,8.3-7.147,1.9,1.9,0,0,1,1.474-.693,6.034,6.034,0,0,0,6.016-6.016V102.52A6.034,6.034,0,0,0,38.994,96.5Z" transform="translate(-6.911 -84.148)" fill="#60b8fe"/>
      <path id="Trazado_1089673" data-name="Trazado 1089673" d="M233.857,414.936a1.015,1.015,0,0,0-.991-1.243h-3.9a1.015,1.015,0,0,1,.991,1.243,25.492,25.492,0,0,1-1.935,5.4.925.925,0,0,0,1.315,1.2c.879-.544,1.9-1.229,2.982-2.056A25.387,25.387,0,0,0,233.857,414.936Z" transform="translate(-207.031 -372.258)" fill="#23a8fe"/>
      <path id="Trazado_1089674" data-name="Trazado 1089674" d="M11.505,119.567V102.521A6.034,6.034,0,0,1,17.522,96.5h-3.9a6.034,6.034,0,0,0-6.016,6.016v17.046a6.034,6.034,0,0,0,6.016,6.016h3.9A6.034,6.034,0,0,1,11.505,119.567Z" transform="translate(-6.911 -84.149)" fill="#23a8fe"/>
      <g id="Grupo_1219312" data-name="Grupo 1219312" transform="translate(7.041 25.389)">
        <circle id="Elipse_11997" data-name="Elipse 11997" cx="1.996" cy="1.996" r="1.996" fill="#dfebfa"/>
        <circle id="Elipse_11998" data-name="Elipse 11998" cx="1.996" cy="1.996" r="1.996" transform="translate(6.448)" fill="#dfebfa"/>
        <circle id="Elipse_11999" data-name="Elipse 11999" cx="1.996" cy="1.996" r="1.996" transform="translate(12.896)" fill="#dfebfa"/>
        <circle id="Elipse_12000" data-name="Elipse 12000" cx="1.996" cy="1.996" r="1.996" transform="translate(19.345)" fill="#dfebfa"/>
      </g>
      <path id="Trazado_1089675" data-name="Trazado 1089675" d="M78.8,240.658a2,2,0,0,1,1-1.729,2,2,0,1,0,0,3.457A2,2,0,0,1,78.8,240.658Z" transform="translate(-69.759 -213.273)" fill="#b1dbfc"/>
      <path id="Trazado_1089676" data-name="Trazado 1089676" d="M149.133,240.658a2,2,0,0,1,1-1.729,2,2,0,1,0,0,3.457A2,2,0,0,1,149.133,240.658Z" transform="translate(-133.648 -213.273)" fill="#b1dbfc"/>
      <path id="Trazado_1089677" data-name="Trazado 1089677" d="M219.47,240.658a2,2,0,0,1,1-1.729,2,2,0,1,0,0,3.457A2,2,0,0,1,219.47,240.658Z" transform="translate(-197.537 -213.273)" fill="#b1dbfc"/>
      <path id="Trazado_1089678" data-name="Trazado 1089678" d="M289.807,240.658a2,2,0,0,1,1-1.729,2,2,0,1,0,0,3.457A2,2,0,0,1,289.807,240.658Z" transform="translate(-261.426 -213.273)" fill="#b1dbfc"/>
      <path id="Trazado_1089679" data-name="Trazado 1089679" d="M69.191,233.661a2.684,2.684,0,1,0,2.684-2.684A2.687,2.687,0,0,0,69.191,233.661Zm3.993,0a1.309,1.309,0,1,1-1.309-1.309A1.31,1.31,0,0,1,73.184,233.661Z" transform="translate(-62.848 -206.293)"/>
      <path id="Trazado_1089680" data-name="Trazado 1089680" d="M144.9,233.661a2.684,2.684,0,1,0-2.684,2.684A2.687,2.687,0,0,0,144.9,233.661Zm-3.993,0a1.309,1.309,0,1,1,1.309,1.309A1.31,1.31,0,0,1,140.9,233.661Z" transform="translate(-126.737 -206.293)"/>
      <path id="Trazado_1089681" data-name="Trazado 1089681" d="M215.234,233.661a2.684,2.684,0,1,0-2.684,2.684A2.687,2.687,0,0,0,215.234,233.661Zm-3.993,0a1.309,1.309,0,1,1,1.309,1.309A1.31,1.31,0,0,1,211.241,233.661Z" transform="translate(-190.626 -206.293)"/>
      <path id="Trazado_1089682" data-name="Trazado 1089682" d="M285.571,233.661a2.684,2.684,0,1,0-2.684,2.684A2.687,2.687,0,0,0,285.571,233.661Zm-3.993,0a1.309,1.309,0,1,1,1.309,1.309A1.31,1.31,0,0,1,281.578,233.661Z" transform="translate(-254.515 -206.293)"/>
      <path id="Trazado_1089683" data-name="Trazado 1089683" d="M40.234,3.863H14.866a6.712,6.712,0,0,0-6.7,6.7v1.085H6.7a6.712,6.712,0,0,0-6.7,6.7V35.4a6.711,6.711,0,0,0,6.7,6.7h7.167a.688.688,0,0,0,0-1.375H6.7A5.335,5.335,0,0,1,1.375,35.4V18.355A5.335,5.335,0,0,1,6.7,13.027H32.073A5.335,5.335,0,0,1,37.4,18.355V35.4a5.335,5.335,0,0,1-5.329,5.329,2.58,2.58,0,0,0-2.006.945,33.279,33.279,0,0,1-8.127,7,.236.236,0,0,1-.336-.31,26.279,26.279,0,0,0,1.987-5.546,1.7,1.7,0,0,0-1.66-2.088H17.08a.688.688,0,1,0,0,1.375h4.85a.327.327,0,0,1,.321.4,24.9,24.9,0,0,1-1.883,5.255,1.613,1.613,0,0,0,2.295,2.085,34.667,34.667,0,0,0,8.468-7.3,1.21,1.21,0,0,1,.942-.441,6.711,6.711,0,0,0,6.7-6.7V34.317h1.458a6.711,6.711,0,0,0,6.7-6.7V20.694a.688.688,0,1,0-1.375,0v6.919a5.335,5.335,0,0,1-5.329,5.329H38.776V18.355a6.711,6.711,0,0,0-6.7-6.7H9.537V10.567a5.335,5.335,0,0,1,5.329-5.329H40.234a5.335,5.335,0,0,1,5.329,5.329v6.919a.688.688,0,1,0,1.375,0V10.567a6.711,6.711,0,0,0-6.7-6.7Z"/>
    </g>
  </g>
</svg>
