<svg xmlns="http://www.w3.org/2000/svg" xmlns:xlink="http://www.w3.org/1999/xlink" width="108" height="108" viewBox="0 0 108 108">
  <defs>
    <filter id="Trazado_904820" x="0" y="0" width="108" height="108" filterUnits="userSpaceOnUse">
      <feOffset dy="3" input="SourceAlpha"/>
      <feGaussianBlur stdDeviation="3" result="blur"/>
      <feFlood flood-opacity="0.161"/>
      <feComposite operator="in" in2="blur"/>
      <feComposite in="SourceGraphic"/>
    </filter>
  </defs>
  <g id="Grupo_1219474" data-name="Grupo 1219474" transform="translate(-616 -2872)">
    <g id="Grupo_1218002" data-name="Grupo 1218002" transform="translate(411 2534.5)">
      <g id="Grupo_1211578" data-name="Grupo 1211578" transform="translate(8 -2328.555)">
        <g id="Grupo_1207774" data-name="Grupo 1207774" transform="translate(206 2670.713)">
          <g id="Grupo_1206630" data-name="Grupo 1206630" transform="translate(0 1.342)">
            <g id="Grupo_1185091" data-name="Grupo 1185091" transform="translate(0 0)">
              <g id="Grupo_1179560" data-name="Grupo 1179560">
                <g id="Grupo_1173787" data-name="Grupo 1173787" transform="translate(0)">
                  <g id="Grupo_1171910" data-name="Grupo 1171910">
                    <g id="Grupo_1167341" data-name="Grupo 1167341">
                      <g id="Grupo_1166792" data-name="Grupo 1166792">
                        <g transform="matrix(1, 0, 0, 1, -9, -6)" filter="url(#Trazado_904820)">
                          <g id="Trazado_904820-2" data-name="Trazado 904820" transform="translate(9 6)" fill="#e5f0f6">
                            <path d="M 44.99999618530273 88.50006866455078 C 39.12687301635742 88.50006866455078 33.43022155761719 87.35014343261719 28.06829643249512 85.08222961425781 C 22.88852119445801 82.89136505126953 18.23629570007324 79.75465393066406 14.24084663391113 75.75919342041016 C 10.24540901184082 71.76374053955078 7.108683586120605 67.11151885986328 4.917821407318115 61.93174362182617 C 2.649921178817749 56.56980514526367 1.499996185302734 50.87315368652344 1.499996185302734 45.00003051757812 C 1.499996185302734 39.12690734863281 2.649921178817749 33.43025588989258 4.917821407318115 28.06831741333008 C 7.108683586120605 22.88854217529297 10.24540901184082 18.23631858825684 14.24084663391113 14.24086761474609 C 18.23629570007324 10.24541759490967 22.88852119445801 7.10869312286377 28.06829643249512 4.917842864990234 C 33.43022155761719 2.649930477142334 39.12687301635742 1.500005483627319 44.99999618530273 1.500005483627319 C 50.87311935424805 1.500005483627319 56.56977081298828 2.649930477142334 61.93169784545898 4.917842864990234 C 67.11147308349609 7.10869312286377 71.76369476318359 10.24541759490967 75.75914764404297 14.24086761474609 C 79.75458526611328 18.23631858825684 82.89131164550781 22.88854217529297 85.08216857910156 28.06831741333008 C 87.35007476806641 33.43025588989258 88.5 39.12690734863281 88.5 45.00003051757812 C 88.5 50.87315368652344 87.35007476806641 56.56980514526367 85.08216857910156 61.93174362182617 C 82.89131164550781 67.11151885986328 79.75458526611328 71.76374053955078 75.75914764404297 75.75919342041016 C 71.76369476318359 79.75465393066406 67.11147308349609 82.89136505126953 61.93169784545898 85.08222961425781 C 56.56977081298828 87.35014343261719 50.87311935424805 88.50006866455078 44.99999618530273 88.50006866455078 Z" stroke="none"/>
                            <path d="M 44.99999618530273 3 C 39.32870864868164 3 33.82865142822266 4.110061645507812 28.65262603759766 6.299346923828125 C 23.65165710449219 8.414573669433594 19.15968322753906 11.44334411621094 15.301513671875 15.30152893066406 C 11.44333648681641 19.15969848632812 8.414566040039062 23.65167236328125 6.299339294433594 28.65264511108398 C 4.110054016113281 33.82868576049805 2.999992370605469 39.32874298095703 2.999992370605469 45.00003051757812 C 2.999992370605469 50.67131805419922 4.110054016113281 56.1713752746582 6.299339294433594 61.34741592407227 C 8.414566040039062 66.348388671875 11.44333648681641 70.84036254882812 15.301513671875 74.69853210449219 C 19.15968322753906 78.55671691894531 23.65165710449219 81.58548736572266 28.65262603759766 83.70071411132812 C 33.82865142822266 85.88999938964844 39.32870864868164 87.00006103515625 44.99999618530273 87.00006103515625 C 50.67128372192383 87.00006103515625 56.17134094238281 85.88999938964844 61.34736633300781 83.70071411132812 C 66.34834289550781 81.58548736572266 70.84030914306641 78.55671691894531 74.69847869873047 74.69853210449219 C 78.55665588378906 70.84036254882812 81.58542633056641 66.348388671875 83.70065307617188 61.34741592407227 C 85.88993835449219 56.1713752746582 87 50.67131805419922 87 45.00003051757812 C 87 39.32874298095703 85.88993835449219 33.82868576049805 83.70065307617188 28.65264511108398 C 81.58542633056641 23.65167236328125 78.55665588378906 19.15969848632812 74.69847869873047 15.30152893066406 C 70.84030914306641 11.44334411621094 66.34834289550781 8.414573669433594 61.34736633300781 6.299346923828125 C 56.17134094238281 4.110061645507812 50.67128372192383 3 44.99999618530273 3 M 44.99999618530273 0 C 69.85281372070312 0 90 20.14720153808594 90 45.00003051757812 C 90 69.85285949707031 69.85281372070312 90.00006103515625 44.99999618530273 90.00006103515625 C 20.14717864990234 90.00006103515625 -7.62939453125e-06 69.85285949707031 -7.62939453125e-06 45.00003051757812 C -7.62939453125e-06 20.14720153808594 20.14717864990234 0 44.99999618530273 0 Z" stroke="none" fill="#1172b3"/>
                          </g>
                        </g>
                      </g>
                    </g>
                  </g>
                </g>
              </g>
            </g>
          </g>
        </g>
      </g>
    </g>
    <g id="politica_2_" data-name="politica (2)" transform="translate(633 2896.313)">
      <ellipse id="Elipse_12026" data-name="Elipse 12026" cx="9.686" cy="10.224" rx="9.686" ry="10.224" transform="translate(42.725 50.457)" fill="#a7dbfc"/>
      <g id="Grupo_1219473" data-name="Grupo 1219473" transform="translate(43.717 2.159)">
        <path id="Trazado_1090900" data-name="Trazado 1090900" d="M53.794,2l1.79,3.815,4,.612L56.691,9.4l.684,4.193-3.581-1.979-3.581,1.979L50.9,9.4,48,6.427l4-.612Z" transform="translate(-36.412 -2)" fill="#ff8088"/>
        <path id="Trazado_1090901" data-name="Trazado 1090901" d="M43.794,14l1.79,3.815,4,.612-2.9,2.969.684,4.193-3.581-1.979-3.581,1.979L40.9,21.4,38,18.427l4-.612Z" transform="translate(-38 -0.094)" fill="#ff8088"/>
        <path id="Trazado_1090902" data-name="Trazado 1090902" d="M56.794,27l1.79,3.815,4,.612-2.9,2.969.684,4.193-3.581-1.979-3.581,1.979L53.9,34.4,51,31.427l4-.612Z" transform="translate(-35.936 1.97)" fill="#ff8088"/>
      </g>
      <path id="Trazado_1090903" data-name="Trazado 1090903" d="M22.6,5.318H18.318A2.317,2.317,0,0,0,16,7.635v3.476a2.317,2.317,0,0,0,2.318,2.318H22.6a16.225,16.225,0,0,1,7.255,1.713l1.21.6V3l-1.21.6A16.225,16.225,0,0,1,22.6,5.318Z" transform="translate(2.223 0.318)" fill="#eaeaea"/>
      <path id="Trazado_1090904" data-name="Trazado 1090904" d="M20.635,5H18.318A2.317,2.317,0,0,0,16,7.318v3.476a2.317,2.317,0,0,0,2.318,2.318h2.318Z" transform="translate(2.223 0.635)" fill="#ff8088"/>
      <path id="Trazado_1090905" data-name="Trazado 1090905" d="M8,28H31.176V67.4H8Z" transform="translate(0.953 4.288)" fill="#a8a8a8"/>
      <path id="Trazado_1090906" data-name="Trazado 1090906" d="M22.588,22H15.635A4.635,4.635,0,0,0,11,26.635v2.318H27.223V26.635A4.635,4.635,0,0,0,22.588,22Z" transform="translate(1.429 3.335)" fill="#dbdbdb"/>
      <path id="Trazado_1090907" data-name="Trazado 1090907" d="M14.588,62.953V60.635A4.635,4.635,0,0,0,9.953,56H7.635A4.635,4.635,0,0,0,3,60.635v2.318" transform="translate(0.159 8.734)" fill="#eaeaea"/>
      <path id="Trazado_1090908" data-name="Trazado 1090908" d="M24.588,62.953V60.635A4.635,4.635,0,0,0,19.953,56H17.635A4.635,4.635,0,0,0,13,60.635v2.318" transform="translate(1.747 8.734)" fill="#dbdbdb"/>
      <path id="Trazado_1090909" data-name="Trazado 1090909" d="M34.588,62.953V60.635A4.635,4.635,0,0,0,29.953,56H27.635A4.635,4.635,0,0,0,23,60.635v2.318" transform="translate(3.335 8.734)" fill="#eaeaea"/>
      <circle id="Elipse_12027" data-name="Elipse 12027" cx="3.229" cy="3.229" r="3.229" transform="translate(6.134 57.99)" fill="#ffd6a8"/>
      <ellipse id="Elipse_12028" data-name="Elipse 12028" cx="2.69" cy="3.229" rx="2.69" ry="3.229" transform="translate(17.972 57.99)" fill="#ffd6a8"/>
      <circle id="Elipse_12029" data-name="Elipse 12029" cx="3.229" cy="3.229" r="3.229" transform="translate(28.734 57.99)" fill="#ffd6a8"/>
      <path id="Trazado_1090910" data-name="Trazado 1090910" d="M4.318,69.21a3.481,3.481,0,0,1,3.476-3.476h2.318a3.481,3.481,0,0,1,3.476,3.476v2.318h2.318V69.21a3.481,3.481,0,0,1,3.476-3.476H21.7a3.481,3.481,0,0,1,3.476,3.476v2.318h2.318V69.21a3.481,3.481,0,0,1,3.476-3.476h2.318a3.481,3.481,0,0,1,3.476,3.476v2.318h2.318V69.21a5.788,5.788,0,0,0-3.348-5.233,4.589,4.589,0,0,0-2.446-7.349v-24.5a1.158,1.158,0,0,0-1.159-1.159H29.811V29.811a5.8,5.8,0,0,0-5.794-5.794H21.7v-9.27h3.123a15.143,15.143,0,0,1,6.736,1.59l1.21.6a1.159,1.159,0,0,0,1.678-1.036V3.159a1.16,1.16,0,0,0-1.678-1.037l-1.209.6a15.141,15.141,0,0,1-6.737,1.591H20.541a3.481,3.481,0,0,0-3.476,3.476v3.476a3.472,3.472,0,0,0,2.318,3.263v9.484H17.064a5.8,5.8,0,0,0-5.794,5.794V30.97H8.953a1.158,1.158,0,0,0-1.159,1.159v24.5a4.589,4.589,0,0,0-2.446,7.349A5.788,5.788,0,0,0,2,69.21v2.318H4.318Zm16.223-5.794A2.318,2.318,0,1,1,22.858,61.1,2.32,2.32,0,0,1,20.541,63.416ZM34.446,61.1a2.318,2.318,0,1,1-2.318-2.318A2.32,2.32,0,0,1,34.446,61.1ZM24.017,6.635h.805a17.487,17.487,0,0,0,7.306-1.61v9.012a17.5,17.5,0,0,0-7.306-1.608h-.805ZM19.382,7.794a1.16,1.16,0,0,1,1.159-1.159H21.7v5.794H20.541a1.16,1.16,0,0,1-1.159-1.159ZM13.588,29.811a3.481,3.481,0,0,1,3.476-3.476h6.953a3.481,3.481,0,0,1,3.476,3.476V30.97H13.588Zm-3.476,3.476H30.97V56.628a4.589,4.589,0,0,0-2.446,7.349,5.8,5.8,0,0,0-2.189,1.793,5.812,5.812,0,0,0-2.189-1.793,4.635,4.635,0,1,0-7.21,0,5.8,5.8,0,0,0-2.189,1.793,5.812,5.812,0,0,0-2.189-1.793,4.589,4.589,0,0,0-2.446-7.349ZM8.953,58.781A2.318,2.318,0,1,1,6.635,61.1,2.32,2.32,0,0,1,8.953,58.781Z" transform="translate(0 0.159)"/>
      <path id="Trazado_1090911" data-name="Trazado 1090911" d="M12,32H25.906v2.318H12Z" transform="translate(1.588 4.923)"/>
      <path id="Trazado_1090912" data-name="Trazado 1090912" d="M12,38H25.906v2.318H12Z" transform="translate(1.588 5.876)"/>
      <path id="Trazado_1090913" data-name="Trazado 1090913" d="M12,44H25.906v2.318H12Z" transform="translate(1.588 6.828)"/>
      <path id="Trazado_1090914" data-name="Trazado 1090914" d="M33,8h4.635v2.318H33Z" transform="translate(4.923 1.112)"/>
      <path id="Trazado_1090915" data-name="Trazado 1090915" d="M0,0H4.778V2.316H0Z" transform="translate(36.48 4.503) rotate(-14.064)"/>
      <path id="Trazado_1090916" data-name="Trazado 1090916" d="M0,0H2.316V4.778H0Z" transform="translate(36.49 16.036) rotate(-75.936)"/>
      <path id="Trazado_1090917" data-name="Trazado 1090917" d="M47.009,65.017A11.009,11.009,0,1,0,36,54.009,11.022,11.022,0,0,0,47.009,65.017Zm0-19.7a8.691,8.691,0,1,1-8.691,8.691A8.7,8.7,0,0,1,47.009,45.318Z" transform="translate(5.399 6.67)"/>
      <path id="Trazado_1090918" data-name="Trazado 1090918" d="M44.589,58.374h.045a1.159,1.159,0,0,0,.835-.4l6.953-8.112-1.76-1.508L44.524,55.51l-2.591-2.591-1.639,1.639,3.476,3.476a1.153,1.153,0,0,0,.818.34Z" transform="translate(6.081 7.519)"/>
      <path id="Trazado_1090919" data-name="Trazado 1090919" d="M59.922,5.439,56.53,4.921,55,1.666a1.159,1.159,0,0,0-2.1,0L51.377,4.921l-3.392.518a1.159,1.159,0,0,0-.655,1.955l2.488,2.551-.59,3.615a1.159,1.159,0,0,0,1.7,1.2l3.02-1.67,3.02,1.669a1.159,1.159,0,0,0,1.7-1.2l-.59-3.615,2.488-2.551a1.158,1.158,0,0,0-.654-1.954Zm-3.9,3.306a1.158,1.158,0,0,0-.314,1l.3,1.838-1.493-.825a1.158,1.158,0,0,0-1.122,0l-1.493.825.3-1.838a1.157,1.157,0,0,0-.314-1L50.563,7.391l1.774-.271a1.157,1.157,0,0,0,.874-.652l.742-1.581.742,1.579a1.156,1.156,0,0,0,.874.652l1.774.271Z" transform="translate(7.146 0)"/>
      <path id="Trazado_1090920" data-name="Trazado 1090920" d="M45,13.666a1.158,1.158,0,0,0-2.1,0l-1.527,3.255-3.392.518a1.159,1.159,0,0,0-.655,1.955l2.488,2.551-.59,3.615a1.159,1.159,0,0,0,1.7,1.2l3.02-1.67,3.02,1.669a1.159,1.159,0,0,0,1.7-1.2l-.59-3.615,2.488-2.551a1.159,1.159,0,0,0-.655-1.955l-3.392-.518Zm1.019,7.079a1.158,1.158,0,0,0-.314,1l.3,1.838-1.493-.825a1.158,1.158,0,0,0-1.122,0l-1.493.825.3-1.838a1.157,1.157,0,0,0-.314-1l-1.322-1.355,1.774-.271a1.157,1.157,0,0,0,.874-.652l.742-1.581.742,1.579a1.156,1.156,0,0,0,.874.652l1.774.271Z" transform="translate(5.558 1.906)"/>
      <path id="Trazado_1090921" data-name="Trazado 1090921" d="M63.845,31.217a1.161,1.161,0,0,0-.924-.778l-3.392-.518L58,26.666a1.159,1.159,0,0,0-2.1,0l-1.527,3.255-3.392.518a1.159,1.159,0,0,0-.655,1.955l2.488,2.551-.59,3.615a1.159,1.159,0,0,0,1.7,1.2l3.02-1.67,3.02,1.669a1.159,1.159,0,0,0,1.7-1.2l-.59-3.615,2.488-2.551A1.154,1.154,0,0,0,63.845,31.217ZM59.02,33.745a1.158,1.158,0,0,0-.314,1l.3,1.838-1.493-.825a1.158,1.158,0,0,0-1.122,0l-1.493.825.3-1.838a1.157,1.157,0,0,0-.314-1l-1.322-1.355,1.774-.271a1.157,1.157,0,0,0,.874-.652l.742-1.581.742,1.579a1.156,1.156,0,0,0,.874.652l1.774.271Z" transform="translate(7.623 3.97)"/>
    </g>
  </g>
</svg>
