<svg xmlns="http://www.w3.org/2000/svg" xmlns:xlink="http://www.w3.org/1999/xlink" width="93.934" height="93.934" viewBox="0 0 93.934 93.934">
  <defs>
    <filter id="Trazado_982547" x="0" y="0" width="93.934" height="93.934" filterUnits="userSpaceOnUse">
      <feOffset dy="3" input="SourceAlpha"/>
      <feGaussianBlur stdDeviation="3" result="blur"/>
      <feFlood flood-opacity="0.161"/>
      <feComposite operator="in" in2="blur"/>
      <feComposite in="SourceGraphic"/>
    </filter>
  </defs>
  <g id="Grupo_1219314" data-name="Grupo 1219314" transform="translate(-1031.066 -1818)">
    <g id="Grupo_1218828" data-name="Grupo 1218828" transform="translate(0 -5419.035)">
      <g id="Grupo_1216282" data-name="Grupo 1216282" transform="translate(0 6194.186)">
        <g id="Grupo_1215983" data-name="Grupo 1215983" transform="translate(-0.229 -2679.151)">
          <g id="Grupo_1214661" data-name="Grupo 1214661" transform="translate(0 -1406)">
            <g id="Grupo_1214434" data-name="Grupo 1214434" transform="translate(-0.771 -2738.522)">
              <g id="Grupo_1183184" data-name="Grupo 1183184" transform="translate(1 1016.523)">
                <g id="Grupo_1179612" data-name="Grupo 1179612" transform="translate(848 4723.467)">
                  <g id="Grupo_1175227" data-name="Grupo 1175227" transform="translate(-5.967 140.533)">
                    <g id="Grupo_1167337" data-name="Grupo 1167337" transform="translate(198.033 1992)">
                      <g id="Grupo_1166720" data-name="Grupo 1166720">
                        <g id="Grupo_1164305" data-name="Grupo 1164305">
                          <g id="Grupo_1163948" data-name="Grupo 1163948">
                            <g id="Grupo_1158168" data-name="Grupo 1158168">
                              <g id="Grupo_1152576" data-name="Grupo 1152576">
                                <g id="Grupo_1148633" data-name="Grupo 1148633">
                                  <g id="Grupo_1148525" data-name="Grupo 1148525">
                                    <g transform="matrix(1, 0, 0, 1, -9, -6)" filter="url(#Trazado_982547)">
                                      <g id="Trazado_982547-2" data-name="Trazado 982547" transform="translate(9 6)" fill="#f7f4ed">
                                        <path d="M 37.966796875 74.43359375 C 33.04315185546875 74.43359375 28.26757431030273 73.46962738037109 23.77274131774902 71.56847381591797 C 19.43047523498535 69.73184967041016 15.53040790557861 67.10224914550781 12.18087482452393 63.75271987915039 C 8.831341743469238 60.4031867980957 6.201741218566895 56.50312042236328 4.365118980407715 52.16086196899414 C 2.463963508605957 47.66601943969727 1.499996900558472 42.89044189453125 1.499996900558472 37.966796875 C 1.499996900558472 33.04315185546875 2.463963508605957 28.26757431030273 4.365118980407715 23.77274131774902 C 6.201741218566895 19.43047523498535 8.831341743469238 15.53040790557861 12.18087482452393 12.18087482452393 C 15.53040790557861 8.831341743469238 19.43047523498535 6.201741218566895 23.77274131774902 4.365118980407715 C 28.26757431030273 2.463963508605957 33.04315185546875 1.499996900558472 37.966796875 1.499996900558472 C 42.89044189453125 1.499996900558472 47.66601943969727 2.463963508605957 52.16086196899414 4.365118980407715 C 56.50312042236328 6.201741218566895 60.4031867980957 8.831341743469238 63.75271987915039 12.18087482452393 C 67.10224914550781 15.53040790557861 69.73184967041016 19.43047523498535 71.56847381591797 23.77274131774902 C 73.46962738037109 28.26757431030273 74.43359375 33.04315185546875 74.43359375 37.966796875 C 74.43359375 42.89044189453125 73.46962738037109 47.66601943969727 71.56847381591797 52.16086196899414 C 69.73184967041016 56.50313186645508 67.10224914550781 60.4031867980957 63.75271987915039 63.75271987915039 C 60.4031867980957 67.10224914550781 56.50313186645508 69.73184967041016 52.16086196899414 71.56847381591797 C 47.66601943969727 73.46962738037109 42.89044189453125 74.43359375 37.966796875 74.43359375 Z" stroke="none"/>
                                        <path d="M 37.966796875 3 C 33.2449836730957 3 28.66600799560547 3.924095153808594 24.35705947875977 5.746635437011719 C 20.19359588623047 7.507637023925781 16.45379638671875 10.02928161621094 13.24153518676758 13.24153518676758 C 10.02927398681641 16.45379638671875 7.507621765136719 20.19359588623047 5.746635437011719 24.35705947875977 C 3.924095153808594 28.66600799560547 3 33.2449836730957 3 37.966796875 C 3 42.6886100769043 3.924095153808594 47.26758575439453 5.746635437011719 51.57653427124023 C 7.507621765136719 55.73999786376953 10.02927398681641 59.47979736328125 13.24153518676758 62.69205856323242 C 16.45379638671875 65.90431976318359 20.19359588623047 68.42597198486328 24.35705947875977 70.18695831298828 C 28.66600799560547 72.00949859619141 33.2449836730957 72.93359375 37.966796875 72.93359375 C 42.6886100769043 72.93359375 47.26758575439453 72.00949859619141 51.57653427124023 70.18695831298828 C 55.73999786376953 68.42597198486328 59.47979736328125 65.90431976318359 62.69205856323242 62.69205856323242 C 65.90431976318359 59.47979736328125 68.42597198486328 55.73999786376953 70.18695831298828 51.57653427124023 C 72.00949859619141 47.26758575439453 72.93359375 42.6886100769043 72.93359375 37.966796875 C 72.93359375 33.2449836730957 72.00949859619141 28.66600799560547 70.18695831298828 24.35705947875977 C 68.42597198486328 20.19359588623047 65.90431976318359 16.45379638671875 62.69205856323242 13.24153518676758 C 59.47979736328125 10.02928161621094 55.73999786376953 7.507637023925781 51.57653427124023 5.746635437011719 C 47.26758575439453 3.924095153808594 42.6886100769043 3 37.966796875 3 M 37.966796875 0 C 58.93528366088867 0 75.93359375 16.99832153320312 75.93359375 37.966796875 C 75.93359375 58.93528366088867 58.93528366088867 75.93359375 37.966796875 75.93359375 C 16.99831008911133 75.93359375 0 58.93528366088867 0 37.966796875 C 0 16.99832153320312 16.99831008911133 0 37.966796875 0 Z" stroke="none" fill="#847625"/>
                                      </g>
                                    </g>
                                  </g>
                                </g>
                              </g>
                            </g>
                          </g>
                        </g>
                      </g>
                    </g>
                  </g>
                </g>
              </g>
            </g>
          </g>
        </g>
      </g>
    </g>
    <g id="conversacion" transform="translate(1052.699 1836.122)">
      <path id="Trazado_1089684" data-name="Trazado 1089684" d="M37.313,184H15.938A5.938,5.938,0,0,0,10,189.938v15.24a5.938,5.938,0,0,0,5.938,5.938h6.43l-.089.008,4.347,4.347,0-4.354H37.313a5.938,5.938,0,0,0,5.938-5.938v-15.24A5.938,5.938,0,0,0,37.313,184Z" transform="translate(-9.01 -165.791)" fill="#c7eaff"/>
      <path id="Trazado_1089685" data-name="Trazado 1089685" d="M17.615,207.449a.989.989,0,0,1-.7-.29l-4.064-4.064H6.927A6.935,6.935,0,0,1,0,196.167v-15.24A6.935,6.935,0,0,1,6.927,174h9.995a.99.99,0,1,1,0,1.979H6.927a4.954,4.954,0,0,0-4.948,4.948v15.24a4.954,4.954,0,0,0,4.948,4.948h6.43a.99.99,0,0,1,.908.595l2.362,2.362V202.1a.99.99,0,0,1,.99-.989H28.3a4.954,4.954,0,0,0,4.948-4.948v-6.828a.99.99,0,1,1,1.979,0v6.828a6.935,6.935,0,0,1-6.927,6.927h-9.7l0,3.365a.99.99,0,0,1-.989.989Z" transform="translate(0 -156.781)"/>
      <path id="Trazado_1089686" data-name="Trazado 1089686" d="M221.9,10h-2.5A13.394,13.394,0,0,0,206,23.394h0a13.394,13.394,0,0,0,13.394,13.394h2.5a13.391,13.391,0,0,0,3.939-.589l4.111,4.108V34.1a13.373,13.373,0,0,0,5.344-10.705h0A13.394,13.394,0,0,0,221.9,10Z" transform="translate(-185.614 -9.01)" fill="#ffbc53"/>
      <path id="Trazado_1089687" data-name="Trazado 1089687" d="M220.938,32.286a.99.99,0,0,1-.7-.29l-3.7-3.7a14.411,14.411,0,0,1-3.651.468h-2.5a14.383,14.383,0,0,1,0-28.767h2.5a14.4,14.4,0,0,1,14.383,14.383,14.228,14.228,0,0,1-1.563,6.527,14.521,14.521,0,0,1-3.781,4.661V31.3a.99.99,0,0,1-.989.99ZM216.827,26.2a.99.99,0,0,1,.7.29l2.422,2.42v-3.82a.99.99,0,0,1,.394-.79,12.4,12.4,0,0,0-7.454-22.319h-2.5a12.4,12.4,0,1,0,0,24.809h2.5a12.408,12.408,0,0,0,3.648-.545A.989.989,0,0,1,216.827,26.2Z" transform="translate(-176.604)"/>
      <path id="Trazado_1089688" data-name="Trazado 1089688" d="M318.652,81.613a.99.99,0,0,1-.99-.99V78.246a1.873,1.873,0,0,1,1.475-1.836,2.211,2.211,0,1,0-2.7-2.157.99.99,0,0,1-1.979,0,4.2,4.2,0,0,1,1.331-3.063,4.19,4.19,0,1,1,3.848,7.135v2.3A.989.989,0,0,1,318.652,81.613Z" transform="translate(-283.343 -63.13)"/>
      <path id="Trazado_1089689" data-name="Trazado 1089689" d="M347.79,208.309a.988.988,0,1,1,.7-.289A1,1,0,0,1,347.79,208.309Z" transform="translate(-312.481 -185.912)"/>
      <path id="Trazado_1089690" data-name="Trazado 1089690" d="M75.87,311.979H54.99a.99.99,0,1,1,0-1.979H75.87a.99.99,0,1,1,0,1.979Z" transform="translate(-48.656 -279.322)"/>
      <path id="Trazado_1089691" data-name="Trazado 1089691" d="M265.99,367.979a.99.99,0,1,1,.7-.29A1,1,0,0,1,265.99,367.979Z" transform="translate(-238.776 -329.781)"/>
      <path id="Trazado_1089692" data-name="Trazado 1089692" d="M71.978,367.979H54.99a.99.99,0,1,1,0-1.979H71.978a.99.99,0,1,1,0,1.979Z" transform="translate(-48.656 -329.781)"/>
      <path id="Trazado_1089693" data-name="Trazado 1089693" d="M69.438,255.979H54.99a.99.99,0,1,1,0-1.979H69.438a.99.99,0,1,1,0,1.979Z" transform="translate(-48.656 -228.864)"/>
    </g>
  </g>
</svg>
